<svg width="53" height="47" fill="none" xmlns="http://www.w3.org/2000/svg"><g clip-path="url(#a)"><path d="M18.5 19.5c-1.2 0-2.5 3.333-3 5 .5.5 1.6 1.5 2 1.5.4 0 1.5-.667 2-1l1 2v4L19 36l1 1 .5 2 1.5-1 1 4c-1.167.333-3.6 1.1-4 1.5-.4.4.167.833.5 1l4-.5-.5 1c-.5.333-1.4 1.1-1 1.5.4.4 6.167-.5 9-1V43c0-.8 1-1.333 1.5-1.5H34c.5 0 2 .5 3-1 .8-1.2-.333-3.5-1-4.5h-1c-.333 1.167-1 2.6-1-1s-4.333-6.5-6.5-7.5c-1.333-1-3.9-3.1-3.5-3.5.4-.4-.167-2.833-.5-4 1.333-1.167 4.1-4 4.5-6 .4-2-.833-1.833-1.5-1.5l-5 7-1-.5c.333-2 1-6.3 1-7.5 0-1.5-2-1-2 .5 0 1.2-.667 5.5-1 7.5Z" fill="#fff"/><path d="M23.187 40.366c.079.483.302.936.284 1.436-.023.204.168.403.057.6-.106.041-.21.073-.316.102-.48.4-1.076.769-1.725.715-.447.003-.903-.158-1.336 0-.377.13-.839.211-1.041.596.663.202 1.32-.07 1.976-.18.909.314 1.906-.215 2.778.217.578-.082 1.147-.258 1.738-.166-.658-.819-1.275-1.721-1.475-2.77-.313-.184-.615-.39-.94-.55Zm12.167-4.361c-.132.26-.285.51-.416.773-.18.372-.158.795-.2 1.197-.044.63-.231 1.24-.456 1.825-.155.382-.526.658-.562 1.093.574.325 1.25.26 1.884.23.155.002.28-.1.404-.18a3.54 3.54 0 0 0-.37-.018c-.034.048-.102.141-.135.19-.185-.006-.367-.005-.545-.023-.14-.111-.216-.271-.09-.416.21-.147.482-.096.726-.125.3.008.493-.27.688-.456.137-.129.097-.338.14-.494-.36.177-.712.55-1.14.436-.264-.11-.138-.474.1-.526.476-.18.958-.42 1.22-.882-.244.127-.505.292-.792.225-.236-.02-.267-.334-.111-.461.24-.2.504-.372.793-.495-.041-.181.052-.43-.161-.51-.128.104-.23.225-.348.34-.159.077-.403-.002-.425-.191-.064-.335.278-.528.496-.7.157.118.29.27.24.492.072-.175.026-.36-.012-.53-.122-.065-.202-.163-.294-.243-.026.069-.08.205-.106.276-.174.01-.403.014-.427-.203.04-.228.216-.53-.101-.624Zm-14.235-5.687c.01.543.035 1.087-.028 1.63-.12.38-.279.754-.45 1.118-.19 1.017-.557 1.992-.726 3.015-.017.204-.039.401-.041.612.271-1.039.858-1.979 1.584-2.761.005-.594-.116-1.182-.092-1.77.02-.625-.031-1.256-.247-1.844Zm5.761-18.036c-1.086 1.539-2.07 3.146-3.177 4.67-.283.433-.65.8-1.03 1.147-.31.278-.686.484-.943.818-.29.386-.615.752-.88 1.157-.147.015-.295.01-.436-.013-.102-.31.04-.6.22-.841-.569-.01-1.12.198-1.538.58-.438.267-.665.927-1.272.803-.28.378-.54.775-.773 1.187-.367.595-.579 1.27-.924 1.883.19-.007.412-.039.565.117.302.439.395 1.036.178 1.53.042.242.397.148.582.165.53.021.943-.359 1.439-.483.37-.133.87-.274 1.181.058.394.84.902 1.638 1.124 2.549.087.332-.034.685.079 1.017.113.33.155.694.35.997.18.258.21.582.294.883.18.758.55 1.47.57 2.259.185-.128.431-.266.469-.504-.01-.575.01-1.155-.174-1.703-.082-.567-.206-1.164-.058-1.728.056 0 .17-.002.225-.005.216.466.265.984.376 1.481.115.59.25 1.175.303 1.774.158.033.394.053.386.282.008.166-.177.207-.288.277-.261.623-.786 1.072-1.168 1.62-.717.847-1.32 1.8-1.696 2.849a8.307 8.307 0 0 0-.266 1.558c.46-.577.82-1.214 1.184-1.852.528-1.02 1.498-1.687 2.244-2.533.237-.284.584-.462.957-.436.03-.621-.007-1.245.081-1.86.023.005.067.016.088.023-.057-.646.107-1.275.123-1.915-.015-.4.404-.75.781-.53.428.29.278.895.202 1.329 0 .768-.12 1.529-.127 2.302.052.372-.32.58-.407.913-.32.231-.62.498-.83.837-.466.68-.946 1.354-1.336 2.087-.131.198 0 .433.069.633.159.371.264.774.477 1.126 0-.486.1-.957.23-1.421.16-.51.526-.92.896-1.296.238-.221.506-.436.829-.51 1.101-.342 2.336-.32 3.401.14.204.08.135.331.148.507-.273.102-.564.15-.848.119-.734-.072-1.492-.062-2.195.173a1.952 1.952 0 0 0-1.28 1.544c-.207 1.299-.153 2.728.582 3.868.367.566.716 1.19 1.303 1.564.269.192.534.415.698.71.03.3-.287.42-.525.471-.108.111-.196.264-.361.294-.18-.01-.224-.183-.29-.304-1.137-.068-2.268.222-3.332.6-.397.117-.673.481-.622.902.69.003 1.384-.09 2.049-.269 1.133-.127 2.217-.484 3.307-.805.625-.208 1.296-.164 1.944-.14.105-.09.212-.183.325-.268.005-.368-.035-.732-.033-1.095.042-.304.197-.573.34-.84.29-.53.97-.555 1.405-.915.213-.129.268-.386.368-.594 1.088-1.96 1.22-4.304.936-6.488-.064-.647-.348-1.242-.647-1.81-.233-.437-.45-.895-.805-1.245-.613-.716-1.405-1.233-2.125-1.825-.795-.508-1.418-1.226-2.186-1.765-.658-.538-1.105-1.268-1.653-1.906-.467-.536-1.176-.787-1.613-1.344-.155-.204-.195-.46-.254-.693-.216-.667-.337-1.356-.422-2.046-.131-.456-.228-.925-.447-1.348-.225.145-.427.351-.69.42-.423.056-.746-.473-.513-.822.436-.552 1.015-.975 1.648-1.276.84-.367 1.558-.974 2.15-1.668a7.809 7.809 0 0 0 1.393-2.116c.195-.595.401-1.187.616-1.776a3.274 3.274 0 0 1 0-.363c-.1-.292-.195-.598-.39-.84-.145-.168-.42-.226-.56-.032Zm-6.598-1.148c-.202.88-.182 1.796-.3 2.694-.051.47-.2.933-.202 1.414-.021.64-.212 1.259-.36 1.879-.132.421-.077.89-.27 1.296.088-.014.18-.02.28-.02.173-.127.38-.155.592-.177.093-.66.42-1.25.59-1.886.324-.657.536-1.374.534-2.108.014-1.095.171-2.24-.247-3.28-.136-.288-.565-.068-.617.188Zm-.855-.037c.084-.612.677-1.008 1.248-1.09.477-.056.927.263 1.103.7.336.888.426 1.847.432 2.791-.018.45.105.898.014 1.35-.105 1.273-.736 2.411-1.118 3.61.784-.756 1.594-1.513 2.176-2.446.653-.793 1.086-1.73 1.666-2.567.466-.587.807-1.265 1.316-1.816.627-.547 1.65-.259 2.058.42.346.621.512 1.377.29 2.07-.245.703-.462 1.422-.857 2.06-.456 1.017-1.205 1.851-1.97 2.649-.614.473-1.16 1.053-1.882 1.367.012.313.361.464.413.771.095.343.235.674.366 1.008.094.637-.1 1.322.184 1.93.44.282.945.469 1.342.82.492.45.97.934 1.266 1.54.26.542.646 1.009 1.018 1.48.886.717 1.859 1.317 2.844 1.89.799.453 1.514 1.079 2.022 1.85.706 1.137 1.349 2.389 1.36 3.757.236-.132.477-.315.768-.29.42.029.78.29 1.09.558.387.348.772.739.948 1.242.46 1.236.382 2.598.09 3.866-.22.536-.394 1.133-.855 1.52-.519.368-1.179.41-1.79.434-.478-.002-.991.03-1.414-.22-.179-.087-.432-.326-.587-.084-.332.443-.893.57-1.334.86-.324.298-.396.771-.325 1.192.202.268.39.64.2.972-.14.217-.314.492-.602.498-.348.001-.675.146-1.02.144-.693.01-1.387.032-2.073.128-.595.07-1.14.341-1.696.541-.512.206-1.094.155-1.59.413-.562.278-1.201.135-1.8.218-.412.048-.888-.145-1.027-.555-.194-.39.103-.752.155-1.128.036-.278.167-.528.286-.774-.352-.009-.706-.11-1.051-.029-.821.28-1.75.193-2.552-.108-.652-.364-.468-1.264-.057-1.738.344-.344.8-.568 1.277-.663.641-.196 1.315-.08 1.975-.116.24-.061.433-.241.642-.37 0-.798-.33-1.549-.368-2.345-.13-.355-.11-.735-.041-1.102-.24.327-.436.688-.696.998-.255.263-.64.46-1.01.36-.36-.085-.542-.442-.642-.76-.09-.266-.003-.56-.093-.814-.17-.155-.387-.259-.504-.453-.076-.17-.091-.35-.123-.52a2.684 2.684 0 0 1 .001-1.209c.134-1.215.49-2.393.923-3.529.112-.385.379-.728.359-1.14.024-.87.034-1.738.009-2.607-.012-.477.065-.993-.217-1.405-.287-.453-.446-.993-.762-1.416-.514.098-.93.479-1.465.504-.42.034-.89.093-1.26-.141-.413-.316-.821-.637-1.179-1.012-.17-.184-.364-.404-.293-.674.132-.65.453-1.243.676-1.865.184-.62.512-1.181.805-1.752.41-.748 1.027-1.357 1.715-1.85.296-1.11.356-2.266.696-3.362.024-.83.172-1.641.305-2.453-.004-.71.095-1.415.215-2.108" fill="#0A0A0B"/><path d="M19.12 21.17c.438-.252 1.082.204.975.697-.048.45-.63.614-.984.432-.332-.286-.316-.851.01-1.129ZM29.647 31.12c-.005-.22.195-.186.344-.205.008.078.024.23.03.307-.054.199-.406.105-.374-.101M31.987 34.997c.067 0 .198-.004.265-.004.021.121.145.397-.088.392-.26.033-.263-.226-.177-.388ZM26.078 35.177c.129.065.122.135-.018.21-.133-.075-.128-.146.018-.21ZM31.986 36.847c.149-.132.317.145.158.246-.157.112-.324-.155-.158-.246ZM31.583 38.323c.195-.172.563.004.547.271.049.327-.436.508-.638.27-.165-.158-.096-.44.09-.54M28.558 39.853c.224-.158.58.008.568.3.038.324-.447.521-.64.256-.186-.166-.054-.406.072-.556ZM31.068 39.89c.194-.13.512-.008.497.252.044.235-.246.403-.44.3-.22-.077-.249-.443-.057-.552M30.124 40.905c.495-.285 1.124.63.682.998-.542.343-1.159-.634-.682-.998ZM27.587 41.492c.003-.164.205-.325.357-.202.018.088.04.184.059.283-.147-.014-.299.01-.416-.081ZM28.782 41.935c.194-.153.529-.088.626.155.093.216.095.479.034.712-.165.344-.748.25-.835-.11-.03-.258-.078-.587.175-.757ZM24.06 42.906c.19 0 .515-.036.518.248.046.253-.262.336-.453.261-.205-.097-.075-.348-.065-.509ZM22.662 43.075c.093-.149.374-.002.254.16-.104.14-.385-.008-.254-.16Z" fill="#0A0A0B"/></g><defs><clipPath id="a"><path fill="#fff" d="M0 0h53v47H0z"/></clipPath></defs></svg>