<svg width="288" height="288" viewBox="0 0 288 288" fill="none" xmlns="http://www.w3.org/2000/svg">
<path d="M141.948 263.884C142.128 263.91 142.489 263.951 142.669 263.964C142.665 262.723 142.694 261.479 142.677 260.252C141.407 261.06 141.894 262.632 141.948 263.884ZM142.648 256.827C142.346 257.254 141.96 257.632 141.625 258.038C141.361 258.595 141.563 259.258 141.563 259.882C141.927 259.728 142.283 259.564 142.677 259.446C142.727 258.57 142.711 257.687 142.648 256.827ZM140.703 252.18C140.82 253.81 141.143 255.411 141.277 257.05C141.705 256.5 142.183 255.994 142.715 255.554C142.723 254.694 142.702 253.848 142.652 253.013C142.166 253.383 141.956 254.463 141.219 254.2C140.649 253.115 142.241 252.548 142.702 251.731C142.753 251.081 142.69 250.453 142.665 249.837C142.057 250.659 141.432 251.46 140.703 252.18V252.18ZM139.76 243.137C139.802 243.858 139.84 244.591 139.865 245.337C140.359 244.889 140.779 244.373 141.248 243.912C141.466 243.694 142.25 243.119 142.229 243.858C141.931 244.914 140.804 245.491 140.213 246.401C140.146 246.866 140.267 247.361 140.326 247.876C140.93 247.294 141.432 246.434 142.396 246.493C142.22 247.696 140.837 248.11 140.448 249.184C140.46 249.69 140.565 250.206 140.653 250.748C141.244 250.076 141.747 249.243 142.677 249.021C142.74 246.321 142.761 243.627 142.661 240.94C141.709 241.695 140.82 242.528 139.76 243.137V243.137ZM139.082 236.793C139.102 238.603 139.53 240.363 139.53 242.176C140.624 241.59 141.382 240.4 142.652 240.191C142.744 239.214 142.732 238.233 142.686 237.274C141.696 238.104 141.03 239.495 139.677 239.737C139.907 238.305 141.248 237.013 142.665 236.717C142.744 235.745 142.728 234.781 142.681 233.813C141.625 234.969 140.431 236.009 139.082 236.793ZM138.796 234.311C138.813 234.818 138.855 235.359 138.88 235.908C140.075 234.953 141.059 233.519 142.669 233.263C142.723 232.471 142.727 231.683 142.711 230.917C141.428 232.07 140.204 233.306 138.796 234.311V234.311ZM138.465 231.184C138.461 231.914 138.524 232.685 138.792 233.381C140.045 232.291 140.988 230.523 142.694 230.171C142.731 229.328 142.728 228.495 142.681 227.681C141.185 228.755 140.158 230.426 138.465 231.184ZM138.184 224.769C137.522 225.147 137.899 225.938 137.962 226.537C138.256 227.774 137.925 229.123 138.478 230.319C139.656 228.814 141.303 227.791 142.581 226.383C142.895 225.653 142.665 224.803 142.686 224.049C141.868 224.89 140.984 225.661 140.079 226.416C139.551 226.84 139.115 227.439 138.415 227.585C138.398 227.112 138.532 226.719 138.83 226.391C139.991 225.07 141.391 223.99 142.669 222.787C142.799 222.045 142.711 221.299 142.69 220.578C141.256 222.045 139.785 223.482 138.184 224.769V224.769ZM139.597 220.348C138.939 220.872 138.373 221.669 137.422 221.551C137.464 222.338 137.514 223.139 137.564 223.952C138.591 223.378 139.299 222.397 140.246 221.701C141.131 221.035 141.726 219.933 142.882 219.695C142.84 218.924 142.841 218.182 142.878 217.444C141.78 218.4 140.724 219.418 139.597 220.348ZM137.124 218.499C137.099 219.276 137.179 220.071 137.43 220.826C139.136 219.284 140.829 217.688 142.891 216.627C142.87 215.944 142.866 215.273 142.874 214.62C140.909 215.84 139.32 217.688 137.124 218.499ZM136.835 216.568C136.91 216.938 136.76 217.771 137.43 217.575C139.19 216.019 141.244 214.825 142.895 213.154C142.866 212.394 142.874 211.649 142.933 210.919C140.971 212.86 139.153 215.031 136.835 216.568V216.568ZM136.609 213.836C136.6 214.352 136.613 214.884 136.634 215.429C137.321 215.416 137.732 214.825 138.201 214.397C139.756 212.826 141.311 211.246 142.895 209.699C142.899 209.234 142.92 208.791 142.958 208.367C140.699 210.019 138.956 212.278 136.609 213.836V213.836ZM136.219 210.559C136.248 211.23 136.286 211.921 136.328 212.616C137.439 212.444 138.009 211.313 138.838 210.669C140.175 209.562 141.332 208.195 142.908 207.408C142.908 206.556 142.916 205.723 142.941 204.898C140.838 206.935 138.591 208.842 136.219 210.559V210.559ZM142.95 201.412C141.751 202.777 140.242 203.8 138.994 205.111C138.038 205.992 137.07 206.9 135.913 207.509C135.921 208.154 135.951 208.807 136.01 209.478C138.336 207.596 140.548 205.576 142.891 203.711C142.983 202.941 142.933 202.161 142.95 201.412V201.412ZM135.632 204.587C135.532 205.25 135.661 205.938 135.708 206.632C138.067 204.546 140.246 202.237 142.899 200.528C143.029 199.668 142.954 198.809 142.97 197.971C140.695 200.364 137.967 202.261 135.632 204.587V204.587ZM142.958 194.798C140.674 197.179 138.08 199.241 135.645 201.474C135.062 201.868 135.343 202.613 135.339 203.209C137.987 201.205 140.247 198.707 142.962 196.794C142.983 196.114 142.979 195.443 142.958 194.798ZM135.687 196.751C134.283 197.557 135.108 199.354 135.079 200.649C137.669 198.209 140.401 195.846 142.987 193.453C143.071 192.62 143.012 191.777 143.004 190.96C140.653 193.004 138.18 194.895 135.687 196.751V196.751ZM188.605 190.009C188.232 190.951 187.662 191.811 187.268 192.749C187.754 193.117 188.278 193.436 188.844 193.708C189.049 193.063 189.339 192.456 189.716 191.903C189.888 191.948 190.244 192.061 190.424 192.112C190.223 192.913 189.846 193.651 189.523 194.414C189.862 194.707 190.299 194.86 190.755 194.97C190.965 194.422 191.224 193.855 191.866 193.772C191.811 194.409 191.728 195.067 191.577 195.704C191.899 195.967 192.247 196.26 192.604 196.55C192.91 196.147 193.111 195.271 193.81 195.577C193.84 196.056 193.789 196.542 193.655 197.033C196.09 199.325 199.28 200.707 201.585 203.137C201.559 202.497 200.931 202.186 200.516 201.842C198.911 200.528 197.545 198.956 196.032 197.539C195.91 197.891 195.696 198.134 195.39 198.269C195.265 198.105 195.009 197.769 194.887 197.598C195.005 197.283 195.135 196.99 195.281 196.713C193.035 194.5 190.843 192.225 188.605 190.009V190.009ZM98.1864 189.791C98.1697 190.616 97.8597 191.395 97.5621 192.171C97.3232 192.603 97.256 193.356 96.5729 193.315C96.5058 192.499 96.6987 191.735 97.0047 191.014C95.5756 192.472 93.87 193.726 92.7845 195.486C91.808 195.9 91.1584 196.768 90.4208 197.488C89.4778 198.473 88.4552 199.379 87.4284 200.279C87.4997 200.262 87.6422 200.23 87.7135 200.217C90.865 198.105 93.9118 195.838 97.1011 193.78C97.6249 193.423 98.3919 193.211 98.5134 192.499C98.7691 191.127 99.2928 189.828 99.5569 188.47C99.0791 188.885 98.6223 189.326 98.1864 189.791V189.791ZM185.077 191.164C185.605 191.572 186.149 191.986 186.698 192.405C186.828 191.325 187.285 190.31 188.069 189.555C187.671 189.041 187.252 188.55 186.832 188.093C186.221 189.098 185.697 190.154 185.077 191.164V191.164ZM134.744 194.003C134.287 194.64 134.664 195.51 134.639 196.26C137.514 194.191 140.276 191.957 143.021 189.716C143.025 188.937 143.017 188.177 142.983 187.422C140.192 189.552 137.564 191.898 134.744 194.003ZM184.746 186.216C184.213 187.301 183.568 188.324 183.048 189.409C183.128 189.996 183.803 190.403 184.347 190.603C184.892 189.699 185.345 188.701 185.802 187.741C186.145 186.954 185.223 186.589 184.746 186.216V186.216ZM100.072 187.908C100.16 188.018 100.324 188.244 100.408 188.354C100.286 189.657 99.7538 190.876 99.4101 192.136C100.072 191.744 100.697 191.279 101.33 190.83C101.175 189.157 101.732 187.561 102.055 185.947C101.384 186.594 100.73 187.242 100.072 187.908ZM180.877 188.308C181.292 188.567 181.745 188.805 182.227 189.004C182.667 187.774 183.446 186.718 183.983 185.55C183.844 184.926 183.258 184.548 182.901 184.083C182.034 185.383 181.606 186.925 180.877 188.308ZM134.555 190.884C133.864 191.408 134.341 192.364 134.325 193.101C137.166 190.834 139.974 188.512 142.857 186.296C143.209 185.509 142.954 184.548 143.004 183.715C140.204 186.127 137.3 188.403 134.555 190.884V190.884ZM103.253 185.252C102.956 186.933 102.419 188.567 102.218 190.264C102.763 189.92 103.299 189.568 103.848 189.224C103.752 187.134 104.268 185.101 104.892 183.14C104.284 183.79 103.392 184.293 103.253 185.252ZM179.134 180.332C178.627 182.143 177.126 183.5 176.586 185.31C176.959 185.595 177.382 185.939 177.876 186.095C178.614 185.206 178.987 184.066 179.478 183.043C179.607 182.633 179.876 182.382 180.299 182.281C180.563 183.961 179.239 185.327 178.815 186.836C179.18 187.129 179.616 187.406 180.026 187.699C180.634 186.229 181.845 184.967 182.046 183.354C181.137 182.281 180.052 181.38 179.134 180.332V180.332ZM105.856 182.734C105.336 184.695 105.164 186.756 104.481 188.693C105.168 188.303 105.822 187.871 106.422 187.365C106.338 187.234 106.158 186.979 106.07 186.849C106.677 184.414 107.411 182.012 108.32 179.688C107.482 180.676 106.237 181.413 105.856 182.734V182.734ZM136.764 183.484C136.299 183.86 135.875 184.36 135.259 184.477C135.171 183.932 135.28 183.413 135.703 183.06C134.949 183.672 134.22 184.33 133.398 184.846C133.541 186.538 133.805 188.222 134.023 189.928C135.029 188.877 136.085 187.897 137.241 187.008C139.073 185.55 140.762 183.769 142.979 182.872C143.013 182.21 143.017 181.569 143.004 180.94C140.573 182.872 138.059 184.707 135.662 186.672C135.1 187.08 134.576 187.868 133.801 187.604C133.566 187.051 134.057 186.677 134.384 186.363C136.316 184.707 138.377 183.207 140.427 181.698C141.215 181.107 142.028 180.542 142.983 180.257C143.038 179.301 143.042 178.355 143.004 177.42C140.9 179.419 138.96 181.577 136.764 183.484V183.484ZM171.653 178.568C171.251 179.293 170.677 179.972 170.522 180.822C170.777 181.338 171.36 181.59 171.796 181.966C172.546 180.324 173.518 178.794 174.448 177.257C175.018 176.725 175.064 177.609 174.859 178.003C174.343 179.478 173.38 180.744 172.688 182.143C172.734 182.315 172.822 182.675 172.877 182.855C173.036 182.885 173.367 182.947 173.535 182.976C174.281 181.808 175.018 180.647 175.727 179.465C176.007 179.051 176.221 178.329 176.875 178.551C177.093 179.427 176.313 180.131 175.953 180.865C175.454 181.858 174.578 182.667 174.373 183.785C174.801 184.032 175.24 184.314 175.68 184.59C176.527 182.96 177.637 181.456 178.614 179.922C176.984 178.199 175.316 176.502 173.598 174.88C172.801 176.029 172.416 177.391 171.653 178.568V178.568ZM109.888 178.216C109.355 178.622 109.297 179.315 109.125 179.922C108.454 182.331 107.767 184.728 106.966 187.096C107.695 186.441 108.706 186.049 109.23 185.227C109.686 183.403 110.198 181.593 110.919 179.859C111.313 178.954 111.233 177.7 112.197 177.177C112.322 179.841 110.927 182.259 110.382 184.813C110.881 184.346 111.522 184.04 111.983 183.538C112.796 180.459 113.328 177.308 114.079 174.205C112.591 175.446 111.3 176.905 109.888 178.216V178.216ZM139.924 176.142C137.786 178.321 135.486 180.319 133.093 182.21C133.13 182.772 133.156 183.387 133.407 183.927C134.66 182.898 135.875 181.703 137.485 181.267C139.153 179.398 140.992 177.684 142.962 176.142C143.101 175.215 143.004 174.277 142.996 173.367C142.032 174.369 140.879 175.145 139.924 176.142ZM169.708 171.097C168.702 173.498 166.708 175.363 165.853 177.813C166.394 177.998 166.926 178.622 167.517 178.517C168.393 177.391 168.916 176.053 169.704 174.877C170.186 174.194 170.467 173.091 171.485 173.091C170.811 175.202 169.415 176.993 168.401 178.95C168.183 179.607 169.134 180.244 169.73 180.107C170.869 178.254 171.842 176.301 173.17 174.57C172.198 173.279 170.999 172.081 169.708 171.097V171.097ZM114.85 173.367C115.109 174.595 114.669 175.823 114.498 177.055C114.104 178.933 113.856 180.856 113.278 182.691C113.798 182.369 114.309 182.03 114.824 181.673C115.482 178.183 115.977 174.646 116.832 171.197C116.249 171.989 115.541 172.672 114.85 173.367V173.367ZM128.319 172.551C128.746 172.199 129.191 171.893 129.635 171.578C129.572 170.995 129.484 170.426 129.379 169.877C128.981 170.748 128.671 171.65 128.319 172.551V172.551ZM165.019 166.391C164.172 169.139 162.362 171.49 161.44 174.21C161.272 174.906 162.299 175.07 162.747 175.455C163.682 173.67 164.7 171.935 165.643 170.157C166.021 169.475 166.31 168.624 167.148 168.385C167.236 169.319 166.653 170.107 166.272 170.912C165.442 172.567 164.357 174.084 163.648 175.798C163.631 176.486 164.499 176.741 165.006 177.068C166.142 174.705 167.986 172.781 169.159 170.468C168.619 169.663 167.831 169.085 167.181 168.398C166.461 167.723 165.891 166.872 165.019 166.391V166.391ZM135.171 170.275C134.099 171.067 133.294 172.164 132.158 172.873C132.212 174.796 132.405 176.725 132.791 178.622C135.108 176.045 137.657 173.674 140.444 171.611C141.177 171.109 141.814 170.345 142.723 170.192C142.92 170.678 142.413 171.067 142.095 171.369C140.741 172.429 139.421 173.531 138.117 174.646C136.194 176.167 134.605 178.052 132.858 179.763C132.858 180.193 132.879 180.663 132.912 181.128C134.92 179.575 136.692 177.746 138.624 176.096C140.003 174.721 141.403 173.367 143.013 172.258C142.979 170.48 143.096 168.707 143 166.944C142.086 167.589 141.391 168.456 140.59 169.214C138.428 171.407 135.909 173.179 133.549 175.145C133.176 175.58 132.141 175.175 132.682 174.587C136.223 171.745 139.769 168.9 142.929 165.636C143.168 164.965 142.979 164.228 143.013 163.557C140.54 165.955 137.887 168.154 135.171 170.275V170.275ZM158.653 169.872C158.158 170.603 158.137 171.516 158.33 172.366C159.407 170.447 160.522 168.54 161.39 166.525C161.733 165.762 162.085 164.831 162.995 164.634C162.974 164.831 162.915 165.217 162.89 165.41C161.88 168.062 160.338 170.48 159.21 173.083C159.642 173.33 160.082 173.603 160.53 173.875C161.18 172.32 161.8 170.748 162.693 169.324C163.401 168.196 163.737 166.839 164.684 165.862C163.812 164.986 162.945 164.119 162.098 163.235C160.878 165.405 159.91 167.715 158.653 169.872V169.872ZM160.799 162.015C159.856 163.985 158.468 165.937 158.611 168.222C159.479 166.315 160.606 164.538 161.545 162.665C161.276 162.426 161.033 162.222 160.799 162.015ZM159.382 160.444C159.298 161.344 159.235 162.262 159.21 163.189C159.7 162.321 160.53 161.156 159.382 160.444ZM140.737 163.063C139.844 163.868 139.065 164.819 137.988 165.389C137.082 166.378 135.884 167.014 134.878 167.895C133.822 168.653 132.917 169.592 131.877 170.372C131.86 170.791 131.877 171.248 131.894 171.699C132.736 171.151 133.461 170.464 134.233 169.827C135.854 168.398 137.661 167.183 139.282 165.749C140.523 164.471 142.04 163.516 143.151 162.125C143.122 161.563 143.138 161.013 143.272 160.503C142.506 161.429 141.579 162.208 140.737 163.063V163.063ZM126.274 162.09C125.888 163.025 125.784 164.048 125.587 165.045C125.109 168.163 124.09 171.167 123.52 174.272C123.441 174.893 123.039 175.672 122.288 175.463C122.825 172.513 123.768 169.655 124.388 166.725C124.665 165.477 124.719 164.161 125.331 163.025C124.589 163.754 123.734 164.4 123.118 165.25C122.636 166.429 122.737 167.74 122.448 168.972C121.79 171.922 121.727 175.07 120.436 177.832C119.405 177.839 119.849 176.716 120.017 176.129C121.048 172.852 121.278 169.403 122.121 166.084C121.362 166.955 120.377 167.656 119.866 168.72C118.902 168.854 118.55 169.915 117.746 170.345C117.532 172.148 117.063 173.899 116.87 175.71C116.467 177.48 116.538 179.385 115.73 181.061C116.279 180.655 116.857 180.287 117.431 179.938C117.482 178.538 117.624 177.144 117.947 175.79C118.328 173.875 118.449 171.914 119.099 170.069C119.325 169.579 119.095 168.615 120.017 168.841C119.543 172.392 118.91 175.916 118.278 179.44C120.474 177.692 122.921 176.276 125.168 174.587C126.098 173.896 127.502 173.413 127.59 172.077C127.824 170.71 128.617 169.563 129.103 168.301C129.17 166.638 128.692 164.978 128.755 163.318C128.193 166.348 127.606 169.416 126.454 172.295C126.182 172.835 126.027 174.248 125.164 173.598C125.197 172.483 125.8 171.495 126.156 170.468C127.016 168.368 127.259 166.093 127.757 163.893C127.896 162.603 128.625 161.432 128.42 160.108C127.569 160.599 126.89 161.336 126.274 162.09V162.09ZM159.856 159.659C163.938 163.546 167.839 167.618 171.821 171.599C180.831 180.663 189.758 189.82 198.827 198.838C199.25 199.29 199.397 200.028 200.021 200.288C200.004 200.192 199.984 199.994 199.971 199.886C197.997 197.702 196.577 195.08 194.804 192.732C193.454 190.72 192.096 188.73 190.755 186.718C189.159 184.695 187.939 182.411 186.367 180.365C181.434 173.074 176.464 165.8 171.448 158.563C167.584 158.725 163.736 159.455 159.856 159.659V159.659ZM111.518 164.404C103.22 176.142 95.0307 187.964 86.7034 199.685C91.6319 194.979 96.3551 190.063 101.292 185.37C109.586 177.182 117.842 168.951 126.136 160.758C126.534 160.301 127.175 159.954 127.25 159.305C123.449 159.24 119.728 158.201 115.944 158.23C114.343 160.18 112.993 162.351 111.518 164.404V164.404ZM131.609 168.154C131.597 168.46 131.584 168.795 131.596 169.144C132.372 168.629 132.996 167.936 133.742 167.392C135.729 165.706 138.004 164.379 139.781 162.46C140.804 161.559 141.734 160.468 142.983 159.887C143.054 159.111 143.046 158.34 143.004 157.586C139.257 161.156 135.913 165.209 131.609 168.154V168.154ZM138.31 159.372C135.946 161.303 133.617 163.286 131.521 165.494C131.203 165.98 131.533 166.651 131.517 167.224C132.271 166.353 133.172 165.652 134.069 164.945C137.212 162.103 139.974 158.872 143.189 156.115C143.163 155.549 143.151 154.993 143.159 154.464C141.655 156.202 139.961 157.779 138.31 159.372ZM136.429 157.854C134.723 159.53 133.139 161.349 131.114 162.657C131.114 163.127 131.127 163.624 131.165 164.135C132.988 162.195 135.163 160.64 137.124 158.848C139.182 157.179 140.904 155.138 142.954 153.454C143.201 152.734 143.071 151.966 143.046 151.246C140.787 153.392 138.629 155.651 136.429 157.854V157.854ZM138.691 152.825C136.223 155.197 133.851 157.669 131.312 159.962C130.687 160.427 130.813 161.207 130.842 161.902C135.28 158.211 138.926 153.685 143.172 149.782C143.172 149.137 143.201 148.509 143.251 147.888C141.592 149.406 140.318 151.275 138.691 152.825ZM144.714 146.255C144.647 149.921 144.697 153.58 144.676 157.25C144.756 173.837 144.496 190.42 144.379 207.01C144.32 224.53 144.463 242.047 144.182 259.572C144.228 263.54 143.968 267.526 144.19 271.486C144.052 268.837 144.705 266.272 144.944 263.645C145.611 258.097 146.089 252.515 146.906 246.992C147.141 244.159 147.459 241.343 147.891 238.536C148.264 236.148 148.268 233.717 148.733 231.332C149.206 227.627 149.441 223.877 150.045 220.176C150.677 213.032 151.838 205.946 152.488 198.792C153.368 192.02 154.043 185.227 154.864 178.442C155.308 175.572 155.329 172.647 155.874 169.797C156.235 166.117 156.96 162.468 156.91 158.767C152.895 154.544 148.787 150.42 144.714 146.255ZM132.523 156.76C131.831 157.524 130.905 158.122 130.477 159.095C131.203 158.872 131.731 158.298 132.313 157.833C134.258 155.993 136.119 154.061 138.051 152.205C139.848 150.521 141.135 148.304 143.209 146.921C143.201 146.569 143.201 146.238 143.209 145.924C139.739 149.623 136.064 153.126 132.523 156.76ZM246.327 147.81C247.232 147.767 248.146 147.734 249.063 147.684C249.147 146.921 249.374 146.204 249.654 145.516C249.072 145.508 248.481 145.374 247.953 145.613C247.378 146.325 246.913 147.106 246.327 147.81V147.81ZM258.35 145.551C257.395 145.441 256.46 145.801 255.522 145.629C254.834 145.484 254.147 145.497 253.485 145.669C253.288 146.096 253.426 146.972 252.705 146.858C252.206 146.677 252.496 145.924 252.378 145.551C251.884 145.551 251.326 145.333 250.924 145.664C250.517 146.196 250.237 146.811 249.926 147.415C252.441 147.482 254.918 146.892 257.428 146.711C261.485 146.212 265.58 145.924 269.632 145.387C268.689 145.148 267.784 145.572 266.862 145.559C264.021 145.476 261.183 145.669 258.35 145.551ZM239.089 145.408C238.733 146.598 237.936 147.592 237.542 148.764C240.447 148.71 243.318 148.237 246.201 147.896C245.97 146.945 246.436 146.137 246.972 145.408C246.377 145.4 245.803 145.408 245.241 145.425C244.902 145.903 244.583 146.402 244.277 146.908C243.984 147.252 243.69 148.073 243.112 147.667C243.007 146.778 243.603 146.045 244.068 145.371C243.313 145.395 242.58 145.408 241.847 145.411C241.52 146.032 241.205 146.661 240.966 147.324C240.736 147.81 240.661 148.492 239.998 148.592C239.713 147.45 240.12 146.351 240.677 145.387C240.137 145.379 239.6 145.379 239.089 145.408V145.408ZM230.493 145.344C229.915 147.001 229.006 148.522 227.945 149.897C228.712 149.808 229.513 149.867 230.284 149.699C231.294 148.363 231.29 146.096 233.138 145.484C233.021 146.892 232.166 148.17 231.684 149.502C232.312 149.443 232.953 149.419 233.611 149.427C233.549 148.24 234.32 147.302 234.944 146.376C235.279 145.86 235.707 145.328 236.411 145.425C236.017 146.811 235.028 147.906 234.462 149.217C235.103 149.15 235.77 149.113 236.448 149.1C236.624 147.708 237.366 146.502 238.175 145.395C235.614 145.344 233.045 145.395 230.493 145.344V145.344ZM227.355 145.387C226.483 147.068 225.435 148.643 224.425 150.244C225.263 150.214 226.11 150.16 226.96 150.093C227.564 148.388 228.796 147.013 229.4 145.312C228.704 145.277 228.017 145.29 227.355 145.387V145.387ZM211.613 148.224C211.081 149.448 210.264 150.542 209.862 151.829C210.629 151.794 211.395 151.745 212.175 151.694C212.849 149.355 214.379 147.391 215.54 145.269C214.79 145.215 214.032 145.089 213.302 145.269C212.573 146.145 212.129 147.214 211.613 148.224V148.224ZM209.975 145.395C208.755 147.52 207.833 149.82 207.029 152.138C207.569 152.097 208.127 152.067 208.692 152.046C209.174 149.494 211.018 147.495 212.213 145.253C211.475 145.245 210.591 144.914 209.975 145.395V145.395ZM217.783 144.943L217.799 145.223C217.279 145.223 216.773 145.245 216.282 145.287C216.194 145.94 215.905 146.564 215.566 147.138C214.727 148.538 214.031 150.013 213.327 151.493C213.759 151.359 214.484 151.681 214.689 151.117C215.653 149.046 216.911 147.122 217.916 145.073C218.155 145.261 218.394 145.467 218.654 145.688C218.004 147.622 216.651 149.234 216.093 151.195C216.668 151.146 217.254 151.106 217.841 151.082C218.046 149.632 219.019 148.468 219.555 147.138C219.974 146.354 220.31 145.115 221.45 145.245C220.984 147.243 219.622 148.924 218.968 150.886C219.417 150.835 219.89 150.81 220.372 150.797C220.398 149.443 221.441 148.497 221.94 147.319C222.418 146.515 222.74 145.253 223.897 145.287C223.243 147.138 222.174 148.828 221.269 150.575C222.028 150.563 222.816 150.542 223.557 150.295C223.934 148.334 225.372 146.808 226.412 145.156C223.532 145.212 220.632 145.328 217.783 144.943ZM206.882 145.097C205.8 147.525 204.581 149.921 203.822 152.473C204.401 152.439 205 152.419 205.595 152.39C206.253 149.779 207.787 147.537 208.847 145.102C208.185 145.089 207.527 145.089 206.882 145.097V145.097ZM197.151 145.059C196.836 146.263 196.161 147.319 195.776 148.492C195.109 150.174 194.02 151.778 193.898 153.617C195.516 153.349 197.18 153.374 198.797 153.118C199.916 150.897 200.872 148.543 202.117 146.368C202.485 145.776 202.762 144.85 203.651 145.132C203.923 145.709 203.474 146.271 203.215 146.787C201.999 148.748 200.985 150.835 200.147 152.997C200.906 152.905 201.664 152.793 202.444 152.691C202.62 151.509 203.311 150.521 203.722 149.435C204.258 147.939 204.899 146.48 205.675 145.089C203.936 145.115 202.205 145.073 200.474 145.059C199.46 147.487 198.458 149.921 197.39 152.326C196.828 152.85 196.224 152.197 196.476 151.581C197.414 149.393 198.45 147.243 199.405 145.059C198.647 145.043 197.897 145.04 197.151 145.059V145.059ZM193.966 145.035C193.718 145.709 193.383 146.354 193.035 146.988C191.899 149.239 191.233 151.689 190.118 153.953C190.856 153.94 191.606 153.915 192.356 153.873C193.525 150.915 194.887 148.036 196.14 145.115C195.407 145.002 194.686 144.984 193.966 145.035V145.035ZM191.447 145.01C191.195 145.467 190.743 145.76 190.428 146.179C188.907 148.748 187.771 151.518 186.849 154.346C187.528 154.195 188.668 154.619 188.97 153.726C190.341 150.819 191.271 147.654 193.19 145.027C192.599 144.984 192.017 144.984 191.447 145.01V145.01ZM188.546 144.997C186.95 148.157 185.554 151.413 184.05 154.627C184.414 154.598 184.8 154.593 185.19 154.603C186.216 153.161 186.459 151.354 187.34 149.846C188.232 148.224 188.97 146.526 189.988 144.981C189.494 144.968 189.012 144.976 188.546 144.997V144.997ZM184.75 145.124C184.364 145.739 184.167 146.448 183.891 147.13C182.851 149.779 181.372 152.269 180.55 155.001C181.313 154.979 182.155 155.05 182.838 154.585C184.318 151.342 186.225 148.307 187.549 144.997C186.619 145.019 185.617 144.788 184.75 145.124V145.124ZM181.548 144.976C180.378 148.468 178.928 151.866 177.646 155.31C178.111 155.264 178.597 155.243 179.092 155.222C180.345 151.719 182.059 148.404 183.467 144.968C182.813 144.943 182.185 144.952 181.548 144.976V144.976ZM178.87 145.048C178.576 146.598 177.805 148.011 177.189 149.452C176.095 151.506 175.45 153.768 174.323 155.81C174.893 155.724 175.48 155.692 176.049 155.541C176.67 154.921 176.833 154.002 177.21 153.241C178.388 150.507 179.419 147.734 180.55 144.984C179.976 144.955 179.41 144.968 178.87 145.048ZM175.588 145.04C174.52 147.495 173.556 150.013 172.42 152.457C171.833 153.709 171.464 155.093 170.576 156.191C171.36 156.065 172.177 156.048 172.978 155.931C174.436 152.218 176.272 148.677 177.709 144.968C176.997 144.925 176.255 144.763 175.588 145.04V145.04ZM164.315 144.754C162.777 148.865 161.042 152.892 159.399 156.965C160.203 157.351 161.104 157.145 161.972 157.112C164.52 156.919 167.052 156.5 169.608 156.363C169.897 155.101 170.589 154.011 171.079 152.842C172.202 150.147 173.401 147.49 174.511 144.804C173.698 144.943 172.269 144.347 172.102 145.526C171.352 147.286 170.597 149.054 169.75 150.781C168.883 152.611 168.372 154.619 167.378 156.392C166.586 156.777 166.465 155.893 166.654 155.378C167.446 152.96 168.594 150.684 169.721 148.42C170.308 147.168 170.731 145.819 171.607 144.729C171.029 144.763 170.459 144.788 169.897 144.809C168.912 148.823 166.511 152.23 164.776 155.931C164.658 156.63 163.519 156.287 163.862 155.662C165.195 151.883 168.003 148.735 168.832 144.763C168.279 144.754 167.734 144.754 167.211 144.78C166.645 146.526 165.71 148.132 165.006 149.83C164.017 152.243 162.802 154.574 161.616 156.911C161.029 157.075 160.79 156.857 160.891 156.248C161.415 154.993 162.06 153.781 162.634 152.549C164.055 150.055 164.935 147.297 166.31 144.78C165.631 144.754 164.973 144.745 164.315 144.754ZM158.137 144.754C157.463 147.885 155.736 150.687 154.998 153.801C155.216 154.439 155.799 154.888 156.34 155.286C157.429 152.39 158.301 149.419 159.487 146.556C159.835 145.886 159.814 144.621 160.866 144.793C160.899 145.949 160.191 147.021 159.868 148.132C158.77 150.697 158.217 153.47 157.039 156.011C157.492 156.589 157.974 157.263 158.816 157.25C158.67 156.919 158.535 156.597 158.406 156.296C160.275 152.595 161.742 148.702 163.238 144.847C161.536 144.754 159.835 144.705 158.137 144.754V144.754ZM155.648 145.236C155.011 147.495 153.783 149.569 153.272 151.874C153.104 152.419 153.661 152.608 154.022 152.868C154.588 151.95 154.797 150.877 155.208 149.897C155.874 148.153 156.729 146.48 157.253 144.692C156.658 144.729 155.715 144.353 155.648 145.236ZM153.309 144.699C153.209 146.84 151.746 148.651 151.654 150.768C151.885 150.886 152.123 151.02 152.383 151.182C152.97 148.924 154.131 146.878 154.797 144.658C154.286 144.65 153.791 144.675 153.309 144.699ZM151.679 144.688C151.118 146.112 150.485 147.52 150.099 149.016C150.322 149.284 150.548 149.569 150.791 149.871C151.319 148.135 152.111 146.477 152.501 144.699C152.299 144.692 151.889 144.692 151.679 144.688ZM149.169 144.813C148.796 145.395 148.603 146.066 148.356 146.703C148.075 147.286 148.75 147.902 149.29 148.019C149.881 146.98 150.124 145.76 150.615 144.675C150.129 144.712 149.546 144.495 149.169 144.813V144.813ZM145.674 144.541C146.302 144.96 146.663 145.739 147.325 146.112C147.761 145.68 148 145.124 148.004 144.524C147.22 144.557 146.445 144.573 145.674 144.541V144.541ZM127.518 144.457C126.668 147.432 125.356 150.257 124.07 153.064C123.579 154.225 122.661 155.189 122.351 156.433C122.732 156.433 123.131 156.484 123.525 156.564C125.017 157.067 126.622 156.731 128.139 157.137C127.875 156.903 127.628 156.605 127.456 156.337C128.818 154.128 129.673 151.665 130.871 149.373C131.575 147.872 132.028 146.222 133.021 144.888C133.185 144.871 133.499 144.839 133.662 144.821C133.75 145.895 133.042 146.84 132.682 147.821C131.408 150.877 129.832 153.806 128.545 156.857C128.772 156.844 129.22 156.836 129.442 156.831C131.815 152.82 134.174 148.802 136.341 144.675C136.437 144.675 136.621 144.683 136.722 144.688C137.212 145.148 136.764 145.79 136.596 146.325C135.184 149.288 133.516 152.121 131.785 154.907C132.51 154.061 133.26 153.241 134.086 152.503C135.41 150.118 137.07 147.939 138.18 145.433C138.231 144.976 139.174 144.297 139.102 145.223C138.776 146.59 138.084 147.834 137.397 149.059C137.346 149.183 137.242 149.443 137.183 149.578C137.254 149.473 137.401 149.271 137.476 149.167C138.457 147.646 139.291 146.058 140.121 144.457C140.339 144.64 140.557 144.839 140.783 145.057C140.615 145.411 140.46 145.785 140.322 146.179C140.93 145.647 141.39 144.976 142.011 144.469C140.364 144.256 138.717 144.737 137.082 144.42C134.941 144.557 132.791 144.479 130.658 144.457C130.368 146.05 129.551 147.482 128.969 148.978C127.841 151.539 126.965 154.259 125.348 156.564C124.991 156.576 124.698 156.449 124.472 156.175C125.109 154.502 126.19 153.064 126.835 151.409C127.372 150.19 127.892 148.97 128.441 147.767C128.96 146.644 129.254 145.408 130.029 144.431C129.191 144.444 128.344 144.444 127.518 144.457V144.457ZM121.262 144.369C120.486 148.321 118.667 151.933 117.226 155.659C117.745 155.821 118.617 156.165 118.894 155.474C120.243 152.717 121.429 149.889 122.318 146.959C122.628 146.179 122.67 144.96 123.701 144.796C123.579 146.376 122.896 147.826 122.46 149.338C121.74 151.665 120.73 153.889 119.803 156.132C120.243 156.14 120.688 156.157 121.153 156.202C123.336 152.444 125.143 148.497 126.651 144.428C124.849 144.402 123.051 144.412 121.262 144.369ZM115.7 144.36C115.223 145.597 114.753 146.84 114.33 148.103C113.471 150.507 112.222 152.766 111.329 155.143C112.909 155.34 114.493 155.487 116.098 155.517C117.699 151.845 119.208 148.116 120.574 144.34C119.904 144.331 119.25 144.36 118.601 144.394C117.272 147.423 116.245 150.593 114.711 153.537C114.313 154.195 114.166 155.608 113.077 155.243C112.867 154.556 113.404 154.007 113.651 153.429C115.222 150.534 116.337 147.423 117.532 144.364C116.907 144.347 116.3 144.347 115.7 144.36V144.36ZM112.524 144.36C112.184 145.328 111.824 146.3 111.383 147.243C110.168 149.758 109.137 152.465 107.268 154.603C108.203 154.762 109.146 154.854 110.101 154.912C111.794 151.46 113.236 147.906 114.728 144.369C113.986 144.331 113.249 144.326 112.524 144.36V144.36ZM109.46 144.369C108.182 147.847 106.044 150.94 104.607 154.338C105.215 154.354 105.839 154.367 106.472 154.372C107.272 152.645 108.676 151.27 109.41 149.502C110.08 147.725 111.124 146.112 111.916 144.394C111.086 144.326 110.265 144.323 109.46 144.369ZM106.966 144.385C105.566 147.671 103.848 150.819 102.235 154.002C102.704 153.927 103.35 154.249 103.697 153.776C104.121 153.299 104.246 152.654 104.54 152.121C105.898 149.569 107.624 147.138 108.446 144.353C107.939 144.347 107.448 144.353 106.966 144.385ZM104.473 144.353C104.263 145.484 103.438 146.376 103.035 147.445C102.122 149.569 101.011 151.614 100.123 153.752C100.487 153.709 100.873 153.672 101.267 153.655C102.583 150.429 104.452 147.44 106.178 144.412C105.6 144.353 105.026 144.331 104.473 144.353ZM101.87 144.39C100.399 147.432 98.9116 150.483 97.1933 153.408C97.7382 153.521 98.2914 153.572 98.8613 153.642C99.8336 151.958 100.772 150.257 101.51 148.455C102.285 147.071 102.717 145.438 103.945 144.369C103.253 144.353 102.541 144.181 101.87 144.39ZM98.3164 144.264C98.308 145.613 97.495 146.757 96.9963 147.969C96.3006 149.699 95.5085 151.383 94.5949 153.01C95.0056 153.081 95.4373 153.169 95.869 153.265C97.6208 150.335 99.2887 147.364 100.823 144.326C99.9844 144.243 99.142 144.221 98.3164 144.264V144.264ZM90.8315 144.197C90.2992 147.122 88.8785 149.771 87.3908 152.31C89.4569 152.546 91.5732 152.922 93.6268 152.796C95.102 150.035 96.1161 147.039 97.7254 144.347C97.0674 144.243 96.4096 144.197 95.7558 144.197C94.5279 146.309 93.6394 148.592 92.5666 150.789C92.3277 151.157 91.9295 152 91.3889 151.555C91.0536 151.117 91.4936 150.671 91.6361 150.295C92.6419 148.463 93.3586 146.497 94.3686 144.675C94.7458 144.076 93.6519 144 93.4968 144.457C92.1432 146.824 91.4726 149.502 90.1525 151.891C89.9849 152.315 88.891 152.595 89.1424 151.853C89.3771 150.953 90.0269 150.249 90.3663 149.406C91.1123 147.646 91.8959 145.924 92.7383 144.226C92.0887 144.181 91.4559 144.176 90.8315 144.197V144.197ZM87.8768 147.335C87.3068 148.978 86.3472 150.454 85.7688 152.097C85.949 152.087 86.3095 152.079 86.4814 152.071C87.9859 149.569 89.1761 146.9 90.2784 144.197C90.0101 144.189 89.482 144.189 89.2179 144.189C88.5893 145.124 88.4216 146.325 87.8768 147.335V147.335ZM83.5267 151.829C83.9667 151.794 84.4193 151.769 84.8887 151.761C85.84 149.18 87.6255 146.934 88.1493 144.176C87.856 144.164 87.265 144.127 86.9717 144.109C85.8024 146.669 84.7923 149.306 83.5267 151.829V151.829ZM84.5828 144.076C83.6692 146.623 82.5418 149.096 81.2845 151.506C81.5359 151.531 82.0305 151.581 82.2778 151.603C82.986 150.926 83.2501 149.905 83.6986 149.059C84.3817 147.356 85.3874 145.819 86.016 144.109C85.5299 144.076 85.0522 144.058 84.5828 144.076ZM82.1605 144.1C81.3642 146.585 80.2034 148.944 78.8162 151.157C79.361 151.254 79.9309 151.372 80.4966 151.48C80.5092 150.257 81.2845 149.271 81.8167 148.237C82.5837 146.892 82.8352 145.32 83.753 144.058C83.2082 144.05 82.6802 144.058 82.1605 144.1ZM79.7843 144.025C79.076 145.077 78.5856 146.25 78.1037 147.423C77.6007 148.643 76.8674 149.782 76.662 151.117C77.0853 151.103 77.5212 151.09 77.978 151.117C77.9738 150.098 78.6904 149.322 79.1346 148.471C79.9225 147.042 80.5176 145.521 81.2301 144.058C80.7355 144.025 80.2537 144.017 79.7843 144.025V144.025ZM76.6913 144.05C75.9998 146.376 74.8934 148.568 73.8624 150.768C74.3947 150.781 74.9437 150.797 75.4927 150.835C76.5363 148.568 77.4122 146.212 78.6946 144.068C78.0199 144.033 77.3534 144.025 76.6913 144.05V144.05ZM71.2558 144.038C70.3883 146.091 69.2693 148.044 68.4773 150.123C69.8938 150.185 71.306 150.335 72.7099 150.563C73.8624 148.425 74.642 146.096 75.9789 144.076C75.497 144.05 75.036 144.05 74.5833 144.068C73.8583 145.991 72.9907 147.864 72.1609 149.75C71.6831 149.846 70.866 149.699 71.2726 149.054C72.0563 147.364 72.7141 145.621 73.7032 144.05C72.8776 144.017 72.0646 144.012 71.2558 144.038V144.038ZM68.7789 144.025C67.8317 145.991 66.8301 147.939 65.6818 149.795C66.2978 149.82 66.9265 149.849 67.5677 149.889C67.7353 149.15 68.0707 148.497 68.4521 147.872C69.0388 146.615 69.441 145.269 70.2038 144.1C69.7176 144.055 69.2399 144.025 68.7789 144.025V144.025ZM62.8361 149.46C63.4061 149.489 63.9761 149.532 64.5628 149.586C65.6231 147.754 66.5661 145.852 67.7647 144.109C67.1109 144.038 66.4655 143.95 65.8369 144.068C64.8269 145.852 63.997 147.751 62.8361 149.46ZM62.5093 144.092C61.4197 145.642 60.6821 147.415 59.9948 149.167C60.5605 149.175 61.1304 149.193 61.7088 149.226C62.723 147.503 63.8421 145.844 64.6971 144.033C63.9678 143.988 63.2008 143.824 62.5093 144.092ZM56.4409 144.34C55.7159 145.709 54.9154 147.031 53.9976 148.291C54.6388 148.274 55.6487 148.874 56.0427 148.103C56.7509 146.719 57.5347 145.379 58.0921 143.928C57.5305 143.955 56.6965 143.644 56.4409 144.34V144.34ZM53.9515 144.326C53.2055 145.597 52.5099 146.892 51.8268 148.207C52.116 148.191 52.4303 148.191 52.7446 148.216C53.675 146.773 54.8274 145.459 55.5691 143.904C55.0076 143.891 54.2072 143.652 53.9515 144.326ZM59.3536 143.845C58.4107 145.379 57.8113 147.098 56.8768 148.643C57.5054 148.844 58.1633 148.857 58.8339 148.895C59.6804 147.168 60.288 145.269 61.6836 143.888C60.8999 143.878 60.1248 143.866 59.3536 143.845ZM50.892 144.315C50.1838 145.454 49.3666 146.582 48.9601 147.872C49.5217 147.888 50.0917 147.915 50.67 147.969C51.4998 146.569 52.1118 145.04 53.1637 143.791C52.4009 143.888 51.3195 143.451 50.892 144.315ZM49.2955 143.816C48.4908 145.048 47.7113 146.314 47.0365 147.633C47.2167 147.633 47.5771 147.646 47.7615 147.646C48.4908 146.314 49.1865 144.952 50.1504 143.773C49.9367 143.786 49.505 143.807 49.2955 143.816V143.816ZM42.1038 143.749C41.538 144.767 40.7754 145.672 40.2766 146.746C42.1667 146.8 44.04 147.495 45.9301 147.281C46.7012 146.112 47.4431 144.917 48.2394 143.765C47.3299 143.745 46.4037 143.603 45.5278 143.824C44.7608 144.729 44.2285 145.819 43.3904 146.677C42.9335 147.055 42.7283 146.574 42.6193 146.209C43.2479 145.408 43.8556 144.591 44.4172 143.749C43.6419 143.716 42.8666 143.706 42.1038 143.749V143.749ZM39.1409 143.732C38.6883 144.683 38.0261 145.521 37.5106 146.439C38.089 146.41 38.7636 146.623 39.321 146.351C39.958 145.476 40.5113 144.536 41.2572 143.74C40.5448 143.716 39.8366 143.706 39.1409 143.732V143.732ZM36.3874 143.824C35.7797 144.541 35.2978 145.362 34.753 146.137C35.3397 146.137 35.9432 146.15 36.5509 146.179C37.1586 145.333 37.7326 144.461 38.4828 143.749C37.7829 143.749 37.0579 143.603 36.3874 143.824V143.824ZM32.054 145.836C32.6701 145.852 33.2945 145.873 33.9316 145.886C34.3004 145.097 34.862 144.428 35.3607 143.724C35.1135 143.724 34.6273 143.716 34.3758 143.706C33.1102 143.544 32.712 145.057 32.054 145.836V145.836ZM29.5939 145.497C30.1304 145.521 30.6709 145.551 31.22 145.583C31.6349 144.96 32.054 144.347 32.4731 143.732C31.0943 143.3 30.2729 144.519 29.5939 145.497ZM26.8866 145.174C27.4901 145.223 28.1104 145.277 28.7349 145.354C29.0869 144.788 29.4892 144.256 29.925 143.762C29.2838 143.716 28.6636 143.69 28.0391 143.69C27.6452 144.176 27.2638 144.667 26.8866 145.174ZM22.1215 144.549C23.3494 144.855 24.6446 145.027 25.9144 144.831C26.3544 144.457 26.7107 144 27.0837 143.573C26.4215 143.573 25.7593 143.518 25.1139 143.641C24.6193 144.038 24.2129 144.621 23.4879 144.457C23.6094 144.109 23.7393 143.786 23.8734 143.472C23.119 143.493 22.6118 144.058 22.1215 144.549V144.549ZM11.4642 143.501C13.7482 143.531 16.0113 144.012 18.2996 144.189C18.6893 144.297 19.2593 144.092 19.2257 143.614C16.6441 143.514 14.05 143.346 11.4642 143.501ZM142.166 140.874C142.522 141.251 142.891 141.629 143.264 142.026C143.218 141.025 143.209 140.019 143.251 139.034C142.899 139.646 142.539 140.262 142.166 140.874ZM157.287 131.701C153.72 135.367 150.007 138.921 146.495 142.642C148.808 142.789 151.126 142.676 153.448 142.722C170.035 142.911 186.631 143.002 203.223 143.036C220.243 143.338 237.266 143.112 254.281 143.451C258.153 143.472 262.03 143.451 265.906 143.501C266.971 143.451 268.094 143.878 269.129 143.464C268.069 143.343 267.005 143.698 265.982 143.346C257.319 142.445 248.694 141.277 240.04 140.334C229.571 139.026 219.069 137.97 208.6 136.629C192.017 134.706 175.429 132.799 158.841 130.841C158.112 130.586 157.722 131.265 157.287 131.701V131.701ZM122.854 131.228C114.598 132.149 106.334 133.041 98.0608 133.901C92.8766 134.626 87.6464 135.007 82.4581 135.644C75.0527 136.356 67.6725 137.366 60.2671 138.011C51.9691 139.026 43.6629 139.826 35.3607 140.785C30.9728 141.226 26.5849 141.825 22.1719 141.93C22.7292 142.169 23.3495 142.021 23.953 142.026C32.8838 142.102 41.8189 142.064 50.7539 142.08C68.6072 142.365 86.4686 142.408 104.326 142.408C113.035 142.563 121.752 142.593 130.465 142.642C134.014 142.626 137.577 142.797 141.135 142.65C139.01 140.304 136.76 138.075 134.513 135.832C132.808 134.223 131.311 132.38 129.539 130.849C127.296 130.561 125.084 131.131 122.854 131.228V131.228ZM123.604 128.788C124.92 128.566 126.257 128.477 127.602 128.373C126.957 127.837 126.442 127.158 125.733 126.731C124.899 127.247 124.329 128.117 123.604 128.788V128.788ZM124.049 124.904C123.072 126.366 122.234 127.983 120.826 129.098C121.224 129.039 121.63 129.001 122.062 128.99C122.858 127.891 123.881 126.978 124.92 126.11C124.925 125.989 124.95 125.763 124.962 125.645C124.644 125.372 124.434 124.996 124.049 124.904ZM122.397 123.252C120.943 125.431 119.321 127.472 117.603 129.45C118.316 129.291 119.242 129.53 119.787 128.909C121.019 127.598 122.024 126.102 123.039 124.63C123.504 124.028 122.762 123.604 122.397 123.252V123.252ZM163.808 124.66C163.552 125.382 162.89 125.842 162.412 126.395C162.32 127.192 162.194 127.983 162.035 128.772C162.379 128.764 162.739 128.78 163.112 128.813C163.347 127.706 163.632 126.613 163.904 125.52C163.967 125.079 164.327 124.794 164.705 124.63C164.776 126.094 164.222 127.485 164.172 128.952C164.637 128.998 165.111 129.065 165.597 129.14C166.209 126.575 166.607 123.977 167.236 121.43C166.188 122.599 165.191 123.886 163.808 124.66V124.66ZM120.545 121.42C119.07 123.571 117.624 125.763 115.767 127.607C115.097 128.063 115.679 128.78 115.86 129.35C116.17 129.366 116.484 129.409 116.819 129.468C116.87 128.369 117.817 127.716 118.408 126.89C119.573 125.52 120.553 123.99 121.853 122.737C121.639 122.188 121.069 121.66 120.545 121.42ZM167.869 121.01C167.927 123.86 166.821 126.559 166.456 129.342C167.253 129.382 168.057 129.433 168.883 129.468C169.143 126.027 169.524 122.591 170.044 119.18C169.105 119.497 168.543 120.348 167.869 121.01ZM115.822 123.097C115.16 123.99 114.288 124.769 113.81 125.78C113.885 126.325 114.288 126.763 114.552 127.267C116.643 125.645 117.926 123.223 119.552 121.165C120.122 120.52 119.112 119.967 118.793 119.456C117.691 120.574 116.882 121.944 115.822 123.097V123.097ZM109.774 120.306C111.124 121.723 111.878 123.58 113.181 125.025C114.434 122.745 116.467 120.993 117.834 118.793C117.511 118.156 116.916 117.52 116.266 117.273C114.938 118.68 114.045 120.448 112.758 121.904C112.482 122.347 111.966 122.427 111.497 122.323C111.824 121.241 112.762 120.545 113.341 119.602C114.028 118.554 114.808 117.574 115.6 116.59C115.394 115.911 114.686 115.505 114.263 114.981C112.498 116.493 111.84 119.108 109.774 120.306V120.306ZM136.081 120.91C134.513 122.871 132.669 124.611 131.19 126.642C131.198 127.762 130.595 129.253 131.546 130.134C132.791 128.109 134.316 126.274 135.737 124.375C137.145 122.548 138.444 120.649 140.003 118.944C141.017 117.796 141.709 116.238 143.168 115.572C143.138 115.739 143.071 116.066 143.038 116.23C139.635 120.915 136.097 125.506 132.648 130.164C132.057 130.782 132.829 131.437 133.273 131.889C135.687 134.223 137.87 136.809 140.427 138.983C141.202 137.906 141.881 136.767 142.644 135.677C143.105 135.088 143.339 134.387 143.293 133.64C142.786 134.776 141.948 135.716 141.265 136.75C140.791 137.366 140.343 138.217 139.434 138.15C139.513 137.274 140.15 136.646 140.64 135.979C141.437 134.932 142.145 133.833 142.958 132.812C143.528 132.165 143.226 131.236 143.285 130.473C142.166 132.133 141.018 133.779 139.735 135.313C139.224 135.875 138.738 136.603 137.891 136.579C137.924 135.668 138.608 135.045 139.144 134.395C140.485 132.786 141.671 131.051 142.895 129.35C143.528 128.6 143.318 127.569 143.293 126.68C141.562 129.391 139.542 131.886 137.64 134.467C137.392 134.844 137.036 135.045 136.562 135.066C136.533 134.097 137.225 133.393 137.769 132.697C139.567 130.497 141.106 128.101 142.983 125.968C143.536 125.385 143.289 124.544 143.306 123.856C140.917 126.79 138.717 129.89 136.156 132.689C135.787 132.95 135.599 133.721 135.045 133.46C134.886 132.267 136.093 131.579 136.684 130.704C138.976 128.08 140.908 125.154 143.285 122.616C143.419 121.559 143.331 120.504 143.272 119.464C141.131 122.323 138.771 125.025 136.906 128.093C135.955 129.194 135.33 130.758 133.973 131.416C136.533 126.709 139.689 122.306 143.318 118.374C143.293 116.2 143.419 114.008 143.268 111.838C140.573 114.616 138.57 117.963 136.081 120.91V120.91ZM176.343 112.647C176.041 116.601 175.37 120.528 174.926 124.472C174.788 125.079 174.872 126.366 173.895 125.871C173.807 124.568 174.243 123.268 174.314 121.974C174.499 119.121 175.115 116.325 175.45 113.496C173.748 115.153 172.081 116.837 170.396 118.508C170.543 118.772 170.664 119.061 170.773 119.376C170.865 122.846 169.889 126.236 169.637 129.685C170.467 129.68 171.414 129.983 172.202 129.63C173.87 127.22 175.58 124.832 177.252 122.419C177.575 122.229 177.872 122 177.923 121.602C177.562 121.731 177.218 121.895 176.883 122.075C177.172 118.261 177.881 114.503 178.254 110.697C177.617 111.347 176.9 111.925 176.343 112.647V112.647ZM108.643 109.364C107.763 110.744 106.912 112.155 105.881 113.442C105.395 113.861 105.881 114.444 106.061 114.909C106.204 114.905 106.501 114.896 106.648 114.887C107.486 113.53 108.236 112.047 109.414 110.944C110.064 110.538 110.227 111.28 109.837 111.707C108.873 113.095 108.123 114.645 106.929 115.852C107.054 116.141 107.172 116.418 107.327 116.749C107.465 116.757 107.759 116.786 107.901 116.803C108.618 115.626 109.493 114.562 110.457 113.593C110.851 113.232 111.212 112.596 111.853 112.826C111.92 113.401 111.358 113.783 111.082 114.218C110.059 115.357 109.355 116.757 108.174 117.75C108.551 118.382 108.873 119.067 109.368 119.653C111.006 118.127 111.819 115.797 113.655 114.457C112.117 112.638 110.373 110.995 108.643 109.364V109.364ZM179.1 110.602C178.941 114.117 178.208 117.574 177.964 121.086C178.824 120.302 179.444 119.301 180.064 118.333C180.584 116.028 180.261 113.627 180.492 111.293C180.609 111.704 180.412 112.44 180.772 112.722C180.873 111.226 180.538 109.697 180.764 108.196C180.148 108.937 178.945 109.466 179.1 110.602V110.602ZM137.837 114.896C136.223 117.084 134.3 119.007 132.418 120.969C131.202 121.979 131.55 123.687 131.471 125.087C132.586 123.558 133.876 122.164 135.067 120.697C136.94 118.4 138.633 115.973 140.448 113.635C141.282 112.582 142.044 111.389 143.31 110.811C143.365 109.885 143.356 108.967 143.318 108.061C141.323 110.203 139.58 112.55 137.837 114.896V114.896ZM106.795 107.546C105.923 108.929 104.821 110.14 103.857 111.456C104.062 112.088 104.582 112.596 105.014 113.12C105.915 111.578 107.021 110.165 107.989 108.695C107.717 108.187 107.214 107.881 106.795 107.546V107.546ZM181.607 108.413C181.749 111.368 181.078 114.269 180.961 117.21C181.707 116.04 182.629 114.981 183.233 113.727C183.115 110.954 183.023 108.12 183.605 105.391C182.843 106.334 181.309 106.959 181.607 108.413V108.413ZM101.292 107.656C101.489 107.932 101.51 108.456 101.879 108.593C102.771 107.567 103.14 105.74 104.67 105.544C104.502 107.03 103.224 108.037 102.621 109.343C102.449 109.842 102.985 110.14 103.245 110.514C104.087 109.332 104.9 108.053 106.133 107.236C105.965 106.1 104.749 105.467 103.995 104.709C102.91 105.493 102.071 106.574 101.292 107.656ZM137.996 110.283C136.248 112.231 134.526 114.2 132.85 116.217C131.773 117.28 132.116 118.932 131.835 120.289C132.791 119.309 133.641 118.232 134.589 117.248C136.747 115.156 138.256 112.525 140.213 110.261C141.219 109.125 141.914 107.672 143.277 106.917C143.398 105.631 143.364 104.349 143.306 103.07C141.269 105.267 139.89 107.965 137.996 110.283V110.283ZM184.151 104.927C184.1 107.634 183.991 110.345 183.568 113.031C184.569 112.394 184.963 111.158 185.781 110.32C185.479 107.801 186.137 105.337 186.116 102.831C185.491 103.561 184.683 104.134 184.151 104.927ZM100.793 104.19C100.445 104.714 99.7623 105.192 100.018 105.912C100.219 106.222 100.496 106.482 100.764 106.788C101.451 105.665 102.352 104.701 103.568 104.169C103.082 103.707 102.688 103.142 102.118 102.831C101.51 103.07 101.2 103.724 100.793 104.19V104.19ZM100.374 101.302C99.6408 101.956 99.0498 102.753 98.4924 103.553C98.4798 103.938 98.8738 104.19 99.1253 104.478C99.5192 104.642 99.5821 104.056 99.8168 103.884C100.198 103.191 100.797 102.673 101.338 102.127C101.33 101.738 100.793 101.168 100.374 101.302ZM187.26 101.81C186.975 102.383 187.034 103.038 187.004 103.674C187.017 105.665 186.518 107.613 186.325 109.595C187.009 108.485 187.771 107.42 188.501 106.343C188.425 104.219 188.798 102.119 188.949 99.9994C188.463 100.674 187.809 101.189 187.26 101.81V101.81ZM96.8455 101.005C97.2059 101.525 97.3819 102.471 98.086 102.592C98.5805 101.843 99.1169 101.126 99.8419 100.599C99.5192 100.115 99.1839 99.618 98.6726 99.3364C97.9309 99.6884 97.4532 100.451 96.8455 101.005ZM139.974 103.339C137.983 105.974 135.645 108.325 133.574 110.903C132.317 111.984 132.77 113.815 132.464 115.274C133.818 113.442 135.373 111.771 136.919 110.102C139.178 107.483 140.611 104.169 143.234 101.867C143.394 100.9 143.373 99.9436 143.297 98.9894C142.271 100.502 141.005 101.826 139.974 103.339V103.339ZM95.6091 99.2987C95.6175 99.618 95.8688 100.125 96.267 100.099C96.8076 99.6096 97.3274 99.0942 97.998 98.7669C97.7633 98.4149 97.5202 98.0759 97.2897 97.7649C96.6359 98.1513 95.9527 98.5951 95.6091 99.2987V99.2987ZM94.5656 97.6602C94.6704 97.9451 94.7961 98.2431 94.9344 98.544C95.4457 98.0336 95.9277 97.4427 96.6527 97.2248C96.4264 96.9725 96.2 96.7336 95.9946 96.5241C95.5001 96.8728 94.9638 97.1871 94.5656 97.6602V97.6602ZM143.268 94.56C141.809 96.2362 140.498 98.0465 139.245 99.8896C137.325 102.425 135.263 104.851 133.264 107.333C133.247 108.295 133.155 109.26 133.114 110.24C134.383 108.456 135.892 106.855 137.372 105.241C139.195 103.062 140.8 100.707 142.635 98.5327C143.804 97.5554 143.293 95.8758 143.268 94.56V94.56ZM194.217 94.9577C194.121 96.2362 193.986 97.5474 193.559 98.7749L193.035 98.9467C192.708 97.7913 193.312 96.7009 193.328 95.5913C193.014 96.0296 192.67 96.4621 192.285 96.8514C192.138 97.8483 192.109 98.8796 191.937 99.8896C191.773 100.657 191.866 101.596 191.086 102.069C190.785 100.561 191.103 98.9601 191.497 97.4963C190.91 98.197 190.248 98.839 189.594 99.4705C189.686 101.466 189.607 103.502 189.184 105.467C189.779 104.365 190.747 103.494 191.183 102.321C191.43 102.191 191.681 102.082 191.954 101.982C191.732 101.474 192.167 101.181 192.385 100.83C193.442 99.3364 194.506 97.8663 195.512 96.341C195.114 95.5992 195.26 94.7398 195.281 93.9427C194.917 94.27 194.556 94.6057 194.217 94.9577V94.9577ZM196.22 95.0461C197.331 94.4338 197.662 93.126 197.347 91.9652C196.124 92.5104 196.178 93.9016 196.22 95.0461ZM140.46 94.3877C138.725 97.0366 136.546 99.3364 134.568 101.784C133.528 102.74 133.784 104.257 133.705 105.518C135.201 103.363 136.931 101.378 138.52 99.2874C139.844 97.2331 141.391 95.334 142.95 93.4616C143.591 92.8083 143.297 91.8017 143.339 91.0009C142.333 92.0863 141.303 93.1603 140.46 94.3877ZM198.345 90.9175C198.173 91.3743 198.244 91.8734 198.232 92.3712C198.957 91.417 199.992 90.4855 200.047 89.2249C199.46 89.7618 198.843 90.2856 198.345 90.9175ZM88.3965 88.9106C89.218 89.8322 89.6999 90.9896 90.4836 91.9652C91.2589 92.9458 91.9337 94.0018 92.621 95.0574C93.1616 94.7532 93.8531 94.6186 93.9663 95.4274C93.7274 95.4765 93.2538 95.5812 93.0149 95.6319C93.279 96.0476 93.5221 96.4751 93.8406 96.8891C94.4609 96.9725 94.8799 96.2442 95.3451 95.9085C92.9772 93.62 90.7351 91.2025 88.3965 88.9106ZM179.109 102.299C172.231 106.855 165.526 111.682 158.615 116.192C158.418 117.697 158.846 119.204 158.938 120.708C159.252 122.925 159.315 125.176 159.73 127.389C160.773 126.731 161.57 125.775 162.458 124.933C174.721 112.679 187.13 100.564 199.443 88.3705C192.679 93.0342 185.86 97.6308 179.109 102.299ZM134.962 97.7779C134.082 98.6374 134.295 99.957 134.065 101.063C135.641 98.7962 137.648 96.8598 139.19 94.5629C140.431 92.6771 142.036 91.0814 143.436 89.3217C143.52 88.4459 143.465 87.5701 143.494 86.7106C140.359 90.1729 137.912 94.1736 134.962 97.7779V97.7779ZM118.617 117.998C118.839 118.014 119.279 118.048 119.497 118.065C119.531 118.299 119.602 118.756 119.636 118.991C121.987 121.324 124.3 123.722 126.664 126.06C127.313 126.669 127.841 127.435 128.654 127.862C128.751 124.192 129.526 120.587 129.799 116.937C130.054 115.935 128.956 115.634 128.369 115.153C114.497 105.364 100.554 95.691 86.7286 85.8511C97.4363 96.483 107.989 107.287 118.617 117.998V117.998ZM135.171 93.5744C134.576 94.6057 134.794 95.9085 134.664 97.0693C135.373 95.8662 136.165 94.7318 136.99 93.6087C138.968 91.0009 140.745 88.2234 143.084 85.9018C143.645 85.378 143.444 84.5399 143.503 83.874C140.628 87.0199 138.31 90.6623 135.171 93.5744V93.5744ZM135.72 89.0238C135.326 89.9503 135.322 91.0273 135.226 92.0322C138.289 89.3217 140.259 85.65 143.247 82.872C143.796 81.8537 143.377 80.6049 143.565 79.5145C141.34 82.9852 138.486 85.9986 135.72 89.0238ZM136.022 84.6103C135.833 85.6713 135.758 86.7399 135.653 87.8253C136.437 86.5304 137.661 85.6043 138.604 84.4435C139.312 83.5513 140.029 82.6755 140.758 81.808C141.726 80.6849 142.359 79.2937 143.528 78.3508C143.536 77.542 143.541 76.745 143.536 75.9492C140.724 78.5553 138.402 81.6278 136.022 84.6103V84.6103ZM136.613 79.8632C136.353 81.0453 136.324 82.2564 136.24 83.4579C137.954 80.0647 140.838 77.4293 143.394 74.6576C143.717 73.8082 143.494 72.818 143.591 71.9308C141.06 74.4024 139.257 77.5076 136.613 79.8632ZM138.143 67.1573C137.799 68.1509 137.887 69.2279 137.807 70.2676C139.383 68.3013 140.653 66.0933 142.417 64.283C142.623 63.8639 143.645 63.3988 143.436 64.2909C143.029 65.2632 142.157 65.9592 141.558 66.83C140.225 68.4815 139.178 70.3803 137.539 71.7619C137.258 73.9834 136.977 76.2098 136.826 78.4505C139.064 76.1998 140.728 73.4382 143.067 71.2725C143.939 70.6095 143.474 69.4001 143.587 68.4815C142.208 70.1791 140.695 71.7619 139.37 73.5052C138.733 74.2013 138.227 75.1278 137.284 75.4253C137.258 74.604 137.87 74.029 138.331 73.4382C139.945 71.402 141.545 69.3067 143.582 67.6728C143.603 65.2963 143.675 62.934 143.624 60.5571C141.433 62.4345 139.827 64.8475 138.143 67.1573V67.1573ZM138.955 63.0552C138.251 63.7755 138.289 64.8655 138.147 65.7954C138.754 64.7264 139.404 63.6624 140.242 62.7572C141.277 61.6425 142.12 60.2299 143.608 59.6813C143.654 58.8562 143.662 58.0478 143.645 57.2424C142.128 59.2166 140.527 61.1237 138.955 63.0552V63.0552ZM138.847 60.4017C138.796 60.9255 138.754 61.4657 138.729 62.0322C140.196 60.1331 141.68 58.1853 143.595 56.7102C143.708 56.1897 143.616 55.6709 143.624 55.1798C141.956 56.8527 140.326 58.5536 138.847 60.4017V60.4017ZM139.722 56.2111C138.905 56.8577 139.249 57.9837 139.09 58.886C140.309 57.0035 142.116 55.6005 143.604 53.944C143.692 53.307 143.633 52.6784 143.624 52.0628C142.329 53.4495 141.135 54.9455 139.722 56.2111ZM141.982 42.14C141.646 42.0972 141.34 42.0939 141.03 42.0842C140.632 44.713 140.422 47.3731 140.154 50.0266C139.542 51.7569 139.731 53.592 139.434 55.386C140.791 53.9897 142.024 52.4739 143.394 51.0856C143.83 50.6799 143.561 50.0216 143.629 49.5275C142.983 50.3279 142.266 51.0563 141.558 51.8026C141.072 52.2807 140.636 53.0225 139.827 52.8879C140.535 51.0236 142.3 49.9005 143.565 48.4551C143.729 47.956 143.616 47.4159 143.653 46.9248C142.564 47.9234 141.956 49.7123 140.376 49.9596C140.536 49.0167 141.37 48.4799 141.914 47.7759C142.388 47.1506 142.841 46.473 143.624 46.2044C143.666 45.0977 143.549 44.0077 143.616 42.9274C142.799 43.5853 142.233 44.8852 141.072 44.8554C141.617 43.1578 143.926 42.3574 143.649 40.3833C143.067 40.9414 142.514 41.5277 141.982 42.14V42.14ZM141.282 40.0233C141.181 40.5387 141.223 41.0873 141.244 41.6454C142.141 40.3506 143.959 39.3327 143.633 37.5596C142.958 38.4811 142.17 39.3029 141.282 40.0233ZM143.604 32.5393C143.189 33.3561 142.497 33.9633 141.91 34.6556C141.856 35.078 141.847 35.5234 141.868 35.9701C142.371 35.4266 142.816 34.8098 143.482 34.446C143.553 35.6739 142.69 36.913 141.583 37.4205C141.562 37.848 141.558 38.3043 141.579 38.7661C142.283 37.9573 142.883 37.0685 143.629 36.3058C143.582 35.0403 143.675 33.7915 143.604 32.5393V32.5393ZM145.406 17.4561C145.142 28.244 145.468 39.0347 145.167 49.8205C145.003 68.0872 144.982 86.367 144.982 104.642C145.024 111.766 144.789 118.89 144.798 126.019C144.802 131.252 144.651 136.495 144.731 141.737C148.838 137.508 153.075 133.377 157.174 129.132C157.387 127.029 156.888 124.958 156.796 122.871C155.443 111.032 154.248 99.1725 152.886 87.3312C152.123 79.3184 151.114 71.3395 150.28 63.3317C150.024 59.6599 149.437 56.0179 149.081 52.3608C147.92 40.7139 146.407 29.1114 145.406 17.4561ZM143.716 19.5728C143.23 22.1249 143.126 24.7226 142.828 27.304C143.021 27.2877 143.407 27.2634 143.604 27.2453C143.536 27.9246 143.063 28.4158 142.581 28.8675C142.359 30.2638 142.203 31.6668 142.203 33.0925C142.518 32.4295 143.046 31.9434 143.641 31.5457C143.645 31.1183 143.645 30.7076 143.641 30.3049C143.335 30.6909 143.138 31.2444 142.581 31.3408C142.308 30.2672 143.096 29.5221 143.754 28.8349C143.775 26.2698 143.771 23.6964 143.788 21.1313C143.779 19.7907 144.186 18.4581 143.88 17.1255C143.591 17.9016 143.758 18.7561 143.716 19.5728V19.5728ZM143.419 1.00516C143.553 -0.252015 145.866 -0.41083 145.9 0.991758C145.825 2.9957 146.256 4.96989 146.499 6.95539C147.513 16.6314 148.569 26.2907 149.659 35.9538C149.911 39.6633 150.586 43.3217 150.816 47.0295C151.759 54.2419 152.362 61.4837 153.247 68.7041C154.056 76.0573 154.814 83.4122 155.669 90.7541C156.427 98.3985 157.45 106.009 158.066 113.651C160.803 112.064 163.338 110.111 166.008 108.384C176.339 101.268 186.753 94.2784 197.096 87.1674C200.176 85.0557 203.328 83.0275 206.346 80.8144C207.004 80.6426 207.599 81.1744 207.972 81.6769C208.567 82.6755 207.343 83.3124 206.911 84.0751C200.114 93.7625 193.316 103.468 186.527 113.162C182.583 118.877 178.493 124.506 174.624 130.276C191.43 132.095 208.193 134.244 224.991 136.143C243.12 138.338 261.242 140.433 279.376 142.563C281.84 142.765 284.263 143.354 286.748 143.397C286.983 143.447 287.46 143.552 287.695 143.603C288.005 144.297 288.319 145.521 287.33 145.811C284.17 145.983 281.019 146.421 277.872 146.824C256.553 149.092 235.254 151.484 213.948 153.819C206.907 154.603 199.854 155.264 192.834 156.132C186.577 156.793 180.324 157.564 174.059 158.08C183.505 172.043 193.043 185.931 202.527 199.878C204.107 202.132 205.515 204.504 207.234 206.658C207.322 207.58 206.412 208.514 205.486 208.439C204.837 207.932 204.229 207.399 203.567 206.943C189.82 197.291 176.045 187.653 162.278 178.028C160.732 177.01 159.315 175.82 157.718 174.914C156.256 188.144 154.605 201.361 153.088 214.586C152.216 221.806 151.445 229.04 150.489 236.251C150.221 239.524 149.6 242.768 149.378 246.05C148.423 253.408 147.643 260.775 146.78 268.147C146.294 270.954 146.206 273.82 145.774 276.636C145.464 279.478 145.053 282.298 144.71 285.13C144.563 285.944 144.819 286.841 144.353 287.595C143.796 288.052 142.853 288.202 142.346 287.62C141.931 286.841 142.199 285.957 142.074 285.156C141.215 278.233 140.489 271.306 139.718 264.383C138.968 256.362 137.845 248.392 137.145 240.371C135.825 229.261 134.681 218.132 133.441 207.026C132.364 196.106 130.926 185.23 129.937 174.31C127.691 175.597 125.62 177.177 123.47 178.622C111.208 186.954 98.9535 195.306 86.6993 203.661C85.0146 204.88 83.137 205.853 81.6283 207.295C80.8739 207.655 80.1865 206.884 79.78 206.344C79.2184 205.509 80.2956 205.028 80.6769 204.428C82.4203 201.78 84.3984 199.29 86.0915 196.612C87.7302 194.543 89.0796 192.259 90.6512 190.146C97.583 180.22 104.578 170.334 111.484 160.398C112.054 159.455 112.741 158.608 113.387 157.728C107.62 157.153 101.862 156.433 96.1078 155.713C89.0712 154.934 82.0431 154.061 75.0149 153.198C67.4503 152.39 59.8943 151.468 52.3339 150.604C48.6585 150.059 44.9662 149.64 41.274 149.296C30.3441 147.939 19.4059 146.728 8.47181 145.408C5.98241 145.174 3.51812 144.6 0.999391 144.6C-0.257881 144.444 -0.400388 142.152 0.982611 142.118C3.72346 142.144 6.41401 141.473 9.1381 141.293C40.3561 137.903 71.5448 134.459 102.754 131.039C106.388 130.674 110.005 130.18 113.655 129.933C103.433 115.145 93.3963 100.238 83.2459 85.4027C82.3658 84.2717 81.7833 82.9177 80.7146 81.9455C80.3625 81.1501 81.0877 80.4951 81.6618 80.0891C82.5377 79.5409 83.0574 80.7097 83.7657 81.0696C96.615 90.0714 109.473 99.0678 122.318 108.07C124.912 110.014 127.695 111.691 130.259 113.676C130.917 106.315 132.028 99.0007 132.774 91.6559C134.283 79.7207 135.603 67.7729 137.011 55.8297C137.355 52.1332 138.046 48.4765 138.315 44.7704C138.771 40.9955 139.157 37.2076 139.71 33.4524C139.941 29.8397 140.632 26.2907 140.909 22.678C141.483 18.0818 141.977 13.4638 142.551 8.86251C142.782 6.23501 143.394 3.64858 143.419 1.00516" fill="#040606"/>
</svg>
