<svg width="18" height="17" fill="none" xmlns="http://www.w3.org/2000/svg"><path d="M2.119 2.277c-.016.479.556.613.896.799.11.21.198.428.262.656.251.041.518.157.631.407.179.3.047.748.395.945.201.019.453-.018.602.167.234.229.234.584.327.885.18.037.392.054.535.203.202.175.22.47.305.713.239.107.363.34.516.54.165.138.397.153.588.257L7 8.033c.353.52.359 1.202.12 1.774-.125.402-.343.778-.684 1.037-.277.21-.583.653-.957.364.034.652-.863.76-1 1.312.637.628 1.254 1.277 1.964 1.835.542-.798 1.021-1.644 1.376-2.544.169-.42.528-.722.932-.91.001.067.008.194.01.26.187-.067.359-.162.539-.252.504-.253 1.164-.254 1.593.152.32.327.738.563.967.978.443.016.75.349.956.716.193.032.408.028.59.13.205.164.29.492.59.527.41.047.56.458.684.793.188.072.352.19.503.335.393.002.744.184 1.036.438.021-.066.062-.197.084-.26.05-.938.092-1.889-.115-2.807-.615-.419-1.347-.64-1.953-1.08-.458-.346-1.015-.553-1.412-.97-.186-.224-.507-.254-.67-.493-.193-.26-.506-.462-.557-.802-.057-.454.28-.817.361-1.246.122-.505.671-.733.823-1.225.183-.217-.248-.408-.387-.268-.55.538-1.25 1.092-2.064 1.036-.292.365-.696.07-.986-.126-.775-.4-1.219-1.18-1.728-1.848-.552-.7-.855-1.545-1.32-2.295-.191-.347-.627-.397-.971-.47-1.067-.056-2.16-.073-3.205.153Zm-.664-.968C2.564.837 3.795.86 4.979.856c.616-.025 1.23.16 1.774.443.854.67 1.076 1.805 1.684 2.661.488.656.819 1.436 1.434 1.995.201.232.557.237.814.092.403-.188.744-.483 1.035-.816.224-.266.604-.26.92-.235.45.053.724.48 1.159.575.282.097.701.138.749.509.045.392-.355.577-.681.601-.564.099-.644.746-1.006 1.083-.233.228-.201.573-.192.875.358.19.611.518.97.708.321.192.658.366.962.593.62.484 1.374.741 2.075 1.085.353.132.49.527.56.865.213 1.123.157 2.28.033 3.41-.04.31.02.72-.276.925-.244.12-.53.104-.792.08-.333 0-.444-.358-.649-.551-.205-.062-.419.002-.619-.048-.193-.098-.332-.274-.473-.425-.435-.034-.57-.484-.513-.846-.448.05-.872-.188-1.03-.611-.198-.034-.441-.004-.577-.176-.145-.163-.175-.38-.252-.57-.261-.029-.597.069-.783-.166-.125-.128-.234-.283-.412-.334-.356-.115-.53-.474-.822-.676-.599.06-1.144.338-1.728.457a7.124 7.124 0 0 1-1.295 2.74.7.7 0 0 1-.973.148c-.322-.228-.595-.512-.91-.742-.436-.32-.745-.782-1.204-1.07-.304-.172-.409-.53-.541-.828-.115-.271-.175-.639.073-.852.674-.48 1.276-1.065 2.047-1.396.107-.194.205-.41.415-.516-.006.101-.012.306-.016.408.226-.082.102-.375.197-.542.139-.345.27-.721.121-1.085-.182-.385-.38-.776-.709-1.05-.19-.156-.228-.41-.299-.625-.226-.062-.476-.114-.622-.31-.2-.227-.079-.556-.202-.807-.322-.025-.681-.004-.938-.228-.25-.256-.299-.627-.336-.961-.242-.068-.547-.048-.695-.28-.19-.24-.067-.65-.392-.779-.335-.17-.556-.476-.768-.77-.179-.253-.485-.449-.493-.782.073-.332.362-.573.652-.723Z" fill="#0A0A0B"/></svg>