<svg width="480" height="480" fill="none" xmlns="http://www.w3.org/2000/svg"><path d="M339.085 43.34c1.13-1.119 2.993-1.6 4.541-1.202 19.721 32.08 39.421 64.233 59.436 96.146.638 1.139 1.412 2.55.565 3.814-.879.638-2.396.502-2.616-.731-1.925.042-3.86.073-5.796.042.011 4.159-.031 8.318.011 12.487a6.296 6.296 0 0 1-.356 2.236 170.71 170.71 0 0 1-.188 7.294c1.067.042 2.197.219 2.919 1.108 3.096.292 5.754 3.145 5.691 6.269-.356 1.735-1.768 3.01-2.647 4.504-.889 1.808-3.222 1.285-4.854 1.557-.042 13.877.021 27.786-.115 41.663.701 1.264 2.28 1.964 2.584 3.511 1.266 2.758 1.15 6.196-.743 8.631a2.625 2.625 0 0 0-.607 1.714c-.052 35.508.031 71.026.136 106.523.638 5.413.241 10.899.356 16.354.042 25.152-.115 50.325.062 75.477 1.486-.272 2.972-.899 4.499-.376.607 1.296.586 2.706.136 4.054-1.579 1.056-2.197 2.926-3.463 4.243-.91.919-2.291.428-3.086-.355-.555-1.108-.46-2.362-.377-3.543a46.209 46.209 0 0 0-1.653-.094c-.46 1.787-1.381 3.762-3.118 4.598-2.364.052-3.148-3.125-2.364-4.943.366-1.828 2.344-2.382 3.829-3.041.063-38.548-.073-77.097.095-115.645.544-4.797.261-9.656.334-14.473.22-22.08.011-44.16.126-66.24-.335.031-.984.105-1.319.136-1.946 1.724-3.452 3.971-5.743 5.298-.387 5.298.031 10.638-.063 15.956-.021 13.386-.042 26.772.104 40.158.136 3.01-.156 6.04.44 9.018 1.58-.219 1.36 1.651-.01 1.735-.126 2.8.01 5.601-.053 8.401a3.227 3.227 0 0 0 .596 2.268c-.92 3.459-.324 7.137-.407 10.7 1.653-.271 1.904 1.359 1.265 2.529-.366.063-1.098.167-1.454.23.094 31.819.011 63.638.021 95.457-.575 2.675-.502 5.413-.45 8.151.188 1.483-.889 3.406-2.626 3.061-2.239-.919-3.494-3.5-3.107-5.862-1.412 1.003-2.783 2.048-4.185 3.072l-.042.523c1.611.857 3.233 1.776 5.053 2.142.586 1.808-2.343 2.173-3.63 2.497-2.469.293-4.53-1.651-7.041-1.389a48.16 48.16 0 0 0-.073-2.184c-1.329 1.369-1.497 4.054-3.756 4.336-2.323-.094-2.48-2.853-1.884-4.514.356-1.108.461-2.424 1.517-3.103 1.151-1.025 2.763-.46 4.06-.115.157-7.179-.052-14.379.042-21.568-24.011-.084-48.022.167-72.033-.157-2.804-.073-5.66 1.066-8.391.198-.021 6.521.084 13.041-.104 19.562.449 2.027 1.025 4.389-.314 6.228-1.067.69-2.542.063-3.076-1.003-1.224-1.818-2.082-4.128-1.506-6.322.565-.47 1.443-.93 1.234-1.829-.45-5.026-.136-10.084-.251-15.12.063-30.451-.032-60.901.073-91.351.052-3.312-.293-6.646.304-9.916-.032-7.932-.053-15.863-.022-23.794.733-6.186.231-12.446.367-18.663-.178-6.228.24-12.467-.147-18.684-.46.92-.313 1.965-.334 2.968.062 9.895 0 19.791 0 29.687.177 2.205-.315 5.632-3.024 5.935-.701-1.87.627-3.762 2.615-3.741.178-16.771-.041-33.553.168-50.314-2.909-.596-3.693 3.124-5.932 4.159 0 28.224 0 56.459.01 84.704-.063.982.042 1.975.45 2.895-1.057 4.409.21 8.913-.01 13.375.084 29.886.073 59.782.083 89.678-.397 2.32 3.045 3.334 2.229 5.821-3.516.522-7.711-1.066-8.925-4.671-.146-1.16.858-1.912 1.58-2.633.094-21.652 0-43.293.063-64.945.032-2.351-.157-4.723.314-7.043.283-19.708.094-39.416.199-59.134-.952.857-1.8 3.083-3.38 2.278-.157-2.111.44-5.664 3.327-5.141.011-1.39 0-2.769.032-4.149-.345 1.223-.984 2.341-1.517 3.501-.712.146-1.34-.031-1.873-.564.052-.826.094-1.662.126-2.477.627-1.902 1.443-3.793 3.222-4.88.01-.857.021-1.682.063-2.518-.513 1.567-1.214 3.093-2.26 4.368-1.434-.544-1.057-2.184-1.088-3.365.68-1.735 1.36-3.49 2.552-4.953 1.287-1.285.628-3.187.796-4.786-1.151 2.403-1.297 5.35-3.39 7.231.021 2.205-.774 4.378-.23 6.583.429 1.547-.45 3.093-.042 4.65.408 1.745-.335 3.491-.105 5.257.502 4.179.283 8.401.293 12.612.67-.24 1.308-.679 2.072-.501.387 1.295-.231 2.622-1.695 2.706a36.74 36.74 0 0 0-.021 4.682c.921.135 1.747 1.086.941 1.943-.617.669-1.203 1.411-.993 2.404.261 2.999-.178 6.008.083 9.017 1.831.272 1.591 2.989.053 3.553-.283 2.602-.074 5.225-.105 7.838-.094.836.209 1.609.617 2.33-1.318 2.748-.366 6.019-.565 8.976 1.486-.021 1.454 1.766-.01 1.745-.136 25.131.021 50.273-.105 75.404.021 1.056-1.151 1.421-1.988 1.568a13.336 13.336 0 0 0-1.297-1.641c-.533-11.63-.335-23.271-.366-34.901.031-28.329-.042-56.648.073-84.966.628-5.988.283-12.007.366-18.015.053-10.283-.554-20.523-.408-30.795.095-5.643-.24-11.307.293-16.928.136-4.055.136-8.099.115-12.153.115-.763-.261-1.819.586-2.247-4.059 1.818-8.275 3.333-12.104 5.632-4.782 1.923-9.134 4.713-13.601 7.242-4.949 2.853-9.574 6.186-14.271 9.405-6.403 5.517-13.287 10.543-18.769 17.032-7.721 7.66-15.066 15.717-21.521 24.505-2.584 3.197-4.771 6.771-7.627 9.749-2.02 3.699-5.033 6.73-7.251 10.283-3.819 4.869-7.135 10.115-10.975 14.974-5.356 7.837-11.006 15.476-16.488 23.24-5.974 7.847-11.142 16.343-17.608 23.846-7.376 8.14-14.856 16.385-23.958 22.644-2.407 1.421-4.447 3.448-7.052 4.535-2.323 2.1-5.514 2.936-8.035 4.796-3.087 1.652-6.382 2.905-9.667 4.128-1.988 1.306-4.52.982-6.581 2.1-1.088.314-2.26.387-3.285.91-.115 4.618.031 9.237-.063 13.866.063 1.484-1.224 2.55-2.47 3.093-1.704.209-2.636-1.682-3.065-3.041-.188-4.253.022-8.516-.062-12.748a22.852 22.852 0 0 0-3.118.71c-.073 4.358.083 8.726-.042 13.104-.23 1.505-.868 3.626-2.804 3.396.2.335.387.68.586 1.056 2.03-1.568 4.666-3.146 7.313-2.205.597.575.89 1.39.837 2.236 1.486-1.651 2.741-3.668 4.97-4.378 1.224-.815 2.521-.021 3.64.543 1.204 2.989-1.757 5.089-3.63 6.886-1.705 1.338-3.421 3.553-5.88 2.947-1.234-.595-1.077-2.121-.92-3.229-1.266.533-2.375 1.515-3.746 1.766-1.684-.167-3.87-.93-3.693-3.009-2.73-.324-3.62 3.02-6.1 3.396-1.203.867-1.977-1.797-2.929-.617-1.046 1.421-2.981 1.996-4.572 1.129-1.548-1.087-.774-3.208-.084-4.577 1.423-2.111 4.112-3.95 6.654-2.591 1.277-1.338 3.17-1.641 4.928-1.746-.23-4.221-.052-8.443-.01-12.665 0-.553.146-1.055.44-1.515-2.24.418-4.479.889-6.77.857-4.698-.042-9.646.157-13.988-1.944-1.297-.647-1.674-2.142-2.134-3.375-2.124-.972-2.752-3.573-2.857-5.684-.575-5.476 1.182-11.119 4.75-15.288.91-.752 3.066-1.735 3.505-.031 3.934.564 7.376-1.829 11.216-1.913 5.838-1.891 11.801-3.762 17.053-7.043 4.73-2.434 8.632-6.165 13.13-8.986 4.991-3.888 9.866-7.952 14.46-12.299 1.945-2.153 3.839-4.368 5.931-6.385 4.311-3.574 6.633-8.82 10.117-13.114 1.758-2.069 3.108-4.441 4.949-6.437 3.254-5.142 6.528-10.251 10.138-15.163 2.26-3.887 4.572-7.826 7.208-11.411 1.654-2.915 3.809-5.538 5.472-8.453 1.549-1.651 2.365-3.794 3.829-5.497 4.164-5.34 8.621-10.429 12.775-15.779 3.243-4.117 6.999-7.774 10.671-11.505 3.024-3.553 6.027-7.126 9.291-10.46 2.511-2.654 4.561-5.695 7.093-8.328 1.779-2.404 4.258-4.107 6.152-6.395a233.659 233.659 0 0 1 19.931-16.814c6.266-4.023 11.906-8.934 18.434-12.571 10.891-6.426 22.871-10.815 34.923-14.493 1.381-.157 2.762-.376 4.101-.805 2.919-1.003 6.037-1.275 9.092-1.64-.094-6.772.01-13.543-.063-20.314-4.195.856-7.501-4.368-6.016-8.015.492-1.944 2.26-3.072 3.411-4.598 1.047-.334 2.166-.345 3.202-.721.031-7.43-.021-14.849-.011-22.268-1.684-.105-3.327-.554-4.959-.972-1.287-.439-1.914-2.152-.868-3.166 2.479-3.135 5.011-6.239 7.281-9.53 1.779-2.372 3.924-4.473 5.577-6.949 7.773-10.178 15.808-20.157 23.048-30.722 11.069-15.56 22.191-31.056 33.155-46.689Zm-9.803 20.501c-3.84 5.465-8.077 10.649-11.864 16.155-4.258 5.424-7.951 11.276-12.293 16.636-2.344 3.637-5.043 7.022-7.523 10.565 1.842.052 3.704 1.181 3.202 3.291-1.203.115-2.428.147-3.599-.198-.095-.418-.304-1.254-.398-1.672-.45.178-.774.481-.994.93-2.981 4.504-6.34 8.746-9.385 13.198-1.182 1.797-2.73 3.365-3.525 5.392-2.333 2.445-4.091 5.371-6.162 8.046 2.521.115 5.042.334 7.564.157 15.714-.491 31.439-.021 47.153-.168 17.859.032 35.718.032 53.588.032 4.216 0 8.464-.282 12.659.104-1.747-2.257-3.285-4.66-4.708-7.126-3.421-4.661-6.131-9.802-9.52-14.484-2.857-5.026-6.466-9.561-9.323-14.587-4.676-6.803-8.955-13.856-13.611-20.659-2.992-5.267-6.748-10.042-9.813-15.256-3.474-5.12-6.791-10.356-10.264-15.487-3.787 4.995-7.47 10.074-11.184 15.131Zm-19.407 79.616c-7.481.157-14.982-.167-22.463.177.115 6.636.146 13.271-.011 19.907 33.051-.115 66.101-.063 99.141-.011-.031-6.834-.136-13.668.01-20.491a4216.705 4216.705 0 0 0-57.458.094c-6.403.115-12.838-.251-19.219.324Zm80.203 1.202c-.104 6.29.021 12.57-.083 18.861l1.234.042c.084-6.656-.534-13.323-.146-19.969-.367.303-1.057.48-1.005 1.066Zm-110.199 1.379c.021 5.831.021 11.672-.01 17.503a70.465 70.465 0 0 1 3.62 0c-.042-6.489-.063-12.968-.011-19.457a19.636 19.636 0 0 0-3.599 1.954Zm-6.581 23.532c-.23 1.286.231 2.979 1.643 3.302 3.317-.083 6.664.136 9.929-.564 30.863 0 61.738-.021 92.601.032 6.204-.094 12.409.397 18.623.344 1.842.126 2.291-1.985 2.176-3.375-1.423-.721-2.783-1.891-4.467-1.797-39.234.01-78.467.01-117.69-.011-1.046.418-2.93.544-2.815 2.069Zm14.166 7.848c.115 10.178-.052 20.366.094 30.544.764 2.822.231 5.779.377 8.663 3.944.125 7.91.209 11.843-.042-.146-13.062-.094-26.134.042-39.207-4.122.042-8.244-.01-12.356.042Zm24.409 0c-.063 13.198-.052 26.406.021 39.604 4.875-.146 9.771-.157 14.657-.011 0-13.197.042-26.406-.01-39.614-4.886.031-9.782-.052-14.668.021Zm26.752-.063c.042 2.059-.199 4.097-.439 6.145-.116 11.16-.032 22.33-.053 33.491 4.687-.053 9.385-.011 14.072.073-.105-13.229-.031-26.459 0-39.677-4.53-.011-9.05.062-13.58-.032Zm26.208.053c.136 13.218.084 26.447.104 39.677 6.226-.063 12.45-.021 18.686.01.021-13.24-.01-26.479.042-39.719-6.277-.01-12.555.032-18.832.032Zm-61.1 2.936c-.083 12.09.021 24.18-.042 36.27 1.214.126 2.448.115 3.673 0-.032-9.676.01-19.342.01-29.008-.136-3.239.377-6.426.544-9.645-1.098 1.181-2.908 1.38-4.185 2.383Zm-23.896.637c-.042 12.028-.115 24.055.011 36.083 1.172-.084 2.343-.084 3.526-.178.91-.502.324-1.703.47-2.508.157-11.787.084-23.585.126-35.372-1.318.784-2.616 1.651-4.133 1.975Zm76.312-.031c.063 12.038.063 24.097-.01 36.145a40.595 40.595 0 0 1 4.216-.021c.105-7.105.042-14.211.063-21.317.042-2.142-.188-4.316.366-6.406.178-3.438.021-6.886.146-10.334a54.201 54.201 0 0 0-4.781 1.933Zm-25.036-.502c-.147 12.059.052 24.108-.063 36.166.837.063 1.695.074 2.553.011-.01-12.341.01-24.672-.031-37.002-.817.292-1.643.543-2.459.825Zm56.507 1.077c.063 11.839.24 23.689.104 35.518a77.86 77.86 0 0 0 4.133.073c-.366-2.644-.084-5.319-.105-7.973.032-9.844-.073-19.687.011-29.541-1.287.846-2.595 1.682-4.143 1.923Zm-124.104 23.271c-.994 3.438-2.574 6.709-4.603 9.655-1.601 3.564-3.819 6.813-5.65 10.262-2.731 4.201-4.76 8.882-7.805 12.853 3.212-1.954 6.759-3.313 9.877-5.444.732-2.832 2.678-5.1 3.704-7.785 2.793-4.295 5-8.924 7.49-13.386 1.078-2.184 1.946-4.546 3.61-6.364.188 2.069-.952 3.877-1.653 5.747-2.061 4.274-3.651 8.809-6.361 12.749-1.318 2.811-2.972 5.423-4.457 8.14 1.59-.679 3.076-1.62 4.781-2.017.084-2.288 1.695-3.971 2.95-5.726 1.434-1.86 2.532-3.95 3.903-5.842 2.134-2.946 3.432-6.363 5.189-9.509 1.402-1.766.607-4.19.764-6.249-3.84 1.286-7.816 1.986-11.739 2.916Zm-11.456 3.595c-2.396 1.598-3.316 4.483-4.635 6.907-1.014 3.135-3.023 5.831-4.017 8.986-.848 2.414-2.438 4.473-3.317 6.876-2.479 4.682-4.635 9.53-7.491 14.013 3.348-1.431 6.11-3.981 9.437-5.486 5.388-11.818 12.796-22.581 18.989-33.971-3.212.094-5.89 2.068-8.966 2.675Zm-12.858 5.81c-.052 1.295-.345 2.581-.973 3.73-2.103 3.919-3.662 8.109-5.66 12.069-2.417 5.183-5.346 10.105-7.794 15.278-1.706 3.281-3.893 6.343-5.169 9.833a4.07 4.07 0 0 0 1.412-.815c2.825-2.843 6.309-4.922 9.354-7.524 1.559-4.138 4.028-7.837 5.618-11.965 2.919-6.008 5.367-12.184 8.307-18.172 1.078-2.006 1.601-4.336 3.159-6.04-2.95.502-5.743 1.986-8.254 3.606Zm25.863 13.542c1.422-.418 2.856-.731 4.341-.783.304-1.328.785-2.613 1.517-3.752 1.099-2.33 3.934-3.072 4.614-5.674-.073-1.985-.115-3.971.387-5.883-2.688 5.862-6.591 11.244-10.859 16.092Zm-38.188-7.147c-2.364 1.18-4.739 3.135-4.875 5.987-1.172 1.819-1.35 4.013-2.281 5.946a577.561 577.561 0 0 1-8.642 20.272c-.627 1.526-1.004 3.177-2.102 4.473-.848 2.414-2.313 4.545-3.066 7.001-1.925 2.8-2.888 6.134-5.126 8.725-.388.512-1.152.983-.88 1.766.879-.438 1.267-1.316 1.476-2.215 1.381-1.149 2.458-2.591 3.787-3.783 3.348-3.887 7.376-7.095 10.975-10.721 2.752-4.713 5.137-9.655 7.533-14.556 4.991-9.3 9.248-18.956 13.841-28.454-3.902 1.024-7.114 3.688-10.64 5.559Zm76.636 1.985c-7.784-.042-15.578.052-23.362-.042-.795-.135-1.224.69-1.779 1.087-2.667.334-4.665 2.999-4.216 5.622.681.742 1.57 1.411 2.522 1.787.795-.366 1.443-1.108 2.375-1.066 13.381-.105 26.783.031 40.164-.46 16.698 0 33.406.011 50.104.011 2.992-.324 5.985-.711 9.008-.418 1.706-2.122 4.269-3.25 6.665-4.4 1.15-.564 1.935.993.857 1.589-1.506 1.066-3.504 1.442-4.749 2.821 3.567-.094 7.156 0 10.734.167.565-.585 1.088-1.212 1.444-1.954 2.092-.303 1.213-2.664.7-3.96-1.475-1.85-3.975-1.056-5.994-1.16-23.708.031-47.415.146-71.123.146-4.446.032-8.924-.282-13.35.23Zm-85.006 4.002c-1.987 1.359-3.839 2.905-5.952 4.065-2.93 2.059-5.608 4.452-8.412 6.667-1.915 1.505-1.841 4.232-3.358 6.019-1.988 7.325-5.619 14.107-8.559 21.087-1.318 2.811-2.05 5.863-3.714 8.506-2.458 5.34-4.802 10.732-7.533 15.957-.544.825-.952 1.933-1.967 2.288 1.183-3.542 2.208-7.189 4.102-10.428 1.872-4.922 4.258-9.625 6.288-14.484 3.337-7.346 6.172-14.922 9.583-22.247.576-.846.628-1.902.722-2.873-1.475.731-2.428 2.152-3.673 3.208-5.429 4.681-10.158 10.115-14.636 15.705-3.861 3.909-7.313 8.172-10.849 12.362-1.277 2.111-1.664 4.619-2.616 6.876-1.831 5.277-3.588 10.69-6.037 15.779-.418 1.212-.617 2.518-1.15 3.71-2.794 5.904-5.148 11.996-7.544 18.067-2.166 5.037-4.478 9.979-6.528 15.058-2.114 5.339-4.688 10.491-6.717 15.873-1.12 1.912-1.632 4.357-3.557 5.663.481-3.197 1.653-6.29 3.034-9.195.784-2.644 1.663-5.277 3.003-7.691 7.815-19.175 16.174-38.183 23.54-57.504.805-.815 1.077-1.881 1.119-2.978-1.036.449-1.716 1.369-2.479 2.163-3.296 3.699-6.121 7.774-9.322 11.546-2.836 3.898-6.299 7.284-8.914 11.338-2.354 3.25-4.321 6.772-6.905 9.844-2.961 4.389-5.451 9.049-8.579 13.323-2.156 3.386-5.001 6.353-6.675 10.032-3.265 9.143-6.361 18.36-10.17 27.294-.983 2.038-1.423 4.274-2.385 6.322-1.988 4.013-3.16 8.391-5.304 12.33-.775 2.184-1.57 4.379-2.574 6.479-1.653 2.111-1.884 4.995-4.007 6.792.826-4.775 2.668-9.362 4.677-13.762 1.433-4.106 3.347-8.025 4.749-12.142.576-2.529 2.156-4.661 2.836-7.148 2.008-4.754 3.452-9.78 5.712-14.378.701-2.404 1.391-4.828 2.689-7.001-4.635 5.486-8.182 11.776-12.618 17.409-2.981 3.176-6.11 6.228-9.05 9.446-1.422 4.253-2.845 8.527-4.791 12.592-1.695 4.232-3.066 8.631-5.116 12.706-.66 3.376-2.815 6.176-3.6 9.51-1.025 1.807-1.673 3.887-2.95 5.517 2.428-.836 4.708-2.038 6.8-3.501 4.353-1.975 8.15-4.88 12.179-7.419 6.131-4.242 11.561-9.425 16.718-14.744 5.545-5.612 10.432-11.808 15.108-18.141 6.162-9.112 12.806-17.869 19.229-26.792 2.972-4.139 6.236-8.12 8.674-12.603-.335-.021-1.005-.073-1.35-.094.659-4.274 3.128-7.941 4.656-11.912 7.376-15.999 14.176-32.29 20.496-48.716.355-.021 1.046-.042 1.401-.053.084 1.526-.428 2.947-1.108 4.295-.367 2.299-1.758 4.253-2.26 6.521-2.302 6.489-5.441 12.623-7.889 19.039-3.819 8.537-7.334 17.242-11.519 25.622-.743 1.714-2.333 3.02-2.354 5.016.241-.115.743-.355.994-.481 6.33-8.62 12.565-17.304 19.167-25.726 3.18-4.023 6.037-8.318 9.51-12.111 3.233-3.679 6.508-7.493 8.213-12.153 1.695-2.717 2.961-5.643 4.478-8.444.554-2.09 2.291-3.615 2.657-5.768 1.58-2.738 2.323-5.862 3.976-8.558 1.486-2.539 2.071-5.465 3.306-8.088 1.151-1.954 1.412-4.253 2.71-6.113 1.067-3.605 2.469-7.189 4.572-10.345-1.099-.146-1.392 1.087-2.177 1.567Zm166.497 8.517c-.01 1.181.052 2.372-.052 3.573.868-1.577 2.469-2.56 3.4-4.085-1.067.313-2.563-.387-3.348.512Zm-95.217 2.257c-.136 6.259-.031 12.518-.105 18.788 15.861-.271 31.732-.021 47.593-.104 2.448.794 5.022.418 7.554.501 8.443.021 16.876.136 25.319.042.544-2.779.156-5.622.292-8.422-.083-3.438.189-6.887-.261-10.293-.502 5.925-.031 11.881-.24 17.827-.095.136-.283.418-.388.554.063-6.155.188-12.331-.073-18.486-25.298.366-50.596.366-75.904.251-1.308.042-2.605-.094-3.787-.658Zm90.415.042c-.638 1.933-1.998 3.511-3.107 5.193-1.204 1.651-3.202 3.135-2.93 5.423 1.35-1.755 2.344-3.866 3.997-5.329 1.496-.888 1.925.972 1.046 1.891-1.716 2.707-3.39 5.445-5.357 7.974.042 1.212-.157 2.403-.23 3.626.534-.596.67-1.422.931-2.122 1.569-1.87 2.71-4.054 4.123-6.019.376-.083 1.108-.24 1.485-.313.188 4.065-3.808 6.29-5.43 9.624 1.998.533 1.36-2.811 3.108-2.613.125-.595.251-1.17.366-1.755a6.674 6.674 0 0 1 2.008-1.244c.115.711.22 1.432.324 2.174-1.035 1.045-1.715 2.383-2.835 3.344a26.687 26.687 0 0 1 3.035-.084c.198-6.667-.042-13.344-.032-20.011-.115.053-.377.178-.502.241Zm-108.556 22.78c1.265-1.139.983-4.818 3.609-4.211.031-1.589.052-3.167.031-4.745-1.59 2.77-3.452 5.696-3.64 8.956Zm17.639.47c.083 1.149.073 2.32-.032 3.49 23.77.136 47.53.021 71.301.063 6.737.083 13.486-.251 20.213.052-.01-1.254-.011-2.508-.021-3.751-1.099.271-2.187.783-3.327.501-2.302-.334-4.625.126-6.926-.125-2.323-.314-4.666-.167-6.999-.22-16.677-.01-33.365.042-50.041.011-8.067.073-16.123.24-24.168-.021Zm-13.957 6.27c-1.109 2.424-2.103 4.911-3.379 7.252.397.857-.921 2.487-.126 2.863.408-1.348.775-2.706 1.34-3.992a9.126 9.126 0 0 1 2.134-.188c-.042-1.985-.042-3.96.031-5.935Zm13.894 1.275c.188 1.515.146 3.04.084 4.577.596 1.421.293 2.999.355 4.503-.136 5.413-.052 10.836-.01 16.26 26.668.575 53.357.209 80.036.366-.042-8.391.073-16.793.021-25.184-24.21.094-48.44.021-72.65 0-2.594-.355-5.21-.564-7.836-.522Zm84.629 3.605c.178 1.588-.387 3.145-.261 4.733 1.098-2.779 2.563-5.454 4.457-7.785-2.344-.992-3.034 1.683-4.196 3.052Zm.419 6.541c-.199 1.547-.073 3.104-.042 4.661 1.297-2.247 2.678-4.441 4.206-6.542.575-1.149 2.584-.679 1.883.763-1.653 3.898-4.174 7.336-6.434 10.889.125 1.504.157 3.03-.053 4.545h.251c.387-1.829 1.612-3.323 2.543-4.911.648-.909 1.475-2.529 2.866-1.787.335.794.23 1.546-.314 2.236-1.328 1.86-2.249 3.981-3.755 5.726 1.768-.177 3.578-.292 5.346 0-.178-8.244.126-16.51-.105-24.755-2.657 2.634-3.63 6.594-6.392 9.175Zm-85.048 20.084a71.213 71.213 0 0 1 0 4.713c15.442.293 30.895.031 46.348.125 14.898-.01 29.807 0 44.705.011.073-1.808.136-3.626-.052-5.423-11.007.146-22.013.135-33.019.114-13.789-.177-27.579.178-41.368.084-5.503.7-11.079.115-16.614.376Zm0 8.747c0 7.032.094 14.054-.042 21.087 18.163.031 36.346.01 54.519.021 5.42.115 10.891-.366 16.29.46 3.212.073 6.434.02 9.657.031-.053-7.001.041-14.003.01-21.004-22.243.042-44.486.021-66.739 0-4.572-.125-9.175.23-13.695-.595Zm87.391.689c-1.036.784-1.684 1.954-2.302 3.072-.209 5.967.042 11.944-.125 17.921.806.063 1.789.607 2.511-.031.795-.658 1.58-1.411 2.731-1.024.031.397.094 1.181.115 1.568.167.01.481.02.638.02.084-7.22.073-14.43.042-21.651-1.214.031-2.428-.084-3.61.125Zm-87.391 24.964c.021 1.15.021 2.32.031 3.48.701.732 1.392 1.484 1.695 2.487 13.507.418 27.024-.188 40.531-.063 16.248.021 32.496-.073 48.744 0 .021-2.016.031-4.012-.042-6.008-8.276.271-16.572-.105-24.848.177-5.44.147-10.881.042-16.31.063-16.604-.167-33.197.209-49.801-.136Zm.533 9.938a20.42 20.42 0 0 1-.481.491c-.094 7.785.042 15.559-.042 23.344 26.815-.01 53.63-.041 80.455.042-.146-7.806-.052-15.611 0-23.407-16.038-.083-32.067.021-48.105-.083-10.588-.69-21.218-.324-31.827-.387Zm84.483.439c-.021 7.983.042 15.967-.021 23.95 1.988.084 3.976.105 5.975.094.031-8.015.062-16.019 0-24.034a369.473 369.473 0 0 0-5.954-.01ZM89.414 374.132c-1.978 1.463-3.85 3.208-4.73 5.559-1.547 3.814-3.19 7.597-4.728 11.411-2.103 3.124-2.407 7.398-5.294 9.979.502-1.724.826-3.501 1.506-5.162 2.344-5.559 4.604-11.16 6.947-16.719-1.747.783-3.107 2.173-4.645 3.26-1.36.982-2.93 1.745-4.028 3.051-3.463 8.558-6.371 17.326-10.483 25.602 5.775-.178 11.404-2.111 16.656-4.421.533-1.776.889-3.636 1.852-5.235 1.475-2.758 2.25-5.799 3.41-8.673 1.371-2.299 2.124-4.89 3.212-7.315 2.312-5.757 4.593-11.515 6.916-17.262-2.082 2.1-4.206 4.169-6.591 5.925Zm199.787-3.501c.136 1.745.168 3.511.042 5.267 8.244.637 16.509-.063 24.753.052 22.076.042 44.151-.052 66.237.052l-.031-4.911a49.27 49.27 0 0 1-5.953.052c-.335 1.912-3.045.669-4.447.972a75.185 75.185 0 0 1-.188-1.484c-26.804-.01-53.609-.031-80.413 0Zm.042 9.363c.178 6.207.105 12.435-.021 18.663 8.255.042 16.499 0 24.754.01 3.285.575 6.622.335 9.949.418 15.244.115 30.487.011 45.731.115-.032-6.238-.032-12.466 0-18.694-24.775-.031-49.56.062-74.335-.084a34.792 34.792 0 0 0-6.078-.428Zm84.954.512c.094 6.238.041 12.477.01 18.705 1.998.146 3.996.25 6.016.188-.032-6.322.073-12.655-.053-18.977-1.988.084-3.986.094-5.973.084ZM62.003 391.708c-1.026.627-.953 2.069-1.455 3.072-1.716 4.305-3.369 8.631-5.189 12.895-.638 1.599-1.894 3.02-1.978 4.807 3.422.209 6.822-.899 10.243-.356.576-.031-.188-.574-.324-.721 1.15-4.295 2.95-8.37 4.227-12.602 2.05-4.023 3.117-8.454 5.136-12.487-3.483 1.923-6.852 4.159-10.66 5.392Zm-9.95 2.633-.178.554c-3.17.407-6.215 1.421-9.374 1.912-1.298-.209-2.574-.501-3.882-.627-2.97 4.556-4.394 10.565-2.082 15.695 2.815-.167 5.451 1.192 8.287.92 1.203-4.336 2.992-8.454 4.739-12.581.764-2.268 1.873-4.932 4.436-5.591.22 2.623-1.768 4.661-2.427 7.064-.555 2.195-1.727 4.149-2.281 6.343-.46 1.797-1.684 3.313-2.009 5.152 2.448-.366 4.886.324 7.313 0a23.645 23.645 0 0 0-2.563-.439c1.203-.805 1.423-2.299 1.977-3.501 1.685-5.402 3.714-10.679 5.231-16.134-2.416.345-4.708 1.379-7.187 1.233Zm237.2 8.893a69.144 69.144 0 0 1-.021 5.329c1.894.146 3.756-.178 5.598-.617 2.542-.156 5.084-.397 7.637-.271 1.078-.397 2.239-.366 3.369-.345a2330.37 2330.37 0 0 1 25.632-.052c6.173-.659 12.399-.282 18.592-.356 10.044-.02 20.098.053 30.142.063.01-1.118.031-2.226.052-3.312-7.093-1.275-14.271-.356-21.427-.523-23.184.021-46.379.063-69.574.084Zm84.933 8.652c.084 6.082.042 12.153-.052 18.234 1.987-1.442 3.85-3.093 6.015-4.263.157-4.671.053-9.342.053-14.013-2.009 0-4.007.011-6.016.042Zm1.025 19.551c-.868.847-2.375 1.494-2.281 2.905 2.365-.972 4.091-2.978 6.288-4.253.513.22 1.026.449 1.549.69-.063-1.097-.115-2.184-.168-3.271-1.747 1.379-3.525 2.707-5.388 3.929Z" fill="#040606"/></svg>