<svg width="480" height="480" fill="none" xmlns="http://www.w3.org/2000/svg"><g clip-path="url(#a)" fill="#040606"><path d="M330.461 436.086c-.123 3.011.079 6.048 0 9.051.251 1.673-.719 2.823-1.295 4.144 1.92 1.948 4.725 2.72 5.947 5.577.367 1.004 1.46.412 2.194.429.179-.806.381-1.604.575-2.402-.798-1.467-2.136-2.703-2.186-4.573-.043-3.003 1.021-6.615 3.811-7.233 0-2.445-.014-4.89.043-7.336-3.07.567-6.206 1.081-9.089 2.343Zm-68.372-10.682c.093 7.327-.036 14.671.014 21.998 2.1.824 2.488 3.733 4.07 5.268 1.755-1.484 4.2-2.145 6.141-.695-.244-1.544-.431-3.44.669-4.624.899-1.321 2.596-1.467 3.797-.592 2.481 1.639 3.94 4.89 6.594 6.28.244-1.587.144-3.577 1.366-4.641.993-.901 2.352-1.896 3.617-1.047 2.776 1.536 5.796 2.274 8.86 2.008.431-1.811 1.402-3.578 3.034-4.076 2.553-1.158 5.552 1.158 5.947 4.324.065 2.291 2.237 1.905 3.574 1.905-.079-2.188 1.079-3.861 2.711-4.667-.992-6.89-.367-13.925-.46-20.866-6.788-.163-13.576-.018-20.343-.138-2.395-.163-4.775.695-7.12-.111-7.485-.249-14.978.008-22.471-.326Zm3.48-15.847c-1.589 1.278-2.862 3.767-5.026 3.286a65.374 65.374 0 0 0 .1 5.457c3.308.163 6.623.034 9.938-.343 4.415-.086 8.831-.001 13.246-.069-.065-9.558-.007-19.124.086-28.674-5.724 7.25-11.663 14.328-18.344 20.343Zm23.781-23.251c.144 10.519.611 21.003.345 31.548 7.622.103 15.245-.026 22.867.034.058-10.407.022-20.832.022-31.256-2.761 0-5.494-.035-8.22.051-.791 2.102-2.595 3.097-4.199 4.093-2.632 1.458-5.177 3.183-7.946 4.221-.884.335-2.934.069-1.819-1.476 1.229-1.544 3.02-2.11 4.595-3.037 2.251-1.347 4.516-2.694 6.889-3.741-4.178-.171-8.349-.549-12.534-.437Zm-4.984-15.71c-1.524 2.48-3.264 4.779-5.112 6.941-1.669 1.888-3.128 4.136-5.207 5.423 3.287-.395 6.602-.249 9.902-.155.36-4.049.036-8.151.417-12.209Zm-24.593-12.38c0 9.412.317 18.815.302 28.253.568 8.511-.144 17.099.575 25.61 4.106-3.86 8.09-7.936 12.081-11.977 3.725-4.633 7.803-8.906 11.254-13.839-6.651.154-13.289-.292-19.933-.163-1.352-.035-2.834.214-3.984-.807-.389-1.441.755-2.368 1.805-2.514 3.257-.266 6.529.155 9.78-.248 4.746-4.831 8.19-11.18 12.642-16.362.093-2.583.072-5.165.151-7.73-2.762 1.261-5.322 3.002-8.04 4.367-1.136.549-2.359 1.501-3.596.892.015-1.012.863-1.416 1.511-1.845 2.617-1.51 5.321-2.779 8.01-4.161-4.666-.034-9.334.026-13.972.112-2.869.257-5.724.506-8.586.412Zm29.181-.661c0 1.029.036 2.042.079 3.071.856-.437 1.733-1.141 2.733-.652.848 1.956-1.115 3.098-1.992 4.376-.942.807-.496 2.308-.561 3.466 0 4.221.403 8.469.036 12.681 2.79-2.625 5.206-5.748 7.759-8.674-2.33 3.767-5.357 6.898-7.644 10.742 3.286.043 6.573.189 9.859-.172 4.444-.317 8.91-.034 13.375-.326-.021-3.912 0-7.824-.014-11.728-.086-4.565.676-9.095.424-13.651-8.004.635-16.021 1.004-24.054.867Zm57.471-1.219c.057 2.566.043 5.157.086 7.722 2.424-.231 4.861.549 7.306.138 5.199-.721 10.441-.335 15.669-.421 8.687-.051 17.374-.051 26.068-.12-.173-2.6-.201-5.216.007-7.825-16.359.704-32.755.103-49.136.506Zm-28.822-2.042c-.014 1.27-.036 2.532-.014 3.801.518 19.339.151 38.704.266 58.051-.158 2.943.482 6.178-.949 8.82-.41 7.55.762 15.307-.741 22.771 1.359 2.008 3.193 4.17 5.559 3.878.338-1.819 1.107-3.501 2.66-4.187-.028-14.731.022-29.454.036-44.169.108-16.327-.223-32.646.575-48.922-2.473-.163-4.932-.025-7.392-.043Zm-285.418.781c-2.668.996-5.63 1.665-7.608 4.264-2.215 2.832-4.71 5.783-5.394 9.721-1.042 4.385-2.085 8.795-2.459 13.333 14.605-.283 29.21.026 43.815-.111-.841-3.055-1.057-6.341-2.15-9.309-.906-2.531-1.129-5.397-2.495-7.671-2.517-3.818-5.688-7.31-9.65-8.717-3.546-.248-7.098.06-10.622-.163l.252-1.012c2.51-.412 5.062-.129 7.586-.18-3.566-1.725-7.637-1.407-11.275-.155Zm297.492-1.132c.705 6.932.18 13.959.381 20.926.065 18.867.374 37.751.194 56.626 3.035-.643 6.048-1.716 9.197-1.527.008-4.272.029-8.545-.079-12.801-2.114.446-5.975 1.056-6.443-2.308 1.223-2.78 4.315-1.819 6.45-1.733.065-7.679.101-15.383-.014-23.08-2.064.61-4.063 1.845-6.206 1.631-.956-.138-1.502-1.141-2.106-1.854 1.898-2.788 5.292-1.896 7.945-1.879.108-9.3.022-18.601.051-27.91-.058-2.29.273-4.684-.554-6.846-2.941.266-5.861.901-8.816.755Zm-321.632-.764c-.13.721-.252 1.45-.331 2.179-.82-.36-1.647-.686-2.488-.746-.094 11.282.309 22.582.56 33.847.274 20.394.065 40.806.073 61.208.97-.214 2.07-.549 2.675-1.604 1.014-1.767.834-4.015.891-6.057-.093-18.498.151-36.988.41-55.494.13-5.303-.438-10.82 1.144-15.907 1.107-3.664 1.934-7.542 3.703-10.854 1.546-2.273 3.02-4.676 4.918-6.572-3.854 0-7.708.035-11.555 0Zm240.51-.652c.978.481.856 1.965.928 3.02.007 3.243-.094 6.495.223 9.721.482 25.362.223 50.741.366 76.111 1.108.893 3.093.567 3.488 2.549 1.309 3.088-1.064 6.469.316 9.583.288-.086.842-.274 1.108-.352.777-.755 1.646-1.304 2.567-1.793-.554-1.158-1.388-2.256-1.266-3.663-.05-7.379.022-14.749-.05-22.136-1.56-.824-2.445-2.866-2.193-4.848.309-14.011-.209-28.03.532-42.015.029-8.64.166-17.305.058-25.962-2.043.077-4.063.025-6.077-.215Zm-14.569-.566c.698 3.063 1.23 6.203 1.036 9.42 0 13.977.036 27.953-.029 41.93-.525 8.228-.216 16.482-.446 24.727.626.146 1.266.3 1.942.472.251 1.767-.784 2.668-2.172 2.496-.618 4.556-.194 9.181-.288 13.78 1.611.652 2.898 2.059 3.51 3.963 1.035-.875 1.991-2.042 3.3-2.411 1.18-.197 2.388-.12 3.61-.085-.129-20.223-.029-40.454-.072-60.694-2.092.138-4.315.112-6.184-1.107-.791-1.003 0-2.591 1.028-2.745 1.74-.137 3.481.472 5.214.772-.043-3.166.029-6.332.014-9.506-.158-4.325.561-8.623.439-12.947.194-2.634-.64-5.714 1.043-7.859-3.984.3-7.976-.258-11.945-.206Zm-265.945-.086c-.575 8.537-.252 17.1-.381 25.645-.086 23.32-.137 46.665-.029 69.994 2.23 1.132 4.74 2.951 7.256 2.033 1.143-1.072 2.193-2.488 3.753-2.685 2.374-.532 3.502 3.706 5.933 2.514-.503 1.33-1.855 1.518-2.617 2.548 2.689.103 5.371-.137 8.068.154 3.416-1.218 7.263-1.312 10.556.515-.417-2.445-.61-4.942-.503-7.447 0-16.516-.05-33.067-.007-49.617-.1-7.542.496-15.066.496-22.591-.014-6.58.115-13.17.13-19.733-10.248 0-20.502.249-30.735-.455-.74-.008-1.301-.54-1.92-.875Zm.18-13.539c.115 2.617 0 5.251-.151 7.876 10.01-.909 20.041-.695 30.065-.686 36.042.051 72.083.137 108.125.137 1.711.112 3.609-.446 5.184.67.827.583 1.978.978 2.819.18 3.545-3.141 7.299-5.972 11.319-8.16-14.001 1.493-28.045-.043-42.075-.051-14.957.017-29.907-.155-44.865-.017-10.858.077-21.717-.301-32.553.085.122 1.485-.475 3.621-1.992 3.458-1.712.3-2.61-1.767-2.517-3.526-11.125-.026-22.249-.429-33.36.034Zm364.527-1.184c-6.674.472-13.347.275-20.02.3a7111.56 7111.56 0 0 1-38.364.035c-16.367.188-32.719.352-49.079.249 3.064 2.359 5.789 5.31 8.068 8.699 5.904.146 11.837.181 17.74.918 11.01.172 22.019.129 33.029.086 8.996-.54 18.006-.48 27.016-.686 6.3-.086 12.57-.978 18.884-.927 1.647.069 3.293-.103 4.875-.738 1.532.078 3.042.335 4.581.455-.064-2.848-.086-5.697.036-8.545-2.272-.172-4.516.12-6.766.154ZM16.552 314.321c-.05 5.886.546 11.772.294 17.658 15.123-.224 30.253-.095 45.376-.035.007-5.774.072-11.54.021-17.297-6.802.412-13.576-.514-20.357-.326-8.443 0-16.885.069-25.334 0Zm101.055-10.381c-.173 3.449.424 6.846.352 10.287.123 5.577.194 11.171.317 16.765 4.803.652 9.693.3 14.482 1.312.116.318.353.953.468 1.279 2.581-.257 4.839-1.931 7.191-3.072 4.732-2.779 9.715-4.873 14.77-6.666-.05-2.574-.165-5.148.18-7.696.475-3.998.172-8.048.395-12.063-12.721-.283-25.441-.06-38.155-.146Zm143.388-.343c-.352 5.268-.064 10.57-.186 15.838.064 3.595-.382 7.19-.087 10.776 9.758-.051 19.51.034 29.253 0 7.86-.034 15.749.549 23.609.06a152 152 0 0 1-.015-7.241c-1.129-.335-2.603-.729-2.761-2.368.402-1.459 1.754-1.261 2.783-1.459a440.835 440.835 0 0 1-.007-15.169c-17.525-.197-35.064.086-52.589-.437Zm-75.671-.035c-.093 5.483.044 10.965-.1 16.456 8.759 1.905 17.481 4.376 25.657 8.666 2.129.772 4.344 2.917 6.616 1.596 3.107-.558 6.3 0 9.435-.335.065-8.571.1-17.16.144-25.739-13.922 1.055-27.844-.618-41.752-.644Zm161.101-2.677c.158 15.976.014 31.977.043 47.944 13.785 0 27.585.017 41.377.052 2.733-.035 5.479.317 8.205-.249.388-.549.856-1.073 1.316-1.596-3.028-1.965-5.588-4.762-8.406-7.07-2.337-2.865-5.789-3.689-8.363-6.143-1.935-1.802-4.056-3.294-5.984-5.105-1.84-1.664-3.264-3.955-5.342-5.216-3.639-3.364-7.335-6.675-10.665-10.468-4.379-3.569-8.622-7.421-12.181-12.149Zm-283.671-1.209c-.69 1.424-1.266 3.577-2.927 3.577-5.422.112-10.858.06-16.28.026-8.996-1.072-18.043-.463-27.053-.6-.014 2.316 0 4.607.108 6.915 15.18-.129 30.368-.095 45.54-.412.101-.112.267-.317.36-.42.087-3.038-.1-6.083.252-9.086Zm213.098-1.648c2.999.112 6.019.249 9.025-.094-.101-2.857-.158-5.731.065-8.58-2.985 2.986-6.07 5.783-9.09 8.674Zm70.637-6.761c3.984.489 5.703 5.354 8.644 7.911 2.582 2.231 4.976 4.762 7.687 6.769 3.977 4.11 7.954 8.349 12.441 11.712 1.992 1.647 3.365 4.152 5.415 5.757 2.071 1.518 3.911 3.509 6.133 4.805 6.026 3.423 10.456 9.592 15.857 14.139 1.797 1.476 3.451 3.192 5.256 4.685 1.216 1.012 1.863 3.054 3.517 3.157-.044-.824-.079-1.639-.144-2.445-1.949-5.182-5.602-8.932-8.888-12.861-2.021-1.854-3.308-4.711-5.624-6.092-1.877-1.15-3.049-3.389-4.889-4.59-4.013-2.557-7.63-5.903-11.492-8.769-2.481-1.887-4.595-4.401-7.176-6.083-2.611-1.553-4.408-4.53-7.112-5.894-2.294-1.21-4.056-3.346-5.897-5.294-2.991-2.419-5.803-5.105-8.579-7.825-1.539-1.69-3.214-3.277-4.199-5.499-.13 2.179.115 4.487-.95 6.417ZM36.197 279.608c-.553 5.705.302 11.531-.424 17.202-.172-5.611.187-11.239-.144-16.851-3.408 1.939-6.457 4.625-9.823 6.65-2.955 1.759-5.558 4.281-8.615 5.834-.294 1.561-.517 3.157-.567 4.77 6.508-.146 13.023-.017 19.538-.094.632-4.35.1-8.786.28-13.17-.072-1.45.23-2.986-.245-4.341Zm110.418 6.597c-2.934 2.78-5.932 5.466-9.161 7.739-.201 1.304-.158 2.651-.173 3.956 5.811.008 11.621-.018 17.41 0-.115-6.504.388-13.007.36-19.528-2.625 2.891-5.437 5.525-8.436 7.833Zm80.489-9.884c-4.99 4.659-9.772 9.807-15.618 12.939-.489.3-1.101.446-1.36 1.072-.215 2.377-.079 4.771-.086 7.156 5.652-.275 11.326-.455 16.957.334-.137-7.155.165-14.328.107-21.501Zm-17.064-4.607c.014 5.525-.101 11.077.079 16.593 3.89-3.191 8.133-5.834 11.599-9.746 1.719-1.793 3.689-3.226 5.322-5.148.021-.36.057-1.064.072-1.416-5.688.421-11.384-.249-17.072-.283Zm-73.104.215c.18 1.372.029 2.719-.151 4.075 1.115-1.39 2.294-2.728 3.423-4.135a79.984 79.984 0 0 0-3.272.06Zm-20.422-.318c.007 5.182-.007 10.356.007 15.53.043 3.646-.194 7.43 1.064 10.853 4.761.257 9.557.206 14.325-.129.136-5.036.165-10.081.05-15.143.446-3.569.309-7.19.511-10.802-5.315-.24-10.65 0-15.957-.309Zm69.357-.909c.065 9.094.245 18.189.065 27.292 6.321.575 12.656-.292 18.998-.137-.072-7.019.072-14.028 0-21.038-1.711 1.553-3.271 3.32-5.127 4.599-1.697 1.15-3.013 2.977-4.846 3.809.194-1.621 1.545-2.359 2.394-3.457a52.338 52.338 0 0 1 5.099-5.62c1.093-1.321 2.941-2.411 2.509-4.642-6.371.086-12.749-.128-19.092-.806Zm-32.079 1.089c-3.797.301-7.608-.111-11.405.172-1.87 1.673-3.509 3.749-5.149 5.74-.014 4.65.036 9.292.086 13.942 5.883-5.525 12.247-10.313 17.762-16.379-.122-1.527-.143-3.071.13-4.581-.46.403-.798 1.158-1.424 1.106Zm149.846-2.591c-1.467 1.939-3.185 3.552-4.731 5.363-1.288 1.51-3.042 2.539-3.797 4.573 2.128-.284 3.48-2.917 5.731-2.832-.496 1.442-1.827 2.059-2.74 3.029-1.416 1.175-3.121 3.14-4.803 1.536-1.057 1.029-2.891 1.767-2.711 3.715-.029 4.453-.008 8.931.1 13.384 7.119-.051 14.246-.18 21.372.052-.072-9.601-.072-19.21-.051-28.82-2.79-.146-5.58-.12-8.37 0Zm-13.433.035c.18 3.981.072 7.996.151 11.994 3.351-4.384 7.299-8.013 10.974-11.977-3.71-.163-7.428-.249-11.125-.017Zm-248.09 5.293c-.416 4.385-.18 8.915-.086 13.359 4.847-4.479 9.766-8.854 14.418-13.599.497-.721 1.51-.969 1.935.06-1.38 2.643-3.711 4.35-5.538 6.546-3.76 2.832-6.816 6.804-10.721 9.37-.31 2.119-.237 4.255-.1 6.383 5.27-.223 10.541-.103 15.812-.137.065-.369.18-1.107.237-1.485 1.906-.3 3.301-2.316 3.107-4.633-.029-7.035-.058-14.053.022-21.089-4.639-.103-9.291-.189-13.915.026-1.676 1.81-3.286 3.689-5.17 5.199Zm-.517-6.272c-.014 1.33.014 2.669.05 3.999 1.323-1.193 2.761-2.171 4.077-3.372-1.38-.292-2.754-.455-4.127-.627Zm105.736-2.059c2.589.232 5.315-.549 7.788.712-.043-3.474-.187-6.958.072-10.45-2.466 3.432-5.566 6.152-7.86 9.738ZM56.8 236.975c.302 2.11-1.388 3.234-2.61 4.272-4.229 3.089-8.112 6.933-12.793 9.052-.03 2.299-.036 4.59.086 6.89 1.301-.695 2.337-1.914 3.516-2.875-.963 1.407-2.186 2.523-3.221 3.844-.475 1.553-.159 3.278-.187 4.933 4.494-.077 9.01-.206 13.526.052.036.3.144.901.201 1.21 1.92.497 3.934.206 5.904.137-.093-5.783-.014-11.566-.057-17.331-.058-1.922-.216-4.17-1.712-5.294.475-1.604.439-3.338.338-5.011a24.702 24.702 0 0 0-2.991.121Zm-15.504-.103c.057 2.179.079 4.375.15 6.555 1.295-1.047 2.604-2.128 4.157-2.566-1.107 1.622-2.804 2.403-4.041 3.853-.338 1.492-.151 3.054-.08 4.555 2.942-2.737 5.94-5.396 8.925-8.073 1.546-1.356 3.207-2.565 4.501-4.256-4.537-.231-9.082.017-13.612-.068Zm-25.032-.386c.245 12.801.338 25.619.245 38.428-.037 5.363.496 10.708.287 16.062 3.567-1.759 6.429-5.088 10.032-6.795 2.56-1.914 5.07-3.956 7.63-5.895.582-.583 1.574-1.029 1.595-2.093.072-2.686.166-5.371.23-8.048a517.732 517.732 0 0 0-15.467-.189c-1.33-.026-2.726.223-3.883-.669.072-1.055-.065-2.136.216-3.157.726-.687 1.725-.524 2.617-.592 5.501-.052 11.024.205 16.51-.507 0-8.708-.1-17.391.195-26.091-6.731-.394-13.512.481-20.207-.454Zm310.745-.747c.388 6.598-.331 13.196-.23 19.802.057 18.035 0 36.078-.309 54.122-.331 6.975-.417 13.993-.482 20.986 4.423-.103 8.845.257 13.282-.043.179-2.428.1-4.856.072-7.302-.051-2.393.273-4.976-.885-7.104.597-1.184.971-2.479.863-3.886-.115-9.653.144-19.296-.007-28.957-.079-2.411-.115-4.856.647-7.139.532-4.513-.367-9.034-.323-13.547-.015-8.957-.188-17.923-.109-26.872-4.17-.086-8.341-.274-12.519-.06Zm-87.874-.051c.892.532 1.647 1.398 2.244 2.411-.058 30.655.186 61.336-.281 91.992 2.157.034 4.329.034 6.494.043-1.014-12.775-.461-25.611-.605-38.429-.143-11.188.346-22.402-.33-33.547-.094-7.516-.166-15.015-.079-22.539-2.467-.317-5.013-.515-7.443.069Zm-6.939-.224c.064 29.3-.18 58.592.179 87.892-.021 2.248.245 4.59-.467 6.744 1.467.008 2.948.034 4.451.077-.072-30.244-.136-60.496-.101-90.74-.237-1.828.964-3.012 2.1-3.921-2.064-.232-4.12-.172-6.162-.052Zm84.465-.3c-.172 2.274-.287 4.693.583 6.804 1.294 3.252.884 6.915 1.287 10.382.345 7.292-.058 14.62.316 21.912.194 18.661.123 37.314.043 55.983 1.252.163 2.524.241 3.812.215.086-6.298.028-12.587-.072-18.858-.482-4.479-.23-8.992-.295-13.479-.115-17.846.072-35.692-.245-53.53-.05-3.097-.359-6.177.051-9.266-1.841.112-3.675.017-5.48-.163Zm-56.147.086c.021 8.897.266 17.829.136 26.726-.618 2.797.259 5.577.072 8.4-.129 9.197.158 18.395-.072 27.575 4.315.223 8.716.403 13.002-.069 3.797-3.552 7.5-7.249 11.16-11.007.137-5.646.151-11.283.13-16.928-2.862 2.917-5.732 5.782-8.515 8.785-2.934 2.497-5.666 5.534-9.067 7.07 1.337-3.552 4.595-5.208 6.961-7.653 3.142-3.458 6.407-6.752 9.657-10.056-.619-.437-1.33-.849-2.035-.823-5.228-.275-10.485.197-15.705-.232-1.863-.12-3.84.146-5.48-1.124-.007-.875 0-1.724.007-2.582.878-.515 1.755-1.099 2.798-.987 7.162-.06 14.295-.438 21.458-.369.108-3.415.503-6.821.187-10.21-3.43 2.377-7.098 4.144-10.751 5.937-1.474.678-2.927 1.605-4.516 1.691.158-1.27 1.273-1.579 2.122-2.034 2.373-1.098 4.53-2.728 6.881-3.912 2.186-1.485 4.689-2.394 6.508-4.573.209-4.282-.539-8.752.647-12.879 1.295-.652 3.15-.634 3.596 1.348.309 2.642.079 5.345.324 8.004.863-.489 1.74-1.012 2.646-1.458.496-.112 1.654-1.073 1.754.086-.784 1.295-1.977 2.085-3.092 2.865-.467.472-1.417.584-1.251 1.528-.072 4.272-.151 8.562.086 12.843 3.136-3.878 6.53-7.687 10.643-10.029-.446 1.638-1.719 2.617-2.689 3.758-2.107 2.119-4.143 4.315-5.962 6.795 3.423.051 6.86.008 10.291-.026 3.221-.386 6.313 1.236 9.556.712-.064-9.06.008-18.146 0-27.198-17.157 0-34.315.189-51.487.026Zm-9.154.026c.079 6.752-.058 13.496-.223 20.248-.022 17.666 0 35.306-.007 52.963.165 7.241-.209 14.457-.842 21.647 1.82.026 3.646.043 5.487.051-.122-8.537-.079-17.091-.086-25.645.093-1.801-1.187-3.251-.964-5.079.086-5.585-.18-11.214.281-16.773.093-9.472.158-18.945.193-28.417-.1-6.34.367-12.689.065-19.021-1.316.051-2.624.06-3.904.026Zm-65.956.026c.604 3.028.165 6.177.302 9.283-.086 7.593.1 15.195.165 22.805 1.331-.36 2.646-.206 3.977.266a4.257 4.257 0 0 0-.705-.901c5.293.103 10.549-.489 15.842-.403-.043-4.702.618-9.378.266-14.062-2.762 2.093-5.271 4.658-8.105 6.632-1.869 1.261-3.429 3.277-5.594 3.809.388-1.613 1.812-2.265 2.855-3.166 3.351-2.419 6.4-5.328 9.557-8.082.632-.601 1.481-1.253 1.395-2.377.273-3.569-.353-7.284.575-10.742.331-1.879 2.948-1.578 3.178.284.36 2.565.389 5.165.49 7.756a24.518 24.518 0 0 1 2.027-1.133c-.007 1.536-1.33 2.18-1.999 3.269-.51 5.929.432 11.84.173 17.769 2.265.386 3.214-2.54 4.775-3.913 1.725-1.613 3.451-3.715 5.702-4.101-1.46 3.106-3.725 5.534-5.89 7.92 4.229.034 8.457-.344 12.686-.018 0-10.304.028-20.617-.015-30.921-13.886.086-27.779.12-41.657.026Zm-5.027-.052c-.129 7.619-.201 15.255-.475 22.882-.1 10.099-.021 20.206-.05 30.321-.144 7.473.31 14.972-.23 22.419-.057 2.96.022 5.92-.115 8.88.784.206 1.625.301 2.416.61a5.006 5.006 0 0 0 2.884-.018c-.367-1.372-1.424.129-2.136-.24-1.352-.952-.848-3.011-.949-4.521-.101-5.629.295-11.283-.561-16.843-.13-18.884.086-37.802.05-56.712.029-2.265-.23-4.616.482-6.778h-1.316Zm-22.486.094a8.95 8.95 0 0 0-.618 1.004c.783.035 1.718-.077 2.3.79 1.036 1.055.655 2.831.756 4.272.323 9.361.179 18.73.165 28.091.575.102 1.517-.455 1.87.403-.281 1.141-1.187 1.87-1.784 2.763-.187 8.665.338 17.339-.028 25.988-1.316 3.723-.597 7.824-.777 11.728.302 3.973.583 7.937.805 11.9 1.748-.48 3.517-.849 5.286-1.287-.763-4.555-.324-9.214-.482-13.83-.187-19.991.043-39.982-.029-59.99 0-3.432-.367-6.967.309-10.356.518-1.707 2.143-1.287 3.366-1.424.805.892 1.589 1.948 1.488 3.372.115 10.956.008 21.904.058 32.877-.158 16.139.367 32.286-.489 48.408a78.538 78.538 0 0 1 6.206-.249c-.029-20.54 0-41.089-.151-61.629-.561-7.619-.331-15.28-.432-22.908-2.624.146-5.249.129-7.853-.189-3.315.447-6.651.206-9.966.266Zm-52.509-.12c1.122.678 1.762 2.059 1.632 3.578.324 30.716.712 61.431.446 92.156 1.683.163 3.387.171 5.092-.078-.23-8.863.654-17.674.525-26.528-.777-.627-1.791-1.124-1.992-2.325-.993-4.676-.245-9.515-.633-14.243-.029-6.658-.087-13.307.028-19.956.827-9.49-.093-19.108.986-28.563.618-2.728 4.35-1.947 4.357.807.317 8.914.461 17.863.49 26.812.74-.335 1.495-.67 2.344-.618 4.609-.052 9.233-.009 13.85-.034-.166-5.903.014-11.815-.008-17.709.094-3.14-.424-6.409.626-9.369 1.366-.687 3.287-.438 3.768 1.518.432 5.002-.065 10.056.252 15.067 4.458-3.063 7.824-7.988 12.333-10.991-1 2.677-3.352 4.058-5.113 5.92-2.244 2.308-4.804 4.118-7.155 6.22-.324 3.046-.101 6.126-.13 9.189 2.661.035 5.372.335 8.018-.129 3.337-3.775 6.429-7.876 9.995-11.359-.079-3.544-.079-7.087.044-10.613.079-2.042-.23-4.187.553-6.092-11.613.515-23.255.995-34.869.266-2.013-.06-4.163.12-5.911-1.244a47.722 47.722 0 0 1-.769-1.613c-2.92.009-5.854.172-8.759-.069Zm-41.204-.06c1.129.223 1.927 1.193 2.639 2.197-.036 22.204.036 44.391-.029 66.579.173 9.335.352 18.661.316 28.004a60.596 60.596 0 0 1 5.847-.026c-.087-2.393-.072-4.787.1-7.181-.244.549-.453 1.098-.582 1.682.014-9.858.23-19.717-.388-29.558-.058-11.17-.115-22.35-.144-33.529.158-7.774-.72-15.53-.374-23.312.216-2.762 2.819-4.401 4.897-3.183 1.82 1.691 1.51 4.676 1.51 7.121-.216 12.149-.036 24.298-.546 36.413.373-.283.762-.601 1.2-.815 3.287-.772 6.695-.609 9.931.403 0 .515-.021 1.536-.029 2.042-1.761.773-3.624 1.099-5.494.935-1.912-.145-4.2.584-5.724-1.201.425 6.315-.021 12.664.058 18.987-.431 10.322-.144 20.652-.568 30.965 8.126.206 16.244-.369 24.363-.283-.05-22.17-.007-44.323.072-66.476-2.316.746-5.717 1.321-7.148-1.596 1.712-2.694 4.703-1.107 6.968-2.334.432-2.179.094-4.504.223-6.735-.144-4.925.568-9.815.353-14.757-.18-1.794.496-3.407 1.747-4.376-3.905.395-7.831.086-11.758.18-9.154-.077-18.3.129-27.44-.146Zm-57.96-.231c.08 21.26.014 42.53.036 63.807.072 11.077-.187 22.171.137 33.247 1.617-.12 3.25-.137 4.897-.069-.209-5.86.28-11.754.165-17.64-.137-7.112.568-14.242-.28-21.303.496-19.322.021-38.678.517-57.982-1.826-.052-3.653-.06-5.472-.06Zm-37.141.008c.071 26.246.028 52.474-.044 78.694-.352 6.117-.402 12.252-.438 18.386 11.017 0 22.012-.214 33.02-.077-.071-32.286-.042-64.563.101-96.84-7.86-.36-15.74-.111-23.6-.24-3.02.034-6.034-.3-9.04.077Zm330.175-12.732c-13.102-.035-26.19 0-39.285-.017.216 1.209.36 2.428.468 3.672 2.056-.489 4.659-1.742 6.098.849 4.94.343 9.873-.249 14.828-.197 10.089-.549 20.185.197 30.281.026 2.035-.412 3.344 2.213 5.386 1.664 7.349-.987 14.763-.403 22.141-.558.323-2.033.273-4.135.137-6.203-4.71-.12-9.428 0-14.145-.043-8.644-.128-17.273.764-25.909.807Zm-330.125-1.39c-.05 2.668-.05 5.328.022 7.996 16.855-.558 33.718-.266 50.581-.334 51.171-.558 102.357-.421 153.535-.438 13.138.077 26.291-.609 39.443.017 14.389-.051 28.779.086 43.168.034.108-1.964.172-3.938.438-5.885-45.691.051-91.398.103-137.089.086-17.863-.018-35.725.128-53.566-.284-31.518.112-63.044-.051-94.555.078-.719-.335-1.351-.815-1.977-1.27Zm301.425-13.376c-30.626.017-61.238-.034-91.836-.034-69.875-.043-139.736.163-209.582.068-.064 2.9-.05 5.8-.007 8.717 1.079-.892 2.244-1.724 3.639-1.475 49.013.6 98.02-.181 147.034-.018 61.958-.017 123.93.035 185.895.052 3.25-.103 6.479.652 9.744.583 7.996.052 15.985.069 23.989.018-.201-2.823-.295-5.655-.489-8.477-22.788.918-45.606.454-68.387.566ZM-4.892 165.471c-4.998 7.61-9.75 15.452-15.173 22.633-2.668 3.389-4.725 7.413-7.63 10.519 41.413-.077 82.82.034 124.225.009-1.172-2.343-2.905-4.239-4.034-6.615-1.36-2.84-3.135-5.303-4.904-7.739-1.41-1.802-2.496-4.033-4.351-5.234-.568-1.012-.913-2.179-1.661-3.02-2.165-2.626-4.034-5.568-5.94-8.46-4.537.721-9.125.146-13.699.335-21.105-.017-42.204-.052-63.302.017-1.525.137-2.69-1.124-3.531-2.445Zm5.099-8.203c-.763 1.227-1.389 2.557-2.043 3.853 24.306.025 48.619.043 72.924-.009-.402-.643-.676-1.527-1.316-1.845-22.076-.291-44.16-.514-66.243-.429-1.33.249-2.237-.995-3.322-1.57Zm53.285-22.659c-.137 2.059-.237 4.161-.755 6.143-1.273 4.256-2.747 8.683-5.868 11.506 3.027-.026 6.033-.249 9.068-.137 3.437.223 6.982-1.871 10.254.197-.841-3.887-3.178-6.976-4.638-10.545-1.64-2.076-2.848-4.624-3.826-7.224-1.416-.3-2.84-.129-4.235.06Zm142.792-3.552c-.762 3.338 1.769 5.654 3.947 7.027 2.143 2.274 4.387 4.444 6.336 6.958-.317-2.84-.13-5.697-.036-8.545-1.532 1.956-4.2.978-6.055.283-1.539-.566-.92-2.557 0-3.466 2.014.197 4.415-.386 6.076 1.347a23.61 23.61 0 0 1-.122-3.346c-3.38-.318-6.774.008-10.146-.258Zm-161.503-5.259c-2.23 1.578-3.624 4.315-4.401 7.198-.705 4.144.482 8.331 2.172 11.926 1.172 2.214 3.566 2.686 5.58 2.849 2.71.334 4.502-2.926 7.17-2.866 1.322-3.346 2.444-7.036 2.07-10.794-1.1-3.869-3.912-6.735-7.04-8.176-1.697-.867-3.94-1.673-5.551-.137Zm176.532-26.632c.014 2.342-.051 4.667-.144 7.001 2.61.403 5.25-.146 7.889.035.043.266.136.78.179 1.038-2.078 2.393-5.342 1.475-7.96 1.553 0 5.911-.424 11.797-.359 17.7 2.905-.172 6.457-2.162 8.866.738-.007 1.57-1.697 2.256-2.812 2.393-2.085.232-4.365 1.244-6.292-.214.065 2.608 0 5.199.094 7.807 2.344.232 5.644-1.261 7.147 1.656-1.301 3.166-4.681 2.669-7.097 2.205-.051 1.888-.072 3.775-.144 5.672 2.467-.069 4.912-.936 7.45-.55-.137 1.236-1.323 1.15-2.071 1.459 1.352.909 2.955.875 4.458 1.124.209-6.769-.373-13.513-.323-20.265 0-10.253.014-20.506-.022-30.75-2.617 1.93-5.932 1.819-8.859 1.398Zm-29.037-1.459c1.776 2.643 3.344 5.483 5.285 7.971.784 1.356 2.287.772 3.473.953-.021-3.055-.021-6.109-.021-9.172-2.913-.146-5.847-.146-8.737.248Zm-154.6 14.44c-4.746 7.482-9.708 14.783-13.82 22.814-3.568 5.946-7.084 11.909-10.773 17.743 9.284 0 18.61-.034 27.872.026-2.617-1.133-4.472-3.733-6.27-6.143-2.294-3.321-3.438-8.211-1.784-12.252 1.223-2.866 1.367-6.555 3.61-8.675 2.41-2.256 4.279-5.473 7.263-6.717 4.279-2.274 9.039.06 12.706 2.891 2.661 2.497 5.336 5.508 6.156 9.584 1.043-.009 2.121-.035 3.193-.052-2.467-4.77-4.782-9.704-7.522-14.217-1.798.095-3.624.326-5.307-.575.733-1.99 2.855-1.398 4.336-1.75-2.51-4.238-5.091-8.425-8.032-12.243-1.065-1.793-2.768-3.157-3.085-5.448-2.984 4.89-5.954 9.806-8.543 15.014ZM49.12 82.272a29.927 29.927 0 0 0 2.12 4.342c4.301 8.4 7.846 17.322 12.535 25.413 4.235 7.293 7.594 15.255 12.153 22.273 2.545 4.488 5.45 8.666 8.075 13.102 3.69 6.889 7.781 13.461 11.47 20.359 2.992 3.956 5.034 8.717 7.615 13.025 2.575 5.413 5.343 11.359 4.624 17.794 62.397.215 124.786-.017 187.175.069 11.721.103 23.457-.301 35.164.42 4.652.386 9.363-.334 13.965.772 3.358.129 6.738.163 10.103-.086-.532-2.359-1.33-4.624-2.459-6.666-2.086-3.792-3.56-7.962-5.293-11.977-2.215-4.599-3.574-9.713-5.688-14.372-3.2-7.335-5.868-15.066-9.952-21.784-2.603-4.324-4.494-9.137-6.745-13.702-1.949-.12-3.898-.171-5.818-.102 0 .403.015 1.235.022 1.655-1.208-.351-2.136-1.304-3.107-2.136 1.007 2.231 2.812 4.084 2.948 6.744-3.077-.223-4.53-4.084-6.177-6.658-1.014-.326-2.193-.326-2.818-1.467.316-.275.949-.798 1.272-1.073-.086-1.184-.352-2.934 1.137-2.78-1.618-2.393-3.423-4.59-4.854-7.121-.662-1.218.632-2.445 1.567-1.63 3.624 3.38 5.933 8.254 8.896 12.372 1.991.18 3.998.352 6.004.197-2.215-5.714-5.566-10.759-7.076-16.842-1.036-3.938-3.006-7.378-4.092-11.282-.74-2.789-1.955-5.371-2.768-8.108-1.244-3.132-3.006-5.911-4.804-8.588-.517-.661-.971-1.673-1.834-1.528-19.638-.137-39.291-.257-58.937-.3-5.35.155-10.729-.275-16.05.24-.015 7.756.158 15.53.115 23.294 1.819 1.631 3.869 3.132 5.141 5.44-2.028.034-3.415-1.948-5.134-2.9-.094 9.833-.058 19.656-.122 29.489.014 1.175-.144 2.496.546 3.466 1.611 3.14 3.323 6.203 4.768 9.464.367.926.999 1.878.64 2.977-2.97-2.042-3.97-6.186-5.919-9.301-.179 4.204.187 8.443-.316 12.63 1.122-.018 2.553 1.055 1.64 2.548-1.668.978-3.114-.935-4.761-.867-2.013.052-2.955-2.531-4.818-2.934-2.294-.755-4.696-.738-7.025-1.107 1.934 3.432 4.767 6.083 7.931 7.756 2.266 2.446 5.192 3.604 7.709 5.62 1.46 1.133 3.696 2.111 3.366 4.676-.77.318-1.582.918-2.359.472-2.502-.832-4.495-2.874-6.853-4.05-2.222-1.098-3.567-3.749-5.839-4.761.755.712 1.452 1.578 1.323 2.874-3.818-.815-6.069-4.994-9.104-7.473-.669-.609-2.409-2.754-.669-2.943 2.474 1.115 4.66 3.346 6.271 5.868.367.301.769.558 1.201.79-.374-.738-.849-1.39-1.431-1.845-1.963-1.536-3.243-3.938-4.531-6.22-1.316.412-2.739 1.647-4.012.463-1.863-1.896-3.337-4.29-5.199-6.186-1.115-.506-2.388-.103-3.545-.206-2.819.275-5.372-1.338-8.126-1.621-2.222-1.373-4.696-1.759-7.105-.961.137-2.857 2.718-2.523 4.459-2.729 3.768 0 7.342 2.094 11.146 1.759-1.359-.866-2.395-2.273-3.61-3.329-3.445-.42-6.94.249-10.377-.472-1.496-.403-2.991-.043-4.408.506a33.672 33.672 0 0 1-.216-2.067c.46-.223.964-.403 1.503-.515 3.811-.18 7.594-.781 11.434-.781.093-2.822-2.596-4.324-2.215-7.215 1.222-.026 1.841 1.278 2.438 2.342a138.306 138.306 0 0 1-.101-6.692c-5.832-.223-11.685.36-17.481-.395.1-.352.28-1.072.367-1.424 5.565-.026 11.153-.129 16.726 0 .179-5.912.086-11.832.021-17.76-.345 0-1.006-.026-1.344-.026.05.326.165.978.223 1.313-2.719-.515-4.366-3.458-5.984-5.792-1.179-1.913-2.825-3.861-2.689-6.417-2.035.231-4.084.429-6.119.351-.223-1.51 1.136-1.613 1.999-1.784 4.631-.798 9.326-.438 14-.584-.158-4.307-.093-8.648-.445-12.912-5.163-.404-10.377.163-15.562-.275 1.209 1.399 2.704 2.531 3.603 4.264.05.944-.309 1.279-1.071.996-1.705-1.296-3.085-3.08-4.595-4.625-.461-.686-1.273-.463-1.863-.515-4.293.035-8.579.043-12.865-.008.871 1.518 1.726 3.054 2.402 4.719.683 1.673 1.899 3.148 1.575 5.165-2.84-2.351-4.408-6.195-6.465-9.404-.92-.592-2.063-.24-3.041-.352-18.553.18-37.106.026-55.659.163-.97 1.322-2.121.893-2.991-.283-3.143.035-6.293.24-9.42-.085-1.827-.533-3.64.214-5.459.162-10.017.052-20.055-.025-30.072-.326Zm-11.226-1.99c-.942 1.347-1.84 2.711-2.79 4.032-5.184 6.513-10.233 13.188-14.856 20.283-3.23 5.139-7.342 9.343-10.449 14.569-1.41 2.402-3.135 4.512-4.645 6.795-4.832 7.764-9.6 15.598-14.67 23.139-2.567 4.23-4.84 8.692-7.586 12.767-2.453 3.612-4.221 7.825-6.868 11.274-3.344 4.642-6.242 9.721-9.643 14.302-2.129 3.767-4.739 7.165-6.465 11.24 4.495-3.921 8.565-8.623 11.765-14.071 2.48-3.054 4.746-6.332 7.04-9.592 4.437-5.929 8.147-12.535 12.512-18.524 4.825-8.142 9.967-16.018 15.051-23.955 4.574-8.176 9.665-15.949 14.907-23.542 4.962-6.47 8.665-14.123 13.605-20.6 2.352-2.326 5.408 1.57 4.092 4.513.95.454 1.877 1.029 2.553 1.99 4.278 5.551 8.47 11.291 11.664 17.812 4.235 7.893 8.377 15.855 12.476 23.851 3.603 5.612 5.739 12.278 9.111 18.087 2.035 4.264 5.099 7.576 7.544 11.488 2.48 3.904 5.429 7.293 8.068 11.042 3.847 4.607 6.946 9.987 10.384 14.998-1.849-5.483-4.79-10.236-7.407-15.195-2.941-4.359-5.552-9-8.032-13.728-3.56-5.688-6.573-11.814-10.334-17.331-4.307-7.353-9.032-14.423-12.764-22.247-3.71-6.959-7.73-13.659-10.995-20.927-1.143-3.225-2.905-6.04-4.286-9.103-2.488-4.864-4.631-10.476-8.982-13.367Zm161.511-4.178a30.735 30.735 0 0 0-.223 3.732c1.625-.103 3.272-.755 4.925-.43 1.259.464 1.101 2.85-.079 3.313-2.006 1.295-4.35 1.08-6.536 1.03-.216 2.007-.964 3.869-.885 5.894 1.755-.12 3.481-.635 5.242-.79.914-.051 2.503.764 1.604 2.094-1.913 1.776-4.545 1.947-6.882 2.076-.007 1.742-.007 3.475.015 5.208 2.128.189 5.005-1.253 6.472 1.364-1.582 2.299-4.552 2.771-6.731 1.544.129 1.914-.007 3.836.043 5.749.719.738 1.798.266 2.416 1.493-.92.163-1.833.18-2.682.54 2.531.378 5.256-1.218 7.543.953-1.114 3.414-4.882 2.677-7.334 2.96.007 1.527.007 3.028-.029 4.538 1.798 1.296 4.243.738 5.839 2.454.877.146 1.762.283 2.689.403.13.884.137 1.742.036 2.626-2.862.377-5.709.884-8.579.927a77.12 77.12 0 0 1-.086 5.156c3.301-.42 6.63-.026 9.938-.352.23-10.15-.676-20.24-.482-30.38-.194-8.075-.309-16.157-.093-24.23-1.482 2.205-4.027 2.033-6.141 2.128Zm-2.532-5.346a50.489 50.489 0 0 0-.014 2.06c2.97.574 5.738-1.056 8.687-1.021-.079-.3-.23-.91-.302-1.21-2.79.12-5.588.197-8.371.171Zm14.576-.557c.051 1.518.051 3.054.008 4.581 1.186.19 2.085-.557 2.833-1.578 1.726.755 4.228-.773 5.228 1.707-.633.6-1.072 1.63-1.892 1.819-1.934.446-3.847 1.098-5.803 1.253-.187 1.827-.194 3.68-.143 5.525 2.114.12 4.264-.369 6.371.034 1.043.258 1.309 2.128.381 2.772-1.999 1.595-4.523.995-6.767.97.044 3.2-.043 6.382-.137 9.583 2.848-.687 5.753-1.176 8.687-1.304.144-8.563.238-17.126.144-25.688-2.984-.035-5.954.308-8.91.326Zm.202-9.481a53.224 53.224 0 0 0 .05 3.852c2.309.018 4.631.335 6.961.42.561-.102 1.489.284 1.791-.617.158-1.107.151-2.248.216-3.372-.489.55-.741 1.527-1.425 1.69-2.085.464-4.228.25-6.306.07-.072-1.04-.244-2.043-1.287-2.043Zm-8.795.009c-1.761 1.407-3.919.678-5.889.798.079.248.237.737.323.986 2.726-.188 5.473-.352 8.212.017 0-.755.037-1.518.072-2.282-.927.043-1.912-.146-2.718.48ZM199.8 54.67c2.035-1.741 4.617-1.295 6.99-1.596 4.135-.137 8.284 0 12.426-.068 2.208-.077 4.408.515 6.479 1.441 1.222.618 1.862 2.265 1.812 3.792-.029 4.874 0 9.747-.029 14.63 23.551.033 47.094.008 70.645-.035 2.704.103 5.443-.266 8.14.214 3.258 3.57 4.278 9.018 6.838 13.204 1.165 2.669 3.366 4.625 3.855 7.697 1.086 2.968 2.294 5.877 3.257 8.905 1.726 3.501 2.352 7.619 4.193 11.068 2.517 5.157 5.422 10.073 7.637 15.453 2.589 5.456 5.443 10.724 8.349 15.941 3.063 6.323 5.594 12.981 8.535 19.39 1.51 3.209 2.46 6.744 4.006 9.944.798 2.763 2.632 4.796 3.559 7.473 2.294 5.234 5.199 10.261 6.199 16.147.273 3.458-.086 8.091-3.006 9.815-4.243.601-8.55.172-12.814.163a45.087 45.087 0 0 0-.202 4.41 6.91 6.91 0 0 1 1.604 4.934c.007 11.377.036 22.745-.13 34.113-.28 7.087.065 14.174-.438 21.244-.123 1.758 1.395 2.737 2.258 3.929 2.416 2.402 4.005 5.783 6.536 8.091 2.244 1.905 4.135 4.324 6.422 6.177 1.474 1.227 2.646 2.883 3.919 4.393 1.215 1.424 2.977 1.896 4.228 3.286 1.647 1.759 3.337 3.501 5.243 4.874 2.286 1.647 4.213 3.869 6.421 5.671 4.272 3.303 8.356 6.941 12.743 10.03 1.992 1.647 3.552 3.921 5.724 5.276 3.94 5.165 8.37 9.807 12.217 15.066.964 2.248 2.33 4.239 3.013 6.675.159 1.742.166 3.535-.079 5.277-.755 2.265-3.473 2.505-3.761 5.096-1.114.155-2.337.455-3.171-.609-1.826-1.93-3.862-3.732-6.264-4.418-.021 31.367.029 62.735 0 94.094-.158.798.31 1.742 1.065 1.639.575-1.656 1.323-3.741 3.092-3.818 2.136-.575 3.294 2.531 5.343 2.23 2.035-.051 3.373-3.08 5.551-2.102 2.136.489 3.359 3.123 5.523 3.655 1.654.661 4.653.284 4.322 3.389 2.064-.085 4.487-.12 5.904 2.034.647.901-.324 1.947-.64 2.771-1.704 3.586-7.378 3.501-8.543-.549-2.654-.24-3.941 2.917-6.206 3.869-1.97 1.159-4.343.713-6.163-.574-1.014-.73-1.006-2.265-1.215-3.484-1.985.112-3.682-1.947-5.652-1.046-1.05.248-2.035.66-2.963 1.218.432.583.899 1.175 1.381 1.776-2.524 3.921-8.248 5.714-11.369 1.827a6.653 6.653 0 0 1-1.834-3.655c-1.532.455-3.171 1.184-4.624.146-.093 2.574-2.387 3.655-4.163 4.213-2.258.738-4.732-.18-6.242-2.265-1.079-1.682-3.035-.403-4.48-.549-.166-1.056-.021-2.531.964-2.926 2.013-.832 3.3-2.917 4.745-4.65.741-1.107 2.251-1.382 3.201-.472.632.335 1.265 1.338 2.042.789 1.323-1.175 2.215-2.908 3.538-4.101 1.682-.892 3.797.249 4.717 2.059.683 1.356 2.078 1.673 3.2 2.36.022.437.036 1.278.065 1.724.072 0 .252.017.338.017-.338-2.187-.122-4.427 1.129-6.186.201-17.76.014-35.554.072-53.349-1.604-.12-4.466.652-4.502-2.196.69-2.188 2.963-1.699 4.523-1.922-.036-5.277.036-10.536-.064-15.83-7.493.24-14.979-.077-22.465-.017-7.788-.111-15.576.275-23.342-.429-1.036-.034-2.006-.437-2.934-.875.029 22.136-.043 44.306.014 66.442 1.424.06 3.135.086 4.027 1.69.957 1.09.611 3.166-.604 3.758-1.158.395-2.366.317-3.531.42.022.352.051 1.073.072 1.425 1.669-1.021 3.941-.901 5.063 1.106 1.388 1.888.791 5.157-1.151 6.135-1.014.249-2.071.163-3.056.283-.417-.197-.812-.369-1.179-.558-.432 1.699-2.143 1.982-2.668 3.501 1.956.343 3.818-.463 5.012-2.394.82-.163 1.654-.669 2.553-.446 1.028.498 1.568 1.836 2.553 2.445 1.272.06 2.567-.051 3.868-.008-1.208-1.45-2.401-3.158-2.193-5.354.202-2.634 3.135-4.513 5.027-2.934 1.84.952 1.855 3.972.87 5.722 1.905-.772 3.682.395 5.271 1.588-.158-1.064-.202-2.137-.079-3.192-1.079-.318-2.244-.515-3.064-1.459-1.359-1.793-.546-5.01 1.374-5.697 2.862-.703 5.767.198 8.492 1.244 1.079.301 1.597 1.622 1.92 2.772-.863 1.381-2.179 2.436-3.638 2.454.359 2.016.295 4.658-1.748 5.25.525.936 1.676 1.957.842 3.175-2.1 2.213-5.48 3.466-8.004 1.57-1.093-.695-1.942-1.982-3.257-1.896-1.41 1.656-3.409 2.162-5.092 3.26-1.675 1.116-3.768.755-5.213-.635-1.992.12-4.042 0-5.918.893-2.654 1.295-5.847-1.596-5.717-4.994-1 1.021-2.028 2.471-3.495 2.076-2.193.146-3.854-2.179-6.033-1.758-1.999.103-4.617-.833-5.221-3.364-.769.275-1.316.987-1.805 1.691-2.323 3.577-7.004 3.517-9.988 1.184.086-.807.165-1.588.287-2.377-1.97.146-2.732 2.866-4.537 3.483-1.863.644-4.063.978-5.796-.266-1.165-1.492-2.467-2.951-3.013-4.924-.842.394-1.654.883-2.172 1.776 1.007.334 2.035.703 3.035 1.166.359.618.755 1.227 1.158 1.854l-.461 2.042c-2.632.926-5.443.798-8.147.686-2.416-.06-3.135-3.492-5.379-3.964-.834-.18-1.115-1.373-1.834-1.656-2.229 4.865-7.68 5.534-11.75 4.213-1.287-.352-2.869-1.742-3.977-.275-1.697 1.982-4.407 1.828-6.313.421-1.697-1.287-3.258.875-4.768 1.578-1.546 1.202-4.048 1.219-4.832-1.089-1.525.197-3.042.111-4.545-.12-1.258 1.347-3.128 1.604-4.667.918-1.33-1.201-1.402-3.303-.769-4.994-1.748 1.142-3.855 1.184-5.53 2.566-1.402 1.021-2.891.111-4.315.137-1.51 1.287-3.351 1.158-5.098 1.347-2.517 1.133-5.947 1.167-7.745-1.562-.23-.832-.194-1.75-.647-2.453-2.157.712-3.826 3.303-6.213 3.028-1.582-.051-2.804-1.347-3.969-2.436-2.115-1.802-1.468-6.813 1.33-7.036 1.56-.455 2.962.438 4.314 1.27 1.654-.54 3.495-1.081 5.063.189 1.1.987 2.661.901 3.703-.215 1.079-1.604 2.086-3.509 3.919-3.946-.057-30.896.108-61.783 0-92.671-2.596-2.042-4.465-5.13-7.176-6.984-3.855-2.882-7.788-5.774-12.132-7.455-4.098-1.957-8.039-4.488-12.411-5.449-6.35-2.042-12.793-4.135-19.43-3.989-6.22.274-12.326 1.827-18.359 3.44-6.774.936-12.85 4.814-19.128 7.654-3.301 2.033-7.033 2.797-10.204 5.173-4.084 2.214-7.767 5.302-11.477 8.245-.446 8.872.007 17.838-.288 26.726-.618 19.133.029 38.3-.647 57.433-.057 5.294-.086 10.605-.194 15.916a37.76 37.76 0 0 0 3.215-.815c-.475-2.411 1.546-3.698 2.732-5.182 1.424-1.888 4.408-2.583 5.875-.464.518 2.188 2.222 3.355 3.387 5.028 1.373.129 3.078-.403 4.185.944.87 1.21-.669 1.707-1.402 1.75-.892 1.587-1.999 3.449-3.718 3.698-1.445.206-2.725 1.441-4.192 1.21-1.187-.549-1.625-2.059-2.164-3.278-2.467 1.991-5.049 4.239-8.148 4.239-1.46.025-3.179.892-4.351-.507-1.316-1.123-1.071-3.26-.891-4.907-2.006 1.845-4.308 3.2-6.652 4.273-1.762.369-4.056.978-5.436-.738a10.816 10.816 0 0 1-.346-2.351c-1.632.163-2.272 2.582-3.983 2.497-1.518.12-2.747 1.492-4.286 1.389-2.474.189-4.732-2.822-4.013-5.731-1.596 2.566-4.293 3.303-6.515 4.813-2.107 1.159-4.386 2.866-6.795 2.042-1.402-.283-2.862-1.475-2.913-3.303-.216-1.167.425-2.205.748-3.243 1.294-.592 2.66-.755 4.02-1.055 1.237-.893 2.438-1.991 3.97-1.965-.878-1.879-2.87-.051-4.143-1.356-.525-3.423-.208-6.898-.287-10.338 0-13.556-.065-27.112-.08-40.668-.733-9.224-.194-18.49-.56-27.73-.087-5.122-.166-10.245-.065-15.375-.036-1.939 1.675-2.995 3.107-2.969 1.272-.146 2.013 1.304 2.847 2.214.13 10.759-.438 21.501-.467 32.268-.353 9.464-.144 18.944-.194 28.399 0 9.43-.159 18.85-.058 28.262 2.819-.918 5.156 2.334 4.724 5.568.978.284 1.935.807 2.877 1.287 1.193-.755 1.82-2.771 3.33-2.994 1.941-.274 3.501-1.776 5.335-2.445 2.007-.258 4.71-.704 5.803 1.913-1.395 1.673-1.812 3.912-1.236 6.178.726-.266 1.452-.541 2.214-.79-.374-1.107-.848-2.308-.28-3.449.769-1.338 2.265-1.39 3.488-1.81 1.172-1.965 3.178-1.673 4.968-1.613-.007-10.673-.036-21.338-.237-32.003-.453-5.345-.158-10.725-.251-16.087-2.884 1.304-6.005.764-8.982.335-1.532-.215-2.948-.97-4.344-1.69 1.065-1.631 3.107-1.734 4.732-1.562 2.855.489 5.911-.223 8.594 1.39-.051-14.534-.065-29.077-.051-43.62-8.759-.291-17.532-.025-26.305-.077-3.437-.12-6.86.472-10.268.026-5.559.086-11.125-.275-16.662.206 2.654 2.496 5.048 5.474 6.76 8.983.992 3.432 2.538 6.649 3.092 10.253.712 4.221 1.977 8.399 1.683 12.775-.26 4.101.46 8.151.366 12.252.05 15.692-.115 31.376-.05 47.06 1.567.961 3.797 1.956 3.76 4.496.468 2.145-1.43 3.552-2.99 3.603.876.687 1.502 1.733 1.107 3.055-2.56-.189-4.25 2.78-6.782 2.531-1.193 0-2.43.086-3.53-.464-.97-.78-1.438-2.342-.957-3.646.504-1.115 1.669-1.193 2.59-1.561-.799-17.898-.31-35.83-.454-53.753-.036-3.243-.029-6.495.36-9.712-9.212.154-18.41-.137-27.6.12.03 5.783.684 11.523.562 17.305-.008 8.374.014 16.748-.03 25.122-.006 3.441-.273 6.89-.956 10.244-1.352-5.62-.891-11.522-1.02-17.297.129-10.321-.296-20.677.301-30.981.015-1.51-.021-2.986-.021-4.462-5.048-.094-10.096.086-15.145-.103.223 12.038-.014 24.084.482 36.13-.007 7.07-.093 14.139.065 21.2.928-.789 1.956-1.741 3.193-1.338 2.682.97 3.912 5.748 1.553 7.971-1.805 1.124-3.682-.472-4.94-1.931.043-1.261.036-2.531-.137-3.758-.302 1.828-.043 3.81-.906 5.466-.899.18-1.79.386-2.517 1.012.986 1.158 2.014-.738 3.107-.712 2.035-.077 4.508.429 5.86 2.411-.093 2.625-2.855 1.673-4.285 2.11-2.618.953-5.221 2.214-7.997 2.326-1.057-.206-2.524-.953-2.445-2.471.1-1.064 1.064-1.322 1.704-1.802-2.25-1.39-4.544 2.016-6.766.171-.986-1.458-1.259 1.116-2.237.953-2.804-.155-5.45.935-8.133 1.69-2.294.669-3.79-3.535-5.897-1.673-1.905 1.793-4.408 1.896-6.493 3.252-2.553 1.321-4.717-1.708-5.149-4.445-2.754-.017-5.076 2.42-7.867 1.914-1.538.163-2.797-.807-3.854-2.008-.748-.918-1.834-.154-2.675.043-2.452 1.141-5.134-.335-7.572.832-1.503.601-3.1.721-4.574 1.347-1.927 1.038-4.4.309-5.73-1.596-.64-.866.107-1.836.33-2.668-1.546-.884-3.063-1.802-4.71-2.368-.791-.523-2.539-.987-1.798-2.445.762-.386 1.021.755 1.438 1.269 3.495-.18 7.04-.42 10.52.318 1.561.652 3.208.841 4.876.686.338-2.093 1.97-2.994 3.538-3.483 1.74.249 2.675 2.222 4.207 2.857.54-10.467-.122-21.012-.007-31.514-.015-33.341-.173-66.69-.022-100.023.633-6.606.266-13.255.352-19.888.116-29.866.195-59.715.123-89.59-1.805.541-3.811 1.485-5.544.138-2.064-.91-3.351-3.166-4.186-5.457-.46-3.269-.323-6.89 1.216-9.755 2.2-5.097 5.242-9.575 8.19-14.063 3.25-4.161 5.638-9.137 8.895-13.298 5.307-8.323 10.154-17.04 15.396-25.431 4.473-6.752 8.702-13.736 12.973-20.651 3.214-4.548 6.163-9.361 9.45-13.848 5.335-6.169 9.196-13.84 14.503-20.051 2.402-3.81 5.48-6.847 7.918-10.622 1.042-1.356 2.049-3.226 3.832-2.986 1.288-.326 2.489 1.407 3.711.395 2-1.664 4.3.215 6.5-.274 9.004-.73 18.035-.378 27.053-.48 39.781.008 79.554-.001 119.335.016.057-4.461.108-8.931 0-13.393-.036-1.639-.913-4.015.726-4.959 2.798-1.295 5.811.558 8.615.137"/><path d="M81.616 83.04c.788.04 1.593.101 2.415.152.334 2.562.077 5.347 1.232 7.654.343 1.179 1.421 2.571.71 3.842-.924.569-2.31.6-2.662-.793-1.703-3.222-2.722-7.105-1.695-10.855ZM118.802 85.91c-.29-2.11.855-3.574 1.715-2.52.924 2.408.817 5.793.57 8.657-1.533.155-2.113-3.63-2.285-6.138ZM134.283 88.477c-1.997-1.48 2.477-3.805 3.081-1.382 1.183 2.696 3.673 5.06 3.919 7.96-3.105-1.547-4.905-4.272-7-6.578ZM251.468 86.556c.627-1.304 1.491.154 1.802 1.32.916 3.07 2.197 5.686 3.13 8.748.211.917-.503 1.98-.865 1.115a26.868 26.868 0 0 1-3.134-6.526c-.448-1.441-1.135-2.865-.933-4.657M231.405 87.05c.156-1.45.915-1.135 1.268-.3.59 1.272 1.056 3.05 1.236 5.185-1.118.643-2.391-1.436-2.504-4.884M64.541 92.66c1.103-1.463 5.534-.023 3.713 1.544-1.068 2.103-6.69-.183-3.713-1.544ZM271.516 93.363c-.354-1.203 1.018-1.812 1.745-.802 2.057 2.656 4.073 5.41 5.707 8.363-1.731.636-3.026-1.045-3.982-2.2-1.185-1.77-2.729-3.362-3.47-5.36M242.538 95.82c2.496-.258 4.986-1.08 7.52-.634.561.089.997.673 1.374 1.278-5.866 1.239-11.835 1.834-17.774 1.507-.827-.199-1.979-.05-2.253-1.338 3.62-1.576 7.424-.08 11.133-.813M111.245 95.247c1.935-.447 3.908 0 5.843.202 1.942.245 3.928.306 5.805 1.147.572.035.682.763.868 1.376-1.221.044-2.436.079-3.638.087.012-.166.051-.49.077-.64-2.514.15-5.04.027-7.509-.516-.739-.079-1.189-.841-1.446-1.656M291.505 98.266c1.022-.73 1.819.665 2.487 1.265 1.626 1.634 2.165 4.057 3.638 5.749 4.629.221 9.25-.181 13.878 0-.144 1.338-1.771 1.248-2.737 1.486-4.234.337-8.532.452-12.774.049-.419-3.375-4.871-4.96-4.492-8.549M79.997 101.264c1.48-.763 2.671.829 3.693 1.782 1.14 1.551 3.041 1.468 4.647 1.858-.074.257-.237.779-.31 1.036-.615.207-1.214.423-1.777.647 1.022 2.039 2.716 3.946 2.435 6.492-2.864.033-3.855-3.723-5.461-5.796-2.302-.24-5.078.846-7.002-.92-.2-1.269.97-1.285 1.784-1.443.999-.141 2.035-.099 3.086-.099-.636-1.053-1.74-2.173-1.095-3.557M71.191 101.063c2.133 1.035 3.31 6.558 4.887 9.947.035.53.09 1.539.12 2.069-1.657-2.975-3.284-6.131-4.716-9.817-.075-.556-.216-1.643-.29-2.199ZM169.135 108.564c-.566-.638-.335-1.882.472-1.373 1.741 2.571 3.487 5.368 4.222 8.893-1.639-2.417-3.184-4.943-4.694-7.52M108.902 111.455c-.574-.63.504-1.823 1.613-1.208.838.515 1.047 1.334 1.512 2.022.636 1.256 1.753 2.438 1.722 3.815-.954-.084-1.745-.368-2.187-.941-1.133-1.14-2.032-2.396-2.66-3.688ZM268.952 112.294c.337-2.534 2.664-1.862 4.154-1.753 2.568.727 5.225.591 7.86.663.308-2.079 1.68-.772 2.568-.127 3.083.69 6.29-.418 9.387.354.536.082.888.427 1.064 1.063-3.002.871-6.04 1.834-9.13 1.471 1.284 2.551 2.965 5.094 3.317 8.126-2.612-1.807-4.447-5.048-6.069-8.108-4.374-.581-8.829-.6-13.151-1.689ZM258.969 110.119c3.423-.505 4.554 3.513 6.71 5.492 1.287 1.885 3.959 3.935 3.11 6.48-2.447-.432-4.047-2.679-5.695-4.41-1.804-2.204-4.466-4.317-4.125-7.562ZM118.756 114.598c1.333-2.001 3.755-1.401 5.688-1.487 3.162-.016 6.777-.413 9.332 2.134-2.743 1.682-5.898.272-8.815.514-2.08-.187-4.516.529-6.205-1.161M147.998 113.792c2.736-.716 5.543-.977 8.305-.386-.234 1.965-1.559 1.897-2.437 2.033-2.528.045-5.03.92-7.551.556-.215-1.851 1.007-1.885 1.683-2.203ZM247.016 115.496c-.509-.763-1.133-2.309.237-2.416 1.599.449 2.379 2.353 3.354 3.701 2.707 4.806 6.102 9.19 8.332 14.32-2.091.089-3.469-1.932-4.649-3.531-2.453-3.998-5.027-7.932-7.274-12.074M214.727 116.933c1.175-1.082 2.557-1.133 3.762-.14 1.065 1.922-.248 5.129-1.165 5.129-1.1.14-2.612.815-3.286-2.049-.481-1.413.248-2.495.689-2.94M158.809 125.294c1.064-.704 1.991.613 2.643 1.601 1.682 2.908 3.858 5.396 4.867 8.908-.364.439-.707.878-1.05 1.308-1.112-2.396-2.773-4.18-4.05-6.375-.975-1.646-2.341-3.219-2.41-5.442"/><path d="M136.277 125.11c2.592-.263 4.275 3.032 6.01 5.102 1.758 2.779 4.342 4.538 5.725 7.745.308 0 .938.039 1.245.059-.461-.583-.922-1.157-1.288-1.798 3.324-1.283 6.845-.437 10.264-.7 2.569-.272 5.154.544 7.724.088 1.706-.205 3.441.194 5.073.952l.293 1.02c-4.268 1.594-8.72.972-13.076 1.069-2.979.059-5.952-.126-8.909.03a41.922 41.922 0 0 1-.235 1.438c-.322-.039-.988-.107-1.317-.146.293-.262.6-.515.937-.777-1.874.67-3.236-1.478-4.532-2.858-2.562-2.643-4.766-5.792-7.072-8.765-.579-.632-.696-1.585-.842-2.459M84.304 126.089c4.397-.922 8.921-1.282 13.368-.738.27.211.785.65 1.056.861-1.877 1.632-4.275.93-6.402 1.167-2.84-.053-5.638 1.115-8.471.58-.293-.808-.15-1.423.45-1.87M98.729 128.213c1.601-.559 2.656 1.067 3.649 2.177 2.109 2.388 4.179 4.836 5.996 7.504.77.847.285 2.778-1.008 2.066-2.025-1.406-3.487-3.599-5.181-5.412-1.37-1.948-3.41-3.684-3.456-6.335M228.898 131.103c2.849.194 5.524 3.025 8.426 2.757 3.015 1.4 6.196-1.893 9.098.819-2.257 2.905-5.032 2.384-7.534 2.413-3.254-.64-6.616-.908-9.637-3.843-.08-.522-.266-1.609-.353-2.146M86.214 137.399c.852-.124 1.899-.68 2.605.199 3.018 3.335 5.08 7.449 6.994 11.522.495.921.357 1.999.414 3.011-3.319-2.007-4.698-5.914-6.824-9-1.071-1.916-2.946-3.442-3.19-5.732M270.411 137.462c3.402-.348 6.916-.565 10.318-.022 1.618.283.208 1.406-.653 1.58-3.53.819-7.211.906-10.821 1.088-1.131.029-3.219.043-2.733-1.501.964-.993 2.534-.957 3.889-1.145M234.227 137.134c1.849-.26 2.645 1.814 3.508 3.058 1.085 2.067 3.099 3.612 3.682 5.93-2.991.066-4.577-2.879-6.04-4.994-.633-1.228-2.12-2.579-1.15-3.994M126.843 138.177c4.734-1.126 9.636-1.43 14.441-.574 0 .157-.008.461-.008.619-1.912.416-3.77 1.069-5.691 1.069-3.955.079-7.858 1.284-11.822.631-.071-2.229 2.026-1.205 3.08-1.745M299.831 146.119c-1.041-.829-1.36-3.679.506-2.851 2.894 2.412 5.073 5.826 7.321 9.033 3.005.174 5.94-1.243 8.959-1.409 2.269-.017 4.427-1.226 6.717-.912.763-.082 1.041 1.882.07 1.832-4.317 1.102-8.786 1.003-13.081 2.121-1.152.1-2.248.39-3.178 1.202-2.922-2.395-4.788-6.124-7.314-9.016ZM251.635 143.119c1.665.28 2.365 2.401 3.384 3.835 1.538 2.512 3.13 5.126 3.923 8.181-2.918-1.528-4.503-5.151-6.434-8.087-.759-1.112-1.425-2.419-.873-3.929ZM277.911 149.89c-.635-1.118-1.73-2.161-1.38-3.767 1.736.061 2.804 2.139 3.866 3.775 1.336 2.314 2.678 4.696 3.576 7.428-.109 1.469-1.15.632-1.506-.053-1.686-2.261-2.979-5.008-4.556-7.383ZM291.482 151.633c.128-3.743.567-5.423 1.307-5.135 2.055-.96 4.12.144 6.203.864-.192 3.599-.594 5.087-1.27 4.511-2.092.528-4.184.144-6.24-.24M142.342 152.238c.771-.438 1.336.578 1.901 1.073 2.113 2.385 4.021 5.05 5.788 7.799.332.478.629 1.163 1.301 1.097 2.48.174 4.989-.074 7.477.388-.262.627-.643 1.18-1.244 1.263-1.725.247-3.477 0-5.173.289.933 1.914 2.509 3.623 2.473 6.008-2.353-1.279-3.639-4.036-5.307-6.19-2.742-.338-5.562.322-8.247-.412-.205-1.131.904-1.115 1.533-1.172 1.816-.124 3.633-.025 5.456-.248-1.343-2.105-3.025-3.879-4.353-5.983-.728-1.131-1.958-2.336-1.605-3.912M96.227 153.054c1.99-1.202 4.172-.857 6.284-.922 1.766.028 3.616-.177 5.318.773.544.168.659 1.006.915 1.649-3.181.708-6.406.643-9.599.457-1.069-.159-2.528-.177-2.918-1.957ZM168.823 152.755c.708-.664 1.794-.731 2.78-.512 6.698 1.187 13.562.957 20.353 1.198.861-.067 1.476.417 1.9 1.03-3.098 1.103-6.533.461-9.79.619-3.653-.22-7.367-.242-10.947-.974-1.503-.309-3.257-.236-4.296-1.361M196.485 155.303c3.2-.738 5.847 1.132 7.274 2.133.707.995-2.258.761-3.255.349-1.968-.578-4.781-1.321-4.019-2.482ZM115.637 155.387c.991-.765 1.855.337 2.087 1.618.998 3.524 2.28 6.919 3.562 10.295.447.873.708 2.233 1.64 2.452 1.938.218 3.905.198 5.843.724-.089.457-.268 1.38-.358 1.827-1.445.308-2.914.347-4.352.486-.053.487-.142 1.42-.202 1.906-1.87-2.65-4.65-1.687-7.05-1.846-1.372-.04-2.743-.139-4.084-.169 1.445 3.217 3.875 5.708 4.576 9.491-2.303-.437-3.98-2.988-5.508-5.103-1.118-2.124-2.854-4.001-3.048-6.711-.015-1.817 1.543-.735 2.266-.556 2.958.586 5.984-.099 8.973.268-1.826-3.335-3.086-7.118-4.338-10.86-.417-1.221-.357-2.591-.007-3.822ZM256.557 156.659c-.562-1.744.977-1.529 1.7-1.501 3.24.969 6.566.475 9.805 1.37.297.196.594.457.891.765-2.195 1.305-4.637.746-6.931.615-1.792-.802-3.734-.242-5.465-1.249M329.032 164.147c.467.025 1.378.075 1.855.087 2.322 1.793 3.889 3.891 5.655 5.865-.5.018-1.489.043-2.022.056-2.333-1.768-5.443-3.73-5.488-6.008M181.077 164.177c2.441-.359 3.489 2.584 4.932 4.212 1.289 1.382 2.054 3.59 3.912 4.154 2.958.458 6.571-.458 8.939 2.012-2.674.433-5.34.858-8.028.752.4 1.292.874 2.576 1.347 3.86-2.775-.875-3.846-5.062-6.957-4.759-3.526-.401-7.081-.049-10.57-.507-1.217-.049-1.02-1.693.146-1.587 3.591-.286 7.212-.253 10.832-.204-1.522-2.617-4.604-4.539-4.553-7.933M302.094 169.012c-.228-1.902 1.208-2.246 1.942-1.483 1.449 1.848 2.478 4.492 3.662 6.856 2.774.344 5.629-1.408 8.348-.107.919.257.327 2.482-.382 2.235-2.781.741-5.642.462-8.33 1.923-2.774.065-5.653 1.698-8.341-.139.135-.849.413-1.709 1.017-1.687 1.763-.473 3.551-.645 5.351-.903-1.004-2.354-2.577-3.987-3.267-6.695M251.432 173.159c1.949.42 2.844 2.578 3.884 4.25 1.282 2.271 3.045 4.307 3.626 7.022-.43 1.705-1.935.065-2.308-.808-1.648-3.531-4.722-6.359-5.202-10.464ZM259.071 173.889c2.6-1.739 5.374.15 8.047.344.823.18 2.653 2.098 1.42 4.017-2.594 1.588-5.328.794-7.948 0-.79-.435-2.063-2.233-1.519-4.361M1.098 175.585c2.249-3.024 4.894-1.868 7.353-2.273 4.684.347 9.443-1.098 14.105 1.079.727-.077.795 1.926 1.072 3.216-3.313 2.253-6.753 1.348-10.11 1.521-3.786-.173-7.556.27-11.326-.269-.757.135-.839-2.042-1.094-3.274M168.884 173.231c2.455-.569 3.317 2.363 4.478 4.129 1.672 3.021 3.625 5.816 5.261 8.847.854 1.727-1.073 2.6-2.05 1.452-2.842-2.354-4.346-6.003-6.308-9.161-1.029-1.53-1.645-3.345-1.381-5.267M45.465 179.377c2.607-.324 5.23-.166 7.868-.207 2.549-.017 5.194.016 7.653 1.029.044.216.134.665.193.889-4.463 1.81-9.329.739-13.963 1.013-2.817-.299-5.932.689-8.48-.955-.462-1.204 1.043-1.453 1.774-1.553 1.646-.166 3.3-.025 4.955-.216M131.841 179.167c2.813.607 3.797 4.35 5.952 6.185 4.397.264 9.279-1.037 13.307 1.501-.6.933-1.641 1.133-2.516 1.484 1.634 1.636 3.486 3.017 5.099 4.693.528 1.069-.825 1.364-1.476 1.021-2.669-.798-4.332-3.479-6.408-5.275-1.808-.335-3.645-.104-5.453-.072.087.279.261.822.34 1.094-1.049-.232-1.989-.791-2.936-1.285-6.27-.256-12.584.239-18.84-.36-.398-1.133-.043-2.681 1.266-2.737 5.062-.199 10.132-.024 15.209-.104-1.114-1.612-2.293-3.168-3.45-4.764-.029-.335-.065-1.03-.094-1.381M223.952 179.935c2.989-.041 5.987-.171 8.953-.61 1.995-.049 4.456-.692 6.01 1.025-2.098 1.489-4.725 1.326-7.123 1.66-3.384.105-6.846.406-10.191-.253-.899-1.692 1.333-1.692 2.351-1.822ZM339.046 179.278c1.032-.633 1.807 1.582 2.306 3.154.483 1.113.019 3.196-.751 2.655-1.037-1.021-1.55-3.533-1.555-5.809M263.947 182.233c.677-.151 1.553-.087 1.876.903 1.653 3.643 4.157 6.629 7.109 8.506 3.088.158 6.195-.111 9.302.055.839-.007 2.255.705 1.547 2.107-2.666.713-5.406.182-8.09.333-1.224-.103-2.573.348-3.66-.436-1.79-1.972-4.052-3.176-5.524-5.607-1.051-1.782-2.417-3.517-2.56-5.861M191.673 182.881c2.078-.04 4.1-.663 6.191-.65 2.002-.027 4.307-.372 6.005.955-.428 1.097-1.898 1.111-2.892 1.389-7.302.447-14.956 1.429-22.017-.833l-.124-.773c4.279-.196 8.551.041 12.837-.088M216.546 182.382c1.08-.957 1.952 1.567 2.665 3.157.862 2.644 2.194 4.988 2.179 8.648-1.694-.634-2.788-4.019-3.982-6.614-.604-1.244-1.362-3.146-.862-5.191M234.259 185.175c2.154.178 2.901 2.175 3.974 3.63 1.099 1.715 2.505 3.235 4.043 4.642 3.877.081 7.798-.283 11.658.412-.264.679-.88 1.213-1.662 1.213-2.655.21-5.31.032-7.947.089-.018.509-.035 1.52-.044 2.03-1.767-.882-3.49-2.135-5.591-2.054-1.152-.105-2.945.113-3.271-1.246 1.038-.113 2.119-.226 3.209-.331-1.951-1.933-3.727-4.092-4.721-6.574.088-.453.256-1.375.352-1.811M52.062 186.714c5.21-.347 10.385-1.187 15.594-1.527.616-.116.77.594 1.032 1.042-4.105 1.166-8.343 1.375-12.528 1.86-1.68.181-3.355.066-4.995-.159.14-.514.194-1.288.897-1.216ZM306.948 185.264c1.138-.304 2.275.256 3.441.357 4.778.366 9.592.07 14.384.35.586.109 2.034.264 1.71 1.337-.786 1.049-2.144.777-3.199.87-4.814-.069-9.661-.093-14.447-.73-.979-.062-3.303-.739-1.889-2.184M1.432 185.888c1.624-1.118 3.546-.529 5.296-.685 2.234-.156 4.434.347 6.628.875.066.294.199.831.259 1.117-3.692.849-7.47 1.325-11.189.693-.676-.139-1.928-1.108-.994-2ZM291.482 188.194c2.231-.238 3.473 2.388 4.961 4.074 1.058 1.437 2.633 2.648 2.545 4.923-3.123-.6-5.091-4.029-7.104-6.791-.096-.543-.297-1.652-.402-2.206M86.28 245.398c2.014-.112 4.048-.207 6.075-.09 1.493-.032 1.937 1.924.444 2.222-2.082.707-4.456.792-6.692.696-.944-.218-2.624-.457-2.374-1.488.305-.819 1.52-1.202 2.548-1.34ZM29.43 253.34c2.44-.981 4.135-4.884 6.715-5.082-.194 1.532-.951 2.348-1.608 3.263-3.72 4.795-7.574 9.315-11.562 13.493-.596.54-1.22.882-1.843 1.268 0-.463-.007-1.4-.007-1.852 1.756-3.142 4.19-5.016 5.905-8.202-2.238.695-3.666 4.035-5.85 4.851-.081-1.478.783-2.073 1.393-2.734 2.138-2.161 4.444-3.859 6.857-5.005M-3.907 274.01c.794-1.909 3.326-2.056 4.977-1.278.425 2.826-3.805 3.407-4.977 1.278ZM326.669 301.753c-.86-2.404 2.476-2.527 4.398-2.39 1.721.157 3.69-.041 5.218.812.772.663-.37 1.277-1.029 1.503-2.734.894-5.821.819-8.587.075ZM88.636 302.666c2.311-.134 4.742-.636 7.023-.079 1.092.428.44 1.737-.584 1.883-2.804.881-5.878.539-8.81.82-1.009.122-2.445.049-2.557-1.003.755-1.572 3.246-1.303 4.928-1.621M143.85 311.422c2.531-.321 4.971.401 7.447.665 1.763.2 3.471.602 5.007 1.238-.985 1.06-3.055 1.009-4.709 1.02-2.675-.034-5.196-.584-7.682-1.072a4.757 4.757 0 0 1-.063-1.851M192.112 312.368c2.414-.999 5.363-1.044 8.118-1.024 1.348.076 3.037.367 3.638 1.325-.522 1.214-2.783.948-4.197 1.119-2.761.005-5.464.868-8.219.436-.094-.637-.355-1.485.66-1.856ZM132.343 311.473c1.377-.324 2.942-.085 3.921 1.109.125.598-.534.723-.859.962-1.654.893-3.559.711-5.339.797-.733.073-1.544-.74-1.225-1.548.722-1.32 2.293-1.087 3.502-1.32M284.82 311.891c2.272-.941 4.696-.377 7.04-.424 2.217.294 4.577.035 6.707 1.153 1.295 1.565-.691 2.847-1.526 3.435-3.544 1.929-7.438 1.141-11.117 1.106-1.923.117-2.67-3.753-1.104-5.27M36.285 320.808c2.365.469 3.637-2.169 5.34-3.459-.44 1.153-.87 2.277-1.29 3.4 1.048.371 2.132.704 3.18 1.202.574.928-.752 1.319-1.299 1.543-1.837.733-4.193-.342-5.698 1.231-1.9 1.661-3.512 3.947-5.94 4.64.233-2.608 2.911-3.692 4.345-5.519-2.903-.567-5.887-.537-8.718-1.436a58.557 58.557 0 0 0-.072-1.778c3.351-.645 6.774.176 10.152.176M213.956 323.919c-.455-2.906 1.238-3.716 2.115-3.543 1.807.438 4.053-.173 5.319 3.663-.855 2.721-2.301 2.588-3.528 1.911-1.304-.717-2.816.053-3.906-2.031ZM83.775 321.437a44.972 44.972 0 0 1 2.39-1.083c2.103.864 4.432.553 6.435 2.04.712.3.89 1.348 1.121 2.27-2.645 2.282-5.87 1.867-8.747 1.038-1.245-.542-1.385-2.663-1.199-4.265M276.784 321.134c3.612-.405 7.217-1.023 10.846-.682.784-.097 1.928 1.851 1.013 3.313-1.659 2.939-4.136 3.052-6.212 3.653-.016.227-.032.731-.057.974-2.795-.536-5.549.536-8.304.926-1.25.341-2.705-1.169-2.607-3.962.997-3.913 3.417-3.751 5.321-4.222M130.161 326.674c3.399-.496 6.918-.35 10.331.08 1.076.182 1.026 1.749.05 2.078-2.565.765-5.265.466-7.894.517-1.347-.058-3.021.058-3.84-1.268-.25-.839.783-1.152 1.353-1.407M354.067 330.845c.127-1.09 2.109-.969 3.278-1.257 2.812-.554 5.725 0 8.266.876.966.179 1.355 1.159.5 1.598-1.796.761-3.752-.116-5.582-.22-2.236-.126-4.379-.519-6.462-.997M355.119 344.631c4.376-.883 8.536.894 12.878.958.549.191 1.541.819.858 1.256-1.983.938-4.442.511-6.432-.132-2.64-.04-4.992-1.041-7.619-1.124-1.293-.079-.69-1.007.315-.958ZM23.896 363.718c.902-1.57 2.105-1.06 3.177-1.249 5.228.189 10.51-.851 15.684 1.627.455.076 1.304 1.079.671 2.251-4.002 2.857-8.181 1.854-12.268 2.044-2.136-.114-4.265.189-6.377-.114-.918.265-1.535-2.951-.887-4.559M84.73 362.983c3.638-.904 7.369-.767 10.98.604.695.438.668 2.673.026 3.221-2.012 1.933-4.132 3.77-6.392 3.565-2.052-.11-4.038.987-6.057 1.042-1.385.178-2.742-3.428-1.732-5.854.675-2.153 2.06-2.153 3.176-2.578M239.064 370.277c-.613-1.188.763-2.03 1.674-1.831 1.324.212 3.295.97 3.175 2.84-1.611.071-3.697.585-4.849-1.009M48.813 368.883l.188-.464c2.372 0 4.87-.11 7.109 1.181.188.915-.047 1.489-.707 1.721-1.854.287-3.747-.067-5.53-.751-.542-.143-1.602-.75-1.06-1.687M23.684 371.694c3.752-.466 7.538-.17 11.318-.271 3.732-.017 7.525.101 11.156 1.379-.798.618-1.697.991-2.596 1.075-6.227.94-12.509.356-18.763.491-1.27.22-1.237-1.633-1.115-2.674ZM374.739 378.067c1.371-.897 3.005-1.173 4.249 1.379.027.466.082 1.346.109 1.828-1.354 2.484-3.031 2.605-4.511 1.484-.735-.776-.625-4.347.153-4.691M83.948 378.896c1.385-2.92 4.153-1.182 4.767 2.584-1.1 1.842-2.601 2.456-3.918 1.529-.675-.788-1.507-2.491-.849-4.113"/><path d="M371.752 411.283c-.129 4.185.151 8.378.144 12.58 1.869-.017 3.752-.017 5.636-.052-.008-4.159-.029-8.292 0-12.434-1.934-.222-3.868-.204-5.78-.094Zm-10.057-.622c-.028 4.176.029 8.335.022 12.494 2.099-.341 3.925 1.202 6.002 1.176.065-4.321.015-8.658.137-12.988-2.078-.06-4.119-.315-6.161-.682Zm-.467-18.391c.137 4.303.467 8.65.165 12.971 2.121.179 4.249-.256 6.391-.137-.18-4.269.467-8.658-.345-12.852-2.07.026-4.148 0-6.211.018Zm10.33-.384c-.022 4.406.086 8.812-.036 13.227 1.991-.043 3.975-.085 5.981-.009.021-4.414.043-8.837-.036-13.252-1.977.23-3.947.247-5.909.034Zm2.962-7.159c2.027.009 3.996-.631 5.98-1.202 1.388-.477 2.387 1.083 3.358 2.003.474 7.244.093 14.548.222 21.835-.021 6.383.087 12.784-.057 19.184.072 2.378-1.423 5.02-3.58 4.952-4.859-.017-9.712-.06-14.557-.162-1.897-.026-3.45-2.028-5.384-1.594a5.83 5.83 0 0 1-3.911-.511c-.431-1.151-.783-2.344-.934-3.58-1.28.784-3.631 1.219-4.091-.937-.179-2.966 4.278-2.071 3.997-5.182.252-9.076.324-18.161.388-27.238-.948-.111-1.797-.494-2.372-1.415.439-1.457.554-3.076 1.172-4.457 1.129-1.56 2.99-1.645 4.615-1.696 5.039-.119 10.093 0 15.154 0M54.85 390.959c.678-1.338 1.805-1.942 2.96-1.182.513 3.747.021 7.539.096 11.313-.068 7.584-.068 15.169-.17 22.763-.377 4.552-.28 9.142-.342 13.731-.24 3.27-.404 6.559-.26 9.838 1.162 2.95 1.873 6.247 1.387 9.591-.902.677-1.825 1.914-2.918 1.401-1.108-.449-2.235-1.099-3.049-2.244-.704-1.457-1.011-3.16-1.462-4.754-.554 1.044-2.365 3.453-2.352.659-.212-17.01.082-34.021.028-51.022.075-2.427-.233-4.983.444-7.3 1.23-.523.937 2.216 1.032 3.224.055 8.152-.04 16.323.069 24.494.806 9.655.143 19.392.471 29.075 1.08-.669 1.593-2.263 2.597-3.106.725-.549 1.6-.568 2.447-.751.198-7.2-.478-14.345-.348-21.535.04-11.405-.5-22.791-.63-34.195M24.405 392.721c.718-.727 1.65.113 1.656 1.212.073 15.804.12 31.634-.02 47.438-.186 1.697-.047 3.663-.785 5.144-1.417.138-1.044-2.546-1.284-3.715-.545-12.799-.28-25.659-.28-38.475-.006-3.88-.092-7.837.713-11.604M89.502 416.957c2.473-.766 5.092-.351 7.638-.461 1.393.031 3.4-.031 4.093 1.524-.489 1.446-2.335 1.376-3.531 1.438-2.714-.172-5.537.423-8.135-.547-1.284-.039-.955-1.672-.065-1.954ZM291.746 431.652c1.039-.399 2.176.104 3.25.197 1.922.375 3.935.294 5.857.641.968.532.862 1.901-.459 1.959-2.508.231-4.995-.3-7.355-.919-1.024-.133-2.056-1.051-1.293-1.878M274.569 434.796c2.574-.306 5.221-.413 7.801-.119.67.173 2.302.806 1.274 1.632-2.999 1.052-6.256.572-9.347 1.092-.955.013-2.653.54-2.839-.873.06-1.598 1.951-1.498 3.111-1.732M89.215 434.598c1.748-.12 3.512-.14 5.284.026 1.025.153 2.323 1.275 1.43 2.152-1.889 1.116-4.305.598-6.434.691-1.267-.014-3.342-.133-3.28-1.588.381-1.042 1.928-1.095 3-1.281M354.101 438.848c3.278-1.753 6.64-1.549 9.969-.729.179 5.306-2.069 5.261-3.439 5.397-2.188-.227-4.504.524-6.564-1.411.008-.797.034-2.414.034-3.257ZM281.471 444.685c.153-.864 1.04-1.288 1.934-1.14 2.721.071 5.595-.021 8.079 1.196-1.039 1.303-2.79 1.947-4.51 1.741-1.888-.162-4.685.262-5.503-1.797M180.16 448.124c1.105-.895 2.308-1.893 3.732-1.526 2.085.366 3.155 3.667 1.946 5.748-1.828 2.593-4.413 4.375-7.206 4.759-1.265.068-2.335 1.314-3.607.981-1.453-.333-2.884-.247-4.267.307-1.189.699-2.62-1.339-1.571-2.533.911-1.348 2.064-3.002 3.67-2.721 2.397.299 4.767-.469 7.164-.145-.736-1.586-.5-3.318.139-4.87"/><path d="M32.199 448.193c1.408.077 2.433-1.601 3.84-1.627 2.972-.497 4.899 3.176 7.28 4.846.824.103 1.648-.283 2.452-.565 1.836-.18 3.828 2.337 2.407 4.64-3.347.565-6.747 2.894-10.14 1.276-1.7-.471-2.706-2.586-4.34-3.228.226 2.98-1 6.909-3.699 6.473-1.706 2.2-5.592 2.234-6.371-1.242.61-2.448 2.803-2.611 4.438-2.123-1.006-1.387-2.005-2.791-3.27-3.741-.526-1.798-.415-4.102 1.005-5.069 2.09-1.087 4.237.771 6.398.36M142.573 454.295c-.804-1.205-1.025-3.724.234-4.494 1.583-1.069 3.335 1.142 3.095 3.443.954-.036 2.154 0 2.764 1.277.481 1.024-.525 1.594-.953 2.147-1.713 1.712-3.524 3.316-5.6 3.941-1.655 1.486-4.069 1.187-5.4-.852-1.012-1.404-.136-4.339 1.318-4.212 1.551-.136 2.985-1.115 4.542-1.25M191.996 453.339c.786-1.766 1.772-3.554 3.274-3.815 1.483.136 3.089 1.401 3.51 3.752 2.523.711 5.191-.899 7.59.983-.186 2.205.531 5.8-1.275 6.657-2.903.481-5.86.408-8.632-.993-1.517.105-2.875-.679-4.074-1.985-1.675.407-2.572 3.49-4.337 3.49-1.309.011-2.985.648-3.86-1.243-1.048-1.704.503-3.752 1.33-4.902 2.165-.732 4.199-2.237 6.474-1.944M154.788 449.783c.469-.669.967.345 1.46.554.864.867 1.683-1.369 2.576-.679.775.47 1.718.365 2.334 1.661.445 1.16-.192 2.236-.523 3.04-1.465 3.02-3.557 3.793-5.512 4.159-.794.219-1.327-1.651-1.322-3.093.163-1.985.503-3.918.987-5.642M166.578 456.83c-.836-3.356.5-9.21 1.598-6.697.851 1.174.664 4.911.515 7.441-.701.777-1.641 2.018-2.113-.744Z"/></g><defs><clipPath id="a"><path fill="#fff" d="M0 0h480v480H0z"/></clipPath></defs></svg>