<svg width="480" height="242" viewBox="0 0 480 242" fill="none" xmlns="http://www.w3.org/2000/svg">
<g clip-path="url(#clip0_48_776)">
<path d="M174.408 68.3342C173.706 68.5561 173.55 69.3057 173.546 69.9498C174.75 69.5532 175.962 69.1347 177.236 68.9528C178.277 68.5089 179.339 67.5882 179.11 66.3183C177.676 67.2862 176.01 67.7629 174.408 68.3342ZM170.821 65.3213C170.977 66.0345 171.123 66.7622 171.232 67.4936C171.421 67.2717 171.949 67.2316 171.952 66.8568C172.021 65.8416 172.123 64.83 172.323 63.8403C171.854 64.3643 171.345 64.8519 170.821 65.3213V65.3213ZM166.64 62.363C165.544 63.0652 164.904 64.2951 164.566 65.5141C165.039 65.8744 165.468 66.3038 165.846 66.7804C166.418 66.2674 167.018 65.7579 167.491 65.1357C167.284 64.1896 166.963 63.269 166.64 62.363V62.363ZM176.708 61.1549C176.497 61.6861 176.366 62.2392 176.275 62.8069C177.869 62.4394 179.153 63.6474 180.624 63.9531C181.038 63.4837 181.362 62.9415 181.701 62.4248C179.91 63.2326 178.196 62.0391 176.708 61.1549ZM169.325 60.438C169.489 61.3514 169.831 62.2137 170.064 63.1089C170.435 62.7705 170.875 62.4721 171.123 62.0136C171.054 61.697 170.977 61.3878 170.893 61.0785C172.203 61.4278 173.579 60.3616 173.506 59.0007C173.051 58.7205 172.702 58.0728 172.123 58.1492C171.188 58.9061 170.275 59.6921 169.325 60.438V60.438ZM161.229 60.5436C160.734 60.8419 160.261 61.8098 160.945 62.1592C161.447 62.5631 161.924 63.007 162.397 63.4582C163.256 62.0973 164.675 61.2713 165.883 60.2488C165.748 59.4155 165.468 58.615 165.181 57.8254C163.845 58.7205 162.612 59.7321 161.229 60.5436ZM177.927 57.5489C177.767 58.1238 177.298 58.7933 177.611 59.3755C178.546 60.0123 179.612 60.438 180.518 61.1258C180.172 60.438 179.852 59.2445 180.918 59.0516C181.821 59.3427 182.297 60.2197 182.949 60.8456C183.811 60.7073 184.79 59.1681 183.647 58.6696C182.898 59.3428 181.781 59.2518 180.9 58.9279C179.874 58.5459 178.913 58.0219 177.927 57.5489V57.5489ZM173.968 54.9071C173.848 55.4529 173.706 56.0023 173.637 56.5591C173.848 56.6937 174.07 56.8211 174.307 56.9485C174.499 56.5627 174.71 56.1879 174.871 55.7913C174.772 55.3546 174.27 55.1873 173.968 54.9071V54.9071ZM191.853 34.3298C192.275 33.6348 193.21 34.1697 193.494 34.73C193.992 36.1637 194.84 37.7575 194.036 39.2531C193.916 39.2531 193.679 39.2531 193.559 39.2531C192.952 38.5217 192.108 37.9285 191.977 36.9169C191.482 37.3318 190.561 37.743 190.859 38.5289C191.314 39.8462 192.035 41.1488 191.765 42.5971C190.077 42.7936 189.72 40.7595 188.891 39.7224C189.415 40.6067 189.593 41.6655 190.215 42.4952C190.685 43.2302 191.285 44.1508 190.856 45.046C190.485 45.5991 189.531 45.4936 189.233 44.9295C188.64 43.8852 188.094 42.8154 187.541 41.7565C187.071 42.7172 186.176 43.4486 185.798 44.431C186.344 45.7519 187.421 46.7635 188.203 47.9461C188.512 48.3391 188.327 48.8776 188.352 49.3361C186.406 49.7982 185.478 47.7496 184.451 46.5343C183.702 46.6289 183.16 47.7714 183.826 48.3027C184.975 49.5836 185.943 51.0027 186.886 52.4364C187.221 53.1859 186.144 53.1859 185.696 53.0731C184.048 52.571 183 51.1118 181.948 49.8528C181.599 50.5806 180.915 51.2574 180.955 52.1016C182.265 53.306 184.361 54.1393 184.615 56.1152C183.269 56.3735 181.992 55.6712 180.973 54.8707C180.536 54.5941 180.158 54.052 179.579 54.2048C179.219 54.7069 179.044 55.3037 178.968 55.9078C180.409 56.6173 181.984 57.0722 183.334 57.9819C183.287 57.2759 183.494 56.5373 184.288 56.3881C185.03 56.5591 185.398 57.3269 185.98 57.7672C186.693 57.4797 187.33 57.014 188.01 56.6392C187.785 55.7295 187.384 54.8016 187.577 53.8482C187.679 53.0913 188.778 52.793 189.247 53.4079C189.611 53.9283 189.742 54.576 190.052 55.1291C190.557 55.2819 190.936 54.7688 191.361 54.576C191.118 53.8118 190.437 53.0076 190.928 52.2035C191.194 51.5339 192.177 51.5194 192.642 51.9924C193.137 52.4254 193.385 53.084 193.901 53.5025C194.324 53.5753 194.76 53.4916 195.211 53.4698C195.404 52.6547 196.077 51.7814 197.023 52.0543C198.177 52.3927 198.031 53.7936 198.308 54.7288C198.541 55.7367 198.854 57.043 197.911 57.7853C196.51 58.1711 195.728 56.4609 195.673 55.3074C195.357 55.3547 195.055 55.3911 194.847 55.6349C195.164 57.0249 196.066 58.302 195.961 59.783C195.808 60.6673 194.6 60.7182 194.083 60.1542C193.057 59.2954 192.773 57.8836 192.311 56.6901C191.998 56.9521 191.514 57.094 191.383 57.5016C191.573 59.3064 193.447 60.6746 193.014 62.5886C192.639 63.531 191.307 63.2217 190.863 62.4939C190.124 61.4205 189.746 60.1506 189.189 58.9789C188.629 59.3464 188.112 59.783 187.788 60.3798C188.632 61.2931 189.44 62.2465 190.19 63.2399C190.725 63.9058 190.929 65.0957 190.041 65.5614C188.203 65.1248 187.282 63.3709 186.074 62.0973C185.889 62.5122 185.449 62.8942 185.518 63.3781C186.598 64.7645 188.327 66.0745 188.072 68.0467C186.278 68.2687 185.106 66.6239 184.128 65.3831C183.997 65.6451 183.582 65.8817 183.822 66.2201C184.546 67.1298 185.649 68.0977 185.201 69.4076C184.837 69.4331 184.488 69.4659 184.146 69.5059C183.913 69.7351 183.706 69.9753 183.473 70.1827C182.487 70.2409 181.573 69.6951 180.598 69.7533C179.783 70.3319 179.153 71.1142 178.444 71.8129C179.466 71.7401 181.035 71.3289 181.588 72.4933C180.729 73.6432 179.153 73.9961 177.782 73.9561C176.927 73.7778 176.584 74.8403 175.802 74.8512C175.22 74.9422 174.587 74.4764 174.565 73.8869C174.514 72.7662 175.158 71.7947 176.009 71.1251C174.962 71.2961 173.968 71.7183 173.033 72.1804C172.331 73.2575 172.636 75.1933 170.995 75.4116C170.591 75.2988 170.18 75.1933 169.794 75.095C169.289 73.6905 169.751 72.2168 170.238 70.8741C170.249 70.7613 170.278 70.5247 170.286 70.4083C170.1 70.3792 169.711 70.3137 169.514 70.2846C169.329 69.6114 169.62 69.0001 169.907 68.407C168.921 68.1704 168.772 69.3276 168.659 70.0117C168.67 70.8304 169.052 71.8383 168.408 72.5224C168.059 72.668 167.695 72.7662 167.346 72.8718C167.062 72.748 166.782 72.617 166.516 72.4933C166.261 72.0567 166.039 71.6127 165.752 71.2052C165.402 71.1397 165.33 71.5763 165.166 71.7692C164.747 72.4169 164.304 73.1119 163.619 73.5013C162.921 73.5267 161.953 73.0646 162.12 72.224C162.542 71.1397 163.448 70.3465 164.06 69.3749C164.238 68.8218 163.634 68.3924 163.307 68.0394C163.048 68.9128 162.612 69.7205 162.193 70.5211C161.673 70.7212 161.087 70.9177 160.552 70.6666C159.868 70.5138 159.759 69.6914 159.839 69.1238C160.05 67.9448 160.836 66.9915 161.222 65.8816C160.752 65.2521 160.181 64.7209 159.548 64.277C159.046 65.4414 158.878 66.7186 158.401 67.8939C157.856 68.4142 157.135 68.3706 156.535 67.9739C156.335 66.9623 156.396 65.9217 156.793 64.9683C156.36 65.3176 155.694 65.3431 155.374 64.8519C154.923 63.6001 155.687 62.3884 155.654 61.1439C155.374 60.9292 155.05 60.8201 154.763 60.6746C154.679 61.4642 154.046 62.8178 153.082 62.1519C152.299 61.3695 152.845 60.1942 152.903 59.2445C152.608 60.5981 151.2 59.3355 151.288 58.484C150.429 57.8836 149.13 58.0474 148.479 57.185C148.537 57.0795 148.646 56.8647 148.693 56.7519C149.625 56.6792 150.553 57.0758 151.47 56.9193C152.114 56.1443 152.641 55.0053 153.751 54.867C154.475 54.9544 154.668 55.7731 154.268 56.3117C153.94 56.7811 153.602 57.2505 153.253 57.7017C153.314 57.6835 153.445 57.6471 153.504 57.6325C153.751 56.9339 154.479 56.61 154.763 55.9369C155.207 55.1691 156.735 55.0672 156.902 56.1006C156.655 57.1049 155.792 57.8254 155.472 58.8224C155.829 58.9534 156.175 59.1099 156.582 59.1462C157.106 58.302 157.568 57.2796 158.554 56.8756C159.093 56.6027 159.944 57.1449 159.682 57.7926C159.206 58.5822 158.733 59.3719 158.42 60.2415C158.401 60.307 158.372 60.4453 158.354 60.5108C159.151 59.4737 159.992 58.0255 161.516 58.1929C162.39 57.4433 163.292 56.7229 164.224 56.0424C164.031 55.4129 163.892 54.747 163.529 54.1975C162.4 54.6051 161.724 55.955 160.494 56.2025C159.97 56.2862 159.34 55.7477 159.69 55.22C160.265 54.0993 161.28 53.2806 162.168 52.4036C161.873 52.0179 161.574 51.2065 160.996 51.3993C160.523 52.1125 160.203 53.3169 159.1 53.0841C158.802 52.9458 158.511 52.8111 158.22 52.6874C157.776 51.4721 158.733 50.4678 159.471 49.6381C159.726 49.3506 159.526 48.9831 159.286 48.7794C158.613 48.8521 157.994 49.2706 157.31 49.1105C157.081 48.219 158.107 47.2147 157.212 46.5124C156.695 46.5306 156.175 46.6362 155.68 46.4942C155.607 46.0539 155.742 45.6355 155.829 45.2134C155.469 44.9841 155.134 44.7513 154.763 44.5802C154.654 44.9223 154.57 45.2752 154.497 45.6391C154.064 45.6355 153.267 45.6973 153.362 45.046C153.3 44.5365 153.868 44.4019 154.213 44.1909C153.253 43.3467 151.459 43.0483 151.36 41.56C152.594 41.258 153.642 42.1168 154.708 42.608C155.472 42.961 156.076 43.6305 156.924 43.8525C157.47 42.961 158.169 42.1714 158.849 41.3817C159.286 40.8396 159.941 40.4211 160.679 40.5812C160.872 42.3169 159.424 43.4449 158.482 44.6749C157.983 45.1843 158.787 45.5227 159.093 45.8575C160.068 44.6567 161.149 42.9719 162.91 43.1575C163.048 44.8895 161.291 45.7737 160.457 47.0473C160.505 47.2365 160.614 47.615 160.661 47.8006C161.44 47.8224 161.796 47 162.39 46.6252C163.372 45.9229 164.351 44.8968 165.679 45.0351C166.076 46.4397 164.718 47.2802 164.005 48.2736C163.659 48.7757 162.961 48.9904 162.761 49.5872C162.823 50.1621 163.438 50.4787 163.787 50.9081C164.777 49.9001 165.657 48.7757 166.727 47.8442C167.316 47.3857 168.208 46.738 168.918 47.3748C169.376 47.8042 168.874 48.4482 168.666 48.8849C167.702 50.1803 166.429 51.2065 165.402 52.4509C165.257 53.0913 165.828 53.6917 166.105 54.2667C166.851 53.9974 167.295 53.2005 167.924 52.7093C168.914 51.9415 170.027 50.959 171.37 51.1118C171.097 53.4152 168.772 54.5832 167.276 56.0751C167.593 56.8393 167.95 57.5852 168.31 58.3348C170.213 57.3014 171.403 55.26 173.524 54.5687C172.822 53.7791 171.406 53.3133 171.497 52.0725C171.934 51.4721 172.869 51.5521 173.379 52.0215C174.172 52.6692 175.034 53.226 175.908 53.7536C176.21 53.1241 176.486 52.4945 176.766 51.865C175.937 50.9372 174.674 50.4132 174.085 49.2852C173.71 48.561 174.492 47.877 175.205 48.0625C175.995 48.5028 176.599 49.2088 177.389 49.6672C177.603 49.8383 178.116 49.9001 178.204 49.5399C178.593 48.7212 179.033 47.9315 179.495 47.1601C178.913 46.5524 178.258 45.9957 177.807 45.2861C177.399 44.5911 177.716 43.5104 178.637 43.5286C179.43 43.6378 179.994 44.3146 180.529 44.8677C180.667 45.0496 180.966 45.4353 181.202 45.0751C181.69 44.6275 182.188 44.1581 182.516 43.5759C182.388 42.5462 181.413 41.8184 181.366 40.7813C181.293 40.1154 182.039 39.5878 182.636 39.9772C183.262 40.4357 183.516 41.2107 183.949 41.8329C184.779 41.1343 185.238 40.0572 186.165 39.4386C186.082 38.7036 185.536 38.1323 185.438 37.4118C185.358 36.7095 186.453 36.0255 186.904 36.7569C187.231 37.0407 187.486 37.9795 188.05 37.5246C188.279 36.9934 188.25 36.2729 188.814 35.949C189.211 35.7889 189.655 35.8581 190.088 35.8362C190.736 35.4105 191.343 34.9229 191.853 34.3298" fill="#0A0A0B"/>
<path d="M156.054 40.0061C156.571 39.7914 156.877 40.3882 156.557 40.7994C156.204 40.9886 155.8 40.9959 155.436 41.0723C155.578 40.6975 155.578 40.1371 156.054 40.0061" fill="#0A0A0B"/>
<path d="M199.589 52.1089C200.156 52.0397 200.637 52.491 200.793 53.0186C201.099 53.8228 201.881 54.576 201.568 55.5003C200.531 56.4573 199.41 54.9981 199.017 54.0993C198.493 53.397 198.519 52.1853 199.589 52.1089Z" fill="#0A0A0B"/>
<path d="M203.017 52.4253C203.486 52.0941 204.279 52.3852 204.385 52.9675C204.567 53.677 204.068 54.3538 203.515 54.7395C202.711 54.9943 202.776 53.99 202.645 53.5169C202.5 53.1057 202.638 52.6509 203.017 52.4253" fill="#0A0A0B"/>
<path d="M67.93 162.39C67.2277 162.612 67.0712 163.362 67.0675 164.006C68.272 163.609 69.4837 163.191 70.7573 163.009C71.798 162.565 72.8605 161.644 72.6312 160.374C71.1976 161.342 69.531 161.819 67.93 162.39ZM64.3421 159.377C64.4986 160.091 64.6441 160.818 64.7533 161.55C64.9425 161.328 65.4701 161.288 65.4738 160.913C65.5429 159.898 65.6448 158.886 65.8449 157.896C65.3755 158.42 64.8661 158.908 64.3421 159.377V159.377ZM60.1611 156.419C59.0658 157.121 58.4254 158.351 58.087 159.57C58.5601 159.931 58.9895 160.36 59.3679 160.837C59.9392 160.324 60.5396 159.814 61.0126 159.192C60.8052 158.246 60.485 157.325 60.1611 156.419V156.419ZM70.2297 155.211C70.0186 155.742 69.8876 156.295 69.7966 156.863C71.3904 156.496 72.675 157.704 74.145 158.009C74.5598 157.54 74.8837 156.998 75.2221 156.481C73.4318 157.289 71.718 156.095 70.2297 155.211ZM62.8465 154.494C63.0103 155.408 63.3523 156.27 63.5852 157.165C63.9564 156.827 64.3967 156.528 64.6441 156.07C64.575 155.753 64.4986 155.444 64.4149 155.135C65.7248 155.484 67.1003 154.418 67.0275 153.057C66.5727 152.777 66.2234 152.129 65.6448 152.205C64.7096 152.962 63.7963 153.748 62.8465 154.494V154.494ZM54.7503 154.6C54.2554 154.898 53.7824 155.866 54.4665 156.215C54.9686 156.619 55.4453 157.063 55.9183 157.514C56.7771 156.153 58.1962 155.327 59.4043 154.305C59.2696 153.472 58.9895 152.671 58.702 151.882C57.3666 152.777 56.133 153.788 54.7503 154.6ZM71.4486 151.605C71.2885 152.18 70.8192 152.849 71.1321 153.432C72.0673 154.068 73.1334 154.494 74.0395 155.182C73.6938 154.494 73.3735 153.301 74.4397 153.108C75.3421 153.399 75.8188 154.276 76.4702 154.902C77.3326 154.763 78.3114 153.224 77.1688 152.726C76.4192 153.399 75.3021 153.308 74.4215 152.984C73.3953 152.602 72.4347 152.078 71.4486 151.605V151.605ZM67.4897 148.963C67.3696 149.509 67.2276 150.058 67.1585 150.615C67.3695 150.75 67.5915 150.877 67.8281 151.005C68.0209 150.619 68.232 150.244 68.3921 149.847C68.2938 149.411 67.7917 149.243 67.4897 148.963V148.963ZM85.3742 128.386C85.7963 127.691 86.7315 128.226 87.0153 128.786C87.5139 130.22 88.3617 131.814 87.5575 133.309C87.4374 133.309 87.2009 133.309 87.0808 133.309C86.4731 132.578 85.629 131.985 85.498 130.973C85.0031 131.388 84.0825 131.799 84.3809 132.585C84.8357 133.902 85.5562 135.205 85.2869 136.653C83.5985 136.85 83.242 134.816 82.4123 133.779C82.9363 134.663 83.1146 135.722 83.7368 136.551C84.2062 137.286 84.8066 138.207 84.3772 139.102C84.0061 139.655 83.0527 139.55 82.7543 138.986C82.1612 137.941 81.6154 136.872 81.0623 135.813C80.5929 136.773 79.6978 137.505 79.3194 138.487C79.8652 139.808 80.9422 140.82 81.7245 142.002C82.0338 142.395 81.8483 142.934 81.8738 143.392C79.927 143.854 78.9991 141.806 77.9729 140.59C77.2233 140.685 76.6812 141.828 77.3471 142.359C78.4969 143.64 79.4649 145.059 80.4073 146.493C80.7421 147.242 79.665 147.242 79.2175 147.129C77.5691 146.627 76.5211 145.168 75.4695 143.909C75.1202 144.637 74.4361 145.314 74.4761 146.158C75.7861 147.362 77.882 148.195 78.1368 150.171C76.7904 150.43 75.5132 149.727 74.4943 148.927C74.0577 148.65 73.6792 148.108 73.1006 148.261C72.7404 148.763 72.5658 149.36 72.4894 149.964C73.9303 150.673 75.5059 151.128 76.8559 152.038C76.8086 151.332 77.016 150.593 77.8092 150.444C78.5515 150.615 78.9191 151.383 79.5013 151.823C80.2145 151.536 80.8512 151.07 81.5317 150.695C81.3061 149.786 80.9058 148.858 81.0987 147.904C81.2006 147.147 82.2995 146.849 82.7689 147.464C83.1328 147.984 83.2638 148.632 83.5731 149.185C84.0789 149.338 84.4572 148.825 84.883 148.632C84.6392 147.868 83.9587 147.064 84.45 146.26C84.7156 145.59 85.6981 145.576 86.1638 146.049C86.6587 146.482 86.9062 147.14 87.4229 147.559C87.845 147.631 88.2816 147.548 88.7328 147.526C88.9257 146.711 89.5989 145.838 90.5449 146.11C91.6984 146.449 91.5529 147.85 91.8294 148.785C92.0623 149.793 92.3752 151.099 91.4328 151.841C90.0319 152.227 89.2495 150.517 89.195 149.364C88.8784 149.411 88.5764 149.447 88.369 149.691C88.6855 151.081 89.588 152.358 89.4824 153.839C89.3296 154.723 88.1216 154.774 87.6049 154.21C86.5787 153.352 86.2949 151.94 85.8327 150.746C85.5198 151.008 85.0358 151.15 84.9048 151.558C85.094 153.363 86.968 154.731 86.535 156.645C86.1602 157.587 84.8284 157.278 84.3845 156.55C83.6458 155.477 83.2674 154.207 82.7106 153.035C82.1503 153.403 81.6336 153.839 81.3098 154.436C82.154 155.349 82.9617 156.303 83.7113 157.296C84.2462 157.962 84.45 159.152 83.5621 159.618C81.7246 159.181 80.804 157.427 79.5959 156.153C79.4103 156.568 78.97 156.95 79.0392 157.434C80.1199 158.821 81.8483 160.131 81.5936 162.103C79.7997 162.325 78.628 160.68 77.6491 159.439C77.5181 159.701 77.1033 159.938 77.3434 160.276C78.0676 161.186 79.1701 162.154 78.7225 163.464C78.3587 163.489 78.0094 163.522 77.6673 163.562C77.4345 163.791 77.227 164.031 76.9941 164.239C76.008 164.297 75.0947 163.751 74.1195 163.809C73.3044 164.388 72.6749 165.17 71.9653 165.869C72.9878 165.796 74.5562 165.385 75.1093 166.549C74.2505 167.699 72.6749 168.052 71.3031 168.012C70.448 167.834 70.106 168.896 69.3236 168.907C68.7414 168.998 68.1082 168.533 68.0864 167.943C68.0355 166.822 68.6795 165.851 69.531 165.181C68.483 165.352 67.4897 165.774 66.5545 166.237C65.8522 167.314 66.1579 169.249 64.5168 169.468C64.1129 169.355 63.7017 169.249 63.316 169.151C62.8102 167.747 63.2723 166.273 63.7599 164.93C63.7708 164.817 63.7999 164.581 63.8072 164.464C63.6216 164.435 63.2323 164.37 63.0358 164.341C62.8502 163.668 63.1413 163.056 63.4288 162.463C62.4427 162.227 62.2935 163.384 62.1807 164.068C62.1916 164.887 62.5737 165.894 61.9296 166.579C61.5803 166.724 61.2164 166.822 60.8671 166.928C60.5832 166.804 60.303 166.673 60.0374 166.549C59.7827 166.113 59.5607 165.669 59.2733 165.261C58.924 165.196 58.8512 165.632 58.6874 165.825C58.269 166.473 57.8251 167.168 57.141 167.557C56.4423 167.583 55.4744 167.121 55.6418 166.28C56.0639 165.196 56.9699 164.403 57.5812 163.431C57.7595 162.878 57.1555 162.449 56.828 162.096C56.5697 162.969 56.133 163.777 55.7145 164.577C55.1942 164.777 54.6084 164.974 54.0734 164.723C53.3894 164.57 53.2802 163.748 53.3603 163.18C53.5713 162.001 54.3573 161.048 54.743 159.938C54.2736 159.308 53.7023 158.777 53.0691 158.333C52.567 159.498 52.3996 160.775 51.923 161.95C51.3771 162.47 50.6567 162.427 50.0563 162.03C49.8561 161.019 49.918 159.978 50.3146 159.024C49.8816 159.374 49.2157 159.399 48.8955 158.908C48.4443 157.656 49.2084 156.445 49.1757 155.2C48.8955 154.985 48.5716 154.876 48.2842 154.731C48.2005 155.52 47.5673 156.874 46.6031 156.208C45.8207 155.426 46.3665 154.25 46.4247 153.301C46.13 154.654 44.7218 153.392 44.8091 152.54C43.9504 151.94 42.6513 152.104 42 151.241C42.0582 151.136 42.1674 150.921 42.2147 150.808C43.1462 150.735 44.0741 151.132 44.9911 150.975C45.6351 150.2 46.1628 149.061 47.2726 148.923C47.9967 149.011 48.1895 149.829 47.7893 150.368C47.4618 150.837 47.1234 151.307 46.7741 151.758C46.8359 151.74 46.9669 151.703 47.0251 151.689C47.2726 150.99 48.0004 150.666 48.2842 149.993C48.7281 149.225 50.2564 149.123 50.4238 150.157C50.1763 151.161 49.3139 151.882 48.9937 152.879C49.3503 153.01 49.696 153.166 50.1036 153.202C50.6276 152.358 51.0897 151.336 52.0758 150.932C52.6143 150.659 53.4658 151.201 53.2038 151.849C52.7271 152.638 52.2541 153.428 51.9411 154.298C51.9229 154.363 51.8939 154.501 51.8757 154.567C52.6725 153.53 53.5131 152.082 55.0377 152.249C55.911 151.499 56.8135 150.779 57.745 150.099C57.5522 149.469 57.4139 148.803 57.05 148.254C55.922 148.661 55.2452 150.011 54.0153 150.259C53.4913 150.342 52.8617 149.804 53.2111 149.276C53.786 148.155 54.8012 147.337 55.6891 146.46C55.3944 146.074 55.096 145.263 54.5174 145.455C54.0444 146.169 53.7241 147.373 52.6216 147.14C52.3232 147.002 52.0321 146.867 51.741 146.744C51.2971 145.528 52.2541 144.524 52.9927 143.694C53.2475 143.407 53.0473 143.039 52.8072 142.836C52.134 142.908 51.5154 143.327 50.8313 143.167C50.6021 142.275 51.6282 141.271 50.7331 140.569C50.2164 140.587 49.696 140.692 49.2011 140.55C49.1283 140.11 49.263 139.692 49.3503 139.27C48.9901 139.04 48.6553 138.807 48.2842 138.636C48.175 138.978 48.0913 139.331 48.0185 139.695C47.5855 139.692 46.7886 139.753 46.8832 139.102C46.8214 138.593 47.389 138.458 47.7347 138.247C46.7741 137.403 44.9801 137.104 44.8819 135.616C46.1154 135.314 47.1634 136.173 48.2296 136.664C48.9937 137.017 49.5978 137.687 50.4456 137.909C50.9914 137.017 51.6901 136.228 52.3705 135.438C52.8072 134.896 53.4622 134.477 54.2008 134.637C54.3937 136.373 52.9454 137.501 52.003 138.731C51.5045 139.24 52.3086 139.579 52.6143 139.914C53.5895 138.713 54.6702 137.028 56.4314 137.214C56.5696 138.946 54.8121 139.83 53.9788 141.103C54.0261 141.293 54.1353 141.671 54.1826 141.857C54.9613 141.879 55.3179 141.056 55.9111 140.681C56.8935 139.979 57.8724 138.953 59.2005 139.091C59.5972 140.496 58.2398 141.336 57.5266 142.33C57.181 142.832 56.4823 143.047 56.2822 143.643C56.3441 144.218 56.959 144.535 57.3083 144.964C58.2981 143.956 59.1787 142.832 60.2485 141.9C60.838 141.442 61.7294 140.794 62.439 141.431C62.8975 141.86 62.3954 142.504 62.1879 142.941C61.2237 144.236 59.9501 145.263 58.924 146.507C58.7784 147.148 59.3497 147.748 59.6262 148.323C60.3722 148.054 60.8161 147.257 61.4456 146.765C62.4354 145.998 63.5488 145.015 64.8915 145.168C64.6186 147.471 62.2934 148.639 60.7979 150.131C61.1145 150.895 61.4711 151.641 61.8314 152.391C63.7344 151.358 64.9243 149.316 67.0458 148.625C66.3435 147.835 64.928 147.369 65.0189 146.129C65.4556 145.528 66.3907 145.608 66.9002 146.078C67.6934 146.725 68.5558 147.282 69.4291 147.81C69.7311 147.18 70.0077 146.551 70.2879 145.921C69.4582 144.993 68.1955 144.469 67.6061 143.341C67.2313 142.617 68.0136 141.933 68.7268 142.119C69.5164 142.559 70.1205 143.265 70.9101 143.723C71.1248 143.894 71.6378 143.956 71.7252 143.596C72.1145 142.777 72.5548 141.988 73.017 141.216C72.4348 140.609 71.7797 140.052 71.3285 139.342C70.921 138.647 71.2376 137.567 72.1582 137.585C72.9514 137.694 73.5155 138.371 74.0504 138.924C74.1887 139.106 74.487 139.491 74.7235 139.131C75.2111 138.684 75.7097 138.214 76.0372 137.632C75.9098 136.602 74.9346 135.875 74.8873 134.837C74.8145 134.172 75.5604 133.644 76.1572 134.033C76.7831 134.492 77.0378 135.267 77.4708 135.889C78.3005 135.19 78.759 134.113 79.6869 133.495C79.6032 132.76 79.0574 132.188 78.9591 131.468C78.8791 130.766 79.9743 130.082 80.4255 130.813C80.753 131.097 81.0077 132.036 81.5717 131.581C81.801 131.05 81.7718 130.329 82.3358 130.005C82.7325 129.845 83.1764 129.914 83.6094 129.892C84.2571 129.467 84.8648 128.979 85.3742 128.386" fill="#0A0A0B"/>
<path d="M49.5759 134.062C50.0926 133.848 50.3982 134.444 50.078 134.856C49.725 135.045 49.3212 135.052 48.9573 135.128C49.0992 134.754 49.0992 134.193 49.5759 134.062" fill="#0A0A0B"/>
<path d="M93.1103 146.165C93.6779 146.096 94.1583 146.547 94.3147 147.075C94.6204 147.879 95.4027 148.632 95.0897 149.556C94.0527 150.513 92.9319 149.054 92.539 148.155C92.015 147.453 92.0405 146.241 93.1103 146.165Z" fill="#0A0A0B"/>
<path d="M96.538 146.481C97.0074 146.15 97.8007 146.441 97.9062 147.024C98.0881 147.733 97.5897 148.41 97.0366 148.796C96.2324 149.05 96.2978 148.046 96.1668 147.573C96.0213 147.162 96.1596 146.707 96.538 146.481" fill="#0A0A0B"/>
<path d="M209.93 184.334C209.228 184.556 209.071 185.306 209.068 185.95C210.272 185.553 211.484 185.135 212.757 184.953C213.798 184.509 214.86 183.588 214.631 182.318C213.198 183.286 211.531 183.763 209.93 184.334ZM206.342 181.321C206.499 182.034 206.644 182.762 206.753 183.494C206.943 183.272 207.47 183.232 207.474 182.857C207.543 181.842 207.645 180.83 207.845 179.84C207.376 180.364 206.866 180.852 206.342 181.321V181.321ZM202.161 178.363C201.066 179.065 200.425 180.295 200.087 181.514C200.56 181.874 200.989 182.304 201.368 182.78C201.939 182.267 202.54 181.758 203.013 181.136C202.805 180.19 202.485 179.269 202.161 178.363V178.363ZM212.23 177.155C212.019 177.686 211.888 178.239 211.797 178.807C213.39 178.439 214.675 179.647 216.145 179.953C216.56 179.484 216.884 178.941 217.222 178.425C215.432 179.233 213.718 178.039 212.23 177.155ZM204.847 176.438C205.01 177.351 205.352 178.214 205.585 179.109C205.956 178.77 206.397 178.472 206.644 178.014C206.575 177.697 206.499 177.388 206.415 177.078C207.725 177.428 209.1 176.362 209.028 175.001C208.573 174.721 208.223 174.073 207.645 174.149C206.71 174.906 205.796 175.692 204.847 176.438V176.438ZM196.75 176.544C196.255 176.842 195.782 177.81 196.466 178.159C196.969 178.563 197.445 179.007 197.918 179.458C198.777 178.097 200.196 177.271 201.404 176.249C201.27 175.416 200.989 174.615 200.702 173.825C199.367 174.721 198.133 175.732 196.75 176.544ZM213.449 173.549C213.289 174.124 212.819 174.793 213.132 175.375C214.067 176.012 215.133 176.438 216.039 177.126C215.694 176.438 215.374 175.244 216.44 175.052C217.342 175.343 217.819 176.22 218.47 176.846C219.333 176.707 220.311 175.168 219.169 174.67C218.419 175.343 217.302 175.252 216.421 174.928C215.395 174.546 214.435 174.022 213.449 173.549V173.549ZM209.49 170.907C209.37 171.453 209.228 172.002 209.158 172.559C209.37 172.694 209.592 172.821 209.828 172.948C210.021 172.563 210.232 172.188 210.392 171.791C210.294 171.355 209.792 171.187 209.49 170.907V170.907ZM227.374 150.33C227.796 149.635 228.732 150.17 229.015 150.73C229.514 152.164 230.362 153.758 229.558 155.253C229.437 155.253 229.201 155.253 229.081 155.253C228.473 154.522 227.629 153.929 227.498 152.917C227.003 153.332 226.082 153.743 226.381 154.529C226.836 155.846 227.556 157.149 227.287 158.597C225.599 158.794 225.242 156.759 224.412 155.722C224.936 156.607 225.115 157.666 225.737 158.495C226.206 159.23 226.807 160.151 226.377 161.046C226.006 161.599 225.053 161.494 224.754 160.93C224.161 159.885 223.615 158.815 223.062 157.757C222.593 158.717 221.698 159.449 221.319 160.431C221.865 161.752 222.942 162.764 223.725 163.946C224.034 164.339 223.848 164.878 223.874 165.336C221.927 165.798 220.999 163.75 219.973 162.534C219.223 162.629 218.681 163.771 219.347 164.303C220.497 165.584 221.465 167.003 222.407 168.436C222.742 169.186 221.665 169.186 221.217 169.073C219.569 168.571 218.521 167.112 217.469 165.853C217.12 166.581 216.436 167.257 216.476 168.102C217.786 169.306 219.882 170.139 220.137 172.115C218.79 172.374 217.513 171.671 216.494 170.871C216.058 170.594 215.679 170.052 215.101 170.205C214.74 170.707 214.566 171.304 214.489 171.908C215.93 172.617 217.506 173.072 218.856 173.982C218.809 173.276 219.016 172.537 219.809 172.388C220.552 172.559 220.919 173.327 221.501 173.767C222.214 173.48 222.851 173.014 223.532 172.639C223.306 171.729 222.906 170.802 223.099 169.848C223.201 169.091 224.3 168.793 224.769 169.408C225.133 169.928 225.264 170.576 225.573 171.129C226.079 171.282 226.457 170.769 226.883 170.576C226.639 169.812 225.959 169.008 226.45 168.203C226.716 167.534 227.698 167.519 228.164 167.992C228.659 168.425 228.906 169.084 229.423 169.502C229.845 169.575 230.282 169.492 230.733 169.47C230.926 168.655 231.599 167.781 232.545 168.054C233.698 168.393 233.553 169.794 233.829 170.729C234.062 171.737 234.375 173.043 233.433 173.785C232.032 174.171 231.25 172.461 231.195 171.307C230.878 171.355 230.576 171.391 230.369 171.635C230.686 173.025 231.588 174.302 231.482 175.783C231.33 176.667 230.122 176.718 229.605 176.154C228.579 175.295 228.295 173.884 227.833 172.69C227.52 172.952 227.036 173.094 226.905 173.502C227.094 175.306 228.968 176.675 228.535 178.589C228.16 179.531 226.828 179.222 226.385 178.494C225.646 177.421 225.267 176.151 224.711 174.979C224.15 175.346 223.634 175.783 223.31 176.38C224.154 177.293 224.962 178.246 225.711 179.24C226.246 179.906 226.45 181.096 225.562 181.561C223.725 181.125 222.804 179.371 221.596 178.097C221.41 178.512 220.97 178.894 221.039 179.378C222.12 180.765 223.848 182.075 223.594 184.047C221.8 184.269 220.628 182.624 219.649 181.383C219.518 181.645 219.103 181.882 219.343 182.22C220.068 183.13 221.17 184.098 220.723 185.408C220.359 185.433 220.009 185.466 219.667 185.506C219.434 185.735 219.227 185.975 218.994 186.183C218.008 186.241 217.095 185.695 216.12 185.753C215.304 186.332 214.675 187.114 213.965 187.813C214.988 187.74 216.556 187.329 217.109 188.493C216.251 189.643 214.675 189.996 213.303 189.956C212.448 189.778 212.106 190.84 211.324 190.851C210.741 190.942 210.108 190.476 210.086 189.887C210.035 188.766 210.68 187.795 211.531 187.125C210.483 187.296 209.49 187.718 208.554 188.18C207.852 189.257 208.158 191.193 206.517 191.412C206.113 191.299 205.702 191.193 205.316 191.095C204.81 189.69 205.272 188.217 205.76 186.874C205.771 186.761 205.8 186.525 205.807 186.408C205.622 186.379 205.232 186.314 205.036 186.285C204.85 185.611 205.141 185 205.429 184.407C204.443 184.17 204.293 185.328 204.181 186.012C204.192 186.83 204.574 187.838 203.93 188.522C203.58 188.668 203.216 188.766 202.867 188.872C202.583 188.748 202.303 188.617 202.037 188.493C201.783 188.057 201.561 187.613 201.273 187.205C200.924 187.14 200.851 187.576 200.687 187.769C200.269 188.417 199.825 189.112 199.141 189.501C198.442 189.527 197.474 189.065 197.642 188.224C198.064 187.14 198.97 186.346 199.581 185.375C199.76 184.822 199.156 184.392 198.828 184.039C198.57 184.913 198.133 185.721 197.715 186.521C197.194 186.721 196.608 186.918 196.073 186.667C195.389 186.514 195.28 185.691 195.36 185.124C195.571 183.945 196.357 182.991 196.743 181.882C196.274 181.252 195.702 180.721 195.069 180.277C194.567 181.441 194.4 182.719 193.923 183.894C193.377 184.414 192.657 184.371 192.056 183.974C191.856 182.962 191.918 181.922 192.315 180.968C191.882 181.318 191.216 181.343 190.895 180.852C190.444 179.6 191.208 178.388 191.176 177.144C190.895 176.929 190.572 176.82 190.284 176.675C190.2 177.464 189.567 178.818 188.603 178.152C187.821 177.37 188.367 176.194 188.425 175.244C188.13 176.598 186.722 175.335 186.809 174.484C185.95 173.884 184.651 174.047 184 173.185C184.058 173.079 184.167 172.865 184.215 172.752C185.146 172.679 186.074 173.076 186.991 172.919C187.635 172.144 188.163 171.005 189.273 170.867C189.997 170.954 190.19 171.773 189.789 172.312C189.462 172.781 189.123 173.25 188.774 173.702C188.836 173.683 188.967 173.647 189.025 173.633C189.273 172.934 190 172.61 190.284 171.937C190.728 171.169 192.256 171.067 192.424 172.101C192.176 173.105 191.314 173.825 190.994 174.822C191.35 174.953 191.696 175.11 192.104 175.146C192.628 174.302 193.09 173.28 194.076 172.876C194.614 172.603 195.466 173.145 195.204 173.793C194.727 174.582 194.254 175.372 193.941 176.242C193.923 176.307 193.894 176.445 193.876 176.511C194.673 175.474 195.513 174.026 197.038 174.193C197.911 173.443 198.813 172.723 199.745 172.042C199.552 171.413 199.414 170.747 199.05 170.198C197.922 170.605 197.245 171.955 196.015 172.202C195.491 172.286 194.862 171.748 195.211 171.22C195.786 170.099 196.801 169.281 197.689 168.404C197.394 168.018 197.096 167.206 196.517 167.399C196.044 168.113 195.724 169.317 194.622 169.084C194.323 168.946 194.032 168.811 193.741 168.687C193.297 167.472 194.254 166.468 194.993 165.638C195.247 165.351 195.047 164.983 194.807 164.779C194.134 164.852 193.515 165.271 192.831 165.111C192.602 164.219 193.628 163.215 192.733 162.512C192.216 162.531 191.696 162.636 191.201 162.494C191.128 162.054 191.263 161.635 191.35 161.213C190.99 160.984 190.655 160.751 190.284 160.58C190.175 160.922 190.091 161.275 190.019 161.639C189.585 161.635 188.789 161.697 188.883 161.046C188.821 160.537 189.389 160.402 189.735 160.191C188.774 159.347 186.98 159.048 186.882 157.56C188.115 157.258 189.163 158.117 190.23 158.608C190.994 158.961 191.598 159.631 192.446 159.852C192.991 158.961 193.69 158.171 194.371 157.382C194.807 156.84 195.462 156.421 196.201 156.581C196.394 158.317 194.945 159.445 194.003 160.675C193.504 161.184 194.309 161.523 194.614 161.857C195.589 160.657 196.67 158.972 198.431 159.157C198.57 160.89 196.812 161.774 195.979 163.047C196.026 163.237 196.135 163.615 196.183 163.801C196.961 163.822 197.318 163 197.911 162.625C198.894 161.923 199.872 160.897 201.201 161.035C201.597 162.44 200.24 163.28 199.527 164.274C199.181 164.776 198.482 164.99 198.282 165.587C198.344 166.162 198.959 166.479 199.308 166.908C200.298 165.9 201.179 164.776 202.248 163.844C202.838 163.386 203.729 162.738 204.439 163.375C204.897 163.804 204.395 164.448 204.188 164.885C203.224 166.18 201.95 167.206 200.924 168.451C200.778 169.091 201.35 169.692 201.626 170.267C202.372 169.997 202.816 169.2 203.446 168.709C204.435 167.941 205.549 166.959 206.892 167.112C206.619 169.415 204.293 170.583 202.798 172.075C203.114 172.839 203.471 173.585 203.831 174.335C205.734 173.301 206.924 171.26 209.046 170.569C208.343 169.779 206.928 169.313 207.019 168.072C207.456 167.472 208.391 167.552 208.9 168.022C209.693 168.669 210.556 169.226 211.429 169.754C211.731 169.124 212.008 168.495 212.288 167.865C211.458 166.937 210.196 166.413 209.606 165.285C209.231 164.561 210.014 163.877 210.727 164.063C211.516 164.503 212.12 165.209 212.91 165.667C213.125 165.838 213.638 165.9 213.725 165.54C214.115 164.721 214.555 163.932 215.017 163.16C214.435 162.552 213.78 161.996 213.329 161.286C212.921 160.591 213.238 159.51 214.158 159.529C214.951 159.638 215.516 160.315 216.05 160.868C216.189 161.05 216.487 161.435 216.724 161.075C217.211 160.628 217.71 160.158 218.037 159.576C217.91 158.546 216.935 157.818 216.887 156.781C216.814 156.115 217.56 155.588 218.157 155.977C218.783 156.436 219.038 157.211 219.471 157.833C220.3 157.134 220.759 156.057 221.687 155.439C221.603 154.704 221.057 154.132 220.959 153.412C220.879 152.71 221.974 152.025 222.425 152.757C222.753 153.041 223.008 153.979 223.572 153.525C223.801 152.993 223.772 152.273 224.336 151.949C224.732 151.789 225.176 151.858 225.609 151.836C226.257 151.411 226.865 150.923 227.374 150.33" fill="#0A0A0B"/>
<path d="M191.576 156.006C192.093 155.791 192.398 156.388 192.078 156.799C191.725 156.989 191.321 156.996 190.957 157.072C191.099 156.697 191.099 156.137 191.576 156.006" fill="#0A0A0B"/>
<path d="M235.11 168.109C235.678 168.04 236.158 168.491 236.315 169.019C236.62 169.823 237.403 170.576 237.09 171.5C236.053 172.457 234.932 170.998 234.539 170.099C234.015 169.397 234.04 168.185 235.11 168.109Z" fill="#0A0A0B"/>
<path d="M238.538 168.425C239.007 168.094 239.801 168.385 239.906 168.967C240.088 169.677 239.59 170.354 239.037 170.74C238.232 170.994 238.298 169.99 238.167 169.517C238.021 169.106 238.16 168.651 238.538 168.425" fill="#0A0A0B"/>
<path d="M287.93 109.334C287.228 109.556 287.071 110.306 287.068 110.95C288.272 110.553 289.484 110.135 290.757 109.953C291.798 109.509 292.86 108.588 292.631 107.318C291.198 108.286 289.531 108.763 287.93 109.334ZM284.342 106.321C284.499 107.034 284.644 107.762 284.753 108.494C284.943 108.272 285.47 108.232 285.474 107.857C285.543 106.842 285.645 105.83 285.845 104.84C285.376 105.364 284.866 105.852 284.342 106.321V106.321ZM280.161 103.363C279.066 104.065 278.425 105.295 278.087 106.514C278.56 106.874 278.989 107.304 279.368 107.78C279.939 107.267 280.54 106.758 281.013 106.136C280.805 105.19 280.485 104.269 280.161 103.363V103.363ZM290.23 102.155C290.019 102.686 289.888 103.239 289.797 103.807C291.39 103.439 292.675 104.647 294.145 104.953C294.56 104.484 294.884 103.941 295.222 103.425C293.432 104.233 291.718 103.039 290.23 102.155ZM282.847 101.438C283.01 102.351 283.352 103.214 283.585 104.109C283.956 103.77 284.397 103.472 284.644 103.014C284.575 102.697 284.499 102.388 284.415 102.078C285.725 102.428 287.1 101.362 287.028 100.001C286.573 99.7205 286.223 99.0728 285.645 99.1492C284.71 99.9061 283.796 100.692 282.847 101.438V101.438ZM274.75 101.544C274.255 101.842 273.782 102.81 274.466 103.159C274.969 103.563 275.445 104.007 275.918 104.458C276.777 103.097 278.196 102.271 279.404 101.249C279.27 100.416 278.989 99.615 278.702 98.8254C277.367 99.7205 276.133 100.732 274.75 101.544ZM291.449 98.5489C291.289 99.1238 290.819 99.7933 291.132 100.375C292.067 101.012 293.133 101.438 294.039 102.126C293.694 101.438 293.374 100.244 294.44 100.052C295.342 100.343 295.819 101.22 296.47 101.846C297.333 101.707 298.311 100.168 297.169 99.6696C296.419 100.343 295.302 100.252 294.421 99.9279C293.395 99.5459 292.435 99.0219 291.449 98.5489V98.5489ZM287.49 95.9071C287.37 96.4529 287.228 97.0023 287.158 97.5591C287.37 97.6937 287.592 97.8211 287.828 97.9485C288.021 97.5627 288.232 97.1879 288.392 96.7913C288.294 96.3546 287.792 96.1873 287.49 95.9071V95.9071ZM305.374 75.3298C305.796 74.6348 306.732 75.1697 307.015 75.73C307.514 77.1637 308.362 78.7575 307.558 80.2531C307.437 80.2531 307.201 80.2531 307.081 80.2531C306.473 79.5217 305.629 78.9285 305.498 77.9169C305.003 78.3318 304.082 78.743 304.381 79.5289C304.836 80.8462 305.556 82.1488 305.287 83.5971C303.599 83.7936 303.242 81.7595 302.412 80.7224C302.936 81.6067 303.115 82.6655 303.737 83.4952C304.206 84.2302 304.807 85.1508 304.377 86.046C304.006 86.5991 303.053 86.4936 302.754 85.9295C302.161 84.8852 301.615 83.8154 301.062 82.7565C300.593 83.7172 299.698 84.4486 299.319 85.431C299.865 86.7519 300.942 87.7635 301.725 88.9461C302.034 89.3391 301.848 89.8776 301.874 90.3361C299.927 90.7982 298.999 88.7496 297.973 87.5343C297.223 87.6289 296.681 88.7714 297.347 89.3027C298.497 90.5836 299.465 92.0027 300.407 93.4364C300.742 94.1859 299.665 94.1859 299.217 94.0731C297.569 93.571 296.521 92.1118 295.469 90.8528C295.12 91.5806 294.436 92.2574 294.476 93.1016C295.786 94.306 297.882 95.1393 298.137 97.1152C296.79 97.3735 295.513 96.6712 294.494 95.8707C294.058 95.5941 293.679 95.052 293.101 95.2048C292.74 95.7069 292.566 96.3037 292.489 96.9078C293.93 97.6173 295.506 98.0722 296.856 98.9819C296.809 98.2759 297.016 97.5373 297.809 97.3881C298.552 97.5591 298.919 98.3269 299.501 98.7672C300.214 98.4797 300.851 98.014 301.532 97.6392C301.306 96.7295 300.906 95.8016 301.099 94.8482C301.201 94.0913 302.3 93.793 302.769 94.4079C303.133 94.9283 303.264 95.576 303.573 96.1291C304.079 96.2819 304.457 95.7688 304.883 95.576C304.639 94.8118 303.959 94.0076 304.45 93.2035C304.716 92.5339 305.698 92.5194 306.164 92.9924C306.659 93.4254 306.906 94.084 307.423 94.5025C307.845 94.5753 308.282 94.4916 308.733 94.4698C308.926 93.6547 309.599 92.7814 310.545 93.0543C311.698 93.3927 311.553 94.7936 311.829 95.7288C312.062 96.7367 312.375 98.043 311.433 98.7853C310.032 99.1711 309.25 97.4609 309.195 96.3074C308.878 96.3547 308.576 96.3911 308.369 96.6349C308.686 98.0249 309.588 99.302 309.482 100.783C309.33 101.667 308.122 101.718 307.605 101.154C306.579 100.295 306.295 98.8836 305.833 97.6901C305.52 97.9521 305.036 98.094 304.905 98.5016C305.094 100.306 306.968 101.675 306.535 103.589C306.16 104.531 304.828 104.222 304.385 103.494C303.646 102.421 303.267 101.151 302.711 99.9789C302.15 100.346 301.634 100.783 301.31 101.38C302.154 102.293 302.962 103.246 303.711 104.24C304.246 104.906 304.45 106.096 303.562 106.561C301.725 106.125 300.804 104.371 299.596 103.097C299.41 103.512 298.97 103.894 299.039 104.378C300.12 105.765 301.848 107.075 301.594 109.047C299.8 109.269 298.628 107.624 297.649 106.383C297.518 106.645 297.103 106.882 297.343 107.22C298.068 108.13 299.17 109.098 298.723 110.408C298.359 110.433 298.009 110.466 297.667 110.506C297.434 110.735 297.227 110.975 296.994 111.183C296.008 111.241 295.095 110.695 294.12 110.753C293.304 111.332 292.675 112.114 291.965 112.813C292.988 112.74 294.556 112.329 295.109 113.493C294.251 114.643 292.675 114.996 291.303 114.956C290.448 114.778 290.106 115.84 289.324 115.851C288.741 115.942 288.108 115.476 288.086 114.887C288.035 113.766 288.68 112.795 289.531 112.125C288.483 112.296 287.49 112.718 286.554 113.18C285.852 114.257 286.158 116.193 284.517 116.412C284.113 116.299 283.702 116.193 283.316 116.095C282.81 114.69 283.272 113.217 283.76 111.874C283.771 111.761 283.8 111.525 283.807 111.408C283.622 111.379 283.232 111.314 283.036 111.285C282.85 110.611 283.141 110 283.429 109.407C282.443 109.17 282.293 110.328 282.181 111.012C282.192 111.83 282.574 112.838 281.93 113.522C281.58 113.668 281.216 113.766 280.867 113.872C280.583 113.748 280.303 113.617 280.037 113.493C279.783 113.057 279.561 112.613 279.273 112.205C278.924 112.14 278.851 112.576 278.687 112.769C278.269 113.417 277.825 114.112 277.141 114.501C276.442 114.527 275.474 114.065 275.642 113.224C276.064 112.14 276.97 111.346 277.581 110.375C277.76 109.822 277.156 109.392 276.828 109.039C276.57 109.913 276.133 110.721 275.715 111.521C275.194 111.721 274.608 111.918 274.073 111.667C273.389 111.514 273.28 110.691 273.36 110.124C273.571 108.945 274.357 107.991 274.743 106.882C274.274 106.252 273.702 105.721 273.069 105.277C272.567 106.441 272.4 107.719 271.923 108.894C271.377 109.414 270.657 109.371 270.056 108.974C269.856 107.962 269.918 106.922 270.315 105.968C269.882 106.318 269.216 106.343 268.895 105.852C268.444 104.6 269.208 103.388 269.176 102.144C268.895 101.929 268.572 101.82 268.284 101.675C268.2 102.464 267.567 103.818 266.603 103.152C265.821 102.37 266.367 101.194 266.425 100.244C266.13 101.598 264.722 100.335 264.809 99.484C263.95 98.8836 262.651 99.0474 262 98.185C262.058 98.0795 262.167 97.8647 262.215 97.7519C263.146 97.6792 264.074 98.0758 264.991 97.9193C265.635 97.1443 266.163 96.0053 267.273 95.867C267.997 95.9544 268.19 96.7731 267.789 97.3117C267.462 97.7811 267.123 98.2505 266.774 98.7017C266.836 98.6835 266.967 98.6471 267.025 98.6325C267.273 97.9339 268 97.61 268.284 96.9369C268.728 96.1691 270.256 96.0672 270.424 97.1006C270.176 98.1049 269.314 98.8254 268.994 99.8224C269.35 99.9534 269.696 100.11 270.104 100.146C270.628 99.302 271.09 98.2796 272.076 97.8756C272.614 97.6027 273.466 98.1449 273.204 98.7926C272.727 99.5822 272.254 100.372 271.941 101.242C271.923 101.307 271.894 101.445 271.876 101.511C272.673 100.474 273.513 99.0255 275.038 99.1929C275.911 98.4433 276.813 97.7229 277.745 97.0424C277.552 96.4129 277.414 95.747 277.05 95.1975C275.922 95.6051 275.245 96.955 274.015 97.2025C273.491 97.2862 272.862 96.7477 273.211 96.22C273.786 95.0993 274.801 94.2806 275.689 93.4036C275.394 93.0179 275.096 92.2065 274.517 92.3993C274.044 93.1125 273.724 94.3169 272.622 94.0841C272.323 93.9458 272.032 93.8111 271.741 93.6874C271.297 92.4721 272.254 91.4678 272.993 90.6381C273.247 90.3506 273.047 89.9831 272.807 89.7794C272.134 89.8521 271.515 90.2706 270.831 90.1105C270.602 89.219 271.628 88.2147 270.733 87.5124C270.216 87.5306 269.696 87.6362 269.201 87.4942C269.128 87.0539 269.263 86.6355 269.35 86.2134C268.99 85.9841 268.655 85.7513 268.284 85.5802C268.175 85.9223 268.091 86.2752 268.019 86.6391C267.585 86.6355 266.789 86.6973 266.883 86.046C266.821 85.5365 267.389 85.4019 267.735 85.1909C266.774 84.3467 264.98 84.0483 264.882 82.56C266.115 82.258 267.163 83.1168 268.23 83.608C268.994 83.961 269.598 84.6305 270.446 84.8525C270.991 83.961 271.69 83.1714 272.371 82.3817C272.807 81.8396 273.462 81.4211 274.201 81.5812C274.394 83.3169 272.945 84.4449 272.003 85.6749C271.504 86.1843 272.309 86.5227 272.614 86.8575C273.589 85.6567 274.67 83.9719 276.431 84.1575C276.57 85.8895 274.812 86.7737 273.979 88.0473C274.026 88.2365 274.135 88.615 274.183 88.8006C274.961 88.8224 275.318 88 275.911 87.6252C276.894 86.9229 277.872 85.8968 279.201 86.0351C279.597 87.4397 278.24 88.2802 277.527 89.2736C277.181 89.7757 276.482 89.9904 276.282 90.5872C276.344 91.1621 276.959 91.4787 277.308 91.9081C278.298 90.9001 279.179 89.7757 280.248 88.8442C280.838 88.3857 281.729 87.738 282.439 88.3748C282.897 88.8042 282.395 89.4482 282.188 89.8849C281.224 91.1803 279.95 92.2065 278.924 93.4509C278.778 94.0913 279.35 94.6917 279.626 95.2667C280.372 94.9974 280.816 94.2005 281.446 93.7093C282.435 92.9415 283.549 91.959 284.892 92.1118C284.619 94.4152 282.293 95.5832 280.798 97.0751C281.114 97.8393 281.471 98.5852 281.831 99.3348C283.734 98.3014 284.924 96.26 287.046 95.5687C286.343 94.7791 284.928 94.3133 285.019 93.0725C285.456 92.4721 286.391 92.5521 286.9 93.0215C287.693 93.6692 288.556 94.226 289.429 94.7536C289.731 94.1241 290.008 93.4945 290.288 92.865C289.458 91.9372 288.196 91.4132 287.606 90.2852C287.231 89.561 288.014 88.877 288.727 89.0625C289.516 89.5028 290.12 90.2088 290.91 90.6672C291.125 90.8383 291.638 90.9001 291.725 90.5399C292.115 89.7212 292.555 88.9315 293.017 88.1601C292.435 87.5524 291.78 86.9957 291.329 86.2861C290.921 85.5911 291.238 84.5104 292.158 84.5286C292.951 84.6378 293.516 85.3146 294.05 85.8677C294.189 86.0496 294.487 86.4353 294.724 86.0751C295.211 85.6275 295.71 85.1581 296.037 84.5759C295.91 83.5462 294.935 82.8184 294.887 81.7813C294.814 81.1154 295.56 80.5878 296.157 80.9772C296.783 81.4357 297.038 82.2107 297.471 82.8329C298.3 82.1343 298.759 81.0572 299.687 80.4386C299.603 79.7036 299.057 79.1323 298.959 78.4118C298.879 77.7095 299.974 77.0255 300.425 77.7569C300.753 78.0407 301.008 78.9795 301.572 78.5246C301.801 77.9934 301.772 77.2729 302.336 76.949C302.732 76.7889 303.176 76.8581 303.609 76.8362C304.257 76.4105 304.865 75.9229 305.374 75.3298" fill="#0A0A0B"/>
<path d="M269.576 81.0061C270.093 80.7914 270.398 81.3882 270.078 81.7994C269.725 81.9886 269.321 81.9959 268.957 82.0723C269.099 81.6975 269.099 81.1371 269.576 81.0061" fill="#0A0A0B"/>
<path d="M313.11 93.1089C313.678 93.0397 314.158 93.491 314.315 94.0186C314.62 94.8228 315.403 95.576 315.09 96.5003C314.053 97.4573 312.932 95.9981 312.539 95.0993C312.015 94.397 312.04 93.1853 313.11 93.1089Z" fill="#0A0A0B"/>
<path d="M316.538 93.4253C317.007 93.0941 317.801 93.3852 317.906 93.9675C318.088 94.677 317.59 95.3538 317.037 95.7395C316.232 95.9943 316.298 94.99 316.167 94.5169C316.021 94.1057 316.16 93.6509 316.538 93.4253" fill="#0A0A0B"/>
<path d="M362.93 180.334C362.228 180.556 362.071 181.306 362.068 181.95C363.272 181.553 364.484 181.135 365.757 180.953C366.798 180.509 367.86 179.588 367.631 178.318C366.198 179.286 364.531 179.763 362.93 180.334ZM359.342 177.321C359.499 178.034 359.644 178.762 359.753 179.494C359.943 179.272 360.47 179.232 360.474 178.857C360.543 177.842 360.645 176.83 360.845 175.84C360.376 176.364 359.866 176.852 359.342 177.321V177.321ZM355.161 174.363C354.066 175.065 353.425 176.295 353.087 177.514C353.56 177.874 353.989 178.304 354.368 178.78C354.939 178.267 355.54 177.758 356.013 177.136C355.805 176.19 355.485 175.269 355.161 174.363V174.363ZM365.23 173.155C365.019 173.686 364.888 174.239 364.797 174.807C366.39 174.439 367.675 175.647 369.145 175.953C369.56 175.484 369.884 174.941 370.222 174.425C368.432 175.233 366.718 174.039 365.23 173.155ZM357.847 172.438C358.01 173.351 358.352 174.214 358.585 175.109C358.956 174.77 359.397 174.472 359.644 174.014C359.575 173.697 359.499 173.388 359.415 173.078C360.725 173.428 362.1 172.362 362.028 171.001C361.573 170.721 361.223 170.073 360.645 170.149C359.71 170.906 358.796 171.692 357.847 172.438V172.438ZM349.75 172.544C349.255 172.842 348.782 173.81 349.466 174.159C349.969 174.563 350.445 175.007 350.918 175.458C351.777 174.097 353.196 173.271 354.404 172.249C354.27 171.416 353.989 170.615 353.702 169.825C352.367 170.721 351.133 171.732 349.75 172.544ZM366.449 169.549C366.289 170.124 365.819 170.793 366.132 171.375C367.067 172.012 368.133 172.438 369.039 173.126C368.694 172.438 368.374 171.244 369.44 171.052C370.342 171.343 370.819 172.22 371.47 172.846C372.333 172.707 373.311 171.168 372.169 170.67C371.419 171.343 370.302 171.252 369.421 170.928C368.395 170.546 367.435 170.022 366.449 169.549V169.549ZM362.49 166.907C362.37 167.453 362.228 168.002 362.158 168.559C362.37 168.694 362.592 168.821 362.828 168.948C363.021 168.563 363.232 168.188 363.392 167.791C363.294 167.355 362.792 167.187 362.49 166.907V166.907ZM380.374 146.33C380.796 145.635 381.732 146.17 382.015 146.73C382.514 148.164 383.362 149.758 382.558 151.253C382.437 151.253 382.201 151.253 382.081 151.253C381.473 150.522 380.629 149.929 380.498 148.917C380.003 149.332 379.082 149.743 379.381 150.529C379.836 151.846 380.556 153.149 380.287 154.597C378.599 154.794 378.242 152.759 377.412 151.722C377.936 152.607 378.115 153.666 378.737 154.495C379.206 155.23 379.807 156.151 379.377 157.046C379.006 157.599 378.053 157.494 377.754 156.93C377.161 155.885 376.615 154.815 376.062 153.757C375.593 154.717 374.698 155.449 374.319 156.431C374.865 157.752 375.942 158.764 376.725 159.946C377.034 160.339 376.848 160.878 376.874 161.336C374.927 161.798 373.999 159.75 372.973 158.534C372.223 158.629 371.681 159.771 372.347 160.303C373.497 161.584 374.465 163.003 375.407 164.436C375.742 165.186 374.665 165.186 374.217 165.073C372.569 164.571 371.521 163.112 370.469 161.853C370.12 162.581 369.436 163.257 369.476 164.102C370.786 165.306 372.882 166.139 373.137 168.115C371.79 168.374 370.513 167.671 369.494 166.871C369.058 166.594 368.679 166.052 368.101 166.205C367.74 166.707 367.566 167.304 367.489 167.908C368.93 168.617 370.506 169.072 371.856 169.982C371.809 169.276 372.016 168.537 372.809 168.388C373.552 168.559 373.919 169.327 374.501 169.767C375.214 169.48 375.851 169.014 376.532 168.639C376.306 167.729 375.906 166.802 376.099 165.848C376.201 165.091 377.3 164.793 377.769 165.408C378.133 165.928 378.264 166.576 378.573 167.129C379.079 167.282 379.457 166.769 379.883 166.576C379.639 165.812 378.959 165.008 379.45 164.203C379.716 163.534 380.698 163.519 381.164 163.992C381.659 164.425 381.906 165.084 382.423 165.502C382.845 165.575 383.282 165.492 383.733 165.47C383.926 164.655 384.599 163.781 385.545 164.054C386.698 164.393 386.553 165.794 386.829 166.729C387.062 167.737 387.375 169.043 386.433 169.785C385.032 170.171 384.25 168.461 384.195 167.307C383.878 167.355 383.576 167.391 383.369 167.635C383.686 169.025 384.588 170.302 384.482 171.783C384.33 172.667 383.122 172.718 382.605 172.154C381.579 171.295 381.295 169.884 380.833 168.69C380.52 168.952 380.036 169.094 379.905 169.502C380.094 171.306 381.968 172.675 381.535 174.589C381.16 175.531 379.828 175.222 379.385 174.494C378.646 173.421 378.267 172.151 377.711 170.979C377.15 171.346 376.634 171.783 376.31 172.38C377.154 173.293 377.962 174.246 378.711 175.24C379.246 175.906 379.45 177.096 378.562 177.561C376.725 177.125 375.804 175.371 374.596 174.097C374.41 174.512 373.97 174.894 374.039 175.378C375.12 176.765 376.848 178.075 376.594 180.047C374.8 180.269 373.628 178.624 372.649 177.383C372.518 177.645 372.103 177.882 372.343 178.22C373.068 179.13 374.17 180.098 373.723 181.408C373.359 181.433 373.009 181.466 372.667 181.506C372.434 181.735 372.227 181.975 371.994 182.183C371.008 182.241 370.095 181.695 369.12 181.753C368.304 182.332 367.675 183.114 366.965 183.813C367.988 183.74 369.556 183.329 370.109 184.493C369.251 185.643 367.675 185.996 366.303 185.956C365.448 185.778 365.106 186.84 364.324 186.851C363.741 186.942 363.108 186.476 363.086 185.887C363.035 184.766 363.68 183.795 364.531 183.125C363.483 183.296 362.49 183.718 361.554 184.18C360.852 185.257 361.158 187.193 359.517 187.412C359.113 187.299 358.702 187.193 358.316 187.095C357.81 185.69 358.272 184.217 358.76 182.874C358.771 182.761 358.8 182.525 358.807 182.408C358.622 182.379 358.232 182.314 358.036 182.285C357.85 181.611 358.141 181 358.429 180.407C357.443 180.17 357.293 181.328 357.181 182.012C357.192 182.83 357.574 183.838 356.93 184.522C356.58 184.668 356.216 184.766 355.867 184.872C355.583 184.748 355.303 184.617 355.037 184.493C354.783 184.057 354.561 183.613 354.273 183.205C353.924 183.14 353.851 183.576 353.687 183.769C353.269 184.417 352.825 185.112 352.141 185.501C351.442 185.527 350.474 185.065 350.642 184.224C351.064 183.14 351.97 182.346 352.581 181.375C352.76 180.822 352.156 180.392 351.828 180.039C351.57 180.913 351.133 181.721 350.715 182.521C350.194 182.721 349.608 182.918 349.073 182.667C348.389 182.514 348.28 181.691 348.36 181.124C348.571 179.945 349.357 178.991 349.743 177.882C349.274 177.252 348.702 176.721 348.069 176.277C347.567 177.441 347.4 178.719 346.923 179.894C346.377 180.414 345.657 180.371 345.056 179.974C344.856 178.962 344.918 177.922 345.315 176.968C344.882 177.318 344.216 177.343 343.895 176.852C343.444 175.6 344.208 174.388 344.176 173.144C343.895 172.929 343.572 172.82 343.284 172.675C343.2 173.464 342.567 174.818 341.603 174.152C340.821 173.37 341.367 172.194 341.425 171.244C341.13 172.598 339.722 171.335 339.809 170.484C338.95 169.884 337.651 170.047 337 169.185C337.058 169.079 337.167 168.865 337.215 168.752C338.146 168.679 339.074 169.076 339.991 168.919C340.635 168.144 341.163 167.005 342.273 166.867C342.997 166.954 343.19 167.773 342.789 168.312C342.462 168.781 342.123 169.25 341.774 169.702C341.836 169.683 341.967 169.647 342.025 169.633C342.273 168.934 343 168.61 343.284 167.937C343.728 167.169 345.256 167.067 345.424 168.101C345.176 169.105 344.314 169.825 343.994 170.822C344.35 170.953 344.696 171.11 345.104 171.146C345.628 170.302 346.09 169.28 347.076 168.876C347.614 168.603 348.466 169.145 348.204 169.793C347.727 170.582 347.254 171.372 346.941 172.242C346.923 172.307 346.894 172.445 346.876 172.511C347.673 171.474 348.513 170.026 350.038 170.193C350.911 169.443 351.813 168.723 352.745 168.042C352.552 167.413 352.414 166.747 352.05 166.198C350.922 166.605 350.245 167.955 349.015 168.202C348.491 168.286 347.862 167.748 348.211 167.22C348.786 166.099 349.801 165.281 350.689 164.404C350.394 164.018 350.096 163.206 349.517 163.399C349.044 164.113 348.724 165.317 347.622 165.084C347.323 164.946 347.032 164.811 346.741 164.687C346.297 163.472 347.254 162.468 347.993 161.638C348.247 161.351 348.047 160.983 347.807 160.779C347.134 160.852 346.515 161.271 345.831 161.111C345.602 160.219 346.628 159.215 345.733 158.512C345.216 158.531 344.696 158.636 344.201 158.494C344.128 158.054 344.263 157.635 344.35 157.213C343.99 156.984 343.655 156.751 343.284 156.58C343.175 156.922 343.091 157.275 343.019 157.639C342.585 157.635 341.789 157.697 341.883 157.046C341.821 156.537 342.389 156.402 342.735 156.191C341.774 155.347 339.98 155.048 339.882 153.56C341.115 153.258 342.163 154.117 343.23 154.608C343.994 154.961 344.598 155.631 345.446 155.852C345.991 154.961 346.69 154.171 347.371 153.382C347.807 152.84 348.462 152.421 349.201 152.581C349.394 154.317 347.945 155.445 347.003 156.675C346.504 157.184 347.309 157.523 347.614 157.857C348.589 156.657 349.67 154.972 351.431 155.157C351.57 156.89 349.812 157.774 348.979 159.047C349.026 159.237 349.135 159.615 349.183 159.801C349.961 159.822 350.318 159 350.911 158.625C351.894 157.923 352.872 156.897 354.201 157.035C354.597 158.44 353.24 159.28 352.527 160.274C352.181 160.776 351.482 160.99 351.282 161.587C351.344 162.162 351.959 162.479 352.308 162.908C353.298 161.9 354.179 160.776 355.248 159.844C355.838 159.386 356.729 158.738 357.439 159.375C357.897 159.804 357.395 160.448 357.188 160.885C356.224 162.18 354.95 163.206 353.924 164.451C353.778 165.091 354.35 165.692 354.626 166.267C355.372 165.997 355.816 165.2 356.446 164.709C357.435 163.941 358.549 162.959 359.892 163.112C359.619 165.415 357.293 166.583 355.798 168.075C356.114 168.839 356.471 169.585 356.831 170.335C358.734 169.301 359.924 167.26 362.046 166.569C361.343 165.779 359.928 165.313 360.019 164.072C360.456 163.472 361.391 163.552 361.9 164.022C362.693 164.669 363.556 165.226 364.429 165.754C364.731 165.124 365.008 164.495 365.288 163.865C364.458 162.937 363.196 162.413 362.606 161.285C362.231 160.561 363.014 159.877 363.727 160.063C364.516 160.503 365.12 161.209 365.91 161.667C366.125 161.838 366.638 161.9 366.725 161.54C367.115 160.721 367.555 159.932 368.017 159.16C367.435 158.552 366.78 157.996 366.329 157.286C365.921 156.591 366.238 155.51 367.158 155.529C367.951 155.638 368.516 156.315 369.05 156.868C369.189 157.05 369.487 157.435 369.724 157.075C370.211 156.628 370.71 156.158 371.037 155.576C370.91 154.546 369.935 153.818 369.887 152.781C369.814 152.115 370.56 151.588 371.157 151.977C371.783 152.436 372.038 153.211 372.471 153.833C373.3 153.134 373.759 152.057 374.687 151.439C374.603 150.704 374.057 150.132 373.959 149.412C373.879 148.71 374.974 148.025 375.425 148.757C375.753 149.041 376.008 149.979 376.572 149.525C376.801 148.993 376.772 148.273 377.336 147.949C377.732 147.789 378.176 147.858 378.609 147.836C379.257 147.411 379.865 146.923 380.374 146.33" fill="#0A0A0B"/>
<path d="M344.576 152.006C345.093 151.791 345.398 152.388 345.078 152.799C344.725 152.989 344.321 152.996 343.957 153.072C344.099 152.697 344.099 152.137 344.576 152.006" fill="#0A0A0B"/>
<path d="M388.11 164.109C388.678 164.04 389.158 164.491 389.315 165.019C389.62 165.823 390.403 166.576 390.09 167.5C389.053 168.457 387.932 166.998 387.539 166.099C387.015 165.397 387.04 164.185 388.11 164.109Z" fill="#0A0A0B"/>
<path d="M391.538 164.425C392.007 164.094 392.801 164.385 392.906 164.967C393.088 165.677 392.59 166.354 392.037 166.74C391.232 166.994 391.298 165.99 391.167 165.517C391.021 165.106 391.16 164.651 391.538 164.425" fill="#0A0A0B"/>
<path d="M390.93 65.3342C390.228 65.5561 390.071 66.3057 390.068 66.9498C391.272 66.5532 392.484 66.1347 393.757 65.9528C394.798 65.5089 395.86 64.5882 395.631 63.3183C394.198 64.2862 392.531 64.7629 390.93 65.3342ZM387.342 62.3213C387.499 63.0345 387.644 63.7622 387.753 64.4936C387.943 64.2717 388.47 64.2316 388.474 63.8568C388.543 62.8416 388.645 61.83 388.845 60.8403C388.376 61.3643 387.866 61.8519 387.342 62.3213V62.3213ZM383.161 59.363C382.066 60.0652 381.425 61.2951 381.087 62.5141C381.56 62.8744 381.989 63.3038 382.368 63.7804C382.939 63.2674 383.54 62.7579 384.013 62.1357C383.805 61.1896 383.485 60.269 383.161 59.363V59.363ZM393.23 58.1549C393.019 58.6861 392.888 59.2392 392.797 59.8069C394.39 59.4394 395.675 60.6474 397.145 60.9531C397.56 60.4837 397.884 59.9415 398.222 59.4248C396.432 60.2326 394.718 59.0391 393.23 58.1549ZM385.847 57.438C386.01 58.3514 386.352 59.2137 386.585 60.1089C386.956 59.7705 387.397 59.4721 387.644 59.0136C387.575 58.697 387.499 58.3878 387.415 58.0785C388.725 58.4278 390.1 57.3616 390.028 56.0007C389.573 55.7205 389.223 55.0728 388.645 55.1492C387.71 55.9061 386.796 56.6921 385.847 57.438V57.438ZM377.75 57.5436C377.255 57.8419 376.782 58.8098 377.466 59.1592C377.969 59.5631 378.445 60.007 378.918 60.4582C379.777 59.0973 381.196 58.2713 382.404 57.2488C382.27 56.4155 381.989 55.615 381.702 54.8254C380.367 55.7205 379.133 56.7321 377.75 57.5436ZM394.449 54.5489C394.289 55.1238 393.819 55.7933 394.132 56.3755C395.067 57.0123 396.133 57.438 397.039 58.1258C396.694 57.438 396.374 56.2445 397.44 56.0516C398.342 56.3427 398.819 57.2197 399.47 57.8456C400.333 57.7073 401.311 56.1681 400.169 55.6696C399.419 56.3428 398.302 56.2518 397.421 55.9279C396.395 55.5459 395.435 55.0219 394.449 54.5489V54.5489ZM390.49 51.9071C390.37 52.4529 390.228 53.0023 390.158 53.5591C390.37 53.6937 390.592 53.8211 390.828 53.9485C391.021 53.5627 391.232 53.1879 391.392 52.7913C391.294 52.3546 390.792 52.1873 390.49 51.9071V51.9071ZM408.374 31.3298C408.796 30.6348 409.732 31.1697 410.015 31.73C410.514 33.1637 411.362 34.7575 410.558 36.2531C410.437 36.2531 410.201 36.2531 410.081 36.2531C409.473 35.5217 408.629 34.9285 408.498 33.9169C408.003 34.3318 407.082 34.743 407.381 35.5289C407.836 36.8462 408.556 38.1488 408.287 39.5971C406.599 39.7936 406.242 37.7595 405.412 36.7224C405.936 37.6067 406.115 38.6655 406.737 39.4952C407.206 40.2302 407.807 41.1508 407.377 42.046C407.006 42.5991 406.053 42.4936 405.754 41.9295C405.161 40.8852 404.615 39.8154 404.062 38.7565C403.593 39.7172 402.698 40.4486 402.319 41.431C402.865 42.7519 403.942 43.7635 404.725 44.9461C405.034 45.3391 404.848 45.8776 404.874 46.3361C402.927 46.7982 401.999 44.7496 400.973 43.5343C400.223 43.6289 399.681 44.7714 400.347 45.3027C401.497 46.5836 402.465 48.0027 403.407 49.4364C403.742 50.1859 402.665 50.1859 402.217 50.0731C400.569 49.571 399.521 48.1118 398.469 46.8528C398.12 47.5806 397.436 48.2574 397.476 49.1016C398.786 50.306 400.882 51.1393 401.137 53.1152C399.79 53.3735 398.513 52.6712 397.494 51.8707C397.058 51.5941 396.679 51.052 396.101 51.2048C395.74 51.7069 395.566 52.3037 395.489 52.9078C396.93 53.6173 398.506 54.0722 399.856 54.9819C399.809 54.2759 400.016 53.5373 400.809 53.3881C401.552 53.5591 401.919 54.3269 402.501 54.7672C403.214 54.4797 403.851 54.014 404.532 53.6392C404.306 52.7295 403.906 51.8016 404.099 50.8482C404.201 50.0913 405.3 49.793 405.769 50.4079C406.133 50.9283 406.264 51.576 406.573 52.1291C407.079 52.2819 407.457 51.7688 407.883 51.576C407.639 50.8118 406.959 50.0076 407.45 49.2035C407.716 48.5339 408.698 48.5194 409.164 48.9924C409.659 49.4254 409.906 50.084 410.423 50.5025C410.845 50.5753 411.282 50.4916 411.733 50.4698C411.926 49.6547 412.599 48.7814 413.545 49.0543C414.698 49.3927 414.553 50.7936 414.829 51.7288C415.062 52.7367 415.375 54.043 414.433 54.7853C413.032 55.1711 412.25 53.4609 412.195 52.3074C411.878 52.3547 411.576 52.3911 411.369 52.6349C411.686 54.0249 412.588 55.302 412.482 56.783C412.33 57.6673 411.122 57.7182 410.605 57.1542C409.579 56.2954 409.295 54.8836 408.833 53.6901C408.52 53.9521 408.036 54.094 407.905 54.5016C408.094 56.3064 409.968 57.6746 409.535 59.5886C409.16 60.531 407.828 60.2217 407.385 59.4939C406.646 58.4205 406.267 57.1506 405.711 55.9789C405.15 56.3464 404.634 56.783 404.31 57.3798C405.154 58.2931 405.962 59.2465 406.711 60.2399C407.246 60.9058 407.45 62.0957 406.562 62.5614C404.725 62.1248 403.804 60.3709 402.596 59.0973C402.41 59.5122 401.97 59.8942 402.039 60.3781C403.12 61.7645 404.848 63.0745 404.594 65.0467C402.8 65.2687 401.628 63.6239 400.649 62.3831C400.518 62.6451 400.103 62.8817 400.343 63.2201C401.068 64.1298 402.17 65.0977 401.723 66.4076C401.359 66.4331 401.009 66.4659 400.667 66.5059C400.434 66.7351 400.227 66.9753 399.994 67.1827C399.008 67.2409 398.095 66.6951 397.12 66.7533C396.304 67.3319 395.675 68.1142 394.965 68.8129C395.988 68.7401 397.556 68.3289 398.109 69.4933C397.251 70.6432 395.675 70.9961 394.303 70.9561C393.448 70.7778 393.106 71.8403 392.324 71.8512C391.741 71.9422 391.108 71.4764 391.086 70.8869C391.035 69.7662 391.68 68.7947 392.531 68.1251C391.483 68.2961 390.49 68.7183 389.554 69.1804C388.852 70.2575 389.158 72.1933 387.517 72.4116C387.113 72.2988 386.702 72.1933 386.316 72.095C385.81 70.6905 386.272 69.2168 386.76 67.8741C386.771 67.7613 386.8 67.5247 386.807 67.4083C386.622 67.3792 386.232 67.3137 386.036 67.2846C385.85 66.6114 386.141 66.0001 386.429 65.407C385.443 65.1704 385.293 66.3276 385.181 67.0117C385.192 67.8304 385.574 68.8383 384.93 69.5224C384.58 69.668 384.216 69.7662 383.867 69.8718C383.583 69.748 383.303 69.617 383.037 69.4933C382.783 69.0567 382.561 68.6127 382.273 68.2052C381.924 68.1397 381.851 68.5763 381.687 68.7692C381.269 69.4169 380.825 70.1119 380.141 70.5013C379.442 70.5267 378.474 70.0646 378.642 69.224C379.064 68.1397 379.97 67.3465 380.581 66.3749C380.76 65.8218 380.156 65.3924 379.828 65.0394C379.57 65.9128 379.133 66.7205 378.715 67.5211C378.194 67.7212 377.608 67.9177 377.073 67.6666C376.389 67.5138 376.28 66.6914 376.36 66.1238C376.571 64.9448 377.357 63.9915 377.743 62.8816C377.274 62.2521 376.702 61.7209 376.069 61.277C375.567 62.4414 375.4 63.7186 374.923 64.8939C374.377 65.4142 373.657 65.3706 373.056 64.9739C372.856 63.9623 372.918 62.9217 373.315 61.9683C372.882 62.3176 372.216 62.3431 371.895 61.8519C371.444 60.6001 372.208 59.3884 372.176 58.1439C371.895 57.9292 371.572 57.8201 371.284 57.6746C371.2 58.4642 370.567 59.8178 369.603 59.1519C368.821 58.3695 369.367 57.1942 369.425 56.2445C369.13 57.5981 367.722 56.3355 367.809 55.484C366.95 54.8836 365.651 55.0474 365 54.185C365.058 54.0795 365.167 53.8647 365.215 53.7519C366.146 53.6792 367.074 54.0758 367.991 53.9193C368.635 53.1443 369.163 52.0053 370.273 51.867C370.997 51.9544 371.19 52.7731 370.789 53.3117C370.462 53.7811 370.123 54.2505 369.774 54.7017C369.836 54.6835 369.967 54.6471 370.025 54.6325C370.273 53.9339 371 53.61 371.284 52.9369C371.728 52.1691 373.256 52.0672 373.424 53.1006C373.176 54.1049 372.314 54.8254 371.994 55.8224C372.35 55.9534 372.696 56.1099 373.104 56.1462C373.628 55.302 374.09 54.2796 375.076 53.8756C375.614 53.6027 376.466 54.1449 376.204 54.7926C375.727 55.5822 375.254 56.3719 374.941 57.2415C374.923 57.307 374.894 57.4453 374.876 57.5108C375.673 56.4737 376.513 55.0255 378.038 55.1929C378.911 54.4433 379.813 53.7229 380.745 53.0424C380.552 52.4129 380.414 51.747 380.05 51.1975C378.922 51.6051 378.245 52.955 377.015 53.2025C376.491 53.2862 375.862 52.7477 376.211 52.22C376.786 51.0993 377.801 50.2806 378.689 49.4036C378.394 49.0179 378.096 48.2065 377.517 48.3993C377.044 49.1125 376.724 50.3169 375.622 50.0841C375.323 49.9458 375.032 49.8111 374.741 49.6874C374.297 48.4721 375.254 47.4678 375.993 46.6381C376.247 46.3506 376.047 45.9831 375.807 45.7794C375.134 45.8521 374.515 46.2706 373.831 46.1105C373.602 45.219 374.628 44.2147 373.733 43.5124C373.216 43.5306 372.696 43.6362 372.201 43.4942C372.128 43.0539 372.263 42.6355 372.35 42.2134C371.99 41.9841 371.655 41.7513 371.284 41.5802C371.175 41.9223 371.091 42.2752 371.019 42.6391C370.585 42.6355 369.789 42.6973 369.883 42.046C369.821 41.5365 370.389 41.4019 370.735 41.1909C369.774 40.3467 367.98 40.0483 367.882 38.56C369.115 38.258 370.163 39.1168 371.23 39.608C371.994 39.961 372.598 40.6305 373.446 40.8525C373.991 39.961 374.69 39.1714 375.371 38.3817C375.807 37.8396 376.462 37.4211 377.201 37.5812C377.394 39.3169 375.945 40.4449 375.003 41.6749C374.504 42.1843 375.309 42.5227 375.614 42.8575C376.589 41.6567 377.67 39.9719 379.431 40.1575C379.57 41.8895 377.812 42.7737 376.979 44.0473C377.026 44.2365 377.135 44.615 377.183 44.8006C377.961 44.8224 378.318 44 378.911 43.6252C379.894 42.9229 380.872 41.8968 382.201 42.0351C382.597 43.4397 381.24 44.2802 380.527 45.2736C380.181 45.7757 379.482 45.9904 379.282 46.5872C379.344 47.1621 379.959 47.4787 380.308 47.9081C381.298 46.9001 382.179 45.7757 383.248 44.8442C383.838 44.3857 384.729 43.738 385.439 44.3748C385.897 44.8042 385.395 45.4482 385.188 45.8849C384.224 47.1803 382.95 48.2065 381.924 49.4509C381.778 50.0913 382.35 50.6917 382.626 51.2667C383.372 50.9974 383.816 50.2005 384.446 49.7093C385.435 48.9415 386.549 47.959 387.892 48.1118C387.619 50.4152 385.293 51.5832 383.798 53.0751C384.114 53.8393 384.471 54.5852 384.831 55.3348C386.734 54.3014 387.924 52.26 390.046 51.5687C389.343 50.7791 387.928 50.3133 388.019 49.0725C388.456 48.4721 389.391 48.5521 389.9 49.0215C390.693 49.6692 391.556 50.226 392.429 50.7536C392.731 50.1241 393.008 49.4945 393.288 48.865C392.458 47.9372 391.196 47.4132 390.606 46.2852C390.231 45.561 391.014 44.877 391.727 45.0625C392.516 45.5028 393.12 46.2088 393.91 46.6672C394.125 46.8383 394.638 46.9001 394.725 46.5399C395.115 45.7212 395.555 44.9315 396.017 44.1601C395.435 43.5524 394.78 42.9957 394.329 42.2861C393.921 41.5911 394.238 40.5104 395.158 40.5286C395.951 40.6378 396.516 41.3146 397.05 41.8677C397.189 42.0496 397.487 42.4353 397.724 42.0751C398.211 41.6275 398.71 41.1581 399.037 40.5759C398.91 39.5462 397.935 38.8184 397.887 37.7813C397.814 37.1154 398.56 36.5878 399.157 36.9772C399.783 37.4357 400.038 38.2107 400.471 38.8329C401.3 38.1343 401.759 37.0572 402.687 36.4386C402.603 35.7036 402.057 35.1323 401.959 34.4118C401.879 33.7095 402.974 33.0255 403.425 33.7569C403.753 34.0407 404.008 34.9795 404.572 34.5246C404.801 33.9934 404.772 33.2729 405.336 32.949C405.732 32.7889 406.176 32.8581 406.609 32.8362C407.257 32.4105 407.865 31.9229 408.374 31.3298" fill="#0A0A0B"/>
<path d="M372.576 37.0061C373.093 36.7914 373.398 37.3882 373.078 37.7994C372.725 37.9886 372.321 37.9959 371.957 38.0723C372.099 37.6975 372.099 37.1371 372.576 37.0061" fill="#0A0A0B"/>
<path d="M416.11 49.1089C416.678 49.0397 417.158 49.491 417.315 50.0186C417.62 50.8228 418.403 51.576 418.09 52.5003C417.053 53.4573 415.932 51.9981 415.539 51.0993C415.015 50.397 415.04 49.1853 416.11 49.1089Z" fill="#0A0A0B"/>
<path d="M419.538 49.4253C420.007 49.0941 420.801 49.3852 420.906 49.9675C421.088 50.677 420.59 51.3538 420.037 51.7395C419.232 51.9943 419.298 50.99 419.167 50.5169C419.021 50.1057 419.16 49.6509 419.538 49.4253" fill="#0A0A0B"/>
</g>
<defs>
<clipPath id="clip0_48_776">
<rect width="480" height="242" fill="white"/>
</clipPath>
</defs>
</svg>
