<svg width="480" height="261" viewBox="0 0 480 261" fill="none" xmlns="http://www.w3.org/2000/svg">
<path d="M118.574 203.352C117.613 205.145 116.032 206.606 115.43 208.597C118.288 209.546 120.286 206.889 122.304 205.347C121.1 204.589 119.807 203.991 118.574 203.352ZM122.483 211.018C123.367 211.061 124.25 211.111 125.133 211.204C125.02 207.389 129.254 206.276 131.855 204.589C131.876 203.858 131.878 203.16 131.915 202.472C129.101 205.693 125.156 207.7 122.483 211.018V211.018ZM118.235 84.2162C118.538 85.5266 119.552 86.6445 119.573 88.0319C118.921 90.5999 117.418 92.8971 117.011 95.5232C117.099 97.5166 118.93 99.253 118.13 101.366C118.008 102.647 116.677 102.814 115.669 102.955C115.833 107.639 114.385 112.176 114.406 116.831C115.05 117.513 115.875 118.14 116.171 119.11C116.157 120.471 114.727 120.805 113.759 121.33C112.925 127.024 114.13 133.125 111.646 138.508C110.199 143.3 113.199 147.903 112.646 152.712C112.715 158.652 111.102 164.52 111.979 170.484C111.368 172.806 110.689 175.152 110.84 177.607C112.728 177.95 114.596 179.279 113.931 181.438C112.754 181.516 111.571 181.558 110.394 181.644C110.281 183.53 110.286 185.436 110.419 187.345C111.593 187.643 113.395 187.404 113.759 188.955C113.138 191.345 109.364 191.212 109.526 193.923C109.29 195.635 109.334 197.371 109.438 199.119C111.309 197.36 113.877 197.407 116.283 197.765C117.415 195.942 118.431 194.048 119.092 192.025C117.301 190.987 115.353 189.774 114.568 187.761C114.464 186.61 115.699 185.981 116.666 186.391C118.532 187.176 119.815 189.348 122.088 189.013C122.075 188.868 122.066 188.587 122.052 188.45C120.6 188.077 118.781 187.098 119.113 185.312C119.513 183.188 121.984 182.484 123.839 182.767C125.231 182.9 127.474 182.393 127.82 184.309C127.92 186.175 125.858 186.874 124.624 187.775C124.852 192.044 122.344 195.572 120.723 199.303C122.359 200.133 123.984 201.038 125.245 202.444C127.082 202.198 128.357 200.15 129.793 199.017C131.154 198.136 130.28 196.546 130.519 195.302C131.802 195.092 133.094 195.137 134.386 195.157C132.726 192.506 131.299 189.734 130.182 186.827C129.808 185.914 129.511 184.706 130.373 183.99C131.222 182.874 132.794 183.515 133.456 184.495C135.112 186.669 136.344 189.137 137.853 191.435C140.198 189.145 141.695 186.193 143.874 183.77C141.049 184.081 140.581 180.784 139.562 178.891C138.895 176.924 137.217 174.009 139.355 172.419C140.77 172.034 141.896 173.436 142.441 174.591C143.513 177.013 145.157 179.306 145.189 182.072C147.044 179.104 148.597 175.966 150.4 172.988C150.442 172.717 150.517 172.158 150.559 171.887C149.645 171.104 148.383 170.31 148.728 168.942C149.193 167.534 150.654 167.04 151.947 166.745C152.871 163.572 153.142 160.031 155.378 157.415C155.728 157.365 156.445 157.258 156.813 157.209C157.024 159.061 157.311 160.933 157.283 162.829C157.057 164.167 156.132 165.307 155.931 166.688C157.098 167.529 158.517 167.901 159.836 168.483C158.477 170.189 156.387 170.98 154.298 171.423C152.429 174.62 153.106 178.638 150.817 181.662C152.959 182.335 155.699 182.03 157.2 183.987C157.838 185.801 155.836 187.377 154.176 187.398C151.843 187.459 149.539 186.807 147.209 186.775C144.725 190.635 141.169 193.614 138.153 197.034C139.938 197.706 141.893 200.152 143.753 198.495C154.347 191.283 161.937 180.472 167.292 168.993C169.831 161.688 173.672 154.659 174.083 146.792C174.241 142.151 174.748 137.477 174.173 132.866C175.097 129.685 174.238 126.376 173.707 123.213C173.555 121.363 171.195 120.598 171.249 118.702C171.591 118.048 171.982 117.455 172.448 116.915C171.802 114.191 170.824 111.492 169.031 109.322C165.597 105.021 162.654 100.198 158.074 96.988C153.73 94.1504 149.362 91.2695 144.479 89.4546C146.091 91.1085 147.632 92.8711 148.886 94.8382C152.199 99.8332 155.842 104.854 157.247 110.791C158.786 114.714 158.205 119.318 160.681 122.877C160.327 123.99 159.761 125.037 159.389 126.158C159.577 127.602 160.677 128.722 161.2 130.064C159.157 130.406 157.59 128.975 155.868 128.168C154.384 128.322 152.522 129.171 151.451 127.643C150.737 126.108 151.897 124.831 152.911 123.855C152.491 122.482 152.256 119.072 154.579 120.568C153.682 115.284 152.76 109.719 149.829 105.083C147.104 100.386 144.111 95.8168 140.431 91.7898C139.318 90.8137 139.58 89.375 140.209 88.2272C138.072 87.656 135.916 87.1947 133.778 86.666C138.789 94.1597 139.325 103.424 139.698 112.147C140.274 117.047 139.445 121.967 139.416 126.884C141.217 126.688 143.273 125.309 144.985 126.429C145.842 130.716 140.888 132.848 138.16 135.152C137.892 138.267 137.847 141.372 137.639 144.488C137.509 145.778 137.303 147.618 135.663 147.844C134.568 148.068 133.955 146.868 133.17 146.352C131.081 146.505 128.866 146.91 126.848 146.087C125.825 145.548 126.138 144.127 127.175 143.867C129.107 143.233 131.202 143.778 133.181 143.902C133.112 139.416 132.824 134.898 133.376 130.447C134.141 126.581 134.125 122.632 134.271 118.723C133.445 118.427 131.769 119.009 131.688 117.679C131.604 116.154 133.122 115.423 134.417 115.383C134.077 107.877 133.866 100.018 130.437 93.1479C129.479 90.917 127.892 88.6766 128.51 86.1161C125.141 85.195 121.789 83.9854 118.235 84.2162V84.2162ZM96.7266 84.1747C92.6418 84.501 88.6556 85.5533 85.0364 87.4584C78.6086 89.9899 72.9184 94.1164 67.9751 98.9022C61.3427 105.937 56.623 114.822 54.7113 124.305C54.4644 128.799 53.6755 133.218 53.1658 137.679C52.5667 142.589 53.2853 147.535 54.2969 152.354C54.8991 156.013 54.9523 159.826 56.4364 163.289C58.0905 167.956 59.5549 172.72 61.846 177.124C64.1814 181.47 66.0141 186.134 69.2324 189.952C74.0462 195.407 81.2891 197.416 87.4899 200.775C83.6857 198.114 80.8556 194.409 77.7351 191.045C75.5839 190.992 73.4488 191.578 71.287 191.304C70.6838 190.674 70.2197 189.946 69.8151 189.211C71.7145 188.542 73.818 189.07 75.6933 188.349C75.7279 187.133 74.769 186.145 74.2794 185.11C73.0469 183.271 72.4176 181.16 71.5648 179.136C69.9529 178.971 68.2923 179.622 66.7058 179.16C65.5229 178.871 64.5845 177.16 65.64 176.245C66.9549 175.185 68.6485 174.867 70.2474 174.589C70.2651 174.267 70.3088 173.63 70.3177 173.315C68.4037 173.303 66.5898 174.562 64.6917 173.989C63.8346 171.514 67.7259 171.718 69.2447 171.268C69.4982 169.531 67.3802 169.513 66.3555 168.744C65.0161 167.974 65.4292 166.31 65.54 165.105C66.556 164.981 67.5946 164.959 68.6335 164.929C68.102 163.569 68.0324 162.121 68.0897 160.702C67.0075 160.161 65.2805 160.163 64.7272 158.973C64.7107 157.16 67.2344 157.878 68.0791 156.898C68.8123 154.75 69.1822 152.505 69.0589 150.256C66.2576 149.129 63.6218 147.583 61.2674 145.703C60.5921 145.216 60.359 144.435 60.047 143.737C63.1971 142.772 65.9028 145.163 68.681 146.203C68.0853 143.812 67.857 141.356 68.0884 138.903C67.331 138.61 66.5595 138.222 65.8006 137.979C65.7966 137.519 65.7813 136.566 65.7776 136.098C66.5316 135.915 67.2845 135.758 68.054 135.627C68.8463 133.496 69.1913 131.243 69.7042 129.062C68.7824 128.568 67.537 127.784 67.9463 126.554C68.3032 125.075 69.9471 125.003 71.1156 124.602C71.1595 124.254 71.2312 123.541 71.2668 123.185C68.7882 122.978 66.1602 122.64 64.0575 121.185C62.8302 120.359 62.9304 118.022 64.6593 117.96C67.7067 117.613 70.7263 119.145 73.7727 118.236C74.7141 116.247 75.7307 114.302 76.798 112.375C74.3702 112.476 71.8395 111.706 70.6101 109.459C71.9576 106.954 74.9526 107.856 76.928 109.001C77.2356 109.554 77.5428 110.124 77.8494 110.712C79.9375 106.1 82.6715 101.804 85.8799 97.8882C88.2149 94.4661 91.0595 91.3818 94.4379 88.9679C96.7245 87.2462 99.661 86.9129 102.426 86.6172C103.497 86.3413 104.229 87.2383 104.794 88.0201C100.892 91.185 96.2356 93.3669 92.794 97.1064C93.1308 98.4262 93.724 99.702 94.0339 101.072C92.4136 101.205 91.4647 99.8762 90.5597 98.7869C88.3106 101.582 85.5063 103.859 83.0004 106.408C84.6175 107.586 86.5477 109.121 85.9629 111.436C84.0171 111.942 82.1772 110.511 80.3763 110.707C77.7941 114.445 75.3027 119.19 76.9412 123.806C77.1815 125.531 74.9784 124.601 74.0209 124.761C74.74 125.802 75.799 126.573 76.6394 127.541C76.2616 129.155 74.2387 129.072 73.059 129.864C71.9781 131.671 71.6615 133.832 71.2372 135.887C72.5438 136.316 74.6153 136.477 74.8043 138.209C74.6625 140.205 72.149 139.427 70.8347 139.568C70.9302 141.894 70.7201 144.211 70.5521 146.529C71.4938 148.419 75.0171 146.281 75.232 148.9C73.7691 149.479 72.1936 149.843 70.9073 150.793C70.7363 152.32 70.7119 154.072 71.8687 155.279C73.0266 156.75 75.4224 158.069 74.1771 160.271C73.735 160.258 72.825 160.249 72.3657 160.245C72.122 165.522 73.0375 171.027 74.9935 175.847C74.9002 179.129 76.7752 182.007 78.2522 184.823C79.8758 187.268 81.2552 189.937 83.4258 191.998C85.2818 193.752 86.8387 196.749 89.8709 196.035C89.3004 193.058 89.0643 189.988 87.9451 187.157C86.67 186.219 85.0222 185.824 83.8603 184.795C82.742 182.832 85.4732 181.931 86.8637 181.503C86.8396 180.855 86.8399 180.243 86.8311 179.655C85.561 179.738 84.2348 179.998 83.0044 179.581C82.5701 177.501 85.5191 177.916 86.8299 177.299C86.8398 176.95 86.8516 176.244 86.8615 175.895C85.7062 175.531 84.0292 175.551 83.6615 174.12C83.3808 172.623 85.118 172.57 86.057 172.163C85.9006 170.78 85.7778 169.415 85.6547 168.059C83.6879 167.807 80.7452 168.073 80.0038 165.72C80.1135 163.358 82.9544 163.09 84.7618 162.963C84.3923 158.604 86.8512 154.114 84.7229 149.969C84.1045 148.675 83.809 146.497 85.4417 145.931C87.7408 145.869 88.3856 148.618 88.9401 150.361C89.4957 154.163 89.4799 158.017 89.6004 161.858C90.3294 162.253 91.6186 162.4 91.5352 163.538C91.5359 165.308 89.2666 166.12 89.2316 167.948C88.2429 170.702 89.4507 173.408 89.5677 176.177C90.8657 176.009 92.1874 175.911 93.5068 175.889C92.7246 177.364 91.2951 178.259 89.8281 178.983C89.7935 179.603 89.7581 180.249 89.739 180.921C91.8075 181.184 91.8183 183.507 92.1977 185.126C90.4152 187.968 92.2879 191.229 92.9193 194.157C93.0206 195.682 94.842 195.658 95.5096 196.715C93.6784 200.372 97.2034 203.578 97.8024 207.049C97.8582 208.378 96.1964 207.872 95.4002 208.045C95.3706 208.189 95.32 208.477 95.2906 208.612C98.2134 208.159 101.324 207.379 104.146 208.685C106.86 209.885 110.108 208.157 111.328 205.639C112.213 204.15 113.29 202.793 114.316 201.401C112.815 201.24 111.326 200.942 109.937 200.392C108.054 202.304 109.002 205.164 108.061 207.435C107.201 208.942 105.3 208.496 103.876 208.584C103.469 206.164 103.903 203.752 103.955 201.337C102.196 200.359 99.6379 199.648 99.0867 197.488C99.3651 194.578 102.811 194.302 104.395 192.441C103.241 192.025 101.366 191.555 101.744 189.923C101.793 188.206 103.896 188.436 105.123 188.36C106.076 185.673 106.192 182.792 106.493 179.976C104.842 179.095 102.913 179.304 101.183 178.821C99.4448 178.304 98.9534 175.55 100.612 174.67C102.497 173.907 105.168 174.221 106.122 176.264C106.343 176.288 106.818 176.327 107.064 176.351C107.229 175.641 107.376 174.981 107.556 174.323C107.602 173.592 107.657 172.888 107.701 172.208C105.49 170.376 103.912 167.812 103.088 165.075C102.774 163.875 102.819 161.962 104.275 161.62C106.013 160.972 107.19 162.656 108.17 163.79C108.181 159.238 107.213 154.659 108.201 150.126C108.573 147.533 109.164 144.989 109.705 142.443C110.455 139.41 108.818 136.496 108.87 133.486C108.535 128.201 109.603 122.956 109.319 117.681C110.284 113.378 110.86 108.978 111.181 104.589C111.359 105.206 111.545 105.833 111.756 106.485C111.915 104.507 111.394 102.485 112.263 100.638C112.287 100.094 112.327 99.5845 112.358 99.1004C111.848 98.167 111.009 97.1645 111.414 96.0699C111.983 94.6141 113.829 94.0285 114.063 92.3846C115.41 89.5896 113.68 86.7072 114.06 83.8167C108.322 83.0494 102.364 82.4972 96.7266 84.1747V84.1747ZM113.788 65.567C114.53 63.6992 117.994 64.24 117.831 66.3795C117.536 69.8935 117.933 73.8783 115.637 76.8421C119.647 77.6282 124.252 76.9595 127.788 79.2041C131.755 79.1042 135.679 79.9472 139.602 80.5437C140.217 79.2424 140.887 77.2537 142.709 77.4842C145.094 77.3988 145.122 80.2839 145.5 81.9793C148.803 82.805 151.693 84.6824 154.721 86.2319C156.222 83.722 158.44 81.1221 161.379 80.3888C161.43 82.2111 159.652 83.0878 159.021 84.6184C158.971 86.0889 159.09 87.5813 159.107 89.0877C160.796 90.4035 162.149 87.4214 163.987 88.3245C166.121 88.9723 165.175 91.4383 165.061 93.0347C166.777 94.9298 168.449 96.8661 170.138 98.803C172.074 98.6538 173.728 95.8506 175.736 97.3456C176.557 99.5811 174.286 101.355 173.936 103.472C176.043 106.875 178.234 110.324 178.962 114.352C181.153 112.985 183.774 111.792 186.371 112.597C187.084 113.579 185.82 114.334 185.224 114.938C183.597 116.202 181.693 117.042 179.864 117.926C180.062 119.038 180.214 120.582 181.557 120.918C182.939 121.689 184.993 121.883 185.591 123.585C185.535 124.077 185.421 125.069 185.373 125.561C183.941 125.674 182.51 125.709 181.082 125.669C182.474 132.064 181.405 138.543 181.545 145.013C184.3 144.453 187.141 143.87 189.947 144.563C190.303 145.781 190.698 147.452 189.224 148.116C186.546 148.942 183.705 148.921 180.989 149.575C180.728 151.899 180.11 154.179 179.746 156.508C181.267 159.257 183.758 161.429 184.976 164.365C184.962 164.875 184.916 165.904 184.884 166.422C181.422 166.987 180.023 163.22 178.204 161.042C176.345 166.298 174.258 171.48 171.86 176.517C171.307 178.007 169.926 179.295 169.871 180.936C171.146 182.469 172.518 184.176 171.607 186.311C169.772 186.812 168.019 186.218 167.254 184.409C164.566 188.553 161.594 192.544 157.992 195.947C158.349 197.744 159.29 199.37 159.835 201.121C159.53 201.998 159.216 202.857 158.943 203.785C157.868 203.873 156.744 204.216 155.729 203.728C154.524 203.004 154.242 201.55 153.654 200.393C149.664 203.666 145.288 206.46 140.509 208.451C142.861 209.215 144.99 210.646 146.316 212.785C143.941 215.525 140.061 214.913 136.839 214.821C132.742 214.977 128.513 214.1 124.575 215.562C120.568 217.022 116.462 215.118 112.812 213.602C110.698 212.853 108.533 211.192 106.216 212.172C103.689 213.377 100.879 212.565 98.2115 213.017C95.4503 213.475 92.6239 214.117 89.8026 213.697C85.2058 212.877 80.4511 212.827 75.8497 213.666C70.7022 213.367 65.5094 212.87 60.6507 211.09C58.1156 210.175 58.9176 206.208 61.3878 205.81C63.7937 205.878 66.0551 206.845 68.4159 207.303C71.8399 208.073 75.7155 207.315 78.7161 209.51C80.3014 210.61 82.1325 211.148 84.0489 210.777C82.4887 210.29 80.8716 210.014 79.3118 209.51C77.9478 208.706 78.9795 207.127 79.609 206.235C77.3151 205.216 75.2015 203.846 72.971 202.693C69.5565 203.388 66.1423 205.273 62.546 204.278C62.6203 203.761 62.7606 202.718 62.8518 202.201C65.0898 201.295 67.505 201.032 69.7745 200.212C67.4764 198.147 65.3012 195.95 63.4745 193.464C62.1493 193.69 60.815 193.933 59.5055 194.202C59.7303 194.677 59.9632 195.168 60.2032 195.703C58.5978 198.601 55.9671 200.747 53.0399 202.254C52.1568 202.791 51.1303 202.387 50.1808 202.267C50.3942 201.345 50.4316 200.326 51.1986 199.684C53.1262 197.722 55.368 196.084 57.7713 194.748C56.6185 194.597 55.012 194.534 54.9353 193.043C54.5794 190.599 57.6477 190.414 59.3302 189.892C59.9199 189.798 60.509 189.73 61.1061 189.679C58.3429 189.906 55.5578 190.006 52.8123 189.613C51.3046 191.467 49.0361 193.147 46.5479 192.983C44.773 192.864 44.4478 190.243 45.7591 189.31C49.3166 186.281 54.0358 184.585 58.7156 185.178C56.3719 182.023 55.1003 178.26 53.2409 174.829C50.335 174.389 47.2637 174.982 44.471 173.857C42.9377 173.319 42.4711 170.873 44.0659 170.144C46.7256 169.667 49.4861 170.145 52.0413 170.949C50.4898 167.161 49.4278 163.209 48.5027 159.235C44.8574 159.667 40.9807 161.352 37.4307 159.626C36.2329 159.26 36.3343 157.791 36.7753 156.944C38.0375 155.942 39.7505 156.144 41.2399 155.829C43.4825 155.357 45.7428 154.859 47.9873 154.319C47.9606 154.063 47.882 153.542 47.8468 153.286C47.251 150.001 46.8429 146.689 46.5796 143.38C41.5295 143.543 36.8164 145.621 31.9294 146.63C30.9484 146.722 29.4029 146.907 29.036 145.748C28.5537 144.756 29.2495 143.636 30.2278 143.34C35.2934 140.838 40.8542 138.869 46.5922 139.049C46.8823 136.029 47.206 133.026 47.7834 130.073C48.109 127.3 48.18 124.503 49.0635 121.856C46.9161 123.769 44.9218 121.194 43.2464 119.972C42.2929 119.094 40.703 118.454 40.7968 116.95C40.5772 115.395 42.4045 115.158 43.5131 115.368C45.9468 115.956 47.5821 117.994 49.4187 119.535C50.8536 113.654 53.5564 108.064 57.1907 103.232C54.7734 102.968 51.8058 102.314 50.7707 99.8169C50.1689 98.8383 50.5245 97.0956 51.9181 97.1607C54.2664 96.8616 56.2231 98.67 57.3437 100.557C57.5587 101.073 58.3755 101.675 58.7137 100.851C60.3285 98.821 61.943 96.7991 63.7399 94.9443C61.6779 94.4517 58.1531 93.6285 58.7789 90.7705C59.711 88.2104 62.836 89.6267 64.6924 90.1729C65.9278 90.4122 67.1899 92.1072 68.3413 90.8126C72.5061 87.3745 77.1374 84.579 81.9775 82.2236C81.6136 80.3585 79.9453 77.9884 81.8778 76.4523C84.1595 75.5047 85.6121 78.2772 86.3539 80.017C91.9734 78.3815 97.6675 77.1137 103.471 76.4704C103.465 75.211 103.577 73.9636 103.79 72.7529C104.335 72.7344 105.416 72.714 105.961 72.6954C107.494 72.9602 107.477 74.738 107.621 75.9843C109.271 76.295 110.939 76.5724 112.618 76.7733C112.428 72.9986 112.901 69.2259 113.788 65.567" fill="#040606"/>
<path d="M96.3929 70.0234C97.3967 68.8353 99.064 69.7334 99.6434 70.8985C100.626 72.2453 100.33 73.9811 100.226 75.5606C99.0738 75.681 97.419 76.1193 96.8371 74.7414C96.0511 73.3577 94.8247 71.3147 96.3929 70.0234Z" fill="#040606"/>
<path d="M128.523 71.9927C129.628 70.8499 131.919 71.3572 132.083 73.0635C132.151 75.184 131.306 77.3468 129.791 78.8608C128.995 78.7531 127.771 78.3865 127.834 77.3843C127.74 75.6119 127.535 73.5131 128.523 71.9927" fill="#040606"/>
<path d="M168.655 93.5681C170.627 90.944 172.304 87.5966 175.717 86.6726C177.101 89.1709 174.992 91.5445 173.775 93.6285C172.738 95.0965 171.632 97.4728 169.443 96.9852C167.808 96.7175 167.691 94.5702 168.655 93.5681Z" fill="#040606"/>
<path d="M68.8527 84.7765C71.9182 83.4938 71.9197 89.1177 69.3305 89.512C67.3933 88.8188 67.3311 85.9244 68.8527 84.7765Z" fill="#040606"/>
<path d="M66.6131 89.7594C64.7298 89.5612 63.6758 86.5365 66.14 86.3513C66.4661 87.4496 66.5699 88.584 66.6131 89.7594Z" fill="#040606"/>
<path d="M107.657 88.5772C109.246 87.1505 111.856 89.0112 111.17 90.9912C110.147 92.8765 108.373 94.2217 107.181 96.0256C103.656 101.201 99.7342 106.279 97.5067 112.206C97.7804 112.452 98.3108 112.952 98.5756 113.214C98.0626 113.302 97.0277 113.494 96.506 113.59C95.1817 115.875 94.6896 118.515 93.7351 120.964C92.9503 123.128 91.8864 125.242 91.819 127.614C93.3948 128.748 93.176 130.75 92.9487 132.462C91.449 132.539 89.9892 132.718 88.5012 132.685C87.6166 131.179 88.3222 129.404 88.6042 127.863C89.3152 124.404 90.9526 121.277 92.0422 117.964C92.953 114.059 95.4194 110.802 96.7006 107.035C98.0993 102.43 100.884 98.4415 103.215 94.2706C104.507 92.2397 105.858 90.1852 107.657 88.5772" fill="#040606"/>
<path d="M179.632 102.383C180.787 101.591 182.736 102.14 182.793 103.724C182.433 105.322 181.525 106.751 180.552 108.05C179.318 109.249 176.692 107.932 177.287 106.154C177.719 104.728 178.415 103.293 179.632 102.383" fill="#040606"/>
<path d="M147.623 112.013C148.257 111.563 148.906 111.173 149.563 110.809C151.054 111.345 150.531 114.461 148.747 114.07C147.595 114.173 147.859 112.692 147.623 112.013" fill="#040606"/>
<path d="M103.68 132.732C105.084 131.827 106.759 132.471 108.232 132.734C108.462 133.608 108.957 134.456 108.802 135.422C107.545 136.543 105.665 136.532 104.194 135.895C103.168 135.177 103.064 133.736 103.68 132.732" fill="#040606"/>
<path d="M39.7778 131.331C42.694 130.512 44.8045 132.895 46.4223 134.949C46.4428 136.021 46.3186 137.098 46.2784 138.212C43.4838 139.247 41.5684 136.581 40.0571 134.674C39.2678 133.707 39.7471 132.411 39.7778 131.331" fill="#040606"/>
<path d="M161.101 136.654C162.515 136.005 164.188 135.21 165.725 135.918C166.592 137.44 165.339 139.012 164.73 140.39C165.992 140.596 169.068 140.122 168.715 142.086C166.312 143.405 163.529 141.93 160.98 141.815C159.854 142.515 159.241 145.501 157.541 144.236C156.481 142.623 154.571 142.475 153.003 141.682C151.767 140.856 152.736 139.105 153.844 138.728C156.186 137.757 158.807 137.721 161.101 136.654" fill="#040606"/>
<path d="M100.889 144.99C102.17 144.226 103.693 144.848 105.013 145.107C106.163 145.361 107.84 145.936 107.421 147.482C106.502 149.582 103.607 148.76 101.845 148.506C100.098 148.286 99.1281 145.893 100.889 144.99Z" fill="#040606"/>
<path d="M149.621 148.01C152.319 146.47 155.605 146.138 158.656 146.251C160.378 146.444 160.224 148.244 159.907 149.528C156.811 150.674 153.507 151.388 150.198 151.371C148.449 151.236 148.178 148.795 149.621 148.01Z" fill="#040606"/>
<path d="M125.813 156.445C129.516 155.81 133.209 154.563 137.007 155.079C137.382 157.429 135.589 159.14 133.705 160.167C134.88 164.029 132.919 167.802 132.622 171.648C132.31 174.829 128.123 174.566 125.836 173.914C124.155 173.458 121.216 172.421 122.241 170.161C124.008 168.17 126.732 170.23 128.903 170.181C129.187 166.768 129.626 162.697 132.498 160.43C129.903 161.343 127.152 162.039 124.381 161.918C122.985 161.657 121.214 160.211 121.863 158.63C122.437 157.013 124.375 156.77 125.813 156.445" fill="#040606"/>
<path d="M173.392 173.443C177.181 171.866 181.431 171.707 185.437 172.348C185.62 173.076 185.795 173.822 186.003 174.585C184.507 176.338 182.056 176.047 179.981 176.311C177.765 176.444 175.589 176.977 173.355 176.837C173.184 175.684 173.182 174.552 173.392 173.443" fill="#040606"/>
<path d="M118.357 178.449C119.834 177.368 121.717 179.055 123.225 179.566C124.228 180.198 126.78 180.841 125.833 182.414C123.408 182.711 121.147 181.761 119.175 180.472C118.583 180.055 117.479 179.105 118.357 178.449" fill="#040606"/>
<path d="M41.6745 179.526C41.1501 176.721 45.2097 176.989 47.0378 177.033C46.4967 179.306 43.7317 180.189 41.6745 179.526Z" fill="#040606"/>
<path d="M45.21 205.731C47.0801 205.793 49.3509 206.419 50.323 208.14C49.2052 210.048 45.8544 210.888 44.1823 209.25C43.2933 207.897 44.3656 206.702 45.21 205.731Z" fill="#040606"/>
<path d="M26.5876 207.644C28.6156 206.34 31.3043 207.548 33.32 208.473C32.3953 209.876 30.3229 209.741 28.8466 210.192C27.5144 210.665 25.1479 208.904 26.5876 207.644Z" fill="#040606"/>
<path d="M156.573 215.612C154.863 214.721 154.892 211.905 156.75 211.201C159.361 210.024 161.593 212.325 163.705 213.457C166.585 213.914 169.537 213.326 172.425 213.791C172.515 214.236 172.703 215.109 172.801 215.545C169.426 216.028 166.117 214.224 162.783 215.082C160.853 215.903 158.565 216.791 156.573 215.612" fill="#040606"/>
<path d="M383.657 181.654C383.169 185.146 381.84 188.429 380.891 191.806C382.034 191.993 384.024 192.072 383.772 193.775C383.147 195.485 381.186 195.621 379.677 195.995C378.298 200.852 377.076 205.773 375.603 210.623C375.747 210.738 376.02 210.975 376.142 211.09C375.984 208.482 378.139 206.758 379.275 204.66C381.718 201.161 382.86 197.022 384.505 193.15C385.612 188.767 387.86 184.715 388.234 180.159C386.876 181.122 385.324 181.654 383.657 181.654V181.654ZM354.681 62.8086C353.617 65.7544 353.301 68.8727 352.604 71.9047C352.374 72.81 353.387 73.4205 353.696 74.2037C353.086 75.073 352.453 75.9498 351.555 76.5605C351.268 79.6069 351.117 82.6677 350.945 85.7212C350.786 89.1844 349.651 92.518 349.529 95.9811C349.314 102.368 349.213 108.763 349.256 115.165C349.594 112.198 349.816 109.216 349.809 106.227C350.283 101.729 350.866 97.1523 352.346 92.863C352.935 90.3411 353.294 87.769 353.962 85.2687C354.48 82.4953 354.667 79.6357 355.83 77.0204C355.098 76.9055 354.401 76.7976 353.696 76.697C353.89 75.6336 353.488 74.3404 354.278 73.4926C355.313 73.1118 356.384 72.889 357.418 72.5225C358.46 69.548 358.747 66.1926 360.594 63.527C358.683 64.5186 356.384 63.9581 354.681 62.8086V62.8086ZM371.896 41.3328C372.686 42.5327 371.106 43.2225 370.258 43.7255C369.158 44.3003 367.182 44.5014 366.881 42.9351C364.761 43.6176 363.454 45.5648 361.952 47.0951C358.661 50.6373 356.47 55.049 355.155 59.6617C357.921 58.5552 360.536 60.4949 362.246 62.5139C361.909 66.0345 359.94 69.124 359.365 72.5871C360.371 72.6517 361.413 72.5515 362.383 72.9035C363.353 73.3921 363.468 74.6566 362.987 75.5547C361.801 76.8911 359.868 76.5102 358.302 76.891C357.145 81.9348 356.743 87.1943 355.083 92.1375C354.106 94.7815 353.919 97.5977 353.294 100.335C352.647 104.208 352.92 108.181 352.647 112.097C352.109 115.847 352.504 119.655 352.094 123.42C351.936 125.92 351.225 128.335 350.679 130.785C348.998 130.109 349.436 128.169 349.278 126.754C349.184 132.078 349.342 137.416 349.263 142.755C349.134 144.917 349.817 147.008 349.845 149.164C349.809 152.066 350.93 154.833 350.88 157.75C350.815 162.125 351.484 166.451 351.714 170.812C352.216 177.903 354.487 184.765 354.767 191.878C354.868 191.871 355.076 191.828 355.17 191.806C355.184 195.628 356.312 199.336 357.677 202.864C357.742 203.122 357.871 203.625 357.928 203.884C357.548 198.359 357.447 192.812 357.433 187.28C357.038 186.755 356.578 186.266 356.362 185.67C356.649 185.189 357.009 184.765 357.433 184.406C357.591 182.401 357.72 180.396 357.533 178.406C356.118 177.882 353.962 177.846 353.589 176.028C353.847 174.282 355.917 174.756 357.145 174.864C356.686 169.928 356.98 164.985 356.879 160.042C355.414 159.388 353.107 158.619 353.352 156.643C353.617 154.904 355.565 154.703 356.966 154.667C357.088 153.353 357.203 152.045 357.059 150.751C356.664 147.425 356.994 144.077 356.872 140.75C356.563 140.42 355.953 139.752 355.651 139.414C355.522 138.149 356.958 138.07 357.778 137.618C358.101 136.827 357.928 135.24 359.215 135.728C360.486 135.656 360.192 137.23 360.58 138.049C361.614 138.494 362.599 138.997 363.554 139.615C362.793 140.448 361.701 140.793 360.723 141.311C362.089 140.657 363.633 140.908 365.092 140.858C364.646 142.769 363.044 144.199 361.011 144.062C360.687 150.859 361.284 157.649 361.133 164.446C362.34 164.532 363.612 164.561 364.754 165.028C365.192 166.731 362.692 167.018 361.506 167.212C361.011 171.789 361.736 176.351 362.153 180.907C362.225 187.876 362.333 194.852 362.433 201.829C362.476 204.078 362.34 206.348 362.756 208.568C363.223 209.596 364.474 209.538 365.415 209.711C365.393 208.784 365.386 207.864 365.372 206.966C364.725 206.686 364.1 206.42 363.454 206.161C363.353 205.263 363.109 204.329 363.518 203.496C364.208 202.813 365.178 202.547 366.047 202.167C366.586 200.543 367.103 198.905 367.125 197.18C366.27 196.613 364.79 196.146 365.135 194.838C365.515 193.775 366.737 193.495 367.614 192.999C367.865 191.289 368.08 189.607 368.296 187.904C366.751 187.495 365.013 187.15 364.107 185.67C364.589 185.059 365.063 184.449 365.623 183.924C367.139 183.479 368.907 184.37 370.265 183.349C371.522 184.671 374.597 184.837 373.778 187.315C372.765 187.603 371.752 187.847 370.739 188.113C370.746 189.902 370.782 191.684 370.804 193.48C371.12 193.918 371.443 194.378 371.781 194.838C369.525 198.359 370.437 202.77 369.525 206.664C369.546 208.145 368.67 210.875 370.919 211.011C372.349 205.292 374.152 199.666 375.632 193.947C377.421 189.823 378.894 185.577 380.015 181.23C378.951 180.9 377.033 180.188 377.924 178.729C378.858 178.248 379.921 178.14 380.949 177.939C381.1 175.137 381.581 172.357 381.624 169.555C381.674 168.707 381.337 167.758 382.034 167.104C382.213 164.611 382.156 162.111 382.156 159.618C381.114 159.302 379.871 159.136 379.16 158.21C380.266 157.843 381.437 157.743 382.616 157.671C383.118 153.532 383.19 149.35 383.83 145.226C382.371 145.054 380.288 144.673 380.403 142.769C380.288 140.355 383.183 140.815 384.75 140.915C384.649 137.179 384.699 133.429 385.145 129.714C384.836 129.154 383.952 128.442 384.628 127.832C386 126.107 386.646 123.93 386.84 121.768C386.531 119.512 386.244 117.234 386.452 114.963C384.771 115.129 382.709 115.459 381.732 113.735C382.802 112.183 384.778 112.169 386.46 111.81C386.826 107.915 385.849 103.54 388.062 100.069C386.826 99.9327 385.648 99.5666 384.699 98.7691C384.922 97.8854 385.015 96.635 386.1 96.4123C388.866 96.1392 391.64 96.2903 394.406 96.2256C393.731 98.1799 391.69 98.9485 390.11 100.005C391.345 103.92 390.806 108.059 390.921 112.09C390.814 115.186 390.95 118.527 389.247 121.272C388.464 122.572 388.191 124.103 388.033 125.619C388.565 126.007 389.096 126.46 389.563 126.955C388.083 129.111 389.24 131.812 388.4 134.176C387.494 136.662 387.257 139.284 387.307 141.921C387.94 142 388.557 142.137 389.19 142.324C389.47 143.473 389.585 144.688 389.743 145.895C389.103 145.988 388.493 146.103 387.875 146.225C387.214 148.97 387.2 151.786 387.056 154.588C386.416 158.835 385.906 163.174 386.352 167.471C384.498 170.819 385.576 174.893 384.175 178.413C385.648 178.471 387.199 178.6 388.414 179.556C390.433 173.334 391.496 166.853 392.517 160.415C393.084 157.01 393.91 153.647 394.119 150.206C394.219 145.722 395.045 141.318 395.8 136.914C395.843 133.932 396.044 130.943 396.504 128.004C396.806 124.132 396.612 120.245 396.684 116.379C397.23 110.121 397.747 103.856 397.697 97.5763C397.927 93.7252 396.82 89.9817 396.928 86.1307C395.656 86.26 394.384 86.5187 393.106 86.5762C392.409 86.684 392.092 85.9584 392.078 85.3908C393.163 84.1262 395.053 84.6219 396.518 84.2699C397.187 83.9035 396.806 83.0269 396.921 82.4449C396.662 81.2881 396.482 80.1315 396.238 78.9819C395.369 75.9427 395.592 72.7238 394.672 69.7061C394.004 63.951 390.878 58.9648 388.442 53.8348C386.186 49.1503 382.07 45.7302 377.773 43C375.97 41.9582 373.886 41.7208 371.896 41.3328V41.3328ZM375.337 34.9671C376.358 35.039 377.019 33.7818 378.075 34.0332C379.239 34.1338 379.548 35.3766 379.885 36.3034C383.183 38.3799 386.618 40.406 389.255 43.3662C390.102 44.2643 390.713 45.4857 391.92 45.9886C391.64 45.0905 389.578 43.4454 391.338 43.1077C392.473 43.9124 393.58 44.76 394.658 45.6438C395.692 46.7287 394.298 47.8424 393.731 48.7693C393.817 50.4649 395.167 51.7725 395.627 53.3819C397.301 53.4035 398.243 51.2912 399.989 51.6576C401.102 51.7797 401.505 53.1449 400.959 54.0358C400.204 55.1854 399.004 55.9325 398.121 56.96C397.689 57.8006 398.494 58.5696 398.796 59.3024C399.478 59.015 400.19 58.7924 400.887 58.5338C400.865 58.8068 400.822 59.3741 400.801 59.6543C400.42 60.0854 400.053 60.5599 399.716 61.0485C400.291 62.9956 400.628 65.0359 401.426 66.9255C402.388 66.6309 403.387 66.4728 404.407 66.5375C403.948 67.723 402.999 68.5278 401.821 68.9589C401.864 70.906 402.123 72.8459 402.396 74.7787C403.244 74.9224 404.458 74.5558 404.946 75.5186C405.068 76.6969 403.861 77.4084 403.215 78.2346C403.861 82.3228 403.545 86.4971 404.156 90.5924C404.314 91.6558 405.988 91.6558 406.038 92.7911C405.579 93.682 404.515 94.3216 404.594 95.4496C404.515 97.8422 404.565 100.256 404.608 102.67C405.873 102.735 407.331 102.39 408.409 103.26C409.243 103.676 409.049 104.876 408.704 105.587C407.612 106.73 405.916 106.629 404.486 106.873C404.113 111.436 403.229 115.962 403.516 120.568C404.558 120.007 405.557 119.117 406.814 119.217C407.842 121.071 405.09 122.343 403.682 123.054C403.502 126.869 402.812 130.605 402.388 134.399C403.502 134.478 404.824 134.076 405.772 134.816C406.002 136.712 402.899 135.9 402.159 137.115C401.914 140.319 401.037 143.459 400.822 146.678C402.316 146.893 403.84 147.102 405.255 147.698C405.342 148.1 405.514 148.919 405.593 149.329C403.912 149.774 402.18 149.94 400.456 149.968C400.506 153.216 399.622 156.363 399.148 159.567C400.47 159.855 401.835 160.106 403.078 160.717C403.682 161.313 403.301 162.197 402.726 162.693C401.34 162.872 399.938 162.786 398.552 162.872C397.747 165.94 397.301 169.08 396.806 172.22C397.998 172.393 399.766 171.753 400.312 173.233C399.069 174.253 397.61 175.001 396.015 175.259C395.239 177.544 394.736 179.908 394.219 182.272C396.317 182.099 398.688 181.941 400.528 183.134C400.47 184.391 398.983 184.822 398.02 185.296C396.49 185.965 394.837 185.526 393.407 184.858C392.832 188.637 391.015 192.065 389.937 195.707C390.77 194.292 392.445 195.111 393.673 195.355C394.751 195.679 395.987 195.743 396.899 196.476C397.416 197.288 396.899 198.754 395.793 198.639C393.594 198.682 391.13 198.294 389.513 196.656C388.493 199.752 387.171 202.756 385.777 205.709C386.797 206.205 387.774 206.786 388.73 207.419C387.818 209.301 385.31 209.394 383.478 209.488C382.903 210.192 382.335 210.918 381.796 211.665C383.456 212.118 385.138 212.455 386.833 212.764C388.205 210.091 391.474 209.74 394.162 209.854C396.13 209.905 397.668 211.255 399.421 211.988C400.643 212.24 400.801 213.842 400.046 214.683C398.128 215.358 395.987 215.415 394.054 214.711C389.434 213.404 384.987 215.832 380.712 217.269C379.26 217.858 377.723 217.485 376.264 217.205C374.015 218.814 371.07 218.088 368.857 216.817C367.434 215.911 365.717 215.89 364.1 215.681C361.851 215.451 359.689 214.323 357.375 214.798C356.922 217.485 353.589 216.364 351.699 216.321C349.084 215.437 346.159 217.363 343.76 215.71C342.201 214.798 340.067 214.086 339.772 212.031C339.679 209.804 342.675 208.755 344.061 210.48C345.886 212.527 348.768 213.131 351.419 212.958C351.462 212.268 351.519 211.593 351.584 210.939C351.994 210.853 352.813 210.695 353.222 210.623C352.719 209.682 352.245 208.698 351.34 208.116C350.104 207.498 350.564 205.982 350.456 204.904C349.565 204.696 348.43 204.552 348.308 203.446C347.977 202.397 349.12 201.908 349.759 201.398C349.551 200.751 349.342 200.09 349.141 199.48C348.157 199.717 347.151 199.767 346.145 199.759C345.434 197.935 346.856 196.649 348.394 195.995C347.826 195.068 346.72 194.939 345.779 194.737C345.506 194.191 345.24 193.652 344.988 193.128C345.807 192.682 346.684 192.33 347.582 192.079C347.338 190.218 347.151 188.357 347.101 186.489C345.47 186.992 343.738 187.912 342.014 187.315C341.461 186.698 341.446 185.699 342.093 185.16C343.3 184.262 344.823 184.025 346.246 183.702C344.205 183.68 341.59 184.154 340.519 181.92C341.777 180.08 344.112 180.389 346.066 180.131C345.355 177.839 345.34 175.432 344.945 173.089C342.847 173.571 340.462 174.85 338.364 173.866C338.321 173.592 338.227 173.061 338.184 172.795C339.636 170.632 342.775 171.243 344.765 169.914C342.035 169.971 339.24 170.409 336.575 169.605C335.792 168.405 337.423 167.995 338.256 167.823C340.326 167.55 342.452 167.909 344.493 167.413C344.284 165.832 344.385 164.231 344.126 162.671C343.329 162.032 341.971 161.982 341.69 160.861C341.446 159.654 341.073 158.368 341.446 157.168C341.971 156.313 343.113 156.543 343.961 156.363C343.724 154.437 343.271 152.541 343.228 150.601C341.691 150.565 340.196 150.076 339.499 148.618C340.275 147.72 341.324 147.202 342.452 146.872C342.265 144.22 342.438 141.569 342.294 138.925C341.798 138.401 340.455 138.243 340.677 137.316C340.526 136.224 341.626 135.8 342.344 135.311C342.194 132.387 343.171 129.111 341.626 126.452C339.973 126.689 337.954 125.827 338.069 123.887C338.587 121.991 340.792 121.847 342.351 121.387C342.409 118.118 342.344 114.863 342.359 111.608C343.034 114.906 342.28 118.34 342.833 121.681C343.17 118.269 343.084 114.798 342.905 111.378C340.72 111.587 338.479 111.249 336.625 109.985C336.424 108.878 336.216 107.513 337.243 106.737C339.09 106.026 341.022 106.773 342.711 107.563C342.553 105.609 342.581 103.647 342.725 101.7C341.08 101.003 338.479 100.299 338.623 98.1008C338.967 96.0962 341.418 96.7211 342.826 96.8504C342.941 93.9334 343.465 91.0597 343.616 88.157C342.617 87.6684 341.022 87.1942 341.216 85.7932C341.108 84.0616 343.084 83.8532 344.342 83.731C344.528 81.3528 344.392 78.9601 344.723 76.6107C345.01 75.2384 344.112 74.096 343.695 72.8962C343.429 71.1933 346.152 71.3369 346.102 69.7131C346.526 66.5949 347.877 63.642 347.719 60.4591C347.568 59.5035 348.2 58.7923 348.689 58.0738C349.149 56.1842 349.4 54.1079 350.765 52.6062C350.945 51.5429 350.751 50.3572 351.289 49.4232C353.107 47.9862 354.056 45.802 355.636 44.1422C356.563 43.1867 356.448 41.7569 356.915 40.593C357.483 39.7523 358.654 40.0183 359.502 39.8387C362.268 37.6186 365.235 35.2186 368.885 34.8019C371.026 34.4283 373.182 34.9599 375.337 34.9671" fill="#040606"/>
<path d="M371.68 47.6704C374.015 46.2694 376.063 48.8991 378.017 49.8978C378.98 51.2701 376.673 50.8318 376.221 51.6221C373.433 56.5581 371.637 62.0616 370.674 67.6442C371.55 67.7161 372.427 67.8022 373.304 67.9172C373.871 70.3241 371.163 70.7985 369.532 71.5601C368.432 73.8593 368.059 76.4315 367.958 78.9678C368.677 79.5067 369.948 79.7938 369.934 80.9075C369.438 81.9206 368.145 81.9133 367.225 82.2726C366.607 83.767 365.695 85.3407 366.478 86.9789C364.883 86.7849 365.041 88.5953 364.775 89.6658C364.402 90.916 366.205 91.4694 365.954 92.7124C365.752 93.8763 364.437 94.2786 363.475 94.6019C362.713 94.3361 362.498 93.4453 362.253 92.7843C363.662 89.314 364.165 85.5635 365.365 82.0358C364.581 81.425 363.252 81.073 363.309 79.8659C363.173 79.0756 363.92 78.5867 364.244 77.976C364.955 77.9832 365.666 78.005 366.406 78.0265C366.78 76.1154 367.333 74.2257 367.491 72.2786C366.78 71.4524 365.422 70.9136 365.53 69.6562C365.875 67.666 369.007 68.5281 369.093 66.502C369.496 64.1669 370.494 61.7598 369.912 59.396C370.523 58.8068 371.256 58.2681 371.392 57.37C372.003 55.1714 372.966 53.1094 374.123 51.1408C372.937 50.3576 370.667 49.4523 371.68 47.6704" fill="#040606"/>
<path d="M368.362 51.4857C370.302 50.2571 370.158 53.9644 368.377 53.3609C367.364 53.3753 367.464 51.7085 368.362 51.4857Z" fill="#040606"/>
<path d="M361.938 55.1357C360.997 54.1657 361.413 52.0462 362.987 52.2186C365.142 52.0102 366.299 54.5393 365.897 56.3643C364.496 56.4433 362.757 56.5224 361.938 55.1357Z" fill="#040606"/>
<path d="M385.374 53.3676C386.581 52.5845 387.221 54.3235 387.681 55.1354C389.463 59.4104 390.59 63.9942 390.784 68.6285C391.352 71.9982 391.158 75.5905 389.62 78.6943C388.342 74.9007 388.061 70.8701 387.724 66.9112C387.199 62.3488 384.418 58.0522 385.374 53.3676" fill="#040606"/>
<path d="M378.736 54.7473C378.98 53.4828 380.424 53.8778 381.337 53.8706C381.703 60.1143 379.109 66.0993 379.045 72.3429C379.138 77.0418 378.017 81.6617 378.039 86.3535C378.003 90.5494 376.968 94.6591 376.99 98.8551C379.404 98.6539 381.811 98.1009 384.232 98.532C384.088 99.3151 384.182 100.378 383.226 100.687C381.135 101.902 378.621 101.794 376.307 102.131C376.516 105.178 375.538 108.124 375.517 111.156C376.753 111.536 378.053 111.838 379.159 112.557C379.935 113.067 379.562 114.102 379.698 114.892C377.342 115.424 374.338 115.122 372.959 112.88C371.852 110.796 372.93 108.418 372.794 106.213C372.722 101.787 373.455 97.4326 373.62 93.0282C374.338 89.7519 374.597 86.4253 374.569 83.0771C375.776 73.6218 375.352 63.8003 378.736 54.7473" fill="#040606"/>
<path d="M383.521 78.9319C384.276 78.9032 384.319 80.2614 383.543 80.2686C382.796 80.2183 382.753 78.9607 383.521 78.9319Z" fill="#040606"/>
<path d="M389.666 80.4552C390.413 81.8707 390.104 83.5017 390.176 85.0465C389.867 85.068 389.264 85.0896 388.955 85.104C389.005 83.5233 389.106 81.9425 389.666 80.4552Z" fill="#040606"/>
<path d="M361.658 106.212C361.702 105.077 361.522 103.274 363.081 103.166C364.82 102.591 365.977 104.301 367.162 105.25C366.128 106.859 364.238 107.096 362.513 106.672C362.039 107.333 361.163 107.154 360.48 107.283C360.775 107.017 361.364 106.478 361.658 106.212Z" fill="#040606"/>
<path d="M360.472 107.945C360.817 107.851 361.535 107.679 361.887 107.586C362.217 111.48 362.57 115.381 362.713 119.289C363.145 119.915 364.538 120.317 364.064 121.244C362.821 122.99 360.429 123.249 358.589 122.379C358.467 121.467 358.381 120.568 358.596 119.677C359.164 116.983 358.654 114.181 359.336 111.509C359.595 110.273 360.429 109.224 360.472 107.945Z" fill="#040606"/>
<path d="M369.21 124.98C369.856 123.105 372.242 123.571 373.715 123.959C375.216 124.354 377.559 124.585 377.587 126.625C377.257 128.17 375.375 128.134 374.153 128.393C374.678 131.935 374.354 135.52 374.045 139.069C374.584 139.86 375.425 140.6 375.439 141.649C375.224 142.317 374.39 142.374 373.873 142.734C373.708 144.487 373.384 146.297 373.945 148.029C373.607 148.704 373.219 149.415 373.277 150.227C373.248 153.784 373.305 157.341 373.348 160.904C374.728 160.574 376.136 159.776 377.559 160.286C378.392 161.874 376.337 162.65 375.252 163.254C372.601 164.274 369.914 165.804 366.99 165.395C366.379 162.844 369.468 163.117 370.647 161.788C369.519 157.168 369.569 152.376 369.713 147.655C370.245 144.673 370.137 141.656 370.324 138.653C370.87 135.118 371.322 131.576 371.818 128.048C370.834 127.078 368.93 126.762 369.21 124.98" fill="#040606"/>
<path d="M359.489 127.415C360.431 127.415 362.687 126.589 362.522 128.199C361.688 129.097 360.352 129.161 359.216 129.42C358.225 129.571 356.364 129.693 356.838 128.141C357.672 127.76 358.57 127.559 359.489 127.415" fill="#040606"/>
<path d="M356.953 131.906C359.618 130.792 362.614 131.647 365.258 132.466C365.416 133.53 365.438 135.096 364.058 135.318C361.939 135.62 359.662 135.513 357.671 134.694C356.63 134.126 356.931 132.847 356.953 131.906Z" fill="#040606"/>
<path d="M334.032 151.931C335.203 150.889 336.899 151.377 338.322 151.334C339.953 151.463 342.166 151.068 342.956 152.944C340.987 154.409 338.372 154.409 336.073 153.906C335.132 153.633 333.853 153.116 334.032 151.931Z" fill="#040606"/>
<path d="M368.312 174.44C369.598 174.397 371.811 173.463 372.458 175.008C371.639 176.394 369.763 176.481 368.355 176.746C367.27 176.746 365.093 177.221 365.417 175.46C366.157 174.627 367.306 174.641 368.312 174.44Z" fill="#040606"/>
<path d="M406.139 212.657C406.879 212.506 407.626 212.535 408.38 212.614C408.409 212.987 408.452 213.706 408.481 214.073C407.705 214.252 406.886 214.245 406.11 214.058C406.124 213.706 406.139 213.009 406.139 212.657" fill="#040606"/>
<path d="M331.46 214.877C333.623 213.928 336.087 213.461 338.415 214.05C338.171 214.704 338.573 215.919 337.725 216.249C336.03 216.996 334.205 217.571 332.337 217.614C331.058 217.478 330.555 215.71 331.46 214.877Z" fill="#040606"/>
<path d="M243.626 134.156C240.597 134.577 238.019 136.54 235.411 138.022C229.302 142.067 223.845 148.255 223.193 155.846C223.103 161.123 221.939 166.37 222.702 171.657C223.033 180.129 226.634 188.32 232.221 194.658C231.369 191.154 229.904 187.799 229.503 184.204C229.182 182.782 228.921 181.37 228.931 179.918C228.84 173.91 228.319 167.772 230.104 161.924C231.408 155.495 235.912 150.278 237.136 143.829C238.119 140.074 239.694 135.969 243.596 134.447C244.168 135.488 244.268 136.6 243.917 137.792C244.398 136.149 246.405 136.88 247.649 136.8C247.96 139.844 245.191 142.177 242.533 142.988C241.289 145.572 239.724 147.995 238.099 150.328C237.618 151.17 236.725 152.331 237.407 153.282C239.764 156.046 238.27 159.972 237.387 163.076C236.003 165.239 237.618 167.562 238.18 169.735C239.514 175.022 239.624 180.529 239.163 185.946C237.367 184.605 235.933 182.873 234.94 180.89C236.344 186.738 238.761 192.225 241.199 197.692C240.827 195.259 239.845 192.816 240.577 190.363C242.954 191.424 243.125 194.518 244.669 196.431C246.726 199.425 248.421 203.28 252.193 204.442C252.393 201.958 252.945 199.535 253.707 197.162C255.202 192.826 254.44 188.18 254.751 183.693C254.57 178.156 255.412 172.659 255.222 167.141C255.001 162.064 255.904 156.837 254.239 151.93C253.025 148.275 251.751 144.661 250.578 141.006C250.196 139.834 249.795 138.442 250.568 137.361C251.2 135.799 253.758 135.649 254.48 137.311C256.496 140.876 256.025 145.201 256.466 149.147C258.211 157.638 259.886 166.18 260.127 174.862C260.548 181.481 261.391 188.169 260.669 194.798C259.766 198.243 259.435 201.828 258.231 205.182C260.057 205.042 262.033 204.642 263.257 203.12C265.785 200.035 267.289 196.26 269.325 192.856C269.787 191.023 270.248 189.201 270.64 187.368C272.876 179.027 271.582 170.305 271.462 161.794C270.74 157.688 270.79 153.333 268.804 149.577C266.808 145.802 264.801 141.777 261.22 139.273C259.084 137.791 256.817 135.859 256.887 133.015C260.408 132.144 263.568 134.507 265.524 137.231C267.49 140.155 269.747 142.938 271.061 146.253C275.705 155.205 276.187 165.549 276.147 175.422C276.047 180.409 276.658 185.536 275.244 190.383C274.251 193.867 273.388 197.432 271.673 200.656C279.919 195.83 282.346 185.766 283.189 176.944C283.369 168.352 283.379 159.661 281.293 151.27C279.918 148.526 279.246 145.472 277.651 142.838C275.766 140.035 273.589 137.33 270.599 135.638C267.45 133.916 263.889 133.195 260.408 132.474C254.78 131.934 248.993 132.324 243.626 134.156V134.156ZM228.66 132.104C236.705 125.144 247.478 122.25 257.971 122C263.909 121.98 269.516 124.163 274.983 126.256C279.447 128.759 283.459 132.284 286.178 136.67C290.581 144.611 293.53 153.483 293.57 162.635C294.232 170.045 294.573 177.575 292.798 184.875C291.333 191.755 288.675 198.664 283.64 203.741C284.753 203.63 285.957 203.661 287.09 203.38C287.933 202.299 288.615 201.107 289.528 200.075C293.099 198.593 297.091 199.595 300.662 200.667C303.27 201.678 306.239 201.428 308.807 200.316C311.616 199.425 315.187 199.244 317.534 201.347C318.156 202.389 318.257 203.951 317.203 204.782C314.856 206.805 311.285 206.414 308.517 205.703C302.729 202.759 296.8 208.066 290.832 206.714C289.377 206.234 288.044 204.281 286.469 205.393C284.121 206.855 281.664 207.976 278.905 208.256C281.925 210.089 284.663 206.514 287.833 207.205C290.05 207.235 291.755 209.899 290.611 211.912C289.508 213.494 287.652 214.505 285.726 214.475C283.269 214.805 281.313 212.703 278.905 213.103C275.395 213.754 271.824 213.974 268.413 215.026C264.792 215.627 261.321 217.669 257.529 216.778C255.022 215.256 252.373 213.754 250.417 211.531C250.547 210.97 250.808 209.879 250.939 209.328C249.905 210.8 249.565 212.943 247.85 214.054C245.141 214.255 242.874 212.683 240.918 211.04C235.18 209.649 229.262 211.791 223.544 210.289C219.923 209.388 216.232 208.828 212.63 207.906C212.249 209.999 212.741 212.913 210.474 214.085C208.789 215.146 206.552 213.924 205.93 212.232C205.639 210.94 205.709 209.628 205.699 208.357C203.493 208.337 201.326 208.367 199.179 208.427C199.149 208.898 199.048 209.809 199.008 210.279C198.868 210.279 198.547 210.289 198.387 210.289C198.357 209.839 198.256 208.927 198.206 208.467C196.3 207.746 194.575 206.665 193 205.423C193.612 203.46 195.487 202.399 197.233 201.588C200.282 200.977 203.412 201.397 206.491 201.307C207.404 200.025 208.157 198.193 209.992 198.083C211.928 197.893 212.581 200.075 213.223 201.497C214.597 201.547 216.141 202.339 217.475 201.608C218.047 199.956 218.057 198.063 219.281 196.671C220.244 195.68 221.709 196.13 222.963 196.09C223.735 198.303 223.254 200.566 222.271 202.619C225.571 203.28 228.881 203.991 232.241 204.391C227.135 200.967 222.812 196.331 220.003 190.843C217.977 186.648 215.77 182.432 215.309 177.715C214.707 172.718 213.583 167.682 214.326 162.655C214.937 157.648 214.878 152.511 216.483 147.685C219.02 141.516 223.283 136.069 228.66 132.104" fill="#040606"/>
<path d="M176.85 205.153C179.152 204.372 181.374 206.784 178.947 207.784C176.576 208.759 174.912 206.17 176.85 205.153Z" fill="#040606"/>
</svg>
