<svg width="480" height="480" fill="none" xmlns="http://www.w3.org/2000/svg"><path d="M313.63 226.325c0 78.484-49.173 110.796-127.657 110.796-78.485 0-125.249-32.312-125.249-110.796 0-78.485 51.581-197.508 130.066-197.508 78.484 0 122.84 119.023 122.84 197.508Z" fill="#fff"/><path d="M82.768 124.734c3.455 1.06 7.18 1.22 10.527 2.678 1.252.533.829 2.563 2.409 2.653-.257-1.426-.514-2.878-.88-4.259-.193-.963-1.35-.571-2.01-.68-1.53.173-2.647-.951-3.74-1.799-2.01.848-4.251.726-6.306 1.407Zm65.142-73.492c-.135 1.83-1.51 3.064-2.326 4.599 1.112 1.464 3.629 2.556 2.807 4.798-.289 1.477-2.061 1.213-3.192 1.413 1.24 1.31 3.7.97 4.541-.591.553-3.526-2.03-6.66-1.509-10.206-.084 0-.238-.013-.321-.013Zm37.658-27.047c1.869-.495 3.764.057 5.581.5 2.653.38 5.254 1.17 7.567 2.518 1.393.771 2.883 1.51 4.508 1.51 3.077.115 6.141.649 9.211.507 2.955-.828 6.025-2.659 9.14-1.393 3.173 1.323 5.421 4.341 6.603 7.502-.013.192-.045.558-.058.732-.54.372-1.124.385-1.721.07-.874-.045-1.728-.057-2.582-.045-.887.29-1.767.656-2.66.925-.52-.52-.931-1.11-1.368-1.638-.237.418-.488.797-.706 1.26-1.445.443-3 .603-4.323 1.387-2.139 1.246-4.727 1.599-7.136 1.13-1.496-.289-2.704-1.42-3.288-2.775-2.518.007-4.959-.584-7.342-1.33-3.552.13-6.673-1.746-10.058-2.44-2.248-.16-4.586-.135-6.725.61-3.205.874-2.601 5.447-5.293 6.905-2.768.16-5.543-.084-8.305.295-3.757 1.838-7.945 2.949-11.298 5.499.559 1.136 1.536 2.338 1.073 3.706-.411 1.29-1.079 2.492-1.516 3.802 2.325-1.028 2.903-4.143 5.524-4.734-1.278 1.22-2.473 2.602-2.98 4.33-.488 2.55.539 5.054.533 7.623-.071 2.711-1.041 5.473-3.038 7.374-1.439 1.118-3.167 1.786-4.85 2.434-.257.032-.745.077-.989.116.231-.064.668-.173.899-.231 1.49-.842 3.398-1.946 3.283-3.918.128-1.015-.527-1.882-1.394-2.274-1.388.218-2.235 1.792-3.777 1.638-2.582.032-4.971.989-7.348 1.895-1.92.34-1.805-3.045-3.77-2.57-3.019.225-6.519.315-8.703 2.724-1.054 1.053-2.724.533-4.047.751v.354c1.612-.052 3.205.244 4.734.719 1.715-2.57 5.023-3.54 7.932-2.884.835.225 1.028 1.214 1.516 1.844 1.407-.09 3.006.32 4.259-.54-.61 2.383-2.422 4.11-3.661 6.172.873.713 1.201 1.83 1.483 2.904 3.751.796 7.579.982 11.407.957 1.259-.656 2.364-1.747 3.854-1.799 1.413-.282 3.135 1.099 2.634 2.614-.662 1.523-1.959 2.685-2.595 4.233-.675 2.177-3.809 1.644-4.625-.186-1.772 1.195-3.809 2.152-5.999 2.12-2.158.25-4.085-1.002-6.204-1.105-1.831-.084-3.584-.944-4.83-2.261-.906-1.683-1.221-3.796-.2-5.492-1.342-.11-2.839.013-3.918-.925-1.092-.816-1.162-2.28-1.439-3.475-.141.129-.436.38-.565.514-.096 2.84.084 5.665.193 8.517-.006 2.062.058 4.42-1.49 6.025-1.67 2.254-4.593 2.704-7.027 3.719-.764.16-.597 1.072-.828 1.657-.161 1.22-1.619 1.394-2.467 1.997-1.715 1.157-3.173 2.685-4.959 3.751-3.301 2.062-5.048 5.659-6.956 8.903-2.794 4.676-3.988 10.392-2.839 15.762.482 2.563 1.703 4.971 1.857 7.611-.174 2.087-1.041 4.226-2.704 5.588-.643.668-1.471 1.137-2.435 1.073-.597-1.895-1.413-4.4-3.738-4.612.623 4.207-1.708 8.767-5.594 10.566-1.69.334-3.437.032-5.145.115.244 1.561.957 3.514-.501 4.747-1.631 1.497-2.255 3.661-3.282 5.556-.797 1.574-2.511 2.299-4.091 2.839-1.838.816-3.443-.912-5.293-.745-2.28.019-4.439-1.375-6.706-.681-1.29.495-3.096.321-3.97 1.542 0 1.612 1.729 2.626 1.69 4.252-.058 1.644-2.01 2.395-3.423 2.106-2.666-1.188-4.535-3.995-4.631-6.904 0-2.082 1.394-3.745 2.903-5.017 1.342-1.362 3.378-1.278 5.074-1.869 2.325-.739 4.869-.681 7.187.103 2.094.649 4.336.045 6.43.706a30.287 30.287 0 0 1 2.505-1.939c-1.548.186-2.948.944-4.47 1.246 1.194-5.877 3.82-11.459 7.61-16.096 1.324.706 1.664 2.434 3.07 3.019.88.385 1.812.764 2.801.802 1.04-.995 1.503-2.46 1.638-3.841-4.426.013-9.12-.481-12.84-3.121-1.425-1.439-2.196-3.372-2.973-5.203-.488-2.376 1.56-4.322 3.417-5.382 4.322-1.638 9.101-.932 13.443-2.486 1.721-.726 3.52-.45 5.248.077 1.175-.25 2.267-.841 3.359-1.278 1.246-.462 1.136-1.978 1.13-3.045-2.158-.545-4.348.996-6.423-.006-1.663-.662-3.243-2.293-2.96-4.201.327-1.971 2.273-2.954 3.635-4.149 1.76-1.188 3.686-2.113 5.498-3.186 1.278-.353 2.64-1.156 3.976-.822.295 1.484-.656 2.878-.996 4.304-.533 2.042-2.139 3.5-3.603 4.92.603.693 1.259 1.368 1.92 2.049.045 1.303-.36 2.813.591 3.905 1.015-2.878 1.105-5.987 2.132-8.845-.321-2.601 1.189-4.663 2.615-6.647-1.715-.553-3.083-2.095-2.968-3.957 1.015-3.07 4.252-4.567 7.29-4.567.315-1.625.116-3.584 1.407-4.81.97-.97 1.734-2.114 2.646-3.129 1.786-1.811 4.085-3.083 5.755-5.042-1.766-.668-3.834-.912-5.177-2.338-1.528-1.464-1.965-4.284-.263-5.761 1.702-1.471 4.117-1.111 6.198-1.394.437-2.177 1.06-4.445 2.685-6.044 1.394-1.291 2.967-2.466 4.766-3.134 2.935-1.304 6.23-1.24 9.358-1.6-.918-1.24-1.297-2.877-.578-4.29.79-1.439 2.158-2.634 3.777-3.026 2.158-.43 4.38-.622 6.57-.391.591.128 1.092-.29 1.632-.424.809-1.87 2.126-3.456 3.918-4.439 3.34-3.031 5.691-7.373 10.033-9.159 1.959-1.002 4.194-1.021 6.326-1.29 1.812-1.992 2.081-5.004 4.156-6.854 3.404-2.968 8.119-3.571 12.461-3.892" fill="#040606"/><path d="M227.87 36.733c1.587-.81 3.436-1.304 5.151-.534 1.465.636 3.199 1.028 4.259 2.32.809 2.267-1.966 3.34-3.764 3.506-2.338.096-3.758 2.813-6.211 2.422-1.747-.579-4.014-1.298-4.361-3.392-.54-1.272.481-2.37.976-3.449 1.278-.45 2.614-.668 3.95-.873M177.193 43.27c2.049-1.457 5.402-1.31 6.828 1.003.796.816.359 1.946.218 2.948 1.407 1.927-1.4 3.32-2.762 4.246-2.729.892-4.56 3.738-7.669 3.577-.244 2.8 1.034 5.402 1.734 8.061.412 1.567 1.58 3.282.495 4.862-.963 1.914-3.886 1.381-4.926-.192-1.311-2.043-1.844-4.644-1.285-7.008.552-2.338 2.415-3.982 3.828-5.813-.617-1.214-1.74-2.537-1.072-3.943.725-1.574 2.203-2.62 3.571-3.604-.238-1.477-.187-3.108 1.04-4.136M234.396 48.101c.18-1.882.193-3.757-.25-5.588.841 1.754 1.586 3.584 1.651 5.562-.354 0-1.06.013-1.401.026M196.166 44.356c2.319-1.567 5.633-.314 6.982 1.966.668 1.143.077 2.871-1.304 3.09-1.182.044-2.357-.148-3.513-.232.096 1.812.989 3.456 1.149 5.254.071.829-.873 1.195-1.349 1.747-1.881-.873-4.194-1.702-4.855-3.886-.546-1.862-.752-4.245.559-5.806.969-.495 1.663-1.291 2.331-2.133M234.667 50.24c1.471-.713 2.967-2.075 4.688-1.67.354 1.105-.584 2.165-.546 3.327 1.253.912 2.268 2.756 1.266 4.24-.893 1.74-2.878 2.389-4.605 2.986-2.081.668-4.914-.463-5.101-2.845-.186-2.756 2.018-4.895 4.298-6.038ZM213.932 51.923c-.809-1.29.823-1.74 1.741-1.163.084.977-.816 1.889-1.741 1.163ZM164.585 53.72c1.907-.616 3.912-.359 5.813.078.661.128.937 1.002.661 1.612-.578 1.953-1.907 3.745-3.828 4.541-1.419.598-2.441 1.83-3.809 2.512-2.164 1.014-5.003-.816-4.849-3.238-.154-3.237 3.372-4.823 6.012-5.504M242.302 56.078c2.82-.976 6.076.084 8.042 2.261.52 1.002.995 2.383.096 3.353-1.638 1.696-4.188 1.587-6.359 1.619-1.804.038-3.725-1.26-3.937-3.129-.276-1.65.72-3.365 2.158-4.104ZM222.135 61.891c1.548-.777 2.64 1.715 1.079 2.345-1.503.694-2.357-1.754-1.079-2.345ZM243.998 68.764c1.953-2.35 4.914-4.001 7.964-4.15.071 2.352.238 4.992-1.49 6.867 1.324.52 2.775.43 4.15.758 1.586.405 2.871 2.132 2.318 3.796-.334 1.458-1.882 2.19-3.237 2.428-2.537.321-5.209.302-7.63-.61-3.16-1.728-3.957-6.173-2.075-9.089ZM216.849 69.984c1.535-.661 2.344 1.747.861 2.248-1.369.508-2.203-1.65-.861-2.248ZM271.007 76.195c1.195.392 2.12-1.06 3.372-.738 1.959-.058 4.535 1.175 4.452 3.417-.232 3.378.661 6.718.347 10.116-.225 2.03-1.484 3.757-1.805 5.774-.379 2.287-1.067 4.522-1.362 6.841 1.618.353 2.03 2.306 1.002 3.513-1.587 2.03-4.284 3.905-6.943 2.903-2.075-.604-3.681-3.006-2.884-5.145.944-2.871 2.787-5.363 4.066-8.093.096-1.425-.489-2.8-.585-4.194-2.389-.045-4.65.829-6.635 2.075-2.569 1.323-5.62-.347-6.474-2.961 2.582.507 5.479.443 7.714-1.118 1.047-.642 1.753-1.702 2.813-2.293 1.702-.148 3.212.778 4.843 1.105 1.053-.938 2.094-1.92 3.269-2.723 1.176-.797 1.086-2.422 1.182-3.668-1.169.578-1.586 1.96-2.698 2.614-1.348 1.054-3.243.752-4.682.045-.758-.41-1.169-1.355-1.953-1.586-1.342 1.002-2.755 1.927-4.309 2.595-2.216.822-4.76-1.548-4.118-3.841.482-2.428 3.334-2.852 5.286-3.642 1.96-.597 4.047-1.876 6.102-.996M238.051 81.083c1.773-.257 3.758 1.676 2.981 3.468-.752 1.568-3.147 2.242-4.368.848-1.483-1.394-.514-3.937 1.387-4.316M173.282 84.05c.417-1.246 1.721-1.779 2.685-2.505 1.682 1.664 2.299 4.124 1.914 6.443-.232 1.233-1.786 2.049-2.936 1.406-1.779-1.027-2.575-3.494-1.663-5.344ZM197.766 86.62c.642-1.176 1.682-2.332 3.05-2.557 1.536.135 2.743 1.445 4.336 1.368 1.529.032 3.34.367 4.034 1.934.68.88.006 1.9-.598 2.627-.282.057-.873.16-1.156.218-.45.842-1.13 1.914-2.267 1.76-1.908-.16-3.533-1.31-5.19-2.139-1.207-.642-2.736-1.625-2.209-3.212M245.643 91.63c.43-1.317.912-3.513 2.781-2.788 1.503 3.623-.206 7.496.514 11.241.205.886-.103 2.042-1.021 2.421-1.741.321-2.91-1.497-3.045-2.993-.296-2.653.244-5.305.771-7.881ZM144.603 90.441c1.772-.424 3.629-.424 5.427-.128.379.706-.424 1.233-.822 1.728-1.4 1.439-3.128 2.71-3.957 4.611-.231 1.471 1.247 2.904.405 4.375-.559 1.637-2.685 2.659-4.188 1.58-3.153-1.555-4.143-6.064-2.081-8.858 1.105-1.875 3.103-3 5.216-3.308ZM122.257 96.87c1.555-.199 3.135-.096 4.695-.302.707-.424 1.24.938.527 1.227-.565.257-1.195.386-1.779.643a14.498 14.498 0 0 1-2.775 4.309c-1.503 1.606-2.312 3.97-4.502 4.824.115.874.012 1.908.668 2.646.828.989 2.158 1.542 2.768 2.769.218 1.554-.803 3.616-2.621 3.487-4.213-.263-6.782-4.92-6.224-8.799.071-2.608 1.638-4.907 3.771-6.301 1.997-1.304 3.038-3.88 5.472-4.502M289.267 99.17c1.683-1.663 4.111-.989 6.179-.642 1.831.36 4.015 1.034 4.811 2.922.976 2.396.578 5.12-.289 7.502-.815 2.293-1.516 4.664-2.627 6.854-.951 1.529-2.89 1.593-4.47 1.888-2.114.957-2.197 3.514-3.276 5.254-1.465 2.068-2.878 4.194-4.515 6.141.012 1.104.456 2.46-.463 3.359-2.454 2.351-7.63.449-7.457-3.103.585-3.873 3.616-6.628 6.5-8.966 2.576-1.741 5.19-3.443 7.605-5.402.308-3.353 2.267-6.127 3.269-9.249-2.01.122-3.346 1.844-5.106 2.627-2.441 1.529-5.98-1.317-5.1-4.046.469-2.563 3.199-3.533 4.939-5.139ZM274.444 109.826c3.09-.186 5.98-1.619 7.933-4.014-.283 1.438-.444 2.922-.925 4.329-.244 1.066-1.555.481-2.332.7-1.991-.058-3.667 1.117-5.414 1.888.128-1.015.359-1.978.738-2.903ZM193.789 111.926c-1.175-1.914.521-4.123 2.242-4.945 1.792-.123 2.312 2.203 1.773 3.545-.193 1.188-1.291 1.792-2.255 2.331-.597-.314-1.194-.603-1.76-.931M166.466 109.62c.482-.931.919-2.293 2.229-2.19 1.541-.231 2.428 1.221 3.237 2.293.97 1.394 2.325 2.454 3.68 3.481 1.915 1.311 3.514 3.167 4.625 5.158-2.023.597-4.316 1.015-6.237-.103-3.41-1.856-6.39-4.849-7.534-8.639M255.803 108.49c.726-.623 1.882-.36 2.409.405.912 1.22 1.509 2.646 2.094 4.078.713 1.67.192 3.906-1.381 4.94-2.576 1.175-5.466-1.349-5.383-3.963-.045-2.024.777-4.092 2.261-5.46M145.173 110.141c1.831-.488 3.841-.501 5.646.096 1.612.983 3.321 3.032 2.332 5.004-1.253 2.017-4.529 2.479-6.34.944-.758-.655-1.625-1.291-2.094-2.177-.456-1.291-.135-2.704.456-3.867ZM225.044 113.667c1.265-.835 2.948-.065 3.475 1.271.937 1.651.135 3.565-.341 5.248-.546 1.895-1.676 3.751-3.475 4.721-.584.366-1.586.379-1.862-.353-1.111-2.409-.308-5.074.212-7.502.359-1.259.706-2.782 1.991-3.385M196.648 115.504c2.383-.34 2.287 3.051 1.336 4.265-2.075-.129-1.94-2.878-1.336-4.265ZM110.002 121.67c.006-2.544 2.023-5.511 4.856-5.01 1.445 2.428 1.49 5.363 2.768 7.881.758 1.503 1.04 3.167 1.407 4.824.937 2.383 2.492 4.592 2.845 7.2-.148 3.243-1.567 6.641-4.355 8.485-2.299 1.65-4.965 2.614-7.431 3.943-.803.367-.334 1.381 0 1.953.963 1.972 2.884 3.513 3.115 5.819.141 1.478-1.002 3.321-2.659 3.135-1.503.045-2.537-1.317-3.263-2.428-1.471-2.711-1.4-5.909-1.272-8.883.09-2.03 1.972-3.225 3.597-4.034 2.357-1.323 5.151-2.383 6.59-4.811.655-1.259 1.175-2.903.263-4.149-1.31-1.741-2.999-3.237-3.77-5.325-1.053-2.806-2.627-5.536-2.691-8.6M295.036 127.264c2.241-.681 4.798-.783 6.904.379 1.439.829 3.051 1.401 4.374 2.422 1.471 1.381 2.351 3.757 1.291 5.633-1.002 2.479-2.588 4.817-5.112 5.935-1.041 2.543-2.21 5.042-3.115 7.636 1.882.161 3.757.367 5.652.527 1.207-.09 1.908 1.394 1.387 2.396-.706 1.901-2.787 2.499-4.387 3.424-2.691 1.644-6.455.963-8.613-1.221-1.503-2.826-1.259-6.346.276-9.101 1.034-1.741 2.846-2.82 4.053-4.413-.045-1.188-.526-2.415-.077-3.545.623-1.176 2.004-1.741 2.499-3.006-2.39.237-4.073 2.717-6.616 2.286-2.499-.263-3.937-3.462-2.563-5.536 1.047-1.529 2.415-2.916 4.047-3.816M242.559 128.312c1.098-.315 2.569-1.137 3.443.07.572 1.465-.7 3.539-2.409 3.032-1.56-.148-1.291-2.049-1.034-3.102ZM129.251 134.169c.661-.289 1.336-.539 1.997-.822.752.366 1.683.649 2.133 1.452 1.965 5.735 2.049 12.165-.289 17.823-1.253.052-1.831-1.201-2.602-1.939-.629.578-1.13 1.663-2.138 1.477-2.916-.193-5.325-2.73-6.115-5.434a24.538 24.538 0 0 1-.379-6.314c.096-.636.886-1.798 1.599-1.059 1.086 1.284 1.715 2.883 2.306 4.476.559 1.876 2.422 2.884 3.835 4.092-.264-2.049-.591-4.098-.591-6.16.006-2.524-.418-5.119.244-7.592M274.155 138.152c-1.297-2.017.829-4.709 3.019-4.587 2.068.232 4.002 1.099 5.826 2.075.083.263.25.809.334 1.073 1.663 1.76 2.203 4.303 4.143 5.877 1.034 1.284 3.417 1.599 3.333 3.616.103.784.167 1.599.231 2.441.533 2.395 1.163 4.778 2.037 7.091.597 1.618 1.059 3.629-.155 5.119-1.034 1.079-.816 2.614-.841 3.995-.02 2.267-.09 4.676-1.246 6.725-1.227 2.055-4.92 1.445-5.318-.951-.354-2.954 1.284-5.588 2.492-8.138.43-.79-.225-1.445-.611-2.049-2.46-3.603-3.204-8.08-3.14-12.37-.109-1.15.289-2.595-.81-3.34-2.774-2.672-7.36-2.993-9.294-6.577" fill="#040606"/><path d="M101.042 138.081c1.189-1.06 2.473-2.383 4.22-2.178 2.743-.032 4.432 3.469 3.212 5.775-1.073 1.759-2.846 2.909-4.297 4.329-.944 1.715-.893 3.905-2.216 5.446-.771.842-1.959.97-3 1.259.238 1.567-1.182 2.544-2.518 2.903-2.768.771-4.117 3.938-7.072 4.297-.944.135-1.322-.841-1.868-1.361-.81-1.452-.495-3.36.751-4.445 2.094-2.049 4.779-3.802 7.81-3.873-.507-2.511-.571-5.216.752-7.483.79-2.055 2.704-3.224 4.226-4.669M151.958 137.554c.571-.533 1.336.077 1.946.289 2.537.989 3.809 3.603 6.044 5.055 2.242 1.914 5.382 3.488 6.012 6.635.424 1.413-.61 3.089-2.126 3.179-1.914.334-3.61-.809-5.049-1.888-2.717-2.043-5.832-3.86-7.406-6.995-1.207-1.895-1.579-4.907.579-6.275M169.518 138.466c1.047-1.117 2.537-1.445 3.989-.995.642 1.246.726 2.594 0 3.84-1.272.662-3.064 1.715-4.317.495-.629-1.111.071-2.267.328-3.34ZM305.133 143.495c.931-1.195 1.458-2.73 2.62-3.751.707 1.156 1.317 2.383 1.76 3.68-1.464.039-2.935.052-4.38.071ZM242.94 145.686c1.528-1.593 3.372-3.449 5.665-3.559.154 2.004.231 4.24-1.067 5.942-1.297 1.721-2.614 3.77-4.81 4.367-1.285.514-2.75-.738-2.724-2.042-.154-2.069 1.837-3.244 2.936-4.708M263.705 146.559a4.751 4.751 0 0 1 4.361-.032c1.343 2.306 2.582 5.897.032 7.836-3.674.122-6.159-4.682-4.393-7.804M195.512 147.266c1.914-.245 3.847-.604 5.768-.334 1.535.192 2.665 2.267 1.458 3.513-1.446 1.381-3.758.539-5.068-.623-.796-.809-2.075-1.304-2.158-2.556ZM307.465 150.907c2.986-1.432 6.32-.822 9.499-1.226 1.6 1.226 3.86 1.74 4.766 3.731.54 1.934 1.111 4.163.148 6.083-3.09 3.488-7.393 5.44-11.028 8.26-.842.668-1.664 1.419-2.223 2.364-.045 1.38.951 2.806.103 4.123-.765 1.734-3.257 2.415-4.753 1.227-1.548-1.272-2.839-3.289-2.319-5.376.308-3.224 2.402-6.051 5.004-7.843 2.164-1.682 4.553-3.031 6.911-4.386-2.987 1.066-6.346-1.054-6.956-4.073-.187-1.066.404-1.991.848-2.884ZM64.758 178.995c.09 1.201.25 2.396.553 3.571.661-.982 1.169-2.106 2.107-2.858 1.387-.803 3.025-.263 4.348.405.59-.405 1.214-.771 1.83-1.15-2.954.026-5.896-.013-8.838.032Zm13.097-19.918c1.503-2.004 4.342-1.747 6.282-3.153 1.914 1.304 3.327 3.192 4.599 5.106 1.213 2.601-.084 5.813-2.473 7.271.417.225.841.475 1.271.771 1.156-.11 2.827-.431 3.154 1.149.392 1.914-.276 3.905.032 5.864 1.381.887 3.09 1.561 3.783 3.199.617 1.24.867 3.179-.546 4.027-1.29.822-2.877 0-4.053-.668-1.612-1.06-3.648-1.766-4.547-3.616-.919.585-2.004.546-3.019.463-.68 1.413-1.201 2.98-2.363 4.085-1.49 1.387-3.257 2.447-5.094 3.307-1.959.938-4.169.245-6.237.245-.706 2.151-1.907 4.181-1.984 6.519-.129 2.858-2.814 4.451-3.976 6.821-.328 1.297 1.246 1.837 1.702 2.916 1.015 2.011 1.65 4.406.95 6.642-.623 1.984-1.143 4.033-2.196 5.851-.193.083-.584.237-.784.321.026-2.781.244-5.71-1.027-8.279-.72-1.349-.733-3.135-1.927-4.156-.026 1.349.751 3.051-.424 4.143-1.58.925-3.61 1.753-5.376.874-2.358-1.471-3.032-4.985-1.535-7.278 1.811-3.237 5.24-5.068 7.457-7.926-.527-1.182-1.137-2.37-1.105-3.687-2.35 1.696-5.37 2.711-6.744 5.499l-.373-.495c-.289-2.248.643-4.323 1.317-6.378 1.426-3.905 3.288-7.611 5.318-11.208-1.259-1.439-2.055-3.25-1.541-5.171.122-2.106 2.325-2.736 3.88-3.539.307.919.52 1.933 1.014 2.82 2.544-1.799 4.4-4.58 7.232-6.038.694 1.317 1.51 2.569 2.133 3.944-1.368.706-2.48 1.798-3.379 3.051 3.72-.013 7.483.315 11.15-.379 1.317-.334 2.435.604 3.43 1.323.591-1.67 1.587-3.096 2.66-4.477-.983.045-1.953.296-2.93.341-.423-2.203-1.245-4.349-2.716-6.089 1.175-.071 2.344-.129 3.507-.238-1.188-1.606-3.128-2.376-4.522-3.777M231.037 162.868c1.336-1.426 3.359-1.703 5.151-2.178.386 1.972.533 4.31-1.015 5.858-.976 1.477-3.256 2.049-4.65.828-1.137-1.348-.539-3.32.514-4.508M100.24 165.604c1.426-1.047 3.282-1.022 4.971-1.047.244 3.083-2.575 5.074-2.858 8.015-.231 1.253-.43 2.544-.276 3.848.963 1.991 3.166 2.781 4.656 4.258 1.657 1.6-.173 4.606-2.37 4.137-4.155-.533-8.138-4.137-8.395-8.446.032-3.938 1.343-8.042 4.272-10.765M173.474 170.69c1.072-2.139 3.519-3.424 5.877-3.057.122 1.355.006 2.806-.803 3.982-1.458 2.209-2.107 5.472-5.036 6.217-1.998.765-4.535-1.715-3.16-3.635 1.085-1.143 2.377-2.1 3.122-3.507M188.889 168.217c1.741-.796 3.61.084 5.113.977-1.214 1.188-2.788 2.614-4.631 2.196-1.535-.314-1.619-2.37-.482-3.173ZM132.836 171.326c.951-.841 2.646-.321 3.019.9 1.002 2.993 3.141 5.466 5.678 7.328 1.888 1.478 4.31 1.966 6.487 2.91.501.366 1.683.289 1.651 1.175-3.308 2.634-8.119 1.818-11.523-.186-2.73-1.933-5.19-4.618-5.877-7.99-.334-1.375-.661-3.122.565-4.137M124.685 175.148c.514-.598 1.233-.906 1.991-1.047.212 2.627-.757 5.093-1.708 7.483 1.317.809 3.173.751 4.085 2.171.848 1.194.128 3.025-1.278 3.429-1.317.264-2.666.071-3.995.026-.097 1.265-.277 2.691-1.285 3.616-.822.386-1.869.463-2.608-.128-1.246-.835-1.4-2.409-1.484-3.745-1.361-.771-3.416-1.458-3.32-3.378.366-2.235 3.044-2.46 4.862-2.621 1.227-2.203 3.012-3.995 4.74-5.806M281.579 177.884c1.336-1.766 3.288-3.032 5.524-3.231.109 1.824.237 3.86-.9 5.434-.905 1.542-2.864 3.077-4.701 2.178-1.42-1.047-1.047-3.276.077-4.381M306.378 181.449c.674-1.933 2.042-3.661 3.982-4.426 1.721.752 3.051 2.146 3.668 3.931 1.168.919 2.575 1.356 3.956 1.857 1.426.436 2.113 1.907 2.235 3.314.694.379 1.478.912 1.394 1.856.116 2.556-1.535 4.74-3.192 6.545-1.349 1.715-3.559 2.544-4.74 4.413-.489 1.182 0 2.768-1.169 3.667-1.002 1.176-2.749 1.002-4.105.707-1.952-.681-2.922-2.942-2.434-4.888.244-4.271 4.072-6.886 7.111-9.326-2.48.61-4.722-1.111-6.135-2.974-1.079-1.304-.648-3.147-.571-4.676M156.306 182.187c-.572-1.663.873-2.697 2.222-3.147.649.225 1.304.418 1.972.649 1.368 2.023 2.029 4.445 2.241 6.86.064 1.259.02 2.723-.918 3.699-1.169.855-3.128.392-3.552-1.072-.79-2.3-.951-4.773-1.965-6.989M270.43 182.669c1.484-.822 2.871.97 2.923 2.338.257 3.378.237 7.014-1.504 10.045-1.445 2.158-3.725 3.629-6.243 4.227-2.434.533-4.419 2.151-6.776 2.89-2.588 1.015-5.954-1.265-5.999-4.008 2.325-1.785 5.132-3.006 8.093-3.218 2.023-.263 4.477.187 6.063-1.4 1.767-1.477 1.767-3.982 1.857-6.076.064-1.651-.065-3.841 1.586-4.798ZM184.065 187.518c2.036.598 3.802 1.857 5.736 2.756 1.92 1.188 4.085 2.325 6.461 1.792.039-.308.129-.932.174-1.24 2.357-2.203 5.902-3.423 9.03-2.248 1.966.694 2.056 4.342-.391 4.342-1.934.116-3.289 1.567-4.843 2.524-2.101.745-4.323 1.452-6.584 1.118-4.535-.796-9.159-4.169-9.583-9.044M296.127 188.141c3.648-.128 6.5 3.238 6.949 6.61.418 2.222.225 4.689-1.034 6.622-1.098 1.721-1.817 3.738-3.481 5.016-2.049 1.677-4.612 3.257-7.354 2.993-1.805-.045-2.319-2.665-1.015-3.667 1.458-1.394 3.7-1.432 5.158-2.852 2.023-1.452 1.175-4.226 1.335-6.314.187-2.832-.276-5.614-.558-8.408" fill="#040606"/><path d="M77.963 188.945c.385-.045 1.169-.103 1.554-.148.482 1.15-.751 1.959-1.24 2.878-.944 1.143-1.592 2.884-3.243 3.128-1.272-.097-1.529-1.664-.983-2.55.81-1.568 2.216-2.833 3.912-3.308ZM237.414 190.004c.951-.571 2.139-.057 2.743.797.906 2.383-1.863 5.113-4.213 4.284-2.049-1.368-.501-4.515 1.47-5.081ZM161.135 196.767c.906-.854 2.396-.482 3.077.482 2.845 3.025 7.72 3.847 9.365 7.984.526 1.464-1.394 1.817-2.441 1.554-3.391-.944-6.423-2.832-9.23-4.907-1.49-1.15-2.357-3.706-.771-5.113ZM84.348 200.236c.656-.725 1.137-1.881 2.204-2.029 1.425.148 2.215 1.535 3.108 2.492.167 1.933-.507 3.796-.694 5.723 2.589 1.008 5.486 1.072 7.952 2.434 1.015.559 2.223.34 3.334.456-.013-.495-.026-.944-.026-1.374-3.513 1.034-7.001-2.223-6.853-5.678.102-1.78 2.916-2.37 3.796-.887 1.008 1.619 2.203 3.109 3.359 4.638.501-1.529 2.286-2.229 3.757-1.812 1.735.424 3.925.032 5.113 1.645 1.426 1.348.995 4.014-.732 4.894-1.201.796-2.704.61-4.06.591 1.208 3.449.077 7.245-1.682 10.322-1.092 2.383-2.775 4.521-4.875 6.114-1.343 1.079-3.758 1.105-4.689-.526-.996-2.094.16-4.394 1.477-6.051 2.473-3.192 5.26-6.661 5.132-10.932-1.445.064-1.978 1.683-3.16 2.319-2.139 1.22-4.85 1.586-7.239.951 1.465 1.169 3.873 3.063 2.261 5.087-3.18 1.881-6.892-1.189-8.048-4.15-.938.848-2.107 1.735-3.475 1.394-1.137-.43-2.248-1.291-2.537-2.511-.263-1.767.148-3.527.244-5.267.065-1.773-.597-3.546-.077-5.261.238-.982.829-1.785 1.388-2.569 1.638-.681 3.365-.507 5.022-.013ZM218.313 198.784c1.766-1.098 4.169.597 3.976 2.589.212 2.042-2.627 3.397-4.188 2.177-1.952-.919-1.606-3.905.212-4.766M116.264 200.833c.186-.103.539-.321.719-.424 1.677 3.026 2.396 6.391 2.582 9.834.874 1.201 1.978 2.248 3.43 2.723 1.452.501 1.792 2.473.996 3.681-1.066 1.259-3 1.316-4.458.809-2.049-.758-3.944-2.248-4.824-4.297-.957-2.023-.706-4.329-.578-6.474.097-2.139 1.221-3.996 2.133-5.852M156.775 204.9c.604-1.844 3.443-1.966 4.393-.405.733 1.079.424 2.569 1.246 3.635.579.745 1.381 1.548 2.441 1.323 1.985 0 4.342-.725 5.967.803 2.158 1.51 3.045 4.098 3.417 6.616 2.801 2.267 4.695 5.884 4.265 9.57 1.734-.417 3.051.977 3.469 2.544.687 2.665 2.999 5.402 1.419 8.215-1.439.758-3.552.494-4.515-.925-1.247-1.76-2.081-3.809-2.332-5.941-.642.038-1.278.077-1.914.16-1.407-3.032-1.503-6.416-1.895-9.666-1.856.411-2.691-1.356-3.783-2.467-.918-1.015-1.092-2.646-2.434-3.218-2.075-.931-4.188-1.772-6.378-2.389-3.064-1.028-4.477-4.978-3.366-7.855M310.662 206.537c.655-1.015 2.016-2.627 3.282-1.58a8.865 8.865 0 0 1 3.429 3.353c2.332-.116 4.876-.263 6.893 1.117 1.175.855 2.98 1.728 2.742 3.469-.379 2.074-.874 4.13-.886 6.262 0 2.871-2.274 5.119-4.657 6.372-3 1.586-6.744.97-9.551-.726-.919-.501-1.015-1.83-.366-2.556 1.214-1.844 3.635-2.12 5.678-2.146 3.128-.468 5.119-3.185 6.969-5.498-3.918-.925-6.577 4.092-10.527 2.402-1.683-1.13-3.148-2.742-3.925-4.618-.257-1.984.385-3.975.919-5.851M139.054 207.192l.418-.128c.546 2.864 1.015 5.845.404 8.722-.43 1.921-3.231 2.486-4.406.957-1.439-1.824-1.021-4.425.077-6.294.758-1.478 2.242-2.3 3.507-3.257" fill="#040606"/><path d="M122.321 208.355c1.574-.219 3.186.501 4.258 1.644-.886 2.011-4.425 2.55-6.005.951-.739-1.201.674-2.358 1.747-2.595ZM65.291 217.206c1.426-1.362 2.994-2.73 4.933-3.192 1.42.758 1.702 2.672 1.548 4.162-.507 1.49-1.021 3.051-1.997 4.335-1.324 1.349-3.36.977-5.068 1.201-1.092.578-1.92 1.503-2.794 2.358-.174 1.695-1.201 3.545-.238 5.189a20.107 20.107 0 0 1 2.133 6.032c-1.04-1.748-2.37-3.263-3.597-4.863-1.034-1.31-.777-3.063-.174-4.489-1.605 2.672-5.054 4.74-4.553 8.247 1.747.321 3.943.07 5.17 1.631.944.874.732 2.46-.167 3.308-.784.944-2.081 1.034-3.218 1.156-2.762.161-5.954-.668-7.367-3.276-1.541-3.128-1.073-7.116 1.143-9.801 1.702-2.12 3.86-3.802 5.832-5.633 1.632-1.336 2.904-3.077 4.734-4.156 1.182-.815 2.524-1.368 3.68-2.209M288.619 220.013c1.194-.887 2.504-1.612 3.596-2.627 1.426.822.977 2.717 1.035 4.11-.058 2.39-2.839 4.195-4.959 2.904-1.131-1.266-.739-3.244.328-4.387ZM216.636 219.621c2.479-.598 6.057-.431 7.104 2.382.648 1.696-1.458 2.043-2.627 2.274-2.12.206-4.882.61-6.314-1.361-.829-1.465.282-3.084 1.837-3.295ZM250.376 223.937c.546-2.518 3.218-4.162 5.691-3.892 1.104.167 1.753 1.528 1.027 2.46-.668 1.252-2.081 2.023-2.55 3.404-.135 1.901.585 3.815.174 5.729-.546 3.398-3.494 5.858-6.532 7.091-2.782 1.169-5.736-.109-8.607.411-1.657 1.516-3.957 1.767-6.096 1.696-1.959-.559-3.699-1.741-5.234-3.038-1.369-1.13-2.133-3.006-1.593-4.734.899-1.805 3.333-1.92 4.926-1.027 2.267 1.361 4.239 3.147 6.14 4.977.829.97 2.326 1.022 3.398.424 3.006-2.98 7.213-4.65 9.532-8.337.906-1.721-1.021-3.449-.276-5.164M128.166 224.123c.071 0 .218 0 .302-.012.655 1.894 1.843 3.59 2.203 5.6.488 1.812.796 4.188 2.839 4.921 1.683.584 2.736 2.049 3.263 3.706-.418.944-.553 2.331-1.766 2.646-1.915.918-3.906-.424-5.698-1.015-3.442-2.036-4.078-6.616-3.442-10.245.167-2.1 1.843-3.609 2.299-5.601M70.366 285.141c.385.238.77.508 1.175.79.99.232 2.165.161 2.987.906.257 1.4-.225 3.192 1.079 4.22 1.272-.495 2.383-1.368 3.34-2.312-.803-1.959-.97-4.098-.302-6.109-2.922.27-5.273 2.486-8.28 2.505Zm-.039-57.762c1.465-2.209 4.438-2.691 6.88-2.884-.18 2.107-1.44 3.995-1.183 6.199-.199 2.267 2.338 3.121 3.72 4.406 1.592 1.638 4.033 1.329 6.011 2.126.231-2.03 2.062-3.231 3.038-4.875 1.021-1.683 3.815-1.054 4.284.758.386 1.175.122 2.434-.057 3.641 1.984.463 4.13.09 6.037.945 1.953.796 3.809 2.395 4.271 4.534-1.246 1.548-3.378 1.844-5.253 1.683-2.615-.282-5.306-.218-7.804-1.124a8.618 8.618 0 0 1-1.067 1.214c.765 2.216.013 4.663.912 6.841.668 1.207 1.645 2.248 2.082 3.609-.38.013-1.163.013-1.555.026a8.03 8.03 0 0 0-.02.405c.425-.097.861-.161 1.298-.2 2.274-.089 4.297-1.413 6.597-1.252a30.499 30.499 0 0 1 4.4.135c.468.494.95.989 1.355 1.58.571 1.317-.508 2.993-1.921 3.128-1.631.36-3.186-.366-4.605-1.053.456 2.89 1.208 5.722 1.998 8.529-.052 3.115.995 6.109.95 9.211 1.657.411 3.212 1.323 4.978 1.118-.482-1.169-1.291-2.377-.931-3.668.398-1.304 1.117-2.544 2.299-3.263-.302-1.657-1.542-3.154-1.092-4.894.398-1.298 1.972-2.069 3.218-1.465.976.264 1.644 1.086 2.068 1.979 1.105 2.004 1.94 4.187 3.488 5.928.854 1.06 2.036 2.165 1.766 3.68-1.747.623-3.565.623-5.324.142-.977.719-1.703 1.856-2.968 2.094-2.64.924-5.337 1.881-8.17 1.753-1.715-.084-3.18-1.066-4.753-1.612-1.413-.45-2.062-2.023-2.107-3.359.47-2.448.495-5.062 1.87-7.194 1.2-2.011 2.46-4.13 2.344-6.564-.52-.322-1.137-.784-1.747-.354-2.081.906-3.649 2.621-5.608 3.719-2.466 1.439-6.217.36-7.257-2.383-.964 1.137-2.32 2.12-2.672 3.661-.103 2.326.398 4.663 1.085 6.892 1.13 2.094 3.025 3.591 4.599 5.344 1.137 1.413 1.702 3.186 2.518 4.805 2.774.064 4.733 2.183 6.371 4.187.99 1.266.739 3.186-.481 4.24-1.394.687-2.846.038-4.098-.604-1.876-.707-4.38-1.31-4.798-3.623a5.924 5.924 0 0 1-.752 4.034c-.79.437-1.907.617-2.415 1.426-.392 3.166-2.82 5.498-3.616 8.536 2.004.989 1.304 3.353.45 4.914 1.265.828 2.537 1.65 3.783 2.517-2.043.309-3.661-.97-5.383-1.747-1.38.546-2.594 1.85-4.226 1.407-1.06-.411-2.216-.976-2.8-1.978-.983-2.544-.206-5.254.7-7.682-1.034-1.413-2.416-2.647-2.846-4.413-.604-2.498-2.421-4.515-2.646-7.11-.096-1.76-1.22-3.154-1.696-4.779-.218-1.265-.102-2.543-.134-3.796.064.321.18.97.237 1.291.925-.167.867-1.259 1.246-1.869.739-1.811 1.83-3.436 2.704-5.164-1.56-.064-3.096-.424-4.29-1.477-.084.34-.238 1.021-.322 1.361-1.393-1.702-2.215-3.808-2.485-5.973 1.99.565 3.224-1.105 4.72-2.03 1.42-.905 2.64.501 3.495 1.497 1.747.462 3.577 1.432 4.284 3.205.784 2.653.173 5.447.88 8.132-.315-.18-.918-.534-1.227-.713-.385.912-.687 1.869-.636 2.89 1.6-.565 3.25-1.009 4.946-1.079-2.049-2.126-2.563-5.113-3.353-7.81-.135-2.416-.514-4.908.174-7.252 1.008-2.878 3.121-5.717 6.236-6.429 1.227-.328 2.326.244 3.25 1.021 1.092-1.375 1.998-2.871 3.27-4.072-.097-1.349-.347-2.647-.463-3.983 0-1.509.681-2.916 1.452-4.168-2.936-.777-6.224-.43-8.832-2.21-1.477-.687-2.46-1.978-3.654-2.986-2.351-1.028-4.618-2.814-5.357-5.37-.726-2.036-.34-4.297.34-6.282" fill="#040606"/><path d="M138.153 262.577c.25 1.953-.996 3.591-1.741 5.306-1.124 2.293-2.061 4.759-2.209 7.341 1.413.09 2.762-.315 4.066-.809-.572.925-1.17 1.856-1.208 2.98 1.792 1.188 3.603 2.389 5.049 4.008-.315-2.961-.623-5.986-.039-8.922.674-1.798 2.704-2.511 3.603-4.162-2.71-1.625-5.536-3.256-7.521-5.742Zm-24.459-36.887c1.927-.771 4.059-.559 6.063-.264 2.004.219 3.803 2.653 2.582 4.542-1.188 2.164-3.982 1.933-6.095 2.048-1.04.283-2.087.579-3.147.746 1.676.783 3.398 1.74 4.387 3.391.777 1.079 1.483 2.659.616 3.912-.783 1.451-2.537 2.697-1.952 4.566.456 2.28 1.297 5.113 3.558 6.198 1.464-1.618 3.372-2.8 4.599-4.611.507-.854 1.875-1.06 2.409-.109.603.52-.212 1.284-.289 1.92-.386.944-.212 1.998-.251 3.025 1.535-.456 3.135-.199 4.708-.045 1.381-1.567 3.668-2.627 5.717-1.785 1.201.668 1.291 2.094 1.631 3.295 1.034 1.779 2.685 3.051 3.924 4.676 1.619 2.261 4.233 3.41 6.276 5.228.758.475.95 1.4 1.297 2.177 1.169-2.222 4.792-1.689 5.498.643.508 2.273-.058 4.708.752 6.943.462 2.216 2.415 3.61 3.77 5.305.867-.013 1.728 0 2.608.045-1.927-.655-3.95-1.625-4.907-3.5-.418-.925-1.445-1.946-.726-2.948 1.811-1.041 3.629.366 5.235 1.124 1.432.815 3.404 1.072 4.271 2.652.411.957-.231 1.863-.72 2.659 2.37 1.324 1.831 5.254-.719 5.993-2.749.655-5.652 1.683-8.478.829-1.818-.508-2.615-2.383-3.674-3.777-1.24-1.721-1.67-3.976-3.424-5.305-.295 3.173-.051 6.699-1.882 9.486-1.143 1.645-3.359 1.388-5.067.964-2.846-.829-5.845-1.15-8.479-2.589.713 3.334.842 6.738 1.234 10.123.212 1.541.77 3.089.52 4.689-.231.841-.854 1.509-1.31 2.261-1.792-.521-2.917-2.075-3.514-3.758-.88-2.967-.61-6.089-.636-9.133-.045-.758.051-1.555-.417-2.165-1.253-.45-2.03.976-2.775 1.747-1.066 1.779-1.946 3.815-3.79 4.978-2.877 1.452-6.41 1.953-9.429.649-1.837-.675-3.076-2.724-2.858-4.638.013-1.207 1.169-1.92 2.21-2.177 2.274-.662 4.631.507 6.911-.148 2.614-.815 2.704-4.4 5.337-5.26-2.286-.945-4.997-1.985-5.883-4.509-.418-1.15-.938-2.435-.488-3.623.276-1.053 1.644-1.394 2.543-.957 1.837.585 2.948 2.46 4.792 3.019.745-4.625 3.141-8.755 5.967-12.396.661-1.715 1.381-3.437 1.972-5.165-1.85.893-3.886.521-5.826.662-2.479 1.567-5.729 3.777-8.677 2.178-1.407-1.465-2.878-2.852-4.683-3.784.212 1.882 1.979 3.019 2.48 4.805.764 1.965 1.29 4.117.809 6.249-1.388.848-2.839-.796-4.143-1.284-2.704-2.255-5.228-5.595-4.811-9.32.173-1.548.623-3.68 2.531-3.79-.739-2.241-1.953-4.412-1.856-6.84.07-2.075 1.509-3.79 1.599-5.851-.514-1.06-1.856-1.336-2.717-2.017-.848.854-1.824 1.869-3.122 1.798-1.991-.218-4.04-.886-5.324-2.492-1.04-1.111-.938-2.755-.816-4.156 2.447-.424 5.036-.79 7.476-.045.893.366 1.651-.578 2.544-.507.771.071 1.548.212 2.344.289-.584-.424-1.169-.886-1.908-.944-.456-.932-.969-1.882-1.072-2.897.289-.983.739-1.908 1.085-2.852 1.189.296 2.454.296 3.61-.173M272.093 225.568c1.143-.635 2.37-.012 3.487.341 1.542.52 2.923 1.387 4.323 2.203.052.128.161.392.212.52-1.458.874-3.012 1.908-4.798 1.792-1.548-.038-3.308-.424-4.245-1.779-.771-1.073-.277-2.736 1.021-3.077ZM143.28 227.354c3.359-.924 7.027.219 9.756 2.249-.115.969.289 2.299-.706 2.935-1.619 1.426-3.925.379-5.729-.039-2.088-.469-3.289-2.408-4.002-4.252.174-.231.508-.661.681-.893" fill="#040606"/><path d="M133.71 331.169c2.98-.116 6.076.366 8.94-.598-1.053-.571-2.048-1.323-2.492-2.453-.372-1.176.219-2.274.553-3.34-2.73 1.644-4.785 4.143-7.001 6.391Zm-2.557-15.621c-.109.63-.257 1.291-.481 1.959a19.203 19.203 0 0 0 .006 3.989c1.105 2.196-.013 5.1-2.569 5.491.16.09.469.277.623.36 2.942-.302 5.376-2.164 8.125-3.051-4.323-1.683-5.935-7.296-4.605-11.478.064-.218.173-.674.237-.899-.539 1.163-1.047 2.357-1.336 3.629Zm142.854-12.705c-.308 2.358.886 4.676.141 7.021 1.06.282 2.133.571 3.225.79.526-.508-.199-1.028-.386-1.433-1.65-2.138-1.419-5.112-.295-7.437-1.021-.039-2.036.205-2.685 1.059Zm-109.428-.668c.128 1.118.693 2.255.212 3.392-.636 1.914-3.045 2.884-4.869 2.055-1.143-.784-2.055-1.856-3.064-2.788a9.732 9.732 0 0 0-1.683.033c-1.355 1.111-2.164 2.665-1.753 4.464.751.815 1.214 1.804 1.002 2.961-.212.205-.36.468-.437.802 1.188-1.817 3.436-2.98 5.607-2.691 1.195.097 1.651 1.561 2.788 1.773.951-.565 1.74-1.664 2.98-1.477.739.218 1.407.655 2.081 1.059.944-2.569 2.075-5.305 4.496-6.808 1.381-1.021 3.135-1.15 4.792-1.034-2.017-.482-3.629-1.876-4.805-3.501-.635-.674-1.233-1.926-2.338-1.56-1.927.648-3.372 2.184-5.009 3.32Zm132.005-10.193c.437-.07 1.317-.218 1.747-.295.893-.842.206-2.236.315-3.276-1.021.97-1.837 2.12-2.062 3.571Zm-8.96-8.164c-1.535 2.91-6.494 1.529-7.033-1.464-.328-1.034.006-2.049.224-3.032-1.901.623-3.378 2.011-4.335 3.751.758.578 1.734 1.182 1.753 2.3.219 2.556-2.036 4.233-3.275 6.204 1.066-.423 2.145-.828 3.262-1.117.771 2.389.341 5.19-1.798 6.75 1.201.155 2.351.45 3.501.81 1.792.597 3.596-.322 5.279-.887.874-.925.746-2.582 1.895-3.308.835-.494 1.786-.725 2.634-1.188.713-1.631.789-3.494 1.669-5.08-.899-.598-2.28-.9-2.44-2.133.199-2.749 2.261-5.369 4.888-6.179-.341-.327-.694-.693-.996-.95-1.67 1.914-3.719 3.468-5.228 5.523Zm18.652-53.946c.623-1.227 1.645-2.634 3.154-2.762 1.965.148 3.089 2.209 3.359 3.995.405 1.49-.084 3.192.732 4.592.745 1.317 2.749 1.169 3.34 2.64.116.244.386.72.514.957-.199.341-.398.7-.571 1.099.597.045 1.22.109 1.83.205.206 1.304.533 2.948-.636 3.95-1.997 1.831-4.554 2.961-7.104 3.764.354 1.856 2.704 2.325 3.372 3.963.7 4.933.341 10.425-2.973 14.4-1.047 1.189-2.801 1.568-4.297 1.163-1.484-.668-1.741-2.428-1.658-3.86-1.149-.013-2.305-.09-3.429.115-.855.97-1.394 2.171-1.703 3.424 1.471 1.195 3.148 2.081 4.721 3.166 1.702 1.882 1.959 4.593 1.748 7.053-.219 2.498.436 5.119-.572 7.528.449-1.253 1.528-.219 2.062.385 2.671 2.524 1.233 8.119-2.589 8.549-1.426.122-2.858-.205-4.271-.302-1.175-.103-1.702-1.278-2.422-1.997-.783.391-1.567.796-2.344 1.201a54.966 54.966 0 0 0-1.15 2.941l1.426.129c-.405.443-.835.841-1.227 1.342.81.129 1.805.032 2.46.655.983.81 1.163 2.37.662 3.507-1.207 2.255-4.085 2.21-5.935 3.7-.013 1.4.019 3.077-1.272 3.989-1.946 1.348-3.744 3.108-6.134 3.584-1.316.507-2.209 1.683-3.449 2.338-2.113 1.265-4.676 2.55-7.155 1.464-2.569-1.162-5.415-.867-8.138-.912-1.233-.225-1.625 1.208-1.997 2.094-.7 3.057-1.022 6.237-2.21 9.172-.546 1.323-2.087 1.843-3.411 1.933-2.472.219-4.791-.802-7.071-1.567-3.597-1.483-5.563-5.145-8.896-6.956-1.041 1.227-1.477 2.845-2.415 4.162-1.856 2.698-4.837 4.895-8.234 4.882-5.486.391-10.566-3.096-13.296-7.676-1.317-2.197-2.004-4.708-3.456-6.827-1.297.314-1.933 1.714-3.218 2.003-2.774.649-5.639.739-8.465.81.135 6.654-.604 13.302-.116 19.95.084 2.961 1.137 5.767 1.317 8.722.366 2.319-.032 4.792.906 7.033.732 1.831 1.599 3.745 3.147 5.049 3.603-.013 7.091 1.265 10.302 2.839-.295 1.458-1.002 2.896-2.421 3.552-1.728 1.111-3.944.346-5.704 1.348-2.023.925-3.808-.97-5.639-1.58-1.683.347-3.044 1.741-4.856 1.773-2.485.649-4.682-.976-6.282-2.685-1.432 2.396-4.412 2.178-6.724 3.103-1.824.841-3.475-1.105-3.63-2.788-.905-2.666 1.047-4.991 1.298-7.573.27-2.396 0-4.843.629-7.174.18-.919 1.253-1.914 2.172-1.227 1.265.829 1.123 2.537 1.342 3.886.103 2.903.687 5.781.687 8.703 1.246.552 2.576.88 3.944.854.507-1.58 2.216-2.081 3.712-1.978 1.401.353 2.717.97 4.111 1.4-3.179-4.335-3.944-9.917-3.789-15.139.102-2.826-.296-5.658.237-8.433.501-5.794-.205-11.594.013-17.407-2.345-.276-4.592-1.04-6.519-2.402-1.542-1.233-3.636-.43-5.255.251-1.162.655-2.71.623-3.551 1.76-1.195 1.316-1.748 3.031-2.563 4.605-1.323 2.081-.713 4.708-.79 7.04.186-1.067 1.182-1.619 2.197-1.285 1.374.193 1.644 1.76 2.087 2.858.546 1.844 1.355 3.925.456 5.819-.289.848-1.175 1.433-2.068 1.414-1.002-.411-1.728-1.234-2.589-1.825-.308 5.409.187 10.83-.173 16.257-.257 2.73-1.169 5.344-1.914 7.984.899.083 2.062-.379 2.813.16.142 1.76-1.246 3.469-2.916 4.053-1.927 1.176-4.168.309-6.249.257-2.666-.115-5.511.842-8.074-.302-2.698-2.203-6.243.296-9.262-.764-2.287-.315-2.248-4.214-.032-4.586 1.715-.642 3.558-.25 5.324-.038 2.955.218 5.91.687 8.884.443 1.817-1.529 3.673-3.295 4.303-5.672.604-2.248.95-4.567 1.323-6.847.289-7.784.116-15.582.263-23.367-1.593 1.908-4.958 2.409-6.564.251-.88-1.683.321-4.226 2.377-4.169 1.515-.141 3.661-1.002 4.605.688-.109-1.092-.206-2.358.604-3.199 1.535-1.728 2.742-3.712 3.956-5.659.989.521 1.201 1.58 1.246 2.64.174-.597.418-1.22.443-1.811-.828-.977-2.19-1.863-1.226-3.25.308-1.978-.161-4.201-2.056-5.216-2.562-1.907-6.647-.437-7.36 2.672-.2 1.715-1.266 3.122-2.441 4.329 1.541 2.48 4.766 1.619 7.194 1.754.501 3.205-2.069 6.532-5.428 6.327-2.01-.424-4.008-1.24-5.582-2.589-.366 2.332-.783 4.721-1.901 6.853-1.503 2.255-5.408 2.602-7.001.238-.783-1.452-.565-3.282.187-4.676.635-1.15 1.997-1.272 3.16-1.387.064-1.433-1.914-1.028-2.396-2.113-.739-1.259-1.606-2.435-2.717-3.353-.315 2.023.552 4.2-.392 6.153-.27.874-1.207 1.207-1.927 1.676.957.193 2.055.701 2.068 1.87.328 1.104-.513 1.991-1.008 2.928.295.154.886.469 1.182.63-.559 2.318-2.762 3.603-4.856 4.329-2.1.938-4.496.674-6.596 1.606-1.934.79-4.117 1.631-6.153.687-1.336-.308-2.172-1.811-3.501-1.869-2.396 1.625-5.421 2.107-8.234 1.606-2.274-.521-3.886-2.293-5.742-3.559-2.306-1.586-4.355-3.757-5.255-6.448-.815-2.859-.745-6.096.559-8.781-1.098-1.541-3.333-.854-4.502-2.222-.437-.437-.829-.912-1.24-1.342-.52 1.695-.597 3.815-2.267 4.855-1.484 1.054-3.636.045-4.284-1.535-1.58-3.571.019-7.958 3.275-9.962 1.568-1.766 3.963-1.927 6.109-2.421 2.171-.469 4.367-1.266 6.615-.848 1.047.154 1.272 1.355 1.754 2.139 2.531.603 4.592 2.344 6.23 4.278.032.244.109.719.141.95-2.158.694-4.104 1.882-6.095 2.929a18.122 18.122 0 0 0-1.689-.463c-.675 1.542-2.024 2.602-3.225 3.745.636.841 1.356 1.625 2.075 2.441.899 1.028 1.207 2.415 2.023 3.526 1.214.411 2.601.045 3.88.238.282-2.024-.54-4.342.835-6.083.026-2.556 1.522-4.624 2.813-6.699.507-.829 1.362-1.291 2.139-1.76-2.274-1.085-2.749-3.789-3.032-6.025 2.383.745 5.273 2.203 5.351 5.068 2.068-.026 3.558 1.509 5.279 2.422 2.602 1.265 3.372 4.502 3.372 7.161 2.236-1.715 5.357-1.541 7.997-1.008-.475.661-.957 1.336-1.445 2.023.873-.096 1.779-.173 2.652-.353-.102-3.36-.115-6.699-.109-10.039-.07-1.914 1.137-3.462 1.94-5.081.629-1.323 1.908-2.094 3.064-2.878-1.336-1.856-2.704-4.252-1.272-6.435.629-.296 1.259-.534 1.882-.784 2.768.649 3.25 3.912 5.485 5.338 1.484.924 3.09 2.376 4.959 1.997.828-1.548 1.233-3.391 2.665-4.515 1.844-1.812 4.882-1.754 7.014-.495 2.306 1.034 3.469 3.546 5.787 4.56 2.852 1.221 5.755 2.383 8.716 3.341 1.799.655 3.732.154 5.595.295.861 0 1.991.636 1.702 1.67-.43 2.518-3.314 3.192-5.023 4.695.777.63 1.689.983 2.704.951.694-.784 1.317-1.612 2.152-2.229 2.351-1.086 5.036-.366 7.194.861 1.914-1.176 4.187-.598 6.281-.36 1.516.205 2.936 1.374 4.509.777 2.312-.706 4.952-.295 6.873 1.208 2.903 3.089 3.064 7.771 5.967 10.874.989 1.117 2.312 1.856 3.571 2.659.219.038.636.109.842.148.134-1.529.417-3.161 1.522-4.31 2.049-2.178 4.9-3.257 7.476-4.651 1.734-.982 3.937-1.522 5.832-.623 1.998.752 3.379 2.441 4.503 4.195 1.214 2.132 3.879 2.807 6.166 3.006.693-1.112 1.162-2.338.796-3.629-.539-1.991.443-3.995 1.882-5.331 2.28-2.409 5.685-3.559 8.947-3.501-.102-2.858-.366-6.763 2.454-8.433-1.651-.797-2.081-2.73-1.073-4.214-3.674 1.612-7.155 3.623-10.514 5.787-.321 1.664-.251 3.411-.887 5.029-.68 1.169-1.978 1.908-3.294 2.21-2.107-1.028-1.786-3.725-2.165-5.633-2.479-.257-4.284-2.107-6.121-3.584-1.811-1.811-4.194-2.897-6.539-3.809-.938.559-1.785 1.388-2.954 1.4-1.606.187-2.987-.802-4.002-1.92-1.535.218-3.121.655-4.624.103-2.441-.7-4.548-2.139-6.712-3.385-1.703-1.156-3.841-.244-5.685-.867-2.999-.964-5.543-3.128-7.187-5.787-.347-.534-.315-1.253-.411-1.786-.129-.18-.379-.501-.508-.662 1.06-.205 2.133-.507 3.231-.449 2.717.642 4.586 3.019 7.252 3.815 2.106.976 3.956 2.473 6.153 3.314 1.426.405 2.89.739 4.387.867 1.978-1.079 3.635-2.742 5.793-3.494 2.345-.7 4.895-.115 6.912 1.246 1.637 1.112 3.352 2.075 5.106 3.006 2.409 1.349 3.911 4.194 6.738 4.779.186-2.004 3.012-2.82 4.142-1.131h1.054c.989-.629 2.119-.918 3.269-1.072-2.242-1.066-3.597-3.147-5.325-4.824-1.31-2.036-2.363-4.984-.713-7.123 1.503-.893 3.584-.533 4.92.559 1.491 1.419 3.347 2.409 4.657 4.053 1.439 1.13 3.423 1.15 5.061 1.952.861-1.124 1.76-2.203 2.576-3.359.296-.308.276-.559-.051-.771-1.535-1.419-2.261-3.847-1.311-5.755.829-1.792 1.818-3.686 3.61-4.656 2.582-.405 5.209-.45 7.823-.687 1.375-.084 2.878-.476 4.143.282 1.272.765 2.794.289 4.194.231-.629-1.304-.019-2.652.09-3.969-.957-1.786-2.492-3.892-1.458-5.961 2.319-4.971 8.241-7.444 13.508-7.039.392 2.145 1.246 4.188 2.633 5.89 2.659-2.293 3.841-5.768 5.46-8.8-.867-.867-1.889-1.695-3.186-1.599-1.747-.167-3.892.7-5.267-.758-1.451-1.779-1.683-4.946.36-6.384 1.907-1.651 4.419-2.114 6.744-2.878-2.499-.617-4.085-3.134-4.265-5.562-.18-2.056-.225-4.15.321-6.134M208.222 230.36c1.221-.52 1.972-1.715 3.225-2.177-.322 1.863-1.33 3.513-1.625 5.402-.591 2.1-2.062 4.714-4.618 4.489-2.236-.128-3.128-3.25-1.67-4.753 1.297-1.374 2.973-2.248 4.688-2.961M156.858 235.389c.841-1.798 2.306-3.455 4.123-4.316 2.274-.462 3.507 2.428 2.884 4.278-.109 1.753-.694 3.783.732 5.202 2.968 3.257 7.811 2.043 11.369 4.15-2.82 1.432-6.037 1.824-9.165 1.702-3.27-.495-6.905-.816-9.384-3.276-2.191-2.004-.919-5.254-.559-7.74ZM69.75 238.434c1.766-.88 3.622.09 5.183.944l.77.7c1.818.668 1.51 3.591-.282 4.111-1.452.681-2.75 1.638-4.085 2.524-.154 1.407-.276 2.903-1.118 4.143-1.233 1.799-.289 4.047-.385 6.076-2.807-.912-5.383-2.717-8.356-3.295.295-1.83 1.695-3.16 2.331-4.83 1.15-2.967 1.137-6.211.822-9.313.732.559 1.452 1.15 2.293 1.567 1.092-.706 1.407-2.364 2.826-2.627M178.181 246.861c.777-.861 1.901-1.201 2.955-1.542.648.257 1.284.469 1.952.745.546 1.285 1.086 2.826.199 4.117-1.882 2.73-3.07 6-3.16 9.32-.083 1.728 1.169 3.109 1.51 4.766.192.854.398 2.017 1.425 2.299 2.396.354 4.831.206 7.239.27-.514 1.362-1.946 2.017-3.314 2.248-2.499.392-5.113.18-7.534-.578-1.953-.713-2.563-2.922-3.841-4.367-1.272-1.426-2.223-3.109-2.332-5.043-1.227.277-2.633.771-3.757-.077-2.223-1.445-4.085-4.38-3.057-7.033 2.376-1.336 5.241-.032 7.142 1.6.854-2.634 2.652-4.811 4.573-6.725" fill="#040606"/><path d="M195.126 245.897c.919-.276 1.933-.783 2.871-.244 1.041.199.719 1.368.925 2.165 2.781.539 5.132 2.196 7.849 2.973-.109 1.035-1.349.688-2.01 1.079-1.4.688-2.769 1.459-4.259 1.94.096 1.516-.257 3.302-1.817 3.989-1.073.758-2.371-.096-3.514.295.302.925 1.49 1.291 2.068 2.075 1.426 1.657 2.704 3.462 4.381 4.92-.296-4.188 2.729-8.504 6.885-9.448 2.01-.289 2.056-3.424 4.297-3.154 2.248.334 2.531 3.302 1.812 5.068-.412 1.496-1.439 2.704-2.576 3.757 1.528-.237 3.038-1.085 4.605-.648 1.009.141 1.683 1.162 1.657 2.164-.437 1.978-2.653 2.64-4.31 3.295.334.309.681.54.97.989-.205.713-1.079.842-1.592 1.298-1.067.674-1.992 1.837-3.379 1.805-2.544-.084-5.087-1.054-6.853-2.904.507 2.428-2.274 4.619-4.49 3.417-2.209-1.284-3.982-3.359-4.785-5.793-.732-1.869-1.105-4.252.315-5.858.565-.495.629-1.124.366-1.753-1.69-1.002-3.597-2.107-4.259-4.066-.616-1.856.649-3.629 1.882-4.875 1.053-.758 2.261-1.349 2.961-2.486M286.306 248.512c1.503-2.165 5.639-.944 5.286 1.869-.758 3.976-2.075 8.048-4.792 11.157-2.087 2.684-4.65 5.286-8.073 6.108-2.293.597-4.535-.36-6.751-.771-2.171-.379-4.181-1.702-5.286-3.61-1.715-2.588-1.972-5.832-1.702-8.844-1.959.315-3.796-.578-5.73-.591-1.297 3.841-3.127 7.663-6.294 10.309-1.272 1.066-3.789.501-3.95-1.31-.315-1.42.803-2.473 1.606-3.456 2.402-2.627 3.789-5.928 5.44-9.018.456-1.477 1.85-2.588 3.404-2.575 2.377.134 5.093.565 6.481 2.742.79.887.263 2.049.18 3.077 1.696 1.83 2.781 4.104 4.207 6.14.835 1.086 2.049 2.177 3.526 2.075 1.593-.097 3.212-.045 4.805-.309 2.761-1.316 5.067-3.571 6.377-6.333 1.009-2.113.168-4.611 1.266-6.66M225.172 253.258c.417-.809 1.708-1.073 2.248-.264.809 1.279 1.509 2.64 2.415 3.861.983 1.573 2.473 2.967 2.653 4.933-1.792.417-3.623-.559-4.586-2.037-1.336-1.939-2.525-4.11-2.73-6.493ZM56.5 255.705c1.47-.944 3.3-.835 4.938-.488 2.358.032 4.034 1.875 6.23 2.466.842 1.137-1.348 1.195-1.939 1.741-1.728 1.381-4.105 1.297-5.903 2.556-1.606.938-4.322.418-4.855-1.554-.803-1.722.205-3.623 1.528-4.721M214.351 269.36c2.466-.379 5.036-.886 7.502-.16 2.454.289 4.374 2.704 4.207 5.164-.141 1.573.437 3.218 1.702 4.245 2.692 1.439 5.845 1.696 8.845 1.837 1.104-1.766 2.254-3.513 3.661-5.067 1.355-1.356 3.198-2.576 5.222-2.281.918.039 1.888.758 1.863 1.78.115 1.393-1.189 2.28-2.075 3.153-2.268 1.927-3.334 4.888-5.646 6.764-2.556 1.759-5.768.841-8.581.468-2.865-.366-5.877-1.303-7.74-3.635-1.291-2.107-1.895-4.573-2.164-7.001-2.801-.334-6.096 1.689-8.466-.546-1.657-1.509-.122-4.207 1.67-4.721M172.664 271.641c.533-.623 1.484-.418 1.985.122 1.284 1.098 2.441 2.46 3.096 4.046.771 1.869-1.426 4.105-3.321 3.34-1.747-.668-2.409-2.633-2.576-4.329-.09-1.105-.096-2.428.816-3.179M193.48 278.044c1.15-1.105 2.936-2.049 4.516-1.304 1.702.559 2.055 3.051.912 4.31-1.118 1.291-2.069 2.755-3.411 3.834-1.118.816-2.518.617-3.725.142-1.696-.758-3.456.192-5.055.732-4.072 1.522-9.108 1.329-12.557-1.503-.019-.816-.674-1.972.283-2.422 1.67-1.374 3.892-.693 5.819-.488 2.261.392 4.554.803 6.68 1.715 1.117.456 2.344.475 3.526.585-.347-2.383 1.599-4.002 3.012-5.601M259.947 276.805c1.882-.52 4.335-.662 5.774.893.469 1.072.514 2.678-.526 3.455-2.55 1.362-6.038.013-7.329-2.492-.552-1.362 1.22-1.49 2.081-1.856ZM194.291 287.537c1.465-.7 3.103-.925 4.657-1.361.912.334 2.03.494 2.576 1.438.886 1.246.501 3.148-.739 4.034-2.036 1.349-5.138 1.06-6.558-1.034-.392-.951-.687-2.274.064-3.077M106.925 290.036c2.209-.058 3.417 2.685 2.582 4.503-.668 2.164-2.922 3.481-5.151 3.147-1.85-.084-2.447-2.133-2.691-3.642 1.605-1.471 2.967-3.623 5.26-4.008M115.557 294.262c2.178-1.201 4.876-.989 7.015.219.179.481.353.976.552 1.496-.167.649-.334 1.272-.488 1.959-1.581.623-3.199 1.189-4.856 1.58-1.388.392-2.524-.738-3.34-1.676-.764-1.278.225-2.698 1.117-3.578M84.104 300.833c-.855-1.869.301-4.072 2.01-4.933 1.734-.346 3.526-.025 5.28.103 1.708.116 2.98 1.413 4.117 2.582 2.177.932 4.785-.154 6.744 1.445-.064.88.032 2.293-1.252 2.293-2.017-.109-4.034.052-5.987.623-1.368.925-1.252 2.711-1.792 4.124-.488 1.362-.617 2.813-.617 4.271 1.844-.006 3.694-.135 5.473-.661.918 3.025 2.511 5.819 4.734 8.093-1.42.822-3.199.07-4.637-.418-2.666-.931-4.69-3.064-6.109-5.427-.103.815.02 1.663.045 2.543.796.553 1.843 1.015 2.075 2.068.398 1.157-.232 2.435-1.304 2.974-1.51.733-3.102 1.818-4.85 1.491-1.817-.347-3.629-1.581-4.04-3.469-.23-1.741-.128-3.507-.07-5.228.038-2.056 1.188-3.822 1.586-5.787.276-1.6 1.407-2.794 2.383-3.995-1.484-.469-3.211-1.105-3.79-2.692M219.784 297.224a28.156 28.156 0 0 1 6.044-1.002c1.863-.122 3.283 1.355 4.175 2.845 1.067 1.67 1.234 3.738 1.009 5.691 1.548-.116 3.109.09 4.624.449.232-2.196.797-4.322 1.998-6.172 1.079 2.036 3.346 3.134 4.213 5.324 2.017.129 4.086.309 6.07-.25 2.666-.565 5.074 2.723 3.713 5.126-1.272 2.858-4.946 2.768-7.592 2.71-2.011-.347-3.7 1.233-5.704.983-3.134-.276-5.736-2.248-8.388-3.738-1.413-.919-3.475-.347-4.593-1.754-1.329-1.85-.077-4.143-.456-6.179-3.565.18-6.943 1.529-10.476 1.773 1.664-2.017 2.961-4.541 5.363-5.806M202.775 297.416c1.612-.886 3.687.045 4.483 1.638.835 1.651 2.069 3.032 3.45 4.252.681.058 1.355.225 1.638.97-1.645.745-2.762 2.852-4.792 2.447-3.038-.18-5.292-2.704-6.217-5.427-.399-1.426.276-3.026 1.438-3.88M138.892 302.002c1.554-.565 2.781-1.785 4.355-2.312 1.939-.379 3.924 1.606 3.372 3.558-.508 1.831-2.454 2.614-3.996 3.424-2.537 1.214-6.012.989-7.906-1.246-1.246-1.42-.823-3.424-.868-5.126 1.844.09 3.071 2.248 5.043 1.702M184.342 321.515c.16-1.252 1.175-2.569 2.556-2.351 1.259-.179 1.991 1.227 2.049 2.319.051 1.946.128 4.066-.996 5.781-1.143.462-2.389.424-3.513-.013-.783-1.85-.681-3.867-.096-5.736M193.251 329.107c1.239-.694 2.505.732 2.659 1.907.315 2.512.276 5.132-.584 7.541-.508 1.124-2.583.964-2.698-.372-.675-2.91-1.323-6.578.623-9.076M186.333 337.759c.706-1.279 2.884-.842 3.173.539.385 1.368.147 2.942-.694 4.124-.341.295-.559 1.111-1.182.873-1.259-.77-1.426-2.633-2.929-3.038.007-.058.013-.154.013-.212 1.169-.154 1.028-1.541 1.619-2.286M191.965 354.054c-.013-1.548 1.516-3.128 3.103-2.486 2.029.855 2.537 3.385 2.132 5.37-.135 1.034-1.304 1.278-2.068 1.779a26.634 26.634 0 0 0-1.908-.822c-.623-1.201-1.464-2.441-1.259-3.841M183.713 355.127c.777-.289 1.034-.007.79.809-.771.218-1.035-.051-.79-.809ZM221.191 358.113c1.098-.828 2.454-.167 3.681-.135 2.119.148 4.534.065 6.3 1.433.829 1.509-.34 3.712-2.042 3.963-1.843.533-3.79.636-5.678.462-2.563-.148-4.355-3.95-2.261-5.723" fill="#040606"/><path d="m199.938 353.679-11.917-3.972 41.707-59.58h144.979l27.805 63.552H388.61v91.357H199.938v-91.357Z" fill="#fff"/><path d="M326.6 299.131c-31.8.207-63.608-.186-95.401.279-2.392 3.373-5.177 6.466-7.254 10.046-1.102 1.876-2.885 3.144-4.246 4.784-1.647 2.449-3.43 4.812-5.37 7.017-2.743 4.576-6.194 8.693-9.001 13.219-1.375 3.265-3.881 5.807-6.022 8.571-1.719 1.704-2.091 4.282-3.924 5.9 1.067.129 2.126.301 3.208.416 11.063.229 22.183.164 33.289.171 5.385-.035 10.784.129 16.162-.322 5.743-.265 11.486-.071 17.236-.222 7.16-.057 14.299-.515 21.46-.444 31.772-.15 63.543-.121 95.322-.143 3.774-.043 7.533.688 11.307.215-2.886-5.02-6.28-9.796-8.407-15.202-1.36-2.843-3.129-5.514-3.974-8.564-3.286-6.71-8.206-12.56-11.142-19.47-.902-2.306-2.477-4.253-3.623-6.416-13.211.158-26.423.229-39.62.165Zm7.154-30.447c.028 6.215.064 12.431.1 18.646-.007 1.21.186 2.42.372 3.623 1.354-.021 2.714-.021 4.075-.021.014-7.462 0-14.923.021-22.384-1.525.057-3.043.1-4.568.136Zm-6.466-4.325c.644-1.296 2.148-2.084 3.58-2.034 1.926.014 3.881-.1 5.771.358 2.528.566 5.213-.387 7.684.509 1.539 1.059 1.776 3.1 1.812 4.84.05 7.612-.029 15.245.007 22.871 6.58.05 13.168.036 19.742.022 1.274.028 2.47-.666 3.737-.502 1.339.387 2.385 1.583 2.671 2.951.695 2.778 2.242 5.227 3.681 7.676.859 1.339 1.081 2.993 1.94 4.332 2.865 4.69 5.729 9.373 8.607 14.042.96 1.446.946 3.258 1.819 4.755 1.01 1.811 1.841 3.723 2.864 5.542 1.347 1.926 1.39 4.447 2.843 6.337 2.156 4.232 4.375 8.457 6.158 12.889.466.953 1.59 1.819 1.146 3.022-.215.867-1.146 1.203-1.761 1.74-.244 1.339-.702 2.864-2.134 3.373-2.363.83-4.819-.301-7.225-.244.121 15.052-.058 30.125.358 45.162.229 15.088.172 30.175.15 45.263 3.358.53 6.781.458 10.175.666 2.342-.187 4.719-.366 7.025.157.924.423 1.733 1.132 2.062 2.12-2.356 1.196-5.098.687-7.476 1.718-4.024.38-8.091.416-12.123.623-1.367.716-2.362 2.277-4.067 2.177-1.26.115-2.205-.78-3.251-1.282-1.99-.422-3.874 1.003-5.843.373-1.453-.33-2.005-1.776-2.635-2.95 1.26-2.227 4.783-1.919 5.499-4.59.373-.924 1.884-1.125 1.776-2.278.043-11.693.007-23.372.065-35.044.043-6.294-.143-12.581.25-18.854.194-9.222.122-18.445.222-27.661-1.475.623-3.107.387-4.661.422-10.619-.136-21.246.172-31.85-.257-40.15-.387-80.3.021-120.442-.323-6.209-1.052-12.446.867-18.081 3.344a2098.98 2098.98 0 0 1-.115 46.065c-.086 5.385-1.389 10.705-1.052 16.125-.136 6.166.716 12.324 1.124 18.461 2.814.114 5.628.064 8.435.25 2.506.115 4.253 2.163 5.757 3.931-1.024 1.39-2.313 2.9-4.224 2.85-1.619-.243-3.23-.465-4.863-.594-1.539-.659-3.157-1.174-4.862-1.017-1.919-.215-2.857 2.163-4.776 2.091-1.833-.071-2.914-2.069-4.79-1.998-2.8-.143-5.342-2.005-8.213-1.303-3.509 1.439-7.44 1.303-11.142.788-2.213-.015-3.566-3.237-1.619-4.576 3.194-1.69 6.953-.251 10.348-1.038 2.728-.738 5.635-.487 8.356.157.909 0 2.234.323 2.857-.544.05-5.843.974-11.636.795-17.479.115-10.397-.237-20.816.394-31.192.035-12.996.057-25.986.028-38.982-2.749.551-5.793 1.124-8.392-.294-1.948-.888-4.497-1.396-5.499-3.494-.788-2.578 1.389-4.49 2.714-6.395 2.048-2.527 2.613-5.936 4.74-8.406 1.275-1.719 2.37-3.538 3.759-5.17 1.655-2.027 2.149-4.698 3.76-6.738 1.904-3.473 4.489-6.509 6.437-9.946 2.492-2.815 4.54-5.958 6.523-9.116 2.907-2.614 4.411-6.294 6.917-9.23 1.189-1.697 2.657-3.287 3.173-5.349.472-2.005 2.821-2.757 4.676-2.671 32.595.057 65.183.057 97.785.129 1.081-7.819.086-15.746.731-23.594.057-1.01-.337-2.055.143-2.986" fill="#040606"/><path d="M232.587 306.521c6.223-.114 12.452-.63 18.689-.107 1.296.164 2.686 1.017 2.765 2.456-.473 1.683-2.364 2.141-3.896 2.205-5.535.322-11.077.05-16.598-.315-2.299 0-3.201-3.315-.96-4.239M270.733 306.406c.845-.716 2.062-.53 3.093-.587 3.76.1 7.555-.186 11.257.659.952.071 2.212.644 2.026 1.818-1.346 1.003-3.129 1.039-4.726 1.282-3.373.158-6.745.444-10.118.258-1.726.072-2.657-2.249-1.532-3.43M325.469 307.216c1.003-1.705 3.237-1.268 4.891-1.296 1.826.222 3.996.351 5.256 1.876-2.184 2.384-5.614 1.733-8.485 1.704-1.125.064-2.464-1.225-1.662-2.284ZM354.612 315.308c1.712-.509 3.574-.366 5.307-.051 1.224.172 1.897 1.669 1.181 2.671-.809.938-2.184.945-3.301 1.167-1.181.065-2.685.301-3.53-.744-.817-.881-.659-2.378.343-3.043M224.546 316.689c2.972-.086 5.951-.021 8.923-.021 1.296-.107 2.484.78 3.085 1.862.043 1.024-.923 2.083-1.954 2.169-2.521.158-5.048.015-7.583.079-1.203-.079-2.7.279-3.488-.888-1.045-1.009-.372-2.964 1.017-3.201M253.847 326.771c-1.683-1.217-.487-4.49 1.654-3.988 4.225.895 9.288-1.082 12.76 2.255-1.904 2.993-5.936 2.32-8.972 2.428-1.79-.179-3.924.487-5.442-.695M319.303 323.148c3.101.014 6.316-.301 9.201 1.06 1.075.83.287 2.255-.816 2.52-2.456.702-5.055.573-7.583.473-.974.043-1.955-.638-2.069-1.633-.258-1.053.68-1.726 1.267-2.42ZM359.023 326.85c2.95-.509 6.022-.122 9.022-.237 1.618-.15 3.294 1.583 2.592 3.208-.945 1.705-3.1 1.389-4.74 1.461-3.072-.15-6.538.602-9.13-1.539-1.146-1.547 1.174-2.342 2.256-2.893ZM218.432 328.239c1.375-.465 2.878-.243 4.332-.308 3.573.093 7.154-.114 10.727.065 1.081.229 2.771.479 2.871 1.876-.365 1.432-2.119 1.84-3.415 1.797-4.497.021-9.002.093-13.506-.086-1.074.079-2.04-.759-2.319-1.747.179-.702.723-1.217 1.31-1.597M298.122 335.421c2.47-.372 5.249-.444 7.425.959.645.716.13 1.612-.637 1.955-2.033 1.275-4.626.716-6.896.645-1.833-.308-1.826-3.416.108-3.559M347.029 339.524c1.225-.387 2.471-.809 3.76-.809 7.912-.043 15.825.078 23.73 0 1.074-.015 2.155.1 3.222.236.287.73.917 1.382.852 2.213-.401 1.26-1.754 1.983-3.036 1.811-8.235-.157-16.477.215-24.718-.05-1.404-.129-3.094-.215-4.082-1.396-.752-.537.086-1.397.272-2.005M216.218 340.111a15.319 15.319 0 0 1 3.237-.308c10.784.014 21.56-.014 32.33.014 1.217.029 2.506-.043 3.645.487 1.188.58 1.045 2.908-.43 3.051-2.477.451-5.034.322-7.54.379-9.674-.1-19.334.1-29.001-.1-2.9-.473-5.943-.401-8.721-1.425.028-.251.086-.738.107-.995 1.919-1.031 4.282-.516 6.373-1.103M230.913 367.909c1.862-.329 3.817-1.167 5.686-.473 1.618.724 3.466 1.332 4.361 3.008-1.812.029-3.752.336-5.328-.759-1.496-.68-4.318.401-4.719-1.776ZM270.397 373.401c2.499-.429 5.156-.995 7.569.165.923.473 3.143.544 2.613 2.112-2.606.623-5.055-.744-7.64-.837-.931-.244-2.506-.108-2.542-1.44M313.289 373.588c5.671.136 11.571-1.382 17.099.394.007.422.036 1.246.043 1.668-4.031 1.224-8.299.652-12.43.58-1.698-.208-4.147.179-4.963-1.747.065-.222.186-.68.251-.895M362.948 374.01c-.114-1.368 1.604-.752 2.342-.695 3.143.587 6.545-.436 9.552.895l.695.895c-2.657 1.34-5.671 1.032-8.536 1.053-1.618.143-3.229-.802-4.053-2.148M216.011 376.372c2.12-.973 4.511-.988 6.767-.608 1.647.394 2.556 2.119 2.213 3.745-2.435.544-4.948-.616-7.34.286-2.062.752-4.268.222-6.287-.386-.236-2.628 2.929-2.485 4.647-3.037M335.724 381.156c1.532-.752 3.243-.816 4.912-.645.766-.143 1.21.423 1.582.981-2.084.588-4.296.137-6.365.86 6.222.122 12.452.15 18.667-.058 2.549.108 3 3.13 2.986 5.142.029 19.749-.007 39.498-.029 59.247-.05.902.101 1.998-.63 2.692-1.059.988-1.74 2.299-2.692 3.387-4.361.874-8.364 3.652-13.011 3.18-1.633-.065-2.52-1.612-3.351-2.8 1.024-.981 1.704-2.306 2.85-3.158 1.683-.859 3.544-1.289 5.327-1.862-.222-3.294-.007-6.609.33-9.874.143-.194.444-.566.594-.745 1.747 3.036.501 6.717.867 10.039.945-.021 1.897-.036 2.85-.05.028-18.933.078-37.873-.043-56.805-.81.05-1.605.107-2.414.164.724 2.199.824 4.598.33 6.853-.58 1.733-1.332 3.452-1.196 5.328.157 2.449-.63 4.812-1.74 6.938.344-2.048 1.64-4.081.895-6.186-.795-2.779.537-5.493.351-8.278-.05-1.468-.065-2.936.401-4.311-4.504.344-9.008.609-13.512.709a50.178 50.178 0 0 0-.28 2.943l-.809-.107c-.157-.953.566-2.743-.88-2.893.057 6.444.1 12.882.129 19.333.644 8.414-.165 16.885.572 25.306-.494 3.187-.193 6.43-.272 9.653.065 1.969-.258 3.995.373 5.907-.867 1.146-1.619 2.857-3.287 2.893-1.339-.007-2.556.508-3.759 1.031-2.292.58-5.192.444-6.66-1.711.838-1.089 1.44-2.392 2.499-3.287 1.089-.473 2.249-.709 3.394-.974.466-13.662-.322-27.368.552-41.023-.05-6.795.172-13.598-.093-20.401.136-1.095.551-2.126.73-3.222.143-1.912 2.177-3.215 4.003-3.015.494-.315.974-.63 1.475-.93 1.446.064 2.979.358 4.354-.251M271.299 409.762c-.244 5.414-.186 10.863-.029 16.291 3.795-.179 7.598.05 11.378-.179.172-1.869-.05-3.731-.315-5.571-.064-3.394-.007-6.803-.057-10.204-3.602-.659-7.325 0-10.977-.337Zm-18.689.051c.036 5.613.408 11.249-.072 16.841 4.11-.444 8.242-.752 12.388-.687a547.703 547.703 0 0 1-.021-16.112c-4.089-.007-8.214.28-12.295-.042Zm18.646-20.602c-.136 4.92-.172 9.846.007 14.773 3.781-.136 7.562.043 11.328-.115-.208-4.862.301-9.738.165-14.608-3.831-.064-7.669.022-11.5-.05Zm-19.004-.637c.186 5.12.401 10.247.293 15.374 3.996-.107 7.999-.05 12.002-.029.136-2.241.1-4.497.071-6.745-.043-2.642.423-5.285.036-7.92-4.146-.028-8.263-.522-12.402-.68Zm-2.063-5.628a105.73 105.73 0 0 0 12.861-.53c7.719.021 15.46-.05 23.2.043 1.44-.057 2.471 1.117 3.122 2.27.645 1.518-.222 3.036-1.246 4.139-.301 5.463.416 10.891.273 16.362-.029 6.802.186 13.626-.394 20.429.021 1.905-1.253 3.444-2.07 5.063-.737 1.21-2.27 1.167-3.487 1.174-7.161-.022-14.321-.007-21.475-.093-3.272-.029-6.487-.652-9.753-.716-1.289-.115-2.899-.05-3.787-1.175-.659-.701-.036-1.539.243-2.219-.623-.745-1.432-1.483-1.368-2.542a298.01 298.01 0 0 1 .022-11.307c.601-7.175.243-14.386.422-21.568.043-1.962.609-3.931.144-5.886-.451-1.876 1.424-3.723 3.293-3.444ZM369.549 386.87c.888-.609 1.884.072 2.815.193a18.06 18.06 0 0 1 5.621 1.74c.537.452.816 1.884-.251 1.841-2.048.594-3.817-.938-5.85-.867-1.282-.1-3.23-1.475-2.335-2.907ZM304.494 390.1c2.313-.437 4.676-.323 7.018-.294.974-.014 1.897.372 2.685.917.48 1.554-1.496 2.27-2.721 2.191-3.344.043-6.91.272-9.989-1.225.1-1.396 1.962-1.238 3.007-1.589" fill="#040606"/><path d="M340.827 391.646c1.239.874.509 2.6.716 3.881.365 3.566.337 7.154.323 10.734.057 1.039-.323 2.463-1.619 2.442.945-5.635.394-11.378.58-17.057M332.578 394.933l.917.265c.515 1.876 1.325 3.723 1.267 5.714-.021 3.058.058 6.108-.014 9.151-.072 1.01-.294 2.471-1.511 2.693-.244-5.22.444-10.512-.573-15.668a103.45 103.45 0 0 1-.086-2.155M220.551 400.425c2.9-.959 6.05-1.052 9.086-.766 1.791.172 2.471 2.728.566 3.301-4.511.938-8.979-.623-13.44-1.16.465-1.633 2.535-.952 3.788-1.375M233.62 403.304c2.807-.508 5.8-.63 8.514.401 1.346.193 3.96.086 3.502 2.17-1.79.544-3.788.709-5.478-.251-2.377-.523-4.92-.029-7.247-.852-.852-.551-.093-1.475.709-1.468M293.238 409.14c1.103.007 2.17.251 3.215.523 3.695-.616 7.519-.774 11.235-.28 1.583.072 1.504 2.249.021 2.421-4.06.601-8.342.501-12.259-.838-.902-.351-2.005-.759-2.212-1.826M338.579 417.618c.071-2.6-.193-5.657 1.948-7.576.694 1.074-.673 2.098-.315 3.236.336 2.328.479 4.676.393 7.025-.114 5.012.573 10.139-.859 15.03-.852-.394-.845-1.418-.995-2.205-.788-5.127-.537-10.362-.172-15.51M364.508 410.264c2.994.165 5.994.05 8.98.057 1.503-.043 2.778 1.21 3.365 2.499-3.466-.344-6.953-.179-10.433-.336-.759-.022-1.324-.623-1.926-.981 0-.315.007-.938.014-1.239M345.754 411.295c.845.05 1.969.1 2.205 1.124.688 1.618.437 3.451.544 5.17-.064 3.666.394 7.454-.923 10.97-.401 0-1.21-.021-1.611-.029-.344-2.026-.852-4.045-.824-6.1.072-3.71-.208-7.476.609-11.135M213.118 418.155c1.031-1.819 3.402-1.869 5.263-1.919 2.743.043 5.808-.365 8.113 1.439-.666 1.748-2.764 1.776-4.332 1.776-3.043-.057-6.387.552-9.044-1.296ZM315.242 421.885c1.84-.522 5.621-1.038 5.75 1.705-.608 2.005-2.943 1.725-4.575 1.983-1.067.365-2.127.774-3.273.659-3.687-.136-7.411.301-11.056-.372-1.439-.115-1.461-2.363-.208-2.8 4.347-1.354 9.037.122 13.362-1.175ZM238.03 429.211c1.676.394 3.523.379 4.97 1.418 1.625.064 3.308-.029 4.847.558.036.208.087.63.123.838-2.22.78-4.734.952-6.918-.043-1.618-.05-3.451-.781-3.022-2.771M214.307 433.228c3.752-1.468 7.927-1.074 11.851-.694.05.694.358 1.983-.688 2.133-2.499.466-5.076.251-7.604.122-1.246-.258-2.893-.279-3.559-1.561ZM337.943 438.964c1.489-1.032 2.341 1.188 1.597 2.327-1.182 2.399.322 5.463-1.604 7.54-.48.422-.616 1.504-1.404 1.403-.773-1.647-.064-3.48-.2-5.22-.165-2.119.587-4.246 1.611-6.05ZM364.5 439.429c1.347-.007 2.75.122 3.881.931 1.49.072 4.461-.379 4.268 1.905-2.406 1.898-6.516.995-8.213-1.461.014-.343.05-1.031.064-1.375ZM277.829 440.418c1.339-.279 2.714-.165 4.067-.186 8.979.043 17.952-.022 26.938 0 1.089-.036 2.514.286 2.793 1.532-.215 1.289-1.647 1.733-2.778 1.647-10.075.014-20.15 0-30.233-.1-1.654.186-2.885-2.485-.787-2.893M247.775 448.086c3.538-1.768 7.676-1.976 11.55-1.467 1.461.966 3.144 1.826 4.175 3.279.537 2.141-1.919 3.158-3.652 3.065-2.463-.158-4.969.093-7.418-.408-1.654.014-3.323-.38-4.64-1.425-.903-.451-1.755-1.676-2.843-1.039-.373-.179-.724-.343-1.074-.515 1.575.372 2.9-.308 3.902-1.49ZM231.55 447.564c1.69-.165 3.502-.322 5.127.336 2.098.852 4.519.466 6.481 1.748-2.249.737-3.345 3.472-5.872 3.472-1.611.287-3.337.079-4.841.795-2.169 1.024-4.454-.451-6.516-1.138-.473-.294-2.005-1.175-.995-1.704 2.406-.731 4.54-2.113 6.616-3.509M357.312 451.044c1.954-2.714 5.492-3.201 8.571-3.552 2.263.251 4.583 1.289 5.628 3.43-2.614 1.969-5.628 3.423-8.815 4.196-1.403.416-3.157.924-4.36-.229-.981-.909-2.184-2.628-1.024-3.845M286.222 448.839c1.826-.674 4.905-.645 5.535 1.618.301 1.654-1.583 2.227-2.857 2.212-2.148-.007-3.359 2.17-5.342 2.628-1.905.258-3.688-.515-5.363-1.281-3.258-.437-6.653 2.091-9.825.53-1.46-.573-2.398-2.084-2.484-3.624.222-.852 1.253-.938 1.947-1.145 4.218-.538 8.364.888 12.467 1.69 2.427.372 3.917-1.769 5.922-2.628ZM305.046 448.803c2.65-.845 5.091.887 7.511 1.725 1.497.473 1.733 2.657.351 3.43-2.549 1.812-5.599.43-8.378.236-1.797-.1-3.759-1.783-3.508-3.694.995-1.089 2.664-1.246 4.024-1.697Z" fill="#040606"/></svg>