<svg width="480" height="480" fill="none" xmlns="http://www.w3.org/2000/svg"><g clip-path="url(#a)"><path d="M337.34 132.314c-.046 1.437-1.559 2.697-2.94 2.98-.458-.661-.905-1.261-1.26-1.95.04-.848.063-1.668.069-2.469.217-.727.406-1.352.601-2.028 1.009 1.312 2.384 2.281 3.53 3.467ZM359.469 95.9c1.576.394 3.106.967 4.659 1.436 2.137 1.496 4.366 2.942 5.93 5.09 2.046 2.216 2.327 5.529 4.596 7.586.922.705 2.131.217 3.174.144 3.959-.775 8.2 2.945 7.85 6.978.052 3.221-.567 6.476-.063 9.701.241 2.104 2 3.507 3.587 4.693.373.305 1.083.556.923 1.209-.195 1.851-1.106 3.908-.012 5.661.802 1.715 2.745 2.769 4.624 2.516 3.828-.023 6.939-2.624 10.584-3.375 1.312-.281 2.618.121 3.885.425.916.694 1.93 1.425 2.251 2.618 1.072 2.476.602 5.243 0 7.803-.533 2.361 1.043 4.441 2.745 5.902 1.364 1.066.367 3.016-.281 4.269-.79 1.135-1.409 3.049-3.111 2.905-4.985-.217-9.982-.114-14.973.065-2.996.687-6.073.32-9.127.405a806.749 806.749 0 0 1-30.719-.199c-4.693-.206-9.374.251-14.061.199-.396-.544-.917-.98-1.123-1.605-.23-3.247-2.659-6.244-5.765-7.173-2.194-.762-4.234-1.959-6.526-2.429.172-3.537-1.685-6.858-4.487-8.929.757-.004 1.673.121 2.086-.617.791-1.547-.269-3.461-1.782-3.989-.917-.532-1.88.121-2.779.35-.207.814-.258 1.689-.184 2.567-2.16-.739-4.544-.773-6.75-.173-2.108.066-4.286.22-6.142 1.366a9.11 9.11 0 0 0-4.979 4.548c-1.038 1.983-2.161 3.93-3.204 5.909-.653 1.081-1.971 1.22-3.088.875.309-2.113 1.461-3.964 1.931-6.021.676-1.972.762-4.08.43-6.09-.333-1.674-1.771-2.993-1.782-4.712 1.26-1.341 2.55-2.67 3.38-4.313.671-1.186 1.124-2.838.172-3.995-.939-1.679-2.647-3.192-2.234-5.301 1.163-1.443 2.865-2.233 4.675-2.497 1.078-.023 2.155-.023 3.238.058.613.107 1.215.257 1.81.423 1.754.602 3.427 1.502 4.636 2.945.986 1.227 2.945 1.334 4.177.448 1.249-.877 2.567-1.748 4.137-1.697 1.903.636 3.69 1.57 5.215 2.888.916.786 2.292 1.623 1.999 3.048-.269 2.494-.842 5.021-.344 7.546.682 2.596 2.82 4.848 5.478 5.445 2.676.446 5.026-1.343 6.825-3.089 1.77-2.148 3.266-5.255 1.942-7.995-1.014-1.896-3.037-2.887-4.395-4.492-.882-.967-1.965-2.28-1.3-3.655 1.226-2.549 4.022-3.758 5.856-5.799 1.914-2.039 3.747-4.6 3.587-7.541.074-1.976-.774-4.114.24-5.936 1.164-1.444 3.352-1.278 4.624-2.578.975-.927.992-2.43 2.012-3.322 1.942-.466 3.965-1.01 5.953-.5ZM139.168 46.104c.814.93 1.186 2.19 2.091 3.085 1.089 1.282 2.745 1.918 4.372 2.136 2.671.104 5.346.04 8.005.218 3.719.23 7.191 1.834 10.475 3.49 3.111 1.45 5.449 4.154 7.174 7.06 1.071 1.683 2.418 3.471 2.297 5.59.132 1.859-1.971 2.98-1.782 4.871.843 2.85 3.032 5.032 5.272 6.883 2.727 2.223 5.214 4.79 7.076 7.787.917 1.947 2.252 3.993 1.702 6.258a25.016 25.016 0 0 1-1.885 4.544c-1.083 1.981-3.037 3.266-4.521 4.933-1.031 1.467-1.495 3.582-.424 5.18 2.733 4.705 9.329 5.392 11.649 10.475 1.513 2.567.934 5.643.47 8.427-1.106 1.92-1.96 4.109-3.874 5.41-1.953 1.822-4.692 2.182-7.007 3.323-.717 2.057-.699 4.339-1.656 6.326-1.484 3.563-4.395 6.314-7.558 8.429-2.47 1.862-5.501 2.745-8.12 4.378 6.722.934 13.947-1.931 17.867-7.558 2.068-2.579 2.802-5.867 3.369-9.059 4.991-.561 9.122-4.216 11.38-8.55 2.068-3.633 3.237-8.319 1.34-12.245-.934-1.719-1.529-3.649-2.939-5.03-2.762-2.647-6.166-4.447-9.397-6.435 3.34-2.395 5.85-6.023 6.841-10.01.436-1.262.911-2.527.826-3.863.085-1.748-.912-3.614.372-5.11 3.197-1.719 7.019-2.797 10.589-1.719 1.891 1.11 3.008 3.123 4.034 5.018.894 1.547 1.667 3.485 3.575 4.03 2.648 1.33 5.685 1.307 8.567 1.667 1.776.522 3.57.944 5.375 1.33 2.074 1.242 4.303 2.979 4.773 5.51.051 1.41-.602 2.934.177 4.275 1.456 2.784 4.464 4.063 6.813 5.943 2.447 1.844 4.785 4.315 5.18 7.493 1.261 3.754 1.032 7.794.842 11.685-.859 3.823-2.716 7.437-5.271 10.401-.917 1.15-3.106 1.535-2.951 3.317 3.759.47 6.492 3.288 9.821 4.785 1.605 1.162 3.037 2.624 4.045 4.343 1.421 2.188 1.737 4.87 2.017 7.419 1.977-2.607.854-6.09-.189-8.83-.779-1.058-1.432-2.193-2.378-3.093-1.793-1.506-3.856-2.637-5.741-4.022-1.536-1.135-1.61-3.547-.43-4.947.837-.956 1.765-1.815 2.55-2.795 3.111-3.116 4.647-7.563 5.008-11.879.917-1.381 2.67-1.775 4.137-2.256 1.92-.293 3.845-.586 5.787-.562 2.367.544 4.223 2.292 5.083 4.537 1.387 1.994.332 4.573 1.524 6.648.298.658 1.129.904 1.754 1.197 2.693.356 5.346-.366 7.999-.66 4.904-1.352 10.188-1.018 15.069.275.069 1.818.602 3.474 1.565 5.032.836.463 1.776.665 2.739.705-.149 4.206-3.633 7.85-2.602 12.206.505 2.318 2.808 3.464 4.854 4.216 2.555.813 5.323-.349 7.116-2.211 2.08-2.693 3.163-5.994 5.192-8.698 1.484-1.869 4.034-1.788 6.148-2.214 1.621-.078 3.518-.716 4.905.437 1.054.929 2.2 2.086 2.349 3.574-.395 1.084-1.02 2.178-.67 3.394 1.209 1.884 3.506 2.56 5.46 3.42 2.057.602 4.04 1.428 6.103 1.96.538.448 1.111.893 1.524 1.5.304 1.153-.097 2.581.986 3.451.595 1.485 1.85 2.606 3.185 3.454 1.76.701 3.736.533 5.495 1.263 1.175.698 1.926 1.918 3.049 2.708 1.581 1.123 3.604 1.582 4.905 3.107.407.87-.98 1.112-1.576 1.352-3.369.073-6.744-.052-10.114-.189-2.567.155-5.139.24-7.706.189-5.65-.361-11.317-.332-16.973-.728-4.331-.166-8.56-1.513-12.915-1.388-4.446-.022-8.881-.342-13.322-.096-2.395.121-4.768-.316-7.168-.309-1.771-.092-3.519.298-5.289.343-3.541.04-7.117-.35-10.629.282-3.089.676-6.281.434-9.363 1.043-2.264-.345-4.498.521-6.773.405-5.673-.143-11.351-.199-17.012-.544-3.301-.808-6.773-.407-10.148-.434-4.137.315-8.303-.345-12.411.342-5.094-.177-10.183.649-15.254.036-3.713-.43-7.46-.047-11.162-.598a80.368 80.368 0 0 0-12.887-.687c-11.299-.434-22.61-.566-33.915-.716-6.103.081-12.245-.71-18.308.338-4.664.951-9.431.94-14.136 1.616-1.633.047-3.306-.016-4.904.47-9.226.533-18.463.103-27.688.069-5.65.034-11.294-.4-16.944-.36-1.93.034-3.821-.425-5.741-.557-3.444-.269-6.893-.258-10.343-.349-1.953-.03-3.867-.556-5.833-.585a19.75 19.75 0 0 0-2.263-.349c-1.765-.859-3.581-1.714-4.933-3.169-1.874-2.012-3.874-4.029-4.934-6.589-.579-1.793-1.163-3.954.08-5.576 2.2-3.17 1.605-7.163 1.817-10.766.166-2.31 2.114-3.759 3.627-5.238 1.954-1.918 4.417-3.259 6.182-5.385 2.172-2.391 4.619-5.186 8.097-5.278 4.102-.213 7.861-2.395 12.021-2.046 2.493-.051 4.773 1.003 7.037 1.885-1.066-1.279-3.364-1.088-3.719-2.951 3.816-.212 7.128 2.653 8.452 6.073.768 1.399.865 3.085 1.707 4.454 1.17 1.569 4.069.809 4.172-1.181-.132-2.075-.86-4.041-1.811-5.838-1.438-3.434-4.269-6.252-7.764-7.536-2.367-1.231-5.088-.717-7.65-.808-.773.076-1.169-.699-1.604-1.162-1.736-2.276-3.33-4.98-2.951-7.93 1.02-2.706 2.659-6.093 5.879-6.465 3.828-.492 7.432 1.404 11.22 1.33.864-.884 1.913-1.913 1.592-3.265-.441-2.941-.699-5.887-.602-8.844-.332 1.72-.068 3.492-.366 5.238-.327-1.885-.109-3.792-.023-5.654-.235-1.708-.453-3.427-.378-5.135.768-2.16 2.063-4.091 3.707-5.667 1.072-1.066 2.481-1.965 4.04-1.936 2.521.085 4.807-1.124 7.048-2.104a7.291 7.291 0 0 1 1.329-.36c4.36-.632 8.75-2.179 13.173-1.01.883.476 1.782.91 2.71 1.296 3.347 2.274 5.954 5.65 7.478 9.385.441 1.634.361 3.353.43 5.043.258 1.76 2.114 2.755 3.776 2.498.04 1.943-.344 3.926.161 5.862.401 1.799.762 3.639 1.483 5.358 1.043 2.373 2.648 4.423 4.023 6.606.63.843 1.295 1.983 2.487 2.052 1.025.228 1.919-.992 1.535-1.909-.618-2.274-2.234-4.052-3.438-6.017-2.166-4.181-3.294-9.338-1.306-13.808.922-1.039 2.59-1.05 3.426-2.207 1.112-1.707 1.319-3.977.407-5.785-1.042-2.277-2.613-4.242-3.707-6.471-.567-1.135-.785-2.43-1.421-3.52-.338-3.316 1.879-7.04 5.358-7.475 1.976-.253 2.91-2.453 2.956-4.201-.132-2.256-1.129-4.383-1.203-6.634.418-2.923 1.742-5.623 3.025-8.235 1.066-2.424 3.702-3.467 5.988-4.396 2.797-.544 5.982-2.124 8.687-.481Zm6.658-1.316c-1.467-3.565-5.289-5.938-9.116-5.78-2.372 0-4.624.84-6.956 1.248-3.696 1.385-7.828 2.84-9.942 6.446-2.183 3.986-4.555 8.217-4.435 12.927-.075 1.752.447 3.478.693 5.226-3.787.687-5.678 4.4-6.887 7.684-.82 1.746-.957 3.729-.676 5.627.727 1.862 1.415 3.751 2.212 5.598.395.669.773 1.356 1.128 2.072.739 1.245 1.639 2.398 2.252 3.725.229.494-.378.785-.642 1.157a19.885 19.885 0 0 0-1.191-3.505c-.338-.698-.688-1.388-1.02-2.053-2.963-5.18-7.409-10.027-13.391-11.538-2.459-.076-4.963-.609-7.41-.11-1.025.081-2.056.207-3.088.448-4.246.246-8.067 2.308-12.147 3.225-4.768.081-8.94 3.376-11.128 7.443-2.286 2.853-2.727 6.721-2 10.218.67 2.435.31 4.977.544 7.478-1.025-.117-2.05-.209-3.082-.327-2.31-.73-4.75-.184-7.03.405-1.857.804-3.238 2.435-4.224 4.168-1.02 1.867-2.533 3.516-2.98 5.676-.888 4.139 1.084 8.459 3.914 11.404-2.922-.636-5.919-.08-8.784.595-3.484.602-6.698 2.528-9.082 5.128-1.473 1.535-2.95 3.096-4.767 4.264-2.292 1.484-4.172 3.53-5.896 5.645-1.273 1.547-2.098 3.476-2.252 5.499-.333 2.895.55 6.098-1.502 8.555-3.008 3.669-2.12 8.929-.04 12.83 1.163 2.012 2.716 3.754 4.137 5.587 2.837 3.375 6.762 5.942 11.168 6.578 1.708.184 3.398.367 5.094.607 3.707.546 7.478 0 11.174.689 7.953 1.249 16.026.676 24.031 1.03 5.96.143 11.907.259 17.866.309 7.392.23 14.744-.755 22.095-1.236-.006-.098-.023-.271-.028-.367 2.876.143 5.758-.271 8.572-.792 5.088-.493 10.193-.177 15.287-.177 5.936-.023 11.85.423 17.78.378 6.836 0 13.666.166 20.497.515 4.939-.181 9.792 1.056 14.726.991 4.016.179 8.039.231 12.05.327 2.83.161 5.621-.43 8.446-.239 5.335-.367 10.686-.231 16.021-.533 1.977-.047 3.948.011 5.919.103 5.988 1.083 12.136.418 18.187.698 3.587.276 7.094-.904 10.681-.774 1.954.087 3.873-.331 5.793-.533 4.739-.692 9.546-.143 14.308-.378 3.558-.24 7.093.465 10.64.098 3.73-.121 7.455.213 11.185.161 3.765-.102 7.478.6 11.231.75 1.49.699 3.18.482 4.779.54 6.996.107 13.987-.025 20.972-.408 2.028-.235 4.12-.36 6.016-1.175 1.043-.459 2.195-.955 3.346-.613 1.61.309 3.278 1.312 4.922.58 1.221-.631 2.464-1.263 3.553-2.068.613-1.458.596-3.291-.487-4.499-1.243-1.525-2.642-3.078-4.527-3.765-.682-.361-1.65-.316-1.891-1.216 4.957-.257 9.908.334 14.853.408 6.406.344 12.812-.114 19.218.08 3.85-.132 7.753.338 11.586-.297 5.386-.815 10.904.228 16.262-.79 3.415-.811 5.283-4.052 6.687-6.968.67-2.281 1.61-4.917.361-7.158-.602-1.271-1.908-1.947-2.665-3.083-.195-1.77.378-3.495.516-5.259-.092-3.427-.934-7.163-3.742-9.415-3.547-2.63-8.589-3.227-12.56-1.203-2.04.624-3.828 2.027-6.028 2.078.08-.613.166-1.213.247-1.759.555-1.425.452-3.082-.505-4.279-.854-1.646-2.716-2.333-3.759-3.77-.481-2.166.161-4.362.052-6.544-.086-2.142.424-4.441-.699-6.377-.757-1.415-1.244-3.019-2.407-4.172-2.716-2.865-6.692-4.313-10.606-4.378-2.705-7.62-10.159-12.75-17.883-14.245-4.945-.716-11.019 1.392-12.532 6.601-2.32.327-4.343 1.903-5.134 4.138-1.404 2.418-.447 5.26-.636 7.884-1.243 4.745-7.128 5.781-9.002 10.115-.429.949-.676 1.969-.911 3.012-1.318-1.168-2.63-2.417-4.337-2.945-1.37-1.054-3.054-1.5-4.699-1.907-1.862-.471-3.621.521-5.34 1.07-.974.432-1.719-.482-2.499-.887-5.116-3.265-11.952-3.646-17.39-.911-2.458 1.368-3.834 4.195-3.856 6.957.298 2.274 1.283 4.452 2.641 6.308-.802.704-1.375 1.96-2.441 2.28-3.638-1.656-7.735-2.023-11.689-2.035-3.862-.096-7.558 1.22-11.403 1.411-.825-3.589-2.091-7.364-5.065-9.737-2.166-1.638-4.882-2.692-7.633-2.487-1.976-.011-3.804.786-5.724 1.124-1.289.217-2.504.763-3.455 1.685-1.066-3.265-1.524-6.978-4.114-9.465-2.424-2.854-5.862-4.47-8.841-6.626.131-1.873.544-3.868-.316-5.609-1.839-4.353-5.775-7.981-10.486-8.904-2.4-.568-4.807-1.117-7.282-1.311-1.599-.282-3.696-.235-4.67-1.784-1.926-3.505-4.447-7.241-8.527-8.342-2.372-.332-4.887-.51-7.179.338a15.411 15.411 0 0 0-6.475 2.476c-.458.205-.894.675-1.461.521-1.215-1.323-2.132-2.887-3.404-4.148-1.988-2.196-4.469-3.863-6.544-5.96-.681-.533-.017-1.346.144-1.925 1.06-2.04.911-4.412.493-6.579-1.198-3.438-3.215-6.497-5.398-9.385-2.189-2.652-4.939-4.848-8.165-6.068-4.2-2.343-8.882-3.764-13.689-3.988-2.178-.103-4.355-.276-6.527-.332" fill="#040606"/><path d="M142.107 56.907c-2.264-.269-4.584.264-6.75.951-2.882.837-4.47 3.61-5.954 6.017-.848 1.23-1.209 3.323.201 4.315a2.42 2.42 0 0 0 2.945-.69c1.415-1.632 2.475-3.688 4.567-4.53 2.504-.716 5.283-.866 7.672.285 2.029.733 3.908 2.247 6.154 2.104.94.017 1.616-.734 2.023-1.473.556-1.862-1.203-3.272-2.624-4.08-2.63-1.254-5.312-2.55-8.234-2.9M164.631 66.934c-.899-.32-2.223-.257-2.71.724-.888 1.315.017 3.034 1.083 3.986 1.192 1.054 2.166 2.384 3.61 3.122 1.811 1.032 3.851-1.397 3.066-3.116-.894-2.206-2.842-3.908-5.049-4.716ZM135.387 79.654c-2.126-.654-4.464-1.157-6.618-.36-4.384.515-6.917 5.826-5.312 9.734.584 1.535 1.203 3.525 2.945 4.051 1.771.609 3.157-1.66 2.263-3.1-.71-1.34-1.358-2.737-1.134-4.302 1.736-2.464 5.019-1.777 7.518-1.175.659.368 1.306.956 2.12.889 1.077.067 1.742-.889 2.458-1.48.011-.636.017-1.242.017-1.804-1.049-1.363-2.693-1.954-4.257-2.453M168.168 87.345c-3.169-4.04-7.724-7.908-13.185-7.61-1.346.006-3.06 1.06-2.808 2.623.665 1.399 2.447 1.48 3.753 1.88 3.009.654 5.742 2.248 7.965 4.338 1.524 1.404 3.198 3.284 5.507 2.872.366-1.514.017-3.125-1.232-4.103ZM96.938 90.937c-2.384-1.307-5.232-2.171-7.936-1.416-2.653.637-5.1 1.913-7.575 3.032-1.65 1.019-3.53 2.138-4.23 4.063-.372 1.34.66 2.607 2 2.75 2.132-.785 3.96-2.224 6.126-2.94 1.908-.676 3.874-1.265 5.89-1.484 3.519-.121 5.604 3.673 8.974 3.93 1.312-3.046-.419-6.525-3.25-7.935ZM203.333 99.503c-3.181-1.473-7.111-2.361-10.36-.555-.906.578-1.948 1.374-2.006 2.594-.298 1.381 1.077 2.482 2.309 2.758 1.525-.103 2.86-1.388 4.424-1.084 3.381.654 6.796 2.601 8.245 5.851.379.761.871 1.477 1.416 2.154 1.598.01 2.498-1.5 3.037-2.785.384-1.513-.241-2.979-1.112-4.154-1.289-2.326-3.891-3.318-5.953-4.779ZM164.615 98.248c-1.518-.125-3.507-.68-4.584.774-.653.58-1.031 1.605-.504 2.413.607 1.077 1.942 1.186 3.025 1.437 2.653.378 5.341.992 8.028.584 1.014-.353 1.828-1.316 1.948-2.37-.309-1.462-1.868-2.357-3.277-2.395a33.245 33.245 0 0 1-4.636-.443M362.563 104.678c-1.69-.51-3.644-.653-5.249.184-1.856 1.088-2.332 3.529-1.598 5.455 1.031-.207 1.879-.981 2.951-1.01 2.469-.286 4.784.739 7.191 1.106 1.662.763 4.378-.607 3.415-2.664-1.478-2.149-4.309-2.659-6.71-3.071M231.948 111.932c-2.281-1.954-4.865-3.8-7.896-4.246-2-.138-4.636 1.455-4.383 3.696.607 1.329 2.326.761 3.466.904 2.504-.206 4.659 1.307 6.469 2.832 1.072.98 2.602 1.054 3.954.796.338-1.546-.47-3.014-1.61-3.982ZM79.936 109.783c-4.6-.859-9.655.567-12.995 3.902-.946.855-1.307 2.567-.344 3.57.802 1.083 2.521.915 3.415.029 1.38-1.175 2.916-2.31 4.796-2.424 2.595-.701 5.18.486 7.781.217 1.312-.166 2.527-1.594 1.891-2.894-.865-1.656-2.79-2.267-4.544-2.4M363.199 111.801c-2.578-.666-5.26.015-7.747.727-3.065.841-4.733 3.845-6.062 6.486a8.464 8.464 0 0 0-.802 5.97c.619.389 1.283 1.262 2.085.716 1.146-1.117.344-2.851.923-4.188.825-2.258 2.149-4.749 4.647-5.432 1.536-.264 3.088-.448 4.636-.419 1.816.077 3.22 1.364 4.503 2.51 1.101.986 1.914 2.603 3.559 2.717 1.117-.423 1.088-2.001.664-2.894-1.226-2.792-3.541-5.128-6.406-6.193M99.322 113.089c-1.914-.355-3.868-.488-5.816-.308-1.553.102-3.06 1.087-3.633 2.589-.298 1.018 0 2.778 1.398 2.697 2.825.22 5.65.047 8.458.282 1.3-.011 2.945.28 3.85-.877.797-1.11.241-2.648-.727-3.431-.997-.797-2.338-.723-3.53-.952ZM173.141 118.618c-1.243-.732-3.065-.246-3.547 1.182-.481 2.211.109 4.537 1.261 6.457.745 1.037 2.355 1.088 3.18.132 2.006-2.202 1.249-5.965-.894-7.771ZM128.511 118.756c-1.255-.62-2.911-.546-3.822.64-.373 1.183.745 2.178 1.776 2.494 1.874.687 3.512 1.862 5.363 2.601 1.032.43 2.716-.331 2.12-1.61-.899-2.276-3.289-3.352-5.437-4.125M383.627 126.033c-.585-2.126-1.611-4.612-3.989-5.123-.481.19-.974.385-1.466.591-.734 1.15-.591 2.469.097 3.615 1.043 1.902-.441 5.192 2.2 6.039 2.424-.126 3.696-2.991 3.158-5.122M225.422 124.274c-2.607-.257-5.569-.624-7.827 1.037-.693.413-1.593 1.392-.871 2.211 2.161 1.45 4.917.792 7.346.98 1.902-.033 3.919.511 5.747-.205.963-.75.803-2.264-.183-2.877-1.272-.774-2.791-.893-4.212-1.146M314.317 127.628c-1.674-.448-3.203.514-4.642 1.242-1.965.969-3.581 2.549-4.841 4.338-.923 1.323.595 3.334 2.102 3.015 1.164-.558 2.052-1.502 3.049-2.265 1.707-1.529 4.366-1.697 5.615-3.77.722-1.065-.241-2.263-1.283-2.56M367.108 127.826c-3.989-.774-8.378-.217-11.959 1.8-1.146.867-1.925 2.979-.47 3.971 1.668.591 3.175-.58 4.722-.945 2.275-.506 4.589-.722 6.841-1.255 1.015-.195 1.971-.837 2.321-1.811-.046-.866-.693-1.513-1.455-1.76ZM86.136 138.302c-1.948-2.207-4.956-3.031-7.792-3.199-2.384.282-4.756 1.083-6.722 2.511-1.043.699-1.071 2.509-.057 3.277a3.355 3.355 0 0 0 3.083-.257c1.96-.276 4.04-.793 5.907.074 1.76.653 2.79 2.309 3.667 3.874.425 1.488.293 3.77 2.12 4.331 2.115 0 3.324-2.327 3.152-4.187-.28-2.483-1.822-4.551-3.358-6.424M55.27 138.192c.761-1.432-1.084-2.527-2.304-2.491-2.023.181-3.902 1.132-5.673 2.102-2.733 1.609-4.068 5.157-3.1 8.188.527 1.913 1.301 3.816 2.481 5.443.694.998 2.734.98 2.86-.457.103-2.516-1.788-4.727-1.29-7.301 1.754-2.607 5.467-2.74 7.025-5.484ZM204.788 136.468c-.883-.539-1.972-.105-2.688.526-1.432 1.142-2.469 2.734-3.203 4.412-.464 1.274.499 3.004 2.006 2.604 2.108-.484 3.569-2.398 4.681-4.128.814-1.11.579-2.932-.796-3.414ZM264.672 138.937c-.264-1.226-1.582-1.799-2.642-2.148-2.796-.665-5.358.911-7.988 1.564-1.26.32-2.355 1.07-3.518 1.668-.939.544-2.166.98-2.458 2.189-.315.022-.94.067-1.249.091.223.419.533.813.963 1.095.097-.26.286-.786.378-1.043 2.527-.052 5.071-.195 7.5-.906 2.504-.824 5.157-.148 7.707-.556.98-.143 1.341-1.112 1.307-1.954ZM150.8 141.395c-1.57-.875-3.358-1.462-5.174-1.312-3.066-.201-6.332.658-8.613 2.791-.842.71-.538 1.937-.492 2.917 2.825.709 5.386-1.153 8.205-.866 2.269-.287 4.578.888 6.744-.103.785-1.164.482-2.659-.67-3.427M41.289 142.949c-.017-1.948-2.556-3.083-4.063-1.88-1.747 1.501-2.641 3.713-4.08 5.49-1.667 2.075-2.32 4.978-1.506 7.552.773 2.818 2.841 5.139 5.368 6.56.71.463 1.605.334 2.396.356.011-1.473-1.175-2.383-2.103-3.312-1.742-1.657-2.504-4.258-2.006-6.597.66-2.079 2.275-3.659 3.971-4.909 1.043-.807 2.218-1.821 2.023-3.26M347.757 144.204c-2.47-1.417-5.467-1.744-8.286-1.862-.974.045-2.338-.282-2.939.75-.774 1.099.281 2.647 1.541 2.677 1.805.239 3.639.21 5.455.405 1.14.051 2.384.367 3.438-.229.682-.315.625-1.186.791-1.741ZM288.824 147.275c-1.891-2.832-5.799-3.192-8.818-2.287-1.473.561-1.347 3.243.257 3.581.808.165 1.519-.361 2.224-.6.057-.316.171-.947.235-1.262 1.518.59 3.042 1.277 4.223 2.435.67.734 1.18 1.604 1.896 2.321.424-1.33.974-2.98-.017-4.188M358.26 144.697c-1.782-.551-3.633-.059-5.317.584-.728.653-.017 1.775.768 2.068 2.647 1.22 5.638 1.399 8.514 1.296 1.874-.117 3.857.239 5.656-.425 1.14-.379 1.22-2.337.023-2.671-3.054-1.249-6.452-.355-9.644-.852M397.235 145.446c-1.037-.264-2.005.305-2.951.676-1.959.79-4.039 1.376-5.839 2.556-.802.618-1.805 1.69-1.226 2.807.573 1.278 2.069 1.668 3.358 1.582.607-.716 1.06-1.535 1.243-2.446.946-.356 1.88-.701 2.808-1.032 1.284-.114 2.848.023 3.667-1.164 1.032-1.018-.2-2.366-1.06-2.979M360.483 148.935c-1.324-.223-2.682-.188-3.954.287-2.148-.081-4.2.595-6.314.774-1.209 0-2.447.727-2.854 1.914.252 1.036 1.375 1.616 2.395 1.643 1.324-.027 2.722-.005 3.937-.555.338.017.716.017.888.396-.968.172-2.573-.166-2.813 1.15-.476 1.44 1.266 2.075 2.406 1.932 9.071-.532 18.147.269 27.229.051 2.218-.172 4.848.717 6.636-1.013-.86-1.672-2.94-1.099-4.453-1.216-5.793-.315-11.597-.143-17.39-.349-2.917.047-5.839-.287-8.756.011.252-.298.585-.47 1.009-.492l.028-.034c-1.22.045-2.452.04-3.661-.127 1.484-1.415 4.011-.446 5.409-2.08.762-.595.59-1.558.258-2.292ZM343.321 149.956c-1.988-.539-4.572-1.105-6.194.596-.825 1.764 1.032 3.444 2.751 3.328 1.776-.063 3.85.551 5.323-.727 1.008-1.5-.59-2.763-1.88-3.197ZM127.141 150.809c-1.553-.257-3.209.036-4.458 1.038.034 1.643 2.091 2.241 3.409 2.682 2.132.452 4.475.64 6.55-.087 1.392-.6 1.409-2.814-.063-3.299-1.76-.471-3.628-.07-5.438-.334M275.129 153.446c-2.292-.573-4.698-.356-6.973.206-1.862.47-3.553 1.789-4.344 3.577-.234.618-.613 1.489-.045 2.109 1.999.577 3.867-.706 5.793-1.057 1.914-.526 3.879-.298 5.81-.045 1.633.298 3.472-1.656 2.464-3.196-.476-1.068-1.656-1.439-2.705-1.594M71.536 153.869a60.501 60.501 0 0 0-7.89-.533c-.82-.103-1.444.492-2.103.951-.137 1.124.396 2.321 1.593 2.601 2.063.407 4.2.23 6.28.573 1.347.116 2.762.584 4.074.069.917-.338 1.479-1.62.803-2.417-.59-1.032-1.914-.871-2.906-.848.035-.11.115-.305.15-.396M200.141 154.43c-2.928-1.289-6.4.522-7.93 3.134 1.381.448 2.727 1.359 4.229 1.003 1.398-.354 3.071-.584 3.971-1.822.573-.761-.069-1.587-.27-2.315M111.722 156.785c1.146-.749.246-2.343-.854-2.498-2.962-.445-6.125-.503-8.933.706-.16.176-.481.532-.647.709-2.017-.034-4.063-.063-6.04.477 1.496 1.076 3.593.761 5.34 1.179 3.587-1.253 7.547.763 11.134-.573ZM408.639 156.809c.384-.946.166-2.218-.997-2.394-3.771-.672-7.438.765-11.122 1.341 1.633 1.23 3.77 1.797 5.816 1.719 2.103-.128 4.28.055 6.303-.666M321.513 154.809c-1.701-.915-3.741-.304-5.455.257-1.799.591-3.117 2.178-3.776 3.915-.567 2.153 2.252 3.559 3.92 2.447 1.822-1.26 4.337-1.021 5.919-2.626 1.364-1.065.699-3.214-.608-3.993ZM232.992 156.322c-.585-.881-1.742-.951-2.705-.933-1.553.04-3.197.172-4.578.991-.533 1.261 1.129 1.518 2.011 1.706 1.41.367 2.888.403 4.326.22.911-.155 1.375-1.223.946-1.984M226.211 161.846c-4.589-1.439-9.483-.895-14.176-1.737-1.186-.109-2.4-.074-3.575.231-1.043.394-1.22 1.529-1.198 2.525 1.129 1.2 2.808 1.336 4.287 1.846 3.541.911 7.236.573 10.841.911 1.432.269 2.853.591 4.309.716 1.077.023 1.799-1.003 1.959-1.947-.223-1.262-1.232-2.265-2.447-2.545M168.62 163.335c.693-1.518-1.404-2.017-2.516-1.948-2.097-.331-4.022.555-6.011 1.055-.005.073-.04.228-.051.304 1.438.011 2.464 1.289 3.913 1.289 1.553 0 3.427.475 4.665-.7M43.866 163.245c-1.65-.344-3.57-.575-5.117.273-.854 1.131.906 1.892 1.742 2.252 1.633.455 3.856 1.314 5.14-.235.63-1.197-.774-2.084-1.765-2.29ZM134.733 163.834c-2.722-.338-5.598-.642-8.257.275-.693.132-1.702.791-1.014 1.645 3.02.497 6.148.195 9.185-.062a8.573 8.573 0 0 0 .086-1.858M276.682 164.315c-1.455-.251-3.031-.499-4.435.109-.63.224-.957.974-.682 1.65.711.94 1.754 1.668 2.911 1.95 1.628.382 3.198 1.047 4.871 1.248 1.249.137 2.349-1.072 2.361-2.247-.757-2.079-3.1-2.493-5.026-2.71ZM110.725 166.144c-.43-.517-.877-1.22-1.662-1.054-3.255.028-6.509.062-9.764.028-3.73.09-7.432.831-11.185.665-10.079-.219-20.17-.447-30.254-.665-1.261.057-2.67.126-3.73.905-.614.436-.339 1.462.286 1.8 2.24 1.322 4.956.698 7.409.888 5.947.228 11.89-.011 17.837.103 4.928.011 9.861.148 14.766-.374 4.86-.676 9.833.081 14.652-.989.756-.11 1.152-.844 1.645-1.307M330.922 167.984c-1.833-1.164-4.332-1.428-6.154-.099-.515.893-1.426 1.961-.613 3.015.963 2.332 3.971 1.851 5.959 1.455 1.868-.493 2.155-3.239.808-4.371M207.578 167.822a366.715 366.715 0 0 0-17.39-.396c-1.272-.04-2.831.481-3.272 1.811.825 1.186 2.286 1.668 3.673 1.766 5.667.183 11.334.235 17.012.28 1.627-.052 3.197.385 4.808.557 5.386.434 10.858-.161 16.175.933 1.02.28 2.075.35 3.117.446 2.012.665 4.08.054 6.097-.206.974-.228 2.097-.423 2.819-1.151.315-.716.293-1.828-.573-2.068-1.174-.602-2.315.379-3.489.508-2.31.22-4.642.242-6.962.036-5.071-1.193-10.32-.712-15.454-1.388-2.16-.51-4.395-.617-6.561-1.128ZM255.637 169.747c-1.765-.389-3.776-.555-5.455.228-.963.459-.974 1.693-.149 2.351 1.352.716 2.922.855 4.435.94 1.788.591 3.61.132 5.42.056.224-.905.453-1.863-.103-2.657-1.088-1.079-2.762-.775-4.148-.918" fill="#040606"/><path d="M374.5 170.5 393 132l13.5-6.5-13.5 45h-18.5Z" fill="#fff"/><path d="M409.781 99.025c.861-1.282 2.531-1.066 3.866-.894 1.53 2.133 1.896 4.869 1.067 7.367-.625 2.402-1.336 4.782-2.402 7.034-1.002 4.319-2.219 8.595-3.512 12.838-1.841 4.449-2.326 9.371-4.319 13.754-.215 1.078-.484 2.165-1.001 3.167a55.162 55.162 0 0 0-.593 1.616c-.183 1.874-.43 3.759-1.098 5.536-1.034 2.811-1.304 5.848-2.65 8.541a254.739 254.739 0 0 1-2.606 8.875c-1.379 4.901-2.908 9.769-4.804 14.497-.625 2.704-1.842 5.224-2.747 7.842-1.475 2.089-3.996 3.123-5.73 4.965-2.24 2.391-5.17 4.06-7.076 6.764-4.502 4.911-8.164 10.501-11.665 16.145-2.348 3.404-4.577 6.926-6.182 10.749-.312 2.316 1.82 4.115 2.046 6.376.248 2.176.033 4.363-.291 6.528-.172.657.313 1.174.647 1.701 5.245 6.937 10.62 13.765 15.94 20.648 9.005 9.995 17.481 20.453 25.969 30.89 3.295 3.759 5.999 7.992 9.047 11.966 7.539 10.394 15.391 20.551 22.985 30.923 2.865 4.255 6.15 8.207 8.853 12.57.83 1.174.528 2.962-.56 3.888-1.088 1.163-2.908.689-4.222.258-4.728-2.315-7.766-6.785-11.891-9.909-3.856-3.425-7.927-6.624-11.783-10.06-3.285-2.369-5.827-5.579-9.037-8.035-1.982-1.777-4.243-3.231-6.085-5.148-2.65-1.896-5.202-3.996-7.421-6.387-6.301-4.847-12.203-10.232-17.75-15.919-1.702-1.853-3.91-3.307-5.116-5.568-1.153-2.822-1.217-5.989-2.542-8.757-1.099-2.036-1.12-4.427-2.111-6.506-2.079-4.631-4.61-9.036-7.195-13.409-1.39-1.379-1.982-3.285-3.091-4.847-.506-.797-1.013-1.605-1.637-2.305.258 3.016.269 6.042.258 9.069.539 4.911.129 9.866.614 14.788.011 5.332.151 10.663.291 15.984.581 5.138-.022 10.318.528 15.467-.097 7.69.215 15.391.204 23.092.549 3.124.194 6.322.592 9.478-.129 4.976.378 9.931.388 14.907.313 4.858-.054 9.737.345 14.594.291 3.856-.043 7.712.065 11.568.097 4.47.193 8.929.204 13.388.722 5.806.043 11.708.743 17.535-.204 9.963.991 19.883.593 29.856-.119 3.404.42 6.786.409 10.189.151 6.915.108 13.819.269 20.734.614 11.546.905 23.125.937 34.692.668 7.432.313 14.907.55 22.36.538 6.204.42 12.441.452 18.655-.065 3.759.614 7.475.485 11.234-.054 8.11.269 16.221.183 24.32 4.33-.01 8.66-.064 12.989-.01 3.253.613 6.603 1.26 9.565 2.778.765.83 2.477 1.928 2.025 3.102-6.678.517-13.377.151-20.066.259-15.122-.022-30.244.011-45.377-.011-4.772-.086-9.565.312-14.325-.258 1.454-1.659 3.296-2.898 5.019-4.244 1.055-.754 2.122-1.756 3.522-1.68 4.858.01 9.715.107 14.583.032-.14-7.733.205-15.488.162-23.232-.129-4.987.689-9.942.463-14.929-.151-8.358.646-16.673.56-25.031-.032-6.947.528-13.883.399-20.83.108-6.215.538-12.43.517-18.655-.054-6.236.42-12.462.506-18.698-.011-7.981.495-15.962.539-23.943-.011-8.908.829-17.772.7-26.68.657-6.042.129-12.138.732-18.18.097-7.12.291-14.239.172-21.359.453-8.326.259-16.683.69-25.02.323-3.307-.065-6.646.334-9.952.258-2.337-.13-4.718.409-7.012.011-5.364.118-10.728.194-16.081.086-3.209-.183-6.419.172-9.618.377-4.017-.258-8.089.334-12.085.269-10.372.474-20.722.818-31.084.022-6.57-.064-13.14.442-19.689-6.085.442-12.009 2.122-18.073 2.801-1.788.161-3.565.538-5.364.786a74.22 74.22 0 0 0-2.132.517c-2.144 1.109-4.6 1.271-6.948 1.551-.85.463-1.777.754-2.725.991-7.054 1.659-14.088 3.414-21.283 4.394-1.723.517-3.478.926-5.277 1.088-.56.162-1.12.334-1.68.528a33.873 33.873 0 0 1-3.113.528c-2.704.7-5.483 1.335-8.283 1.389.226.119.668.345.883.463-6.764 1.056-13.549 2.004-20.302 3.102-1.53.248-3.081.205-4.621.119.172.129.506.387.668.527-8.768 1.594-17.567 3.167-26.421 4.341-3.36.485-6.71 1.206-10.124 1.131-1.207.032-2.413-.528-3.199-1.411-.711-1.282.086-2.671.786-3.738 2.391-3.015 6.322-3.974 9.909-4.792 3.005-1.315 5.924-2.941 9.188-3.598.937-1.066 2.38-1.206 3.64-1.659 2.423-1.292 5.019-2.208 7.593-3.123.657-.248 1.304-.474 1.95-.722 2.854-.678 5.331-2.326 8.164-3.08 2.359-1.314 4.858-2.348 7.432-3.177.786-.625 1.755-.851 2.714-1.056 3.124-1.422 6.301-2.768 9.586-3.791 3.134-2.176 6.915-3.113 10.426-4.513 2.294-.97 4.793-1.207 7.173-1.896 2.284-.915 4.589-1.777 6.84-2.768 2.165-.356 4.448.129 6.344 1.217 2.983.463 5.956.959 8.907 1.562 6.818.571 13.647-.011 20.411-.84 4.62-.237 9.209-.883 13.775-1.594 1.099-1.993 1.885-4.19 3.425-5.913 1.724-2.435 4.642-3.479 7.314-4.492.947-1.432 1.669-3.005 2.649-4.416 1.314-1.971 1.928-4.319 3.393-6.182 1.54-3.027 2.951-6.172 4.782-9.015 1.939-3.802 3.867-7.604 5.461-11.568 1.96-3.027 2.811-6.592 4.675-9.661 1.421-2.898 2.294-6.086 4.243-8.692 1.131-2.585 2.154-5.213 3.619-7.615 1.627-3.188 3.07-6.484 4.815-9.608 3.123-5.245 5.719-10.792 9.015-15.94 1.055-2.575 2.854-4.75 3.866-7.357 1.476-2.52 2.725-5.17 4.341-7.615 1.142-1.831 1.702-3.996 3.145-5.654 1.077-2.671 2.757-5.03 4.05-7.594 2.552-3.662 4.179-7.884 6.872-11.449Zm-.722 8.735c-2.897 4.869-5.741 9.78-8.304 14.842-2.488 4.179-4.858 8.434-7.001 12.796-4.19 7.044-7.981 14.303-12.236 21.293-1.68 3.835-4.017 7.346-5.59 11.234-1.605 3.436-3.446 6.764-4.987 10.243-4.157 8.725-8.724 17.244-12.935 25.947-2.1 3.037-3.081 6.678-5.267 9.64-1.099 2.552-2.564 4.922-4.018 7.291 2.682-.096 5.461 1.315 6.56 3.846 1.637-4.567 4.954-8.272 7.324-12.473.743-1.465 1.938-2.595 3.037-3.791-.732.14-1.411.431-2.089.711-.582-1.39.743-1.853 1.766-2.219 1.54-1.228 3.016-2.585 4.007-4.297-1.702.829-3.178 2.304-5.138 2.477l-.301-.959c2.208-1.842 4.986-3.059 7.593-4.297 1.282-1.11 2.229-2.542 3.619-3.522-2.273.743-4.341 2.175-6.732 2.52-1.195.409-.7-1.476.033-1.583 4.394-2.295 9.467-3.382 13.118-6.904-3.533 1.303-6.925 2.94-10.437 4.286-.7.259-1.464.205-2.175.28.183-.603.237-1.411.98-1.615 1.68-.894 3.533-1.357 5.245-2.165 3.178-1.637 6.786-2.186 9.909-3.931.937-1.088 1.853-2.305 1.842-3.813-2.94 1.292-6.021 2.143-9.015 3.285-1.26.42-2.466 1.292-3.856.937-.226-1.67 1.809-1.95 2.983-2.273 2.629-.452 4.837-2.165 7.519-2.445a44.234 44.234 0 0 1 2.38-.463c1.045-1.077 1.001-2.692 1.895-3.845.033-.258.087-.765.119-1.012-1.756.84-3.479 1.755-5.342 2.347-2.715.894-5.332 2.564-8.305 2.166.399-1.454 1.971-1.648 3.189-2.069 3.575-.99 7.022-2.38 10.372-3.952 1.292-.614 1.734-2.079 1.906-3.382-4.093 1.034-7.906 3.048-12.063 3.834.032-.883.409-1.788 1.4-1.917 3.641-1.013 7.238-2.251 10.696-3.813 1.206-.409 1.066-1.896 1.454-2.897-.927.129-1.842.344-2.629.851-2.401.527-4.599 1.992-7.13 1.831.227-.744.377-1.702 1.357-1.734 3.135-.744 5.913-2.413 9.015-3.285a31.813 31.813 0 0 0 1.498-3.921c-2.316 1.336-4.89 2.133-7.389 3.059-1.411.431-.636-1.465.108-1.616 2.638-1.497 5.826-1.906 8.11-4.039.108-1.346.312-2.757 1.249-3.791-1.949.646-3.769 1.626-5.654 2.466-.862.776-2.725.248-1.648-1.055 2.046-1.357 4.33-2.348 6.667-3.07 1.465-.625 1.519-2.434 1.788-3.77-1.185.485-2.327 1.347-3.662 1.121-.431-2.23 2.434-2.348 3.834-3.102 1.142-.356.636-1.842.872-2.725-.732.377-1.486.786-2.337.689-.527-1.863 2.004-2.617 3.296-3.339.205-.926.409-1.842.603-2.757a34.827 34.827 0 0 1-.818-.539c2.714-.732 2.132-3.931 3.145-5.956 1.228-2.466 1.325-5.289 2.455-7.787 1.282-2.973 1.39-6.344 2.941-9.209 1.12-4.944 3.533-9.489 4.437-14.465-1.411 1.734-2.154 3.888-3.263 5.805Zm-67.662 119.253c-1.852 1.627-3.166 3.824-4.071 6.097-.269 1.518-.226 3.069-.226 4.62l.032-.01c.022-1.196.011-2.392.119-3.576.183-.334.56-1.013.743-1.347l.689.313c-.108 3.726.183 7.701 2.639 10.727.872 1.616 2.865 1.562 4.448 1.821-.011.29-.043.861-.064 1.141 1.044-.043 2.122.097 3.145-.161 1.044-.593 2.1-1.185 3.188-1.702 2.068-1.099 3.296-3.188 4.2-5.256.334-2.833.442-5.806-1.044-8.358-1.659-3.221-5.127-5.439-8.757-5.504-1.702.323-3.296 1.066-5.041 1.195Zm-57.968 8.919c-2.52.678-3.586 3.36-5.299 5.094-2.402 2.434-4.459 5.149-6.861 7.583-1.055 1.077-1.734 2.811-3.468 2.919-.108-1.659 1.573-2.747 2.445-3.975 2.639-3.328 5.741-6.247 8.498-9.478-1.346.075-2.66.399-3.953.765-.689.355-1.378.711-2.057 1.077-2.165 4.05-5.127 7.593-8.121 11.061-.862.733-1.594 2.176-2.94 1.821.14-1.358 1.357-2.198 2.111-3.221 2.229-2.876 4.933-5.482 6.419-8.853-2.467 1.066-5.256 1.346-7.55 2.692-.27.076-.787.216-1.045.291-.722.377-1.454.711-2.197 1.056-1.939 1.346-4.233 1.874-6.441 2.574a40.066 40.066 0 0 0-5.633 2.66c-3.199.808-6.075 2.488-9.252 3.339-2.37.765-4.459 2.305-6.98 2.585-1.023.485-2.1.829-3.199 1.088-1.066.517-1.928 1.432-3.112 1.712-3.016.582-5.461 2.726-8.552 3.059-1.121.711-2.435.991-3.609 1.573-3.166 1.616-6.839 1.82-9.93 3.597.183.14.571.431.754.571.129-.129.388-.377.517-.495 8.412-1.325 16.748-3.285 25.257-3.91 7.626-1.422 15.273-2.811 22.974-3.77 3.188-1.357 6.753-1.206 10.146-1.594 1.39-.366 2.822-.517 4.254-.582 1.745-.506 3.523-.936 5.343-1.044 2.337-.883 4.739-1.584 7.216-1.95 8.164-1.874 16.447-3.188 24.611-5.008 4.319-1.648 9.004-1.745 13.496-2.628a19.547 19.547 0 0 1 3.156-.539c2.843-1.281 6.042-1.357 9.101-1.605a18.472 18.472 0 0 1 3.156-.57 26.475 26.475 0 0 1 2.477-.431c-.916-2.338-1.529-4.815-1.368-7.346-.775.043-1.562.097-2.348.151-1.454.592-3.026.42-4.556.334.657.204 1.346.355 2.025.517-3.802.484-7.636.603-11.46.689-1.034 1.271-2.025 2.596-3.253 3.695-.409.269-1.141.958-1.518.269.43-1.347 1.497-2.338 2.283-3.479-4.211-.593-8.498.764-12.666-.323-1.875-.076-3.738-.13-5.612-.27-2.068 3.684-5.041 6.754-7.604 10.093-.84.797-1.659 2.315-3.005 1.96l-.043-1.045c2.035-2.8 4.523-5.278 6.742-7.938.722-1.077 1.411-2.186 2.305-3.134-1.249-.442-2.574-.614-3.899-.614-1.841 2.919-3.565 5.988-6.021 8.455-1.497 1.519-2.585 3.64-4.782 4.243.14-.678.173-1.432.776-1.884 3.371-3.479 6.031-7.561 8.659-11.611-.344-.129-1.023-.388-1.367-.517-1.67-.076-3.426-.388-5.02.291Zm69.579 13.172c.162 1.206 1.12 2.057 1.799 3.005 2.326 2.887 4.082 6.161 6.031 9.306 1.767 2.531 3.566 5.084 4.729 7.96.603 1.141 1.411 2.175 2.186 3.22.151 1.314.431 2.65 1.185 3.781.032.334.108 1.012.14 1.346h.151c-.022-1.422-.173-2.854.129-4.265h1.163c.205 4.222.28 8.52 1.454 12.612.227.84.464 1.681.647 2.531.064.367.194 1.088.258 1.444.151-3.867-.312-7.788.183-11.654.302 0 .916-.022 1.217-.022.183 4.47-.14 8.961.162 13.431.151.948.926 1.605 1.669 2.144.183-3.522-.172-7.066.302-10.566.334 0 1.012.01 1.357.021.043 3.684 0 7.389-.032 11.073-.086 1.454 1.443 2.272 2.498 2.951.28-2.941-.344-5.967.507-8.822.161-.743 1.454-1.131 1.454-.075.269 3.834-.065 7.701.205 11.557a86.575 86.575 0 0 1 1.755 1.637c-.097-1.852-.14-3.748.302-5.568.043-1.174.075-2.348.237-3.501l1.152.043c.668 3.501-.571 6.991-.205 10.513.625.538 1.25 1.098 2.014 1.464.173-1.992.13-4.006.539-5.967-.129-.98 2.068-1.163 1.573.043.107 2.607-.108 5.213 0 7.82.667.635 1.174 1.766 2.283 1.519.162-1.411-.797-4.416 1.303-4.589 1.368 1.864.269 4.545.668 6.732.463.506.926 1.023 1.379 1.551l.969.129c.194-1.195-.237-4.017 1.702-3.479.366 1.831-.054 3.716.086 5.579.657 1.401 1.982.776 3.113.528-.054 2.187 1.572 3.705 3.296 4.739 3.855 3.124 7.668 6.355 11.05 9.985 6.075 4.933 11.837 10.232 17.729 15.37 1.982 2.057 3.759 4.459 6.409 5.741a31.774 31.774 0 0 0-2.305-3.124c-2.898-3.393-5.224-7.195-7.939-10.728-5.234-7.162-10.706-14.142-15.908-21.337-4.384-5.805-8.422-11.89-12.935-17.599-11.073-13.883-22.662-27.347-33.53-41.402-2.94-3.932-6.182-7.669-8.81-11.816a21.91 21.91 0 0 1-5.321 4.739Zm-10.631 4.588a127 127 0 0 1 .043.615c1.767-.173 3.77-.13 5.321-1.131.065-.324.194-.97.248-1.304-2.025.065-3.673 1.4-5.612 1.82Zm.022 3.652c-.022.614-.022 1.238-.032 1.863 1.874-.528 3.672-1.271 5.557-1.766-.01-.614-.021-1.217-.021-1.821-1.81.657-3.641 1.282-5.504 1.724Zm-.011 4.707a8.21 8.21 0 0 0-.054 1.992c1.756-.743 3.458-1.594 5.224-2.294.754-.28.237-1.303.399-1.885-1.831.797-3.759 1.357-5.569 2.187Zm-.441 4.405c-.022 1.12-.044 2.24-.054 3.36 2.175-.571 4.448-1.087 6.398-2.272.118-1.476.032-2.973.043-4.449-1.864 1.562-4.072 2.639-6.387 3.361Zm-.431 6.301c.043 1.335.01 2.671-.054 4.017 2.272-1.023 4.254-2.671 6.721-3.22a19.624 19.624 0 0 0-.065-4.212c-2.143 1.25-4.653 1.842-6.602 3.415Zm-.119 6.527c.022 1.615.022 3.22.011 4.836 2.326-1.164 4.588-2.574 7.141-3.178a50.144 50.144 0 0 0-.118-5.686c-2.262 1.475-4.772 2.541-7.034 4.028Zm1.853 6.053c-.646.388-1.734.668-1.691 1.637-.216 2.014-.162 4.05-.14 6.075 2.488-1.077 4.836-2.435 7.345-3.436a74.19 74.19 0 0 0-.129-7.443c-1.82 1.002-3.511 2.241-5.385 3.167Zm-2.337 10.491c-.022 3.048-.076 6.107-.086 9.165 1.928-.592 3.554-2.143 5.697-1.917-1.217 2.133-4.017 2.618-5.719 4.319-.011 3.027-.205 6.043-.183 9.08 2.305-.926 3.974-3.199 6.548-3.371a4.028 4.028 0 0 1-1.508 2.369c-1.518 1.196-3.091 2.596-5.126 2.639-.14 1.95-.151 3.888-.097 5.838 1.421-.377 2.843-.732 4.308-.883.108 2.563-2.897 3.253-4.89 3.716a126.84 126.84 0 0 1-.043 5.374c.98-.517 2.014-.948 3.048-1.335.786-.765 3.274-1.562 3.016.28-1.53 1.561-3.91 1.906-5.827 2.875-.205 2.65-.226 5.31-.129 7.971 1.809-.603 3.479-1.551 5.31-2.079-.054.485-.194 1.465-.259 1.96-1.938.851-3.748 1.96-5.644 2.919.022 2.359-.021 4.728-.075 7.098 1.831-1.68 4.244-2.865 6.753-2.887-1.217 2.704-4.48 3.296-6.451 5.213-.41 1.961-.205 3.986-.151 5.978 2.122-.829 3.866-2.714 6.301-2.595-.356.689-.431 1.723-1.228 2.089-1.756 1.056-3.565 2.025-5.224 3.242-.474 2.176-.14 4.438-.129 6.656 1.928-1.195 3.78-2.692 6.085-3.037v1.389c-1.906 1.519-4.05 2.704-6.139 3.964-.183 2.122-.356 4.254-.097 6.366 1.669-.539 3.145-1.498 4.61-2.446.948-.592 3.005-.947 2.542.808-2.079 1.961-4.955 2.887-7.518 4.082a23.67 23.67 0 0 0 .075 5.02c2.09-1.627 4.308-3.662 7.098-3.684-.011.28-.054.84-.075 1.12-2.338 1.842-4.535 4.136-7.454 5.009.076 1.744.097 3.511-.107 5.267 2.326-1.982 5.105-3.619 8.11-4.255-.065.431-.205 1.282-.269 1.712-2.553 1.627-5.095 3.286-7.777 4.718 0 1.799-.021 3.608-.054 5.418 1.648-1.357 3.156-2.984 5.203-3.748.786-.464 2.466-.022 1.454 1.077-1.821 2.294-4.352 3.974-7.012 5.148a53.535 53.535 0 0 1-.043 6.021c1.831-1.433 3.963-2.359 6.204-2.93 1.034-.829 2.283-1.174 3.597-1.098-.161.484-.355.958-.592 1.421-2.617 2.047-5.859 3.016-8.768 4.546-.495 1.637-.161 3.403-.086 5.094a44.756 44.756 0 0 1 4.664-2.456c.819-.474 2.93-.732 2.1.851-2.122 1.637-4.491 3.167-7.162 3.652 0 1.744 0 3.5-.033 5.256 2.09-1.11 4.276-2.251 6.689-2.348-.172.474-.366.947-.592 1.421-1.982 1.304-4.147 2.295-6.161 3.544.032 1.659.043 3.317.032 4.976 2.348-1.368 4.793-2.843 7.583-2.994v1.228c-2.435 1.96-5.418 3.015-8.025 4.706a35.71 35.71 0 0 1 .011 4.438c.227-.043.668-.118.883-.151.787-.549 1.691-.883 2.607-1.163 1.066-.7 2.316-.98 3.576-1.088-.162.592-.022 1.433-.722 1.734-1.992 1.346-4.427 1.874-6.408 3.264.107 1.949.064 3.899-.033 5.848h.959c1.293-1.314 3.037-1.906 4.782-2.294.754-.506 1.648-.528 2.531-.517-.28.689-.377 1.583-1.163 1.928a52.603 52.603 0 0 1-7.076 3.587c.021 2.509-.022 5.04-.033 7.561 2.865-1.164 5.375-3.382 8.531-3.673-.043.915-.507 1.734-1.293 2.208-2.165 1.422-4.631 2.283-6.925 3.468-.345 1.96-.259 3.942-.162 5.924 2.725-1.023 5.041-2.994 7.971-3.49a57.65 57.65 0 0 0-.022 1.379c-.259.14-.776.409-1.034.549-1.853 2.219-4.642 3.35-7.119 4.729a124.377 124.377 0 0 0-.141 4.039c2.392-1.078 4.664-2.391 6.969-3.63.646-.366 1.325-.474 2.057-.291.356 1.4-1.185 2.079-2.068 2.811-2.218 1.368-4.545 3.048-7.248 3.048.021 2.467.075 4.922-.065 7.389 1.454-1.153 3.124-1.96 4.739-2.865 1.12-.549 2.284-1.68 3.63-1.26l.011.592c-2.155 2.811-5.472 4.265-8.402 6.053.033 1.347.044 2.693.054 4.05 2.661-.894 4.858-3.253 7.788-3.08-1.541 2.639-4.621 4.071-7.4 5.051-.485 1.713-.377 3.511-.28 5.278 2.682-1.336 5.073-3.414 8.078-3.985v.969c-2.316 2.887-5.838 4.405-8.713 6.645.204 2.079-.108 4.158-.184 6.237.302 2.617.248 5.245.151 7.895 3.199-1.939 6.463-3.792 9.952-5.181.022 1.831-1.831 2.779-3.026 3.856-2.133 1.271-4.255 2.746-6.721 3.22a31.352 31.352 0 0 0 .011 4.718c2.369-.894 4.448-2.348 6.667-3.533.668-.366 1.734-.905 2.358-.151.13 1.228-1.163 1.831-1.981 2.478-2.477 1.454-4.879 3.101-7.669 3.899.086 1.874.054 3.748-.022 5.622 3.189-1.26 5.623-3.975 8.886-5.03.991-.517 1.519.485.851 1.249-2.865 2.661-6.451 4.319-9.78 6.28v2.811c2.898-1.433 5.59-4.082 9.026-3.802.399 1.012-.581 1.648-1.303 2.089-2.413 1.519-5.041 2.628-7.518 4.007-.538 1.422-.097 3.091-.215 4.621 2.682-1.939 5.6-3.522 8.562-4.955.744-.474 1.605-.237 2.413-.161-.118.269-.355.807-.474 1.066-3.21 2.682-7.033 4.448-10.577 6.645.032 1.799.033 3.609.033 5.418 3.005-1.756 5.988-3.673 9.359-4.599.313.7.194 1.616-.538 2.036-2.704 2.326-6.344 3.166-9.069 5.428-.27 1.702-.032 3.457-.194 5.181 3.587-2.197 6.882-5.439 11.201-6-.484 1.853-2.391 2.693-3.791 3.781-2.348 1.411-4.437 3.317-7.022 4.298a30.68 30.68 0 0 0-.033 6.053c2.424-1.659 4.966-3.102 7.4-4.729.689-.581 1.605-.484 2.434-.581a51.428 51.428 0 0 0-.075 1.325c-3.016 2.8-6.711 4.717-10.2 6.85.064 1.798.064 3.597-.086 5.396 2.068-1.734 4.426-3.059 6.688-4.513 1.39-.776 2.682-1.896 4.362-1.831v1.745c-3.511 2.111-6.85 4.48-10.329 6.634-.883 1.358-.441 3.189-.517 4.75 2.973-1.087 5.203-3.629 8.261-4.642.916-.528 3.522-1.174 2.542.722-1.368 1.4-3.252 2.175-4.76 3.425-2.154 1.659-4.783 2.736-6.57 4.836a20.928 20.928 0 0 1-.151 3.274c2.035-1.701 4.545-2.66 6.871-3.877 1.821-.84 3.566-2.014 5.612-2.208 0 1.238-.614 2.348-1.723 2.94-2.725 1.734-5.666 3.188-8.714 4.244 6.29-.054 12.591-.065 18.87-.011.205-8.11-.269-16.21-.366-24.309.097-5.526-.409-11.04-.301-16.576-.259-7.109.495-14.261-.356-21.348-.118-8.929-.108-17.858-.215-26.776a14.611 14.611 0 0 1-.323-2.014c-.184-7.098.172-14.207-.41-21.283.108-4.631-.495-9.231-.247-13.862.312-6.581-.399-13.151-.27-19.732-.398-8.186.087-16.393-.538-24.568.043-6.57-.237-13.14-.216-19.721-.43-4.61-.344-9.241-.312-13.862.108-3.404-.495-6.786-.366-10.178h.484c-.032 1.454-.193 2.951.216 4.373.345-1.81.269-3.673-.463-5.375-.657-7.098-.42-14.25-.786-21.369-.141-4.061.646-8.132.15-12.171-.603 1.906.248 4.028-.517 5.848-.032-9.284-.56-18.568-.549-27.853-.043-2.843.075-5.697-.366-8.519-.431-5.138.204-10.34-.539-15.456-.097-1.013-.075-2.014-.054-3.005-2.52 1.906-5.353 3.36-8.088 4.944" fill="#040606"/><path d="m340.041 233.066 1.142-.042c.193 2.628-.259 5.471 1.281 7.808.787.453 1.821.657 2.37 1.433.248 1.669-2.251 1.034-3.048.366-2.779-2.337-2.144-6.387-1.745-9.565Z" fill="#040606"/><path d="M343.26 233.551c.291 0 .84 0 1.12-.011.097 1.304-.011 2.607.151 3.9.345 1.141 2.52 1.314 2.036 2.757-3.555 1.002-5.17-4.309-3.307-6.646" fill="#040606"/><path d="M344.985 234.208c.667-.075 1.324-.14 1.992-.205.054 1.174.097 2.348.129 3.533-.441-.011-1.335-.054-1.777-.075-.28-1.066-.366-2.165-.344-3.253M280.112 241.898c1.702-1.96 2.811-4.631 5.234-5.848.28 1.486-.861 2.585-1.658 3.673-2.467 3.134-4.632 6.527-7.486 9.349-.474.549-1.131.883-1.788 1.163 1.217-3.177 3.824-5.547 5.698-8.337M300.178 238.366a67.34 67.34 0 0 0 1.347-.367c-.216 2.682-2.51 4.427-3.986 6.474-1.389 1.109-2.531 2.983-4.491 2.983 2.068-3.242 4.998-5.859 7.13-9.09M310.615 238.215c.366.312.743.657 1.098 1.002-1.745 2.251-3.339 4.76-5.762 6.343-1.271 0-.312-1.324.065-1.766 1.454-1.928 3.177-3.63 4.599-5.579ZM305.024 238.904c.744-.711 2.413 0 1.347 1.013-1.993 2.423-3.867 5.062-6.441 6.925-1.131.539-1.066-.948-.377-1.389 2.036-2.004 3.694-4.33 5.471-6.549ZM262.675 243.718c.711-.161 1.4-.366 2.1-.538-.442 1.389-1.626 2.273-2.596 3.264-1.54 1.486-2.757 3.252-4.287 4.749-1.421 1.379-2.638 3.124-4.588 3.792.022-.356.076-1.077.108-1.433 2.833-3.511 6.236-6.505 9.263-9.834ZM247.595 252.604c1.96-1.798 3.64-4.265 6.333-4.943-.162 1.54-1.508 2.402-2.477 3.446-1.594 1.508-2.941 3.286-4.718 4.6-.291-.011-.872-.022-1.163-.033-.129-1.368 1.282-2.132 2.025-3.07ZM341.818 328.064c1.357-.399.98 1.831-.183 1.562-.948-.14-.593-1.465.183-1.562Z" fill="#040606"/></g><defs><clipPath id="a"><path fill="#fff" d="M0 0h480v480H0z"/></clipPath></defs></svg>