<svg width="480" height="480" fill="none" xmlns="http://www.w3.org/2000/svg"><g clip-path="url(#a)"><path d="M282.74 75.342c-.06 1.796 2.086 2.3 3.362 2.996.415.786.745 1.607.985 2.463.941.154 1.941.59 2.366 1.525.671 1.13.176 2.807 1.481 3.547.756.071 1.701-.066 2.262.626.875.86.875 2.19 1.225 3.32.676.14 1.471.205 2.006.762.761.659.826 1.765 1.146 2.676.896.4 1.361 1.276 1.936 2.026.621.516 1.491.575 2.207.966-.161.17-.496.516-.661.69 1.326 1.952 1.346 4.508.45 6.654-.47 1.511-1.285 2.921-2.566 3.892-1.041.79-2.186 2.451-3.592 1.367.13 2.447-3.237 2.851-3.752 4.923 2.391 2.356 4.707 4.791 7.369 6.882 2.036-2.992 3.832-6.168 5.163-9.545.635-1.576 1.981-2.706 3.497-3.411.005.25.03.724.04.971.7-.25 1.346-.606 2.021-.942 1.891-.95 4.368-.956 5.979.57 1.2 1.226 2.766 2.111 3.627 3.668 1.661.059 2.816 1.31 3.587 2.686.725.121 1.531.106 2.211.486.77.62 1.091 1.851 2.216 1.98 1.536.176 2.102 1.718 2.567 2.978.705.27 1.321.71 1.886 1.255 1.476.006 2.791.69 3.887 1.645.08-.25.235-.74.315-.975.19-3.521.345-7.088-.43-10.535-2.306-1.571-5.053-2.402-7.329-4.053-1.716-1.296-3.807-2.072-5.298-3.641-.696-.836-1.901-.952-2.512-1.847-.725-.975-1.901-1.735-2.091-3.008-.215-1.705 1.051-3.065 1.356-4.676.455-1.895 2.516-2.751 3.087-4.598.685-.811-.931-1.53-1.451-1.005-2.066 2.021-4.693 4.096-7.745 3.887-1.095 1.37-2.611.264-3.702-.47-2.906-1.501-4.572-4.43-6.483-6.934-2.072-2.627-3.207-5.799-4.953-8.615-.716-1.301-2.352-1.487-3.643-1.763-4.002-.209-8.104-.273-12.026.577Zm-2.492-3.633c4.163-1.77 8.78-1.684 13.223-1.7 2.311-.096 4.617.6 6.659 1.661 3.201 2.515 4.037 6.774 6.318 9.986 1.831 2.46 3.072 5.388 5.378 7.483.756.872 2.092.891 3.057.346 1.511-.705 2.792-1.811 3.882-3.062.841-.995 2.267-.975 3.452-.88 1.686.2 2.717 1.8 4.348 2.156 1.06.365 2.631.52 2.812 1.911.17 1.471-1.331 2.165-2.557 2.255-2.116.372-2.416 2.799-3.772 4.063-.876.856-.756 2.152-.721 3.283 1.341.716 2.292 1.945 3.638 2.656 1.205.721 2.471 1.376 3.612 2.226 2.326 1.815 5.153 2.781 7.784 4.073 1.326.494 1.836 1.975 2.101 3.246.801 4.213.591 8.55.125 12.792-.15 1.161.075 2.703-1.035 3.473-.916.449-1.991.391-2.972.301-1.251 0-1.666-1.347-2.436-2.072-.771-.23-1.571.01-2.322-.18-.725-.365-1.245-1.025-1.776-1.592-1.631-.129-2.141-1.816-1.926-3.176-1.681.19-3.272-.705-3.862-2.292-.746-.125-1.656-.014-2.166-.659-.546-.611-.656-1.426-.946-2.138-.98-.109-2.241.256-2.937-.625-.47-.479-.88-1.059-1.545-1.251-1.336-.434-1.992-1.78-3.087-2.536-2.246.226-4.293 1.266-6.484 1.712-.84 3.717-2.536 7.254-4.858 10.285-.8 1.147-2.561 1.407-3.652.551-1.206-.856-2.231-1.921-3.412-2.781-1.636-1.202-2.796-2.937-4.517-4.018-1.141-.645-1.536-1.986-2.032-3.107-.43-1.016-.655-2.396.276-3.197 2.526-1.8 4.787-3.993 7.679-5.238.4-.725.77-1.536 1.556-1.936-.02.38-.045 1.151-.06 1.532.85-.307.385-1.407.74-2.033.521-1.295 1.011-2.706.456-4.072-.686-1.445-1.426-2.912-2.662-3.942-.715-.584-.855-1.536-1.121-2.341-.85-.235-1.786-.43-2.336-1.165-.75-.852-.295-2.087-.755-3.027-1.211-.096-2.557-.016-3.522-.856-.936-.962-1.121-2.351-1.261-3.608-.906-.254-2.051-.18-2.607-1.045-.71-.901-.25-2.441-1.471-2.926-1.255-.64-2.086-1.786-2.881-2.892-.671-.946-1.821-1.68-1.851-2.931.275-1.247 1.36-2.152 2.446-2.713M313.938 330.342c-.06 1.796 2.086 2.3 3.362 2.996.415.785.745 1.606.985 2.462.941.155 1.941.59 2.367 1.526.67 1.13.175 2.807 1.481 3.547.755.071 1.701-.066 2.261.626.875.86.875 2.19 1.226 3.32.675.141 1.47.205 2.006.762.76.659.825 1.765 1.145 2.676.896.4 1.361 1.276 1.936 2.026.621.516 1.491.575 2.207.966-.16.169-.496.516-.661.689 1.326 1.953 1.346 4.509.451 6.655-.471 1.51-1.286 2.921-2.567 3.892-1.04.79-2.186 2.451-3.592 1.367.13 2.447-3.237 2.851-3.752 4.922 2.391 2.357 4.708 4.792 7.369 6.883 2.036-2.992 3.832-6.168 5.163-9.545.635-1.577 1.981-2.706 3.497-3.412.005.251.03.725.04.972.701-.25 1.346-.606 2.021-.942 1.891-.95 4.368-.956 5.979.57 1.2 1.226 2.766 2.111 3.627 3.668 1.661.059 2.817 1.31 3.587 2.686.725.121 1.531.106 2.211.486.771.62 1.091 1.851 2.217 1.98 1.535.176 2.101 1.718 2.566 2.978.705.27 1.321.71 1.886 1.255 1.476.006 2.792.69 3.887 1.645.08-.25.235-.74.316-.975.19-3.521.345-7.088-.431-10.535-2.306-1.571-5.053-2.402-7.329-4.053-1.716-1.296-3.807-2.072-5.298-3.641-.695-.836-1.901-.952-2.512-1.847-.725-.975-1.901-1.735-2.091-3.008-.215-1.706 1.051-3.065 1.356-4.676.455-1.895 2.517-2.751 3.087-4.598.685-.811-.931-1.53-1.451-1.005-2.066 2.021-4.693 4.096-7.744 3.887-1.096 1.37-2.612.264-3.703-.471-2.906-1.5-4.572-4.428-6.483-6.934-2.071-2.626-3.207-5.798-4.953-8.614-.716-1.301-2.352-1.487-3.642-1.763-4.003-.209-8.105-.273-12.027.577Zm-2.492-3.633c4.163-1.77 8.781-1.684 13.223-1.7 2.311-.096 4.618.6 6.659 1.661 3.202 2.515 4.037 6.774 6.319 9.986 1.831 2.461 3.071 5.388 5.378 7.483.755.872 2.091.891 3.056.346 1.511-.705 2.792-1.812 3.883-3.062.84-.995 2.266-.975 3.452-.88 1.686.2 2.716 1.8 4.347 2.156 1.061.365 2.632.52 2.812 1.911.17 1.471-1.331 2.165-2.557 2.255-2.116.372-2.416 2.799-3.772 4.063-.875.856-.755 2.152-.72 3.283 1.34.715 2.291 1.945 3.637 2.656 1.205.721 2.471 1.376 3.612 2.226 2.326 1.815 5.153 2.781 7.784 4.073 1.326.494 1.836 1.975 2.102 3.246.8 4.213.59 8.55.125 12.792-.15 1.161.075 2.703-1.036 3.473-.916.449-1.991.391-2.972.301-1.25 0-1.666-1.347-2.436-2.072-.771-.23-1.571.01-2.321-.18-.726-.365-1.246-1.025-1.776-1.592-1.631-.129-2.142-1.816-1.927-3.176-1.68.19-3.272-.705-3.862-2.292-.745-.125-1.656-.014-2.166-.659-.545-.611-.655-1.426-.946-2.138-.98-.109-2.241.256-2.936-.625-.471-.479-.881-1.059-1.546-1.251-1.336-.434-1.991-1.78-3.087-2.536-2.246.226-4.292 1.266-6.484 1.712-.84 3.717-2.536 7.254-4.857 10.285-.801 1.147-2.562 1.407-3.653.551-1.205-.856-2.231-1.921-3.412-2.781-1.636-1.202-2.796-2.937-4.517-4.018-1.141-.645-1.536-1.986-2.031-3.107-.431-1.016-.656-2.396.275-3.197 2.526-1.8 4.788-3.993 7.679-5.238.4-.725.771-1.536 1.556-1.936-.02.38-.045 1.151-.06 1.532.851-.307.385-1.407.741-2.033.52-1.295 1.01-2.706.455-4.072-.686-1.445-1.426-2.912-2.662-3.942-.715-.585-.855-1.536-1.12-2.341-.851-.235-1.786-.43-2.337-1.165-.75-.852-.295-2.087-.755-3.027-1.211-.096-2.557-.016-3.522-.856-.936-.962-1.121-2.351-1.261-3.608-.906-.254-2.051-.18-2.606-1.045-.711-.901-.251-2.441-1.471-2.926-1.256-.641-2.086-1.786-2.882-2.892-.67-.946-1.821-1.681-1.851-2.931.275-1.247 1.361-2.152 2.446-2.713M122.938 194.954c-.06 1.796 2.086 2.3 3.362 2.996.415.785.745 1.606.985 2.462.941.155 1.941.59 2.367 1.526.67 1.13.175 2.807 1.481 3.547.755.071 1.701-.066 2.261.626.875.86.875 2.19 1.226 3.32.675.141 1.47.205 2.006.762.76.659.825 1.765 1.145 2.676.896.4 1.361 1.276 1.936 2.026.621.516 1.491.575 2.207.966-.16.169-.496.516-.661.689 1.326 1.953 1.346 4.509.451 6.655-.471 1.51-1.286 2.921-2.567 3.892-1.04.79-2.186 2.451-3.592 1.367.13 2.447-3.237 2.851-3.752 4.922 2.391 2.357 4.708 4.792 7.369 6.883 2.036-2.992 3.832-6.168 5.163-9.545.635-1.577 1.981-2.706 3.497-3.412.005.251.03.725.04.972.701-.25 1.346-.606 2.021-.942 1.891-.95 4.368-.956 5.979.57 1.2 1.226 2.766 2.111 3.627 3.668 1.661.059 2.817 1.31 3.587 2.686.725.121 1.531.106 2.211.486.771.62 1.091 1.851 2.217 1.98 1.535.176 2.101 1.718 2.566 2.978.705.27 1.321.71 1.886 1.255 1.476.006 2.792.69 3.887 1.645.08-.25.235-.74.316-.975.19-3.521.345-7.088-.431-10.535-2.306-1.571-5.053-2.402-7.329-4.053-1.716-1.296-3.807-2.072-5.298-3.641-.695-.836-1.901-.952-2.512-1.847-.725-.975-1.901-1.735-2.091-3.008-.215-1.706 1.051-3.065 1.356-4.676.455-1.895 2.517-2.751 3.087-4.598.685-.811-.931-1.53-1.451-1.005-2.066 2.021-4.693 4.096-7.744 3.887-1.096 1.37-2.612.264-3.703-.471-2.906-1.5-4.572-4.428-6.483-6.934-2.071-2.626-3.207-5.798-4.953-8.614-.716-1.301-2.352-1.487-3.642-1.763-4.003-.209-8.105-.273-12.027.577Zm-2.492-3.633c4.163-1.77 8.781-1.684 13.223-1.7 2.311-.096 4.618.6 6.659 1.661 3.202 2.515 4.037 6.774 6.319 9.986 1.831 2.461 3.071 5.388 5.378 7.483.755.872 2.091.891 3.056.346 1.511-.705 2.792-1.812 3.883-3.062.84-.995 2.266-.975 3.452-.88 1.686.2 2.716 1.8 4.347 2.156 1.061.365 2.632.52 2.812 1.911.17 1.471-1.331 2.165-2.557 2.255-2.116.372-2.416 2.799-3.772 4.063-.875.856-.755 2.152-.72 3.283 1.34.715 2.291 1.945 3.637 2.656 1.205.721 2.471 1.376 3.612 2.226 2.326 1.815 5.153 2.781 7.784 4.073 1.326.494 1.836 1.975 2.102 3.246.8 4.213.59 8.55.125 12.792-.15 1.161.075 2.703-1.036 3.473-.916.449-1.991.391-2.972.301-1.25 0-1.666-1.347-2.436-2.072-.771-.23-1.571.01-2.321-.18-.726-.365-1.246-1.025-1.776-1.592-1.631-.129-2.142-1.816-1.927-3.176-1.68.19-3.272-.705-3.862-2.292-.745-.125-1.656-.014-2.166-.659-.545-.611-.655-1.426-.946-2.138-.98-.109-2.241.256-2.936-.625-.471-.479-.881-1.059-1.546-1.251-1.336-.434-1.991-1.78-3.087-2.536-2.246.226-4.292 1.266-6.484 1.712-.84 3.717-2.536 7.254-4.857 10.285-.801 1.147-2.562 1.407-3.653.551-1.205-.856-2.231-1.921-3.412-2.781-1.636-1.202-2.796-2.937-4.517-4.018-1.141-.645-1.536-1.986-2.031-3.107-.431-1.016-.656-2.396.275-3.197 2.526-1.8 4.788-3.993 7.679-5.238.4-.725.771-1.536 1.556-1.936-.02.38-.045 1.151-.06 1.532.851-.307.385-1.407.741-2.033.52-1.295 1.01-2.706.455-4.072-.686-1.445-1.426-2.912-2.662-3.942-.715-.585-.855-1.536-1.12-2.341-.851-.235-1.786-.43-2.337-1.165-.75-.852-.295-2.087-.755-3.027-1.211-.096-2.557-.016-3.522-.856-.936-.962-1.121-2.351-1.261-3.608-.906-.254-2.051-.18-2.606-1.045-.711-.901-.251-2.441-1.471-2.926-1.256-.641-2.086-1.786-2.882-2.892-.67-.946-1.821-1.681-1.851-2.931.275-1.247 1.361-2.152 2.446-2.713" fill="#2E9791"/><path d="M198.947 212.787c-.896 3.246.78 6.386.369 9.632-.917 7.577-1.086 15.207-2.097 22.774.6.021 1.781.052 2.371.084.443-5.786 1.17-11.561.885-17.347-.231-3.203.706-6.723-1.127-9.558-.053-1.865.126-3.783-.401-5.585Zm40.584-7.957c.4 2.951.432 5.923.601 8.916 1.149 10.665.2 21.403.706 32.121 1.939-.032 3.888-.032 5.87.011.042-9.411.221-18.822.021-28.244-.032-4.31-1.402-8.599-.369-12.888a61.442 61.442 0 0 0-6.829.084Zm35.409-.285c1.044 8.041 1.581 16.219.411 24.302-.906 5.649.053 11.371.527 17.031 2.235.179 4.469.284 6.745.305-.506-13.879.284-27.758.4-41.638-2.698 0-5.406-.01-8.083 0Zm-24.491-.01c1.813 6.007 2.245 12.362 2.181 18.621-.168 7.483.348 15.028-.548 22.49 2.898.179 5.807.21 8.737.147-1.159-7.735-1.254-15.565-1.844-23.343-.517-3.709-.928-7.535-.337-11.223.337-1.244 1.095-3.72 2.845-2.382.727 1.444.569 3.151.98 4.732.801-2.508-.801-4.753-.927-7.177-.074-.695-.222-1.918-1.149-1.77-3.331-.148-6.639.01-9.938-.095Zm-30.983.032c-.063 3.024.453 6.049.653 9.094.032 10.518.105 21.035-.337 31.521 5.058.179 10.128.738 15.207.432-.337-13.658-.221-27.337-.538-40.974-5.005-.073-10 .053-14.985-.073Zm-19.065-.085c-.031.896.032 1.876.074 2.825.39-.833.791-1.655 1.244-2.414 1.422-.042 2.856-.105 4.321-.2.716.98 1.264 2.034.4 3.204-.991 2.086-.474 4.426-.495 6.65.474 7.103.137 14.237.21 21.351.053 3.267 2.456 6.829-.158 9.684 2.93-.221 5.86-.158 8.8.032.063-3.541-.179-7.061-.559-10.549.148-10.159-.558-20.476 1.486-30.498-5.111.368-10.222-.411-15.323-.085Zm-19.485-.305c.411 13.879.632 27.8-.127 41.69 2.371-.011 4.764-.032 7.198-.032.675-4.647.885-9.305.833-13.953 1.085-9.042 1.77-18.136 1.443-27.21-3.119-.169-6.249-.411-9.347-.495Zm70.481-27.822c-1.454.98-4.183 1.792-3.403 4.057.632 5.112.706 10.286 2.065 15.292 3.53.168 7.092.137 10.654.01.232-7.756-.042-15.502.074-23.258.18-1.233-.379-2.182-1.222-2.93-1.296 3.551-5.259 4.879-8.168 6.829Zm-28.38-5.006a87.376 87.376 0 0 0-.927 10.655c-.137 4.637-1.328 9.168-1.465 13.816 6.808.147 13.616.042 20.434.063-.453-3.288-.98-6.566-.854-9.885.074-3.931-1.317-7.714-1.032-11.645-3.215 3.846-6.998 7.155-10.412 10.823-1.033 1.465-3.815.168-2.456-1.571 3.351-4.984 7.599-9.295 11.435-13.889.368-3.331-1.623-6.397-1.602-9.727-4.268 3.92-8.737 7.608-13.121 11.36Zm-7.293-11.255c-4.089 2.972-8.209 6.102-12.941 8.02-.063 9.295-.105 18.59.043 27.853 3.214-.147 6.459-.126 9.695-.042.179-6.133 1.043-12.214 1.612-18.305-1.317.885-3.109 2.529-4.711 1.306.243-3.362 4.975-4.299 5.133-7.788.221-3.73 1.022-7.345 1.169-11.044Zm9.148-6.555c-.485 3.868-.759 7.777-1.212 11.687 3.668-3.351 7.103-6.997 11.076-10.011.116-2.709-.19-5.396-.748-8.02-3.604 1.054-6.176 4.163-9.116 6.344Zm22.964-18.442c-2.498 1.654-4.501 3.93-6.946 5.617.338 2.613.833 5.185 1.117 7.84 3.004-2.571 6.018-5.121 9.369-7.197 2.045-1.181 3.995-2.783 6.492-2.804-3.362 5.375-8.462 9.327-12.973 13.69-.748.801-2.182 1.528-1.676 2.856.38 2.561.907 5.069 1.065 7.661 3.341-.843 5.501-4.257 9.052-4.858 1.476.39.117 1.749-.389 2.318-2.276 2.466-4.458 5.027-6.713 7.525-.527 2.013.231 4.11.4 6.186 4.215-2.719 8.747-5.965 14.09-5.1-.263-11.382.306-22.785-.2-34.167-4.215.369-8.484-.084-12.688.433Zm-20.993-.201c-.274 2.076-.548 4.184-.917 6.271 2.308.01 4.626.158 6.966.369a148.57 148.57 0 0 0-1.339-6.661c-1.591.021-3.171.021-4.71.021Zm-24.07-.147c-.106 10.159-.348 20.318-.032 30.477 3.499-3.414 7.988-5.511 11.729-8.599 3.215-1.95 1.697-6.197 2.677-9.253-2.792-.706-5.585 0-8.273.654-2.413.4-3.72-2.994-1.939-4.469 2.625-2.824 6.819-2.308 10.318-2.382.411-2.128.769-4.226.937-6.365-5.153.011-10.296.021-15.417-.063Zm24.786-44.167c-4.394 5.08-8.378 10.549-12.899 15.523-5.111 6.334-11.603 11.287-17.367 16.967 2.919-.432 5.712.422 8.452 1.36 5.511.537 11.086.063 16.608-.137 11.624-.559 23.227.411 34.851.316 3.699.411 7.251-1.265 10.981-.917-5.174-8.231-13.226-13.921-20.74-19.823-2.971-2.529-5.585-5.47-8.315-8.252-2.181-2.118-2.35-5.532-4.657-7.493-2.193 1.35-5.354.064-6.914 2.456Zm-1.191 537.802c-.748-2.234-8.957-6.977-9.727-9.169 1.033-2.655 2.846.464 3.657 1.581 2.793 3.288 7.503 4.574 11.592 3.13 1.971-.885 4.564.2 5.017 2.382.179 2.329-2.245 3.583-4.184 3.973-2.624.295-5.301.495-7.914.105-2.097-.822-7.082-9.242-8.168-11.171-17.083-.179-30.951 6.977-48.034 6.808-1.412 1.539-2.477 4.11-4.911 4.015-2.888-.231-4.395-3.014-5.364-5.385-1.065-2.466-.148-5.153.906-7.419.611-1.675 2.792-2.856 4.415-1.707 2.793 1.338 2.193 4.963 2.34 7.556 1.349-1.233 3.72-2.371 3.183-4.553-1.697-8.23 1.043-16.408.632-24.66.791-5.269.474-10.602 1.307-15.829.39-4.763-.053-9.548.422-14.3.832-3.889.326-7.904 1.19-11.793.654-6.049-.063-12.193.612-18.221.685-5.902.189-11.877.579-17.768.97-4.363.264-8.842.97-13.226.811-5.754-.053-11.613.948-17.357.443-3.14.053-6.386.622-9.537.97-5.501-.19-11.161 1.001-16.641.253-6.586 1.328-13.067 1.075-19.654 1.159-8.209 1.528-16.493 2.519-24.702.853-9.738.368-19.518 1.106-29.245.527-6.323.179-12.688.475-19.022 1.58-10.728-.148-21.625 1.254-32.353 1.37-11.887 1.011-23.87 1.127-35.799.917-6.587.127-13.258 1.075-19.823.179-1.549-.179-3.078-.443-4.542-1.654-5.997.148-12.151.96-18.116-3.9-.148-8.073.738-11.698-1.054-1.981-1.728-2.761-4.563-2.677-7.124-.116-14.501-.158-29.013.042-43.524-.168-3.299 1.571-6.924 4.911-7.883 4.88-.79 9.864-.042 14.786-.537 1.464-1.507.379-4.037.706-5.912a200.928 200.928 0 0 1-.19-28.497c.211-8.957-.738-18.031 1.001-26.862.274-1.075-.158-2.003-.674-2.846-3.077.264-6.155 1.065-9.232.58-2.171-.907-4.015-3.32-3.172-5.723.443-2.655 3.13-3.751 4.837-5.501 2.603-2.118 4.922-4.573 7.44-6.807 5.934-4.553 10.497-10.56 15.766-15.819 4.732-5.849 9.095-12.077 14.638-17.178-2.645-5.764-2.487-13.405 2.814-17.62.074-5.164.948-10.275.843-15.429.221-3.077-.506-6.333.59-9.263.938-2.877 5.733-2.434 6.207.506.527 4.5.263 9.053.495 13.595 2.993 2.466 3.383 6.67 2.604 10.243-.517 1.75 1.053 3.088 1.622 4.627 1.002 3.435.148 7.018.074 10.538.337 1.233 1.887 1.454 2.73 2.371 2.793 2.709 5.332 5.744 7.124 9.243 3.425 5.121 9.063 8.083 13.384 12.351 2.719 2.835 6.144 4.911 8.631 7.988 2.118 2.634 4.036 5.427 6.017 8.188 1.929 2.772 2.53 6.935.348 9.748-1.56 1.771-4.142 1.613-6.228 2.287.168 21.752.105 43.493-.137 65.276 5.438.032 10.865 0 16.303-.042 1.76-.063 3.752.484 4.858 1.991 1.37 2.941 1.064 6.282 1.107 9.454.042 13.194.073 26.388.063 39.572.179 3.045-1.434 6.08-3.742 7.946-3.72.98-7.64.411-11.434.537.454 3.552 1.708 6.977 1.602 10.602-.368 12.783 2.003 25.419 3.731 38.013.485 8.989-.084 17.989.548 26.978.116 9.01 1.465 17.916 1.939 26.884.327 6.797 2.329 13.574 1.612 20.36a6.613 6.613 0 0 0 1.012-1.022c-.243 3.32.569 6.587.843 9.896.949 7.63.59 15.375 1.254 23.026 1.381 8.199 1.181 16.567 2.635 24.766 2.076 11.202 1.728 22.668 3.193 33.945.211 1.464-.084 2.94-.179 4.489.295-.432.6-.801.927-1.17-.358 6.27.675 12.53.643 18.833-.042 3.309.727 6.681-.021 10.022.337-.295.664-.622 1.001-.96-.337 4.616.601 9.211.675 13.838-.074 4.763.842 9.453 1.085 14.195.622 4.774.148 9.643 1.043 14.396 1.486 12.899 2.045 25.851 3.331 38.76.558 10.233 3.446 20.298 3.193 30.562 1.222-1.581 3.13-3.077 5.238-2.097 3.066.938 3.098 4.626 3.298 7.261-.032 1.56.695 3.615-.801 4.774-1.697 1.908-4.447.643-6.365-.169-1.149-1.465-1.392-3.34-1.803-5.048-1.549 1.128-3.382 1.107-5.153.696.348 2.023.527 4.078.053 6.112-2.54 1.771-5.564 1.381-8.135-.073-.538-.854-1.223-1.623-1.856-2.308 0-3.931-1.001-8.631 2.161-11.656.895-1.391 2.561-1.581 4.099-1.581-.095-3.235-1.517-6.334-.769-9.548a2.68 2.68 0 0 0-.991.949c-.527-10.76-2.94-21.341-3.488-32.111-1.001-8.937-1.444-17.947-2.792-26.831-1.202-3.784-.422-7.788-1.318-11.603-.358-5.944-1.275-11.845-1.106-17.821-.938-5.248-.464-10.58-1.202-15.808-.653-5.005.053-10.074-.663-15.07-1.56-16.113-1.75-32.374-4.385-48.392-.6-8.684-2.539-17.284-2.308-26.041.127-4.152-.611-8.336.043-12.446-.411.253-.728.59-.96 1.001.064-5.206-1.106-10.317-1.369-15.492-.169-6.671-1.507-13.236-1.823-19.886-.39-9.263-1.581-18.432-1.866-27.685-.885-9.221.074-18.547-.569-27.79-1.791-11.771-4.237-23.585-3.763-35.567.243-4.058-1.169-7.999-.979-12.056-11.983.348-23.965.611-35.969.537-6.07-.21-12.108.738-18.157.496-5.997.231-11.961-.232-17.926.179-.928 2.845 1.38 4.984 1.781 7.63-.97 4.162-1.17 8.451-1.17 12.72-.653 10.57-.727 21.161-.727 31.741.306 8.189-1.18 16.272-1.423 24.46-.506 11.624-.264 23.27-1.328 34.872-.053 11.087-1.085 22.142-1.054 33.239-.39 10.886-1.211 21.751-2.191 32.617-.443 8.726-.991 17.441-1.74 26.135-.2 15.966-2.107 31.848-2.581 47.803-1.117 6.418-.169 12.983-1.16 19.433-.727 6.007-.695 12.067-1.422 18.095.126 9.832-1.855 19.528-1.982 29.36-1.075 10.033-1.222 20.118-2.54 30.14-.632 3.583-1.896 7.556.085 10.971.063-2.224 1.191-4.121 2.223-5.976 1.897-1.823 4.996-3.288 7.325-1.285 2.771 1.707 1.349 5.374.738 7.904 1.412-.401 2.898-.696 4.394-1.002-1.064 1.918-2.677 3.446-3.994 5.206-1.897 1.086-.401-.853-2.688-1.138-1.812.159-6.049 1.887-6.829.675-.969 1.412-2.233 2.666-3.835 3.33-1.971.421-3.847-.601-5.344-1.707" fill="#040606"/><path d="M226.453 96.684c1.686-.864 4.257-1.149 5.564.58 1.043 1.538-.169 3.298-1.265 4.447-4.995 5.142-9.464 10.791-14.343 16.06-1.486 2.382-5.743 1.36-5.596-1.591.169-3.341 3.046-5.606 4.732-8.251 3.33-4.016 6.629-8.21 10.908-11.245M230.299 105.968c1.054-.716 2.519-.337 3.278.706.537 1.855-.844 3.425-1.687 4.943-1.496 2.202-2.729 4.574-4.036 6.892-.779 1.191-1.464 2.814-3.098 2.845-1.949-1.053-2.318-3.751-1.486-5.638 1.244-3.794 3.33-7.83 7.029-9.748ZM230.635 116.57c1.381-1.528 3.173-2.845 5.375-2.171.401 2.34-.358 6.25-3.319 6.292-2.055-.443-2.108-2.477-2.056-4.121M227.021 221.575c.58-4.679-.59-10.159 2.435-14.132 2.834 2.614 1.781 6.893 1.517 10.307-.674 4.005.843 9.369-3.372 11.845.695-2.655-1.107-5.311-.58-8.02ZM209.813 261.317c2.424-1.16 6.47-.728 7.366 2.255-1.033 3.13-5.68 4.247-8.21 2.329-1.043-1.56-.242-3.33.844-4.584ZM212.974 273.583c4.532-.158 9.042-1.812 13.574-.674.052 1.17-.032 2.571-1.16 3.288-3.941 3.151-9.305 2.835-14.005 2.36-2.445-1.338-1.086-5.174 1.591-4.974ZM208.885 292.848c-1.18-1.844.337-4.184 2.403-4.279 3.688-.2 7.44-.211 11.065.654-1.191 3.108-4.636 5.227-7.956 5.005-1.865-.105-4.3.338-5.512-1.38ZM204.838 310.426c-.927-2.498 2.087-3.794 4.037-4.1 4.215-.368 8.641-1.064 12.783.411-2.245 3.847-7.061 4.732-11.108 5.206-1.981.137-4.626.58-5.712-1.517ZM205.512 327.73c.485-1.475 1.845-2.75 3.489-2.708 3.983-.326 8.251.285 11.687 2.508-.232 1.929-2.414 2.308-3.931 2.814-2.603.559-5.269.085-7.872 0-1.433-.042-3.763-.78-3.373-2.614M234.187 328.489c2.877-1.022 6.155.537 7.451 3.235 2.382 3.794 1.823 8.389 1.907 12.647-.137 4.468.106 9.621-3.287 13.067-1.792 1.486-1.887 4.627-4.427 5.185-2.666.696-4.605-1.939-5.543-4.015-1.833-7.229-2.213-14.796-1.412-22.184.369-3.245 1.518-7.408 5.311-7.935ZM206.567 343.802c3.72-.369 7.683-.59 11.298.579.79 1.118-.591 2.066-1.349 2.698-2.92 1.939-6.629 1.602-9.917 1.402-1.244-.169-2.94-1.033-2.719-2.477.253-1.285 1.56-1.886 2.687-2.202M206.672 361.148c2.813-.875 5.943.052 8.831.569.906.432 2.729.021 2.571 1.633-1.57 4.3-6.997 4.132-10.717 3.257-2.561-.401-2.73-4.331-.685-5.459M202.688 381.761c4.837-1.402 10.138.474 14.912-1.37 2.076-.632 4.352-1.423 6.576-.927.464 1.707-1.054 3.035-2.097 4.152-2.613 2.571-6.534 2.845-9.99 2.824-3.489-.105-7.041.285-10.434-.59-.095-1.391-.717-3.457 1.033-4.089M208.474 392.405c3.815-.148 8.252-.643 11.403 2.023 1.549 2.003-1.275 3.457-2.961 3.742-3.057.263-6.26.516-9.232-.19-2.698-1.075-1.402-4.732.79-5.575M202.678 410.215c2.972-1.212 6.239-1.654 9.442-1.738 1.581.084 3.689-.137 4.595 1.58-2.593 2.909-6.713 3.225-10.317 3.773-1.644.316-3.341.116-4.922-.253-.158-1.243-.316-2.94 1.202-3.362ZM201.74 431.408c4.405-1.528 9.285-1.559 13.669.085.179 1.011.379 2.803-.938 3.193-3.805 1.233-7.873.674-11.804.948-2.023-.316-1.696-2.908-.927-4.226ZM236.349 443.844c2.329-1.254 5.121.063 7.008 1.581 3.109 2.571 3.646 6.808 4.331 10.538.78 3.942.558 7.988 1.254 11.961-.358 5.206-7.219 7.103-11.371 5.238-1.613-.274-1.855-1.908-2.234-3.141-2.772-1.106-3.731-4.067-3.689-6.797 0-4.226-.158-8.431.106-12.625.611-2.635 1.834-5.722 4.595-6.755M203.72 450.672c.475-2.771 3.952-2.076 6.007-2.234 4.195.316 9.707-1.043 12.594 2.94-1.507 2.319-4.447 3.215-7.092 3.194-2.94-.043-5.892.137-8.79-.211-1.675-.285-3.288-1.929-2.719-3.689M212.236 465.932c2.592-.864 5.332-.811 7.84.348-.116 1.139.549 3.004-.853 3.626-3.362 1.939-7.25 2.56-10.992 3.298-1.918.274-4.047.78-5.807-.2-1.475-.875-1.275-2.898-.843-4.268 2.867-2.688 7.188-1.592 10.655-2.804" fill="#040606"/></g><defs><clipPath id="a"><path fill="#fff" d="M0 0h480v480H0z"/></clipPath></defs></svg>