<svg width="22" height="35" viewBox="0 0 22 35" fill="none" xmlns="http://www.w3.org/2000/svg">
<path d="M16.5026 4.4214C15.556 4.6094 14.5933 4.34006 13.6426 4.48673C14.1933 4.55873 14.752 4.48139 15.304 4.54539C14.512 4.64672 13.7053 4.51472 12.9173 4.67739C11.5319 4.71072 10.1333 4.86539 8.75328 4.66272C7.99595 4.67339 7.23731 4.60671 6.48264 4.68938C7.15864 4.78671 7.84528 4.67738 8.52395 4.75605C8.48795 4.80405 8.41995 4.89872 8.38528 4.94405C8.43995 4.87472 8.49728 4.80939 8.55195 4.74806C8.69061 4.73072 8.8293 4.71871 8.9693 4.70538C9.25196 4.80938 9.3933 5.08539 9.47196 5.36139C9.50797 5.58672 9.7413 5.68138 9.84397 5.87338C9.83464 6.20005 9.5373 6.42406 9.24397 6.49739C9.06797 6.52672 8.84931 6.41739 8.71598 6.57605C8.20531 7.07205 7.20929 7.13739 6.79996 6.47872C6.66663 6.17339 6.45197 6.54672 6.3053 6.64138C6.0173 6.94805 5.50395 6.88138 5.22395 6.60672C5.07195 6.28938 5.11595 5.92005 5.19195 5.59205C5.27195 5.21338 5.64661 4.88539 6.05061 4.99606C6.34261 5.06272 6.39061 5.39339 6.41861 5.64672C6.42661 5.61072 6.44528 5.53606 6.45462 5.49872C6.54528 5.31339 6.65462 5.09205 6.89729 5.10672C7.26662 5.03338 7.45863 5.39473 7.60396 5.66673C7.70263 5.92673 8.00664 5.96138 8.24531 6.00538C8.14264 5.59871 8.17595 5.18139 8.29329 4.78673C6.89062 4.79206 5.48928 4.77472 4.08795 4.79605C3.23728 4.90805 2.37862 4.85738 1.52662 4.82272C1.35862 5.64005 1.31329 6.48539 1.43329 7.31339C2.14929 7.52539 2.9093 7.50139 3.63863 7.66539C4.02263 7.73606 4.43596 7.68939 4.79863 7.86272C5.06263 7.99072 5.3613 7.88539 5.63863 7.86005C7.0853 7.68938 8.54929 7.75072 9.99862 7.60938C11.4173 7.60538 12.8373 7.59473 14.2559 7.65206C15.4373 7.75073 16.6226 7.70538 17.8066 7.70805C18.3293 6.94405 19.0426 6.32405 19.816 5.82538C19.1746 5.39738 18.6333 4.84005 18.1199 4.27205C17.5773 4.28005 17.0413 4.37073 16.5026 4.4214ZM7.0053 1.2374C7.00263 1.94406 6.96663 2.66672 7.13463 3.36272C7.55729 3.35605 7.97997 3.35739 8.4053 3.36005C8.38263 3.21872 8.3613 3.08406 8.3413 2.95206C8.22797 2.32806 8.30397 1.69205 8.4053 1.07472C7.93463 1.16005 7.35863 0.798729 7.0053 1.2374ZM8.02796 0.181389C8.32129 0.238724 8.58529 0.0667152 8.86529 0.0227165C9.07862 0.00804901 9.32128 0.0907249 9.41728 0.298725C9.52794 0.638725 9.4173 0.992058 9.3693 1.33072C9.2933 2.00406 9.35861 2.68138 9.31728 3.35738C9.99194 3.36938 10.6653 3.36272 11.34 3.36406C12.0333 3.34939 12.7319 3.40806 13.4173 3.26939C14.2306 3.21873 15.0466 3.29205 15.8586 3.22538C16.5266 3.09072 17.2079 3.1454 17.8839 3.15473C18.1333 3.1614 18.3733 2.95739 18.6213 3.08406C18.9253 3.20006 19.1013 3.49205 19.3306 3.71205C19.7306 4.14139 20.18 4.52272 20.66 4.86539C20.972 5.10672 21.3133 5.38139 21.4253 5.77739C21.4986 6.09605 21.2146 6.32139 20.9839 6.47872C20.5813 6.73472 20.1866 7.00406 19.812 7.30273C19.384 7.67073 19.0533 8.13471 18.7 8.57205C18.528 8.78005 18.2586 8.90273 17.9853 8.88673C15.7373 8.86806 13.4866 8.77606 11.2386 8.78806C10.6213 8.7334 10.024 8.96006 9.41464 8.81472C9.40397 10.1881 9.42929 11.5667 9.32662 12.94C9.35729 14.632 9.27062 16.3294 9.39462 18.0201C9.38929 19.2974 9.38795 20.5747 9.39462 21.8521C9.57195 24.1281 9.51595 26.4174 9.61995 28.6974C9.63328 29.8094 9.61996 30.9241 9.63463 32.0374C9.86396 32.0321 10.1946 31.9627 10.3173 32.2267C10.4119 32.6654 10.628 33.072 10.6693 33.524C10.432 33.572 10.148 33.6934 9.9373 33.5187C9.79996 33.3641 9.67729 33.2027 9.53463 33.0614C9.58529 33.2934 9.81328 33.5214 9.68394 33.772C9.45061 34.152 8.8653 33.9974 8.6693 33.6627C8.35063 33.1147 8.40263 32.4561 8.40663 31.8507C8.09063 31.6147 7.81996 31.3281 7.56129 31.0334C7.34262 30.8227 7.37864 30.4387 7.61197 30.2574C7.83864 29.9894 8.12129 29.7787 8.46529 29.6961C8.44663 29.4401 8.46796 29.1827 8.50396 28.9347C8.37596 29.1334 8.28395 29.3587 8.12128 29.5361C7.95728 29.6227 7.77063 29.5507 7.60129 29.5494C7.40663 28.9947 7.86131 28.2494 8.48131 28.3214C8.44664 27.4801 8.5133 26.6374 8.5053 25.7947C8.4733 24.7774 8.61863 23.7681 8.60396 22.7494C8.38796 22.7254 8.06929 22.6401 8.09195 22.3667C8.06529 22.0654 8.39597 21.9854 8.61197 21.9094C8.64664 21.2374 8.62262 20.5614 8.62929 19.8934C8.61196 19.1601 8.72131 18.4307 8.64664 17.7001C8.58264 17.0454 8.59463 16.3854 8.49863 15.7321C8.42529 15.3267 8.57063 14.9187 8.50263 14.5161C8.45463 14.6641 8.43864 14.8227 8.41197 14.9841C8.39864 13.7227 8.24262 12.4667 8.29462 11.2054C8.25595 11.256 8.21995 11.3107 8.18661 11.3707C8.18661 10.7921 8.19596 10.2121 8.1693 9.63606C7.85596 9.83206 7.64928 10.2667 7.21995 10.1907C7.19328 11.6254 7.20263 13.0614 7.19996 14.4987C7.28129 15.5654 7.24395 16.636 7.25595 17.7054C7.24662 22.4974 7.27197 27.2921 7.24397 32.0867C7.3333 31.9267 7.39329 31.7121 7.59863 31.6774C7.94396 31.5401 8.35595 31.8494 8.32395 32.2187C8.28395 32.5254 8.16262 32.8187 8.12128 33.1294C8.11862 33.3121 8.09595 33.4974 8.05995 33.6841C7.77329 33.8121 7.44929 33.8387 7.19462 33.6281C7.05062 33.7667 6.87728 33.8694 6.68795 33.9427C6.54395 33.8694 6.40129 33.8 6.25862 33.7414C5.95462 33.9774 5.52396 33.7054 5.50396 33.3521C5.47196 33.0121 5.37997 32.6147 5.61064 32.3281C5.71997 32.1427 5.94795 32.2001 6.12395 32.1814C6.11862 27.5267 6.12262 22.8747 6.12262 18.2227C6.14395 17.116 6.06395 16.0067 6.19195 14.9081C6.22795 12.9401 6.19996 10.9787 6.22796 9.01472C5.50796 8.99072 4.7853 9.04005 4.07597 8.90938C3.03464 8.60805 1.91595 8.70672 0.886614 8.34939C0.590614 8.22272 0.282619 7.98139 0.291953 7.63072C0.238619 6.53606 0.186627 5.42139 0.466627 4.35073C0.479961 4.16673 0.455949 3.97072 0.554615 3.81072C0.774615 3.59205 1.08129 3.46406 1.39329 3.46939C2.35995 3.45206 3.32662 3.48938 4.29062 3.42538C4.92928 3.38405 5.57464 3.46672 6.2093 3.38006C6.1853 2.69205 6.20395 2.0054 6.22128 1.32006C6.23195 0.85873 6.5333 0.442726 6.93463 0.233391C7.2653 0.0200577 7.66529 0.162724 8.02796 0.181389Z" fill="#2E9791"/>
<path d="M15.5227 5.08935C15.8693 4.79602 16.3307 5.39736 16.0093 5.68136C15.6413 5.90936 15.2267 5.38935 15.5227 5.08935Z" fill="#2E9791"/>
<path d="M10.1373 5.29867C10.3653 5.13067 10.6733 5.28134 10.7853 5.51868C10.9493 5.83201 11.1146 6.15734 11.1866 6.50934C11.136 6.71467 10.904 6.76668 10.7226 6.76935C10.372 6.80135 10.14 6.468 10.0066 6.192C9.89464 5.912 9.81197 5.46267 10.1373 5.29867Z" fill="#2E9791"/>
<path d="M13.7426 5.37736C14.2386 5.17469 14.5999 5.87736 14.4573 6.28536C14.2666 6.5267 13.8559 6.48535 13.6733 6.25602C13.4039 6.02802 13.3999 5.53469 13.7426 5.37736Z" fill="#2E9791"/>
<path d="M3.99323 5.46668C4.17323 5.38802 4.41724 5.36535 4.57191 5.51601C4.89991 5.78001 4.87058 6.24401 5.01458 6.60667C5.15592 6.83334 4.93323 7.08267 4.6959 7.09201C4.41723 7.15201 4.19056 6.96268 3.98656 6.80934C3.96922 6.74268 3.92925 6.60801 3.91191 6.54134C3.74125 6.65601 3.57856 6.82668 3.36123 6.83201C2.80656 6.94401 2.2839 6.22668 2.5959 5.74801C2.7359 5.44668 3.24389 5.43467 3.38922 5.73867C3.47989 5.82 3.51058 6.03202 3.67991 5.98669C3.79191 5.81469 3.83456 5.60135 3.99323 5.46668Z" fill="#2E9791"/>
<path d="M11.9893 5.51738C12.1653 5.38405 12.448 5.38537 12.5853 5.5747C12.7546 5.81604 12.8893 6.10138 12.9107 6.40271C12.8987 6.69738 12.5106 6.77605 12.2866 6.68405C11.8946 6.46805 11.6533 5.88538 11.9893 5.51738Z" fill="#2E9791"/>
<path d="M7.42399 11.4067C7.65599 11.2067 8.02932 11.5027 7.89199 11.7734C7.83066 11.9627 7.56401 11.9667 7.41201 11.8974C7.21867 11.7974 7.21199 11.4827 7.42399 11.4067Z" fill="#2E9791"/>
<path d="M7.37194 13.3587C7.42394 13.004 8.01061 13.0214 8.07728 13.3587C8.12394 13.5334 8.06128 13.712 8.04795 13.8934C7.71062 14.0094 7.26927 13.744 7.37194 13.3587Z" fill="#2E9791"/>
<path d="M7.64395 15.6614C7.99595 15.3694 8.52394 16.088 8.13861 16.352C7.75194 16.54 7.36528 15.9694 7.64395 15.6614Z" fill="#2E9791"/>
<path d="M7.72266 17.6041C7.98399 17.3854 8.38001 17.696 8.27735 18.0054C8.27201 18.3934 7.71599 18.3027 7.61732 18.0201C7.50932 17.8747 7.64399 17.7187 7.72266 17.6041Z" fill="#2E9791"/>
<path d="M7.80527 19.252C8.03727 19.1934 8.30525 19.2427 8.41991 19.4814C8.49991 19.8614 8.46661 20.26 8.34928 20.632C8.16928 20.6467 7.92392 20.7067 7.82792 20.508C7.73192 20.0974 7.61727 19.6534 7.80527 19.252Z" fill="#2E9791"/>
<path d="M7.92256 24.456C7.46256 24.2867 7.77323 23.5093 8.22256 23.688C8.29856 23.9653 8.39323 24.5347 7.92256 24.456Z" fill="#2E9791"/>
<path d="M7.43065 25.528C7.51598 25.2547 7.82398 25.32 8.03198 25.3667C8.07998 25.6267 8.17997 26.052 7.82131 26.1427C7.46264 26.2667 7.20532 25.796 7.43065 25.528Z" fill="#2E9791"/>
<path d="M7.50261 27.124C7.67861 27.1 7.85461 27.096 8.03194 27.1147C8.12794 27.344 8.27329 27.5907 8.17862 27.8534C8.11062 28.172 7.55994 28.244 7.43327 27.9387C7.25061 27.6747 7.39194 27.3774 7.50261 27.124Z" fill="#2E9791"/>
<path d="M4.4679 33.1894C4.28123 32.904 3.9559 32.3827 4.40256 32.176C4.7879 32.196 4.85324 32.652 5.07457 32.8907C5.2639 33.076 5.2719 33.356 5.3759 33.5947C5.29457 33.82 5.02523 33.8107 4.83456 33.8947C4.58523 33.996 4.27724 34.0587 4.04524 33.8867C4.02391 33.5854 4.27056 33.3774 4.4679 33.1894Z" fill="#2E9791"/>
<path d="M11.8893 32.3627C12.0653 32.1987 12.3053 32.328 12.4493 32.4707C12.6907 32.6973 12.9907 32.876 13.1667 33.1653C13.1333 33.4347 12.788 33.4 12.588 33.4253C12.068 33.492 11.532 32.8 11.8893 32.3627Z" fill="#2E9791"/>
<path d="M11.0573 32.6787C11.5293 32.4214 11.8679 33.1294 11.4973 33.42C11.1986 33.684 10.6946 33.3134 10.8119 32.9534C10.8586 32.832 10.9359 32.7214 11.0573 32.6787Z" fill="#2E9791"/>
<path d="M2.02794 33.2893C2.27727 33.1093 2.61595 33.3893 2.57862 33.6667C2.61995 34.016 2.09595 34.1013 1.91195 33.8773C1.81595 33.6893 1.79594 33.3693 2.02794 33.2893Z" fill="#2E9791"/>
<path d="M3.13862 33.444C3.41328 33.3627 3.79862 33.284 3.97729 33.5774C4.20396 34.0214 3.41594 34.3174 3.18927 33.944C3.05727 33.8 3.13195 33.6067 3.13862 33.444Z" fill="#2E9791"/>
</svg>
