<svg width="53" height="47" viewBox="0 0 53 47" fill="none" xmlns="http://www.w3.org/2000/svg">
<g clip-path="url(#clip0_19_284)">
<path d="M23.8076 41.9826C23.7822 42.3742 23.8542 42.7851 23.7182 43.1679C23.5649 43.5305 23.2062 43.7611 23.0649 44.1331C22.9595 44.3826 22.9329 44.681 22.7102 44.8679C22.4662 44.8706 22.2235 44.8758 21.9795 44.881C21.9529 44.1919 22.3782 43.6023 22.7342 43.0545C22.9502 42.6477 23.0462 42.1878 22.9995 41.7321C23.2435 41.881 23.5156 41.9826 23.8076 41.9826V41.9826ZM46.7609 42.1706C46.7582 42.3774 46.7689 42.5878 46.7396 42.7998C46.6009 43.0862 46.3009 43.2518 46.0902 43.4862C45.6929 43.8654 45.4716 44.3878 45.3436 44.9133C45.2796 45.1998 45.4542 45.5289 45.2942 45.7955C45.0555 45.9023 44.7929 45.9169 44.5382 45.9774C44.3022 45.9826 44.0649 45.9919 43.8262 46.0039C44.1075 45.1409 44.5222 44.3315 44.8649 43.4955C45.1315 42.8731 45.0942 42.1903 45.1889 41.5357C45.5729 41.9799 46.1729 42.2331 46.7609 42.1706ZM42.6155 41.4169C42.6995 41.8774 42.7769 42.5169 42.3089 42.8075C41.8649 43.0862 41.6142 43.5398 41.4049 44.0065C41.2622 44.1717 41.4702 44.3383 41.4782 44.5185C41.3782 44.6075 41.2529 44.6731 41.1356 44.7559C40.8422 44.7717 40.5515 44.7945 40.2569 44.8143C40.5289 44.2346 40.9582 43.7425 41.1995 43.1518C41.3689 42.6717 41.4382 42.1597 41.3795 41.657C41.8195 41.7321 42.2115 41.5441 42.6155 41.4169V41.4169ZM20.4422 40.7945C20.3729 41.581 20.5889 42.3622 20.5289 43.1545C20.4809 43.5466 20.6609 44.057 20.2942 44.3409C19.9715 44.6143 19.7329 44.9717 19.5382 45.345C19.4769 45.4195 19.4529 45.5851 19.3182 45.5774C18.9835 45.645 18.6435 45.6893 18.2995 45.6987C18.5449 45.3039 18.9755 45.0559 19.1515 44.6143C19.3395 44.3107 19.3035 43.9305 19.4795 43.6237C19.6489 43.3409 19.5409 43.0091 19.5689 42.7039C19.6476 42.0425 19.3795 41.4169 19.2795 40.7742C19.6662 40.7893 20.0556 40.7955 20.4422 40.7945V40.7945ZM21.8502 41.3665C21.8875 41.8226 21.9489 42.3278 21.6582 42.7195C21.6395 42.5559 21.6169 42.3998 21.5929 42.2477C21.5542 41.8597 21.3609 41.4919 21.4249 41.1023C21.5195 40.7622 21.6102 40.4237 21.6502 40.0799C21.7289 40.5023 21.6995 40.9493 21.8502 41.3665ZM42.3289 37.9717C42.5035 38.057 42.4049 38.2835 42.4329 38.4425C42.3075 38.4679 42.1782 38.493 42.0515 38.5289C42.0195 38.8253 42.2582 38.9117 42.5022 38.9665C42.5329 39.2622 42.5542 39.557 42.5716 39.8611C42.4089 39.7373 42.2182 39.6955 42.0195 39.7321C42.0142 39.8185 42.0049 39.9903 42.0009 40.0742C42.2035 40.1665 42.4022 40.0893 42.5875 39.9982C42.6115 40.1346 42.6329 40.2774 42.6542 40.4289C42.3942 40.4466 42.1435 40.5169 41.9155 40.6466C41.6809 40.7945 41.4036 40.6195 41.2769 40.4117C41.3196 39.469 41.1382 38.5305 41.1382 37.5878C41.5169 37.7654 41.9515 37.7862 42.3289 37.9717V37.9717ZM23.6115 35.8758C23.3289 37.5075 23.5409 39.1679 23.6036 40.8065C23.2902 40.657 23.1075 40.3331 22.7835 40.2013C22.6929 39.7731 22.5889 39.3545 22.5062 38.9289C22.3702 38.369 22.4529 37.7654 22.1782 37.2441C22.1955 36.745 22.2875 36.2185 22.4835 35.7638C22.8689 35.693 23.2235 35.9477 23.6115 35.8758V35.8758ZM10.1169 15.5611C10.5502 15.6893 10.7836 16.1133 10.9676 16.4955C10.7289 16.9893 10.7662 17.5654 10.7609 18.1013C10.6249 18.2357 10.4915 18.3799 10.3595 18.5253C10.4395 18.9731 10.0489 19.2758 9.69021 19.4502C9.22754 19.6321 8.72086 19.5133 8.24753 19.6373C7.9302 19.6441 7.61289 19.6441 7.30622 19.7383C7.25689 19.7466 7.15956 19.7638 7.11023 19.769C7.27423 19.5493 7.58221 19.293 7.39288 19.0013C7.30488 18.8107 7.06488 18.8211 6.89154 18.8466C6.56354 18.8945 6.37154 19.1987 6.12221 19.3893C6.03287 18.9654 5.9222 18.4783 6.14486 18.0783C6.33953 17.7226 6.53288 17.3586 6.82488 17.0783C7.15954 16.7159 7.60489 16.4851 7.97289 16.1611C8.30356 15.8851 8.55822 15.5398 8.83422 15.2133C9.17688 15.5529 9.6742 15.5169 10.1169 15.5611V15.5611ZM17.3262 14.9799C17.3222 15.0425 17.3169 15.1611 17.3129 15.2211C16.7475 15.3091 16.1036 15.3706 15.6102 15.0107C16.1796 15.0107 16.7555 14.9502 17.3262 14.9799ZM14.6582 12.5622C15.1662 12.857 15.6969 13.1133 16.2182 13.3835C16.5489 13.5185 16.7076 13.8706 17.0089 14.0477C16.3662 14.0611 15.7182 14.1289 15.0782 14.0075C14.8102 13.9638 14.3955 14.0143 14.3182 14.3237C14.2382 14.5622 14.5116 14.669 14.6049 14.8477C14.3142 15.093 14.1902 15.5529 14.4582 15.8638C15.2289 16.7502 16.5515 16.8654 17.6275 16.5783C18.0689 16.4518 18.3355 16.0679 18.5182 15.6742C18.6595 16.0493 18.5702 16.5357 18.9102 16.8185C19.1822 17.1023 19.5822 17.1597 19.9409 17.2835C20.3156 17.5441 20.2649 18.1195 20.6702 18.3654C21.0609 18.7117 21.6102 18.6185 22.0889 18.6321C22.3315 18.9346 22.5156 19.3441 22.9409 19.4211C23.4356 19.4851 23.9529 19.7383 24.4382 19.5638C24.4809 19.7611 24.5329 19.9611 24.5942 20.1622C24.7342 20.1826 24.8769 20.1998 25.0182 20.2091C25.3262 20.1919 25.4409 19.8065 25.7409 19.7893C26.1276 19.7529 26.5675 19.693 26.8929 19.9586C27.1875 20.1799 27.5689 20.1117 27.8955 20.0201C28.5929 19.9331 29.3796 19.3835 30.0382 19.8597C30.3782 20.0971 30.7355 19.7638 31.0329 19.6143C31.3062 19.4039 31.7249 19.3706 31.9929 19.6013C32.1982 19.7466 32.3422 19.981 32.5902 20.0611C33.2369 20.1039 33.8142 19.7133 34.4595 19.7185C34.9662 19.7263 35.5462 19.6013 35.9622 19.9717C36.2609 20.2679 36.7089 20.2253 37.0555 20.0398C38.0169 19.5893 39.2182 19.6731 40.0702 20.3263C40.4596 20.669 40.9595 20.269 41.3955 20.4346C41.8275 20.5493 42.2742 20.6955 42.6115 21.005C42.9675 21.3545 43.4915 21.405 43.8889 21.6919C44.3862 22.0466 44.8982 22.4143 45.2235 22.9493C45.9422 24.0133 45.7782 25.3534 45.8129 26.569C45.8609 27.0586 45.6755 27.5289 45.7195 28.0185C45.7115 28.5783 45.7702 29.1919 45.4555 29.6878C45.2182 30.0638 45.2916 30.5143 45.3102 30.9357C45.3422 31.2586 45.1409 31.5425 45.1222 31.8654C45.0809 32.0971 45.1329 32.369 44.9969 32.5835C44.8809 32.8143 44.6715 33.0331 44.7182 33.3159C44.7955 33.5529 44.9689 33.7706 44.9142 34.0441C44.7969 35.0441 45.4489 35.9091 46.0915 36.6023C46.3929 36.9903 46.9289 37.3117 46.8675 37.8742C46.8982 38.9263 46.8262 39.9758 46.8209 41.0263C46.7662 41.0903 46.7089 41.1597 46.6542 41.2321C46.5955 41.2321 46.4822 41.2305 46.4262 41.2305C46.5462 41.0502 46.5849 40.8518 46.5396 40.6493C46.2956 40.5346 45.7702 40.7211 46.0369 41.0263C46.0129 41.0441 45.9636 41.0742 45.9396 41.0919C45.7342 40.8315 45.7395 40.3987 45.3849 40.2893C45.4102 39.7654 45.5209 39.2263 45.3635 38.7143C44.9235 37.9169 44.0822 37.4862 43.4356 36.8851C42.8116 36.2622 42.0689 35.769 41.5089 35.0851C40.8609 34.4305 40.3502 33.657 39.8396 32.8945C39.3729 32.2679 38.7529 31.769 38.1369 31.2971C37.8129 31.0289 37.3542 30.9143 36.9622 31.1013C36.6209 31.3253 36.8022 31.8211 37.0929 32.0117C37.5862 32.3783 38.0729 32.7559 38.5489 33.1493C38.7195 33.4638 38.3156 33.6023 38.1342 33.7706C37.7022 33.9065 37.3022 33.4195 36.9076 33.6893C36.4036 33.9945 36.2036 34.6117 35.7102 34.9331C35.3316 35.1133 35.0062 34.7717 34.6449 34.7117C34.1222 34.6373 33.6236 34.8799 33.1049 34.881C32.8556 34.8774 32.6755 34.6919 32.4795 34.569C32.2009 34.3409 31.7995 34.3862 31.4942 34.5331C31.0342 34.7477 30.4902 34.905 29.9955 34.7237C29.7435 34.5665 29.5929 34.2518 29.2809 34.1955C28.7555 34.1398 28.3142 34.6373 27.7862 34.4742C27.3782 34.2289 27.1182 33.6742 26.5809 33.6945C26.1995 33.7654 25.8475 33.9945 25.4462 33.9679C25.1089 33.945 24.9342 33.6211 24.6555 33.481C24.3635 33.3065 23.9902 33.4638 23.7009 33.2717C23.7129 32.6278 24.1822 32.0903 24.1449 31.4425C24.1422 31.0518 24.0622 30.6597 23.9062 30.3065C23.8396 30.1493 23.6235 29.9742 23.4595 30.1023C23.2129 30.1971 23.2835 30.505 23.2555 30.7169C23.2915 31.2706 22.9782 31.7529 22.7089 32.2117C22.4209 32.2091 22.1436 32.3441 22.0676 32.6477C21.8302 33.4862 21.7982 34.3783 21.4716 35.1945C21.1996 35.8893 21.1449 36.6383 21.0195 37.3706C20.7675 38.0799 20.8529 38.8534 20.6142 39.5706C20.2289 39.6955 19.8435 39.8466 19.4329 39.8638C19.3209 39.8441 19.1515 39.9263 19.0982 39.7835C19.0542 39.5211 19.0569 39.2529 18.9889 39.0023C18.7862 38.3665 18.8529 37.6903 18.7289 37.0383C18.7529 36.4493 18.6995 35.8586 18.4595 35.3159C18.4275 35.2013 18.3955 35.0971 18.3622 34.9971C18.2489 34.4039 17.8422 33.9253 17.6862 33.3477C17.6195 32.9835 17.2302 32.8331 17.1062 32.4982C16.9569 32.1597 16.6675 31.8425 16.2582 31.9919C16.0929 32.4758 16.5609 32.8331 16.6115 33.2945C16.1915 33.1039 16.2049 32.557 15.8635 32.293C15.5555 32.0529 15.2342 31.8211 15.0275 31.4862C15.0342 31.3835 15.0422 31.2919 15.0475 31.2075C15.0702 30.8373 15.1889 30.4466 15.0382 30.0955C14.9182 29.7409 14.6049 29.5133 14.4289 29.1971C14.3649 28.893 14.4596 28.593 14.5396 28.3107C14.7302 27.8013 14.4489 27.2799 14.0849 26.9331C13.8342 26.7075 13.8756 26.3441 13.8729 26.0441C13.9076 25.5226 13.6649 25.0263 13.3609 24.6211C13.3675 24.3987 13.3889 24.1903 13.4182 23.9799C13.4675 23.4982 13.2022 23.0758 12.8622 22.769C12.7875 22.1253 12.5102 21.5346 12.0915 21.0425C11.7742 20.4878 11.2409 20.1237 10.7369 19.7559C10.9529 19.1783 11.3715 18.7117 11.6249 18.157C11.8942 17.6253 12.0049 17.0346 12.1195 16.4597C12.7062 16.4742 13.2222 16.0237 13.3409 15.4638C13.3742 14.9013 12.7849 14.5013 12.2742 14.5159C11.8382 14.6477 11.4022 14.8799 11.1955 15.3091C11.0409 15.1263 10.8169 14.9799 10.8356 14.7133C10.4196 14.4638 9.98754 14.8289 9.55154 14.7706C9.4262 14.7346 9.30353 14.7065 9.18086 14.6835C9.44886 14.1263 9.30754 13.4263 9.75154 12.9586C10.1075 12.5373 10.6209 12.2774 11.1396 12.1289C11.6556 12.0893 12.1729 12.0742 12.6875 12.0611C13.3595 12.1518 14.0275 12.3065 14.6582 12.5622V12.5622ZM13.4915 11.1321C12.9542 10.9717 12.3995 10.9717 11.8475 11.0559C10.8382 11.005 9.84353 11.4383 9.11687 12.1253C8.6982 12.5903 8.44353 13.2039 8.37953 13.8278C8.3302 14.3075 7.93954 14.645 7.65287 15.0039C7.1102 15.657 6.26221 15.9919 5.79154 16.7159C5.46621 17.1893 5.12354 17.6783 5.02488 18.2586C4.96221 18.7893 5.01421 19.3357 5.22354 19.8305C5.36887 20.3013 5.77155 20.6955 6.26221 20.793C6.80355 20.9357 7.33556 20.6758 7.87289 20.6398C8.52622 20.5774 9.18487 20.5679 9.81954 20.3851C10.2902 20.8143 10.8795 21.1518 11.1929 21.7305C11.3809 22.0545 11.6849 22.3278 11.7329 22.7263C11.7835 23.0971 12.0049 23.4075 12.2289 23.6987C12.4275 23.9159 12.2689 24.2289 12.2955 24.4945C12.2582 24.905 12.4475 25.2742 12.6302 25.6263C12.7462 26.1971 12.5729 26.8409 12.9222 27.357C13.0449 27.6502 13.5195 27.8185 13.3555 28.1903C13.0955 28.7987 13.1195 29.5383 13.5222 30.0783C13.6609 30.3237 13.9729 30.505 13.9182 30.8226C13.8955 31.3091 13.8649 31.8518 14.1875 32.2622C14.4635 32.7289 15.0809 32.8331 15.3515 33.3039C15.5782 33.7253 15.9755 34.0409 16.4262 34.2013C16.6582 34.2774 16.8835 34.3783 17.0929 34.505C17.2955 35.1211 17.4569 35.7518 17.5702 36.3878C17.7009 37.0835 17.8062 37.7893 17.8169 38.4982C17.8742 39.1945 18.0969 39.8665 18.1502 40.5665C18.1675 41.0373 18.3809 41.4679 18.4222 41.9357C18.6249 42.6477 18.9089 43.3835 18.7315 44.1357C18.5062 44.7774 17.7702 45.0253 17.5102 45.6529C17.3369 45.9169 17.4049 46.2998 17.6795 46.4717C18.4169 46.9159 19.3542 46.8774 20.1396 46.5783C20.5796 46.2529 20.5449 45.5799 20.9995 45.2597C21.0942 45.5945 21.3022 46.0278 21.7142 46.0185C22.3275 46.0466 22.9729 45.9774 23.5235 45.6945C24.0209 45.3774 23.9035 44.6851 24.2995 44.2987C24.7835 43.7742 24.9142 43.0185 24.8902 42.3289C24.8489 41.1893 24.5956 40.0622 24.6409 38.9159C24.4502 37.6195 24.6676 36.3117 24.5689 35.0091C24.8396 35.1441 25.1342 35.2502 25.4422 35.2425C25.8556 35.2654 26.2262 35.0477 26.6302 35.0091C26.9635 35.3195 27.3449 35.6638 27.8329 35.6545C28.2609 35.705 28.6702 35.581 29.0555 35.4117C29.3715 35.605 29.6275 35.9289 30.0235 35.9717C30.6929 36.1731 31.3435 35.8357 31.9795 35.6835C32.3769 35.8305 32.7662 36.0835 33.2115 36.0133C33.7195 35.9862 34.2289 35.5466 34.7275 35.8237C35.0809 36.0253 35.5142 36.0023 35.8929 35.8862C36.5542 35.7169 36.8929 35.0706 37.3022 34.5862C37.7902 34.7622 38.3102 34.6346 38.7502 34.3799C38.9742 34.8315 39.2929 35.2278 39.5609 35.6586C39.8515 36.4357 40.1289 37.2373 40.1769 38.0731C40.2142 38.6169 40.1942 39.1679 40.2795 39.7133C40.2915 40.2774 40.3609 40.8398 40.4062 41.405C40.4062 42.0346 40.4115 42.7545 39.9475 43.2466C39.6049 43.581 39.6555 44.0998 39.3662 44.4654C39.1329 44.7826 38.9915 45.3211 39.3822 45.5826C39.9182 45.9679 40.5889 45.7278 41.1822 45.6717C41.8755 45.6159 42.4742 45.0611 42.5955 44.3826C42.6835 44.1502 42.6115 43.8253 42.8649 43.6998C43.3262 43.4278 43.6102 42.9357 43.7289 42.4305C43.7515 41.8774 43.7222 41.3226 43.7302 40.7679C43.7475 40.3477 43.5489 39.9529 43.5835 39.5373C43.6195 39.0835 43.5422 38.6398 43.5009 38.1971C43.8409 38.4559 44.2355 38.6878 44.4569 39.0638C44.5115 39.645 44.4062 40.2373 44.3089 40.8133C44.1582 41.3466 44.2035 41.9065 44.1329 42.4502C43.9662 43.3679 43.3795 44.1305 43.1262 45.0169C42.9635 45.4466 42.8475 45.9091 42.9262 46.3706C43.0422 46.7383 43.4235 46.9611 43.7902 47.0117C44.3755 47.1039 44.9716 46.981 45.5356 46.8315C45.9289 46.7305 46.2955 46.457 46.4182 46.0611C46.4929 45.6742 46.3809 45.2758 46.4622 44.8987C46.6969 44.2346 47.4769 43.9783 47.7209 43.3237C47.9302 42.8826 47.8702 42.3878 47.8769 41.9211C47.8636 40.4665 48.0555 39.0159 47.9662 37.5611C47.8729 36.6611 47.1195 36.0731 46.5609 35.4425C46.2302 34.9731 45.7529 34.5398 45.7222 33.9321C46.2475 33.4023 46.4822 32.669 46.4675 31.9357C46.8915 31.3783 46.6702 30.6774 46.4555 30.0862C46.6462 29.5862 47.0169 29.1466 47.0436 28.5903C47.0409 27.205 47.2809 25.8013 47.0022 24.4253C47.0702 22.9185 46.0849 21.6023 44.9315 20.7398C44.4742 20.3717 43.8862 20.2331 43.4049 19.9039C42.8382 19.5226 42.1569 19.3945 41.5235 19.1638C41.1489 19.0237 40.7222 19.2195 40.3689 19.0091C39.9356 18.7195 39.4022 18.7305 38.9089 18.6493C38.2236 18.5799 37.5115 18.5799 36.8502 18.7987C36.5609 18.9346 36.2889 18.6774 36.0155 18.5998C35.5662 18.3706 35.0542 18.4373 34.5676 18.4357C33.9969 18.4305 33.4555 18.6357 32.8942 18.6998C32.5529 18.5586 32.2436 18.3425 31.8689 18.3039C31.4022 18.1622 30.9342 18.3518 30.5195 18.5586C30.2009 18.7545 29.8289 18.5622 29.4822 18.5878C28.8462 18.6065 28.2342 18.8185 27.6235 18.9731C27.2609 18.9945 26.9422 18.7477 26.5782 18.7502C25.9542 18.7091 25.1755 18.7278 24.7649 19.2758C24.9142 18.5143 24.0049 18.2075 23.4022 18.2305C23.1289 17.957 22.9142 17.5893 22.5209 17.481C22.2062 17.3586 21.8676 17.4143 21.5422 17.3851C21.2822 17.1559 21.1889 16.7893 20.9182 16.5665C20.6302 16.2518 20.2035 16.1638 19.8249 16.0065C19.7009 15.6919 19.6396 15.3477 19.4102 15.093C19.1622 14.7263 18.7235 14.6023 18.3262 14.4878C18.3515 14.3237 18.3769 14.1665 18.4049 14.0143C17.9782 13.1586 17.1689 12.5466 16.3142 12.157C15.7182 11.8835 15.1702 11.4919 14.5195 11.3493C14.1849 11.2425 13.8435 11.1622 13.4915 11.1321" fill="#0A0A0B"/>
<path d="M16.6102 17.9425C16.7609 17.7321 16.5129 17.532 16.3102 17.645C16.3035 17.7263 16.2915 17.8892 16.2848 17.9742C16.3662 17.9679 16.5289 17.9502 16.6102 17.9425Z" fill="#0A0A0B"/>
<path d="M13.3902 18.3184C13.3222 18.3143 13.1849 18.3064 13.1169 18.3039C13.1342 18.405 13.0102 18.6502 13.1996 18.6622C13.4009 18.6867 13.3862 18.4408 13.3902 18.3184" fill="#0A0A0B"/>
<path d="M19.1009 18.8075C18.7222 18.5654 18.3182 19.3305 18.7982 19.4373C19.1822 19.5893 19.4569 18.9919 19.1009 18.8075Z" fill="#0A0A0B"/>
<path d="M11.7409 18.8998C11.4235 18.7357 11.1395 19.2169 11.4235 19.4321C11.7475 19.6851 12.1062 19.0862 11.7409 18.8998Z" fill="#0A0A0B"/>
<path d="M12.7795 19.4169C12.5489 19.2731 12.1996 19.4398 12.2316 19.7305C12.1876 19.9357 12.3329 20.2529 12.5889 20.1289C12.9075 20.0706 13.0849 19.6013 12.7795 19.4169" fill="#0A0A0B"/>
<path d="M14.5715 20.2425C14.6115 19.9357 14.1982 19.857 14.0168 20.0425C13.9302 20.2065 13.9982 20.3904 14.0102 20.5717C14.2355 20.605 14.5995 20.5409 14.5715 20.2425Z" fill="#0A0A0B"/>
<path d="M16.8222 20.2502C16.4448 20.0425 16.1008 20.6195 16.2342 20.9477C16.3035 21.1774 16.6275 21.1346 16.7821 21.0185C17.0568 20.8758 17.0902 20.4075 16.8222 20.2502" fill="#0A0A0B"/>
<path d="M22.0849 20.592C21.7369 20.3212 21.3449 20.9477 21.7022 21.1732C22.0529 21.3836 22.4822 20.8108 22.0849 20.592Z" fill="#0A0A0B"/>
<path d="M25.5328 21.0731C25.1408 20.8611 24.7155 21.3143 24.8222 21.7091C24.8728 22.0211 25.3008 22.0357 25.5182 21.8945C25.7315 21.6774 25.8342 21.2638 25.5328 21.0731Z" fill="#0A0A0B"/>
<path d="M28.4182 21.2263C28.2315 21.0783 27.9862 21.1799 27.7968 21.2638C27.6688 21.593 27.6462 22.0742 28.0248 22.2518C28.5555 22.3331 28.8408 21.5226 28.4182 21.2263" fill="#0A0A0B"/>
<path d="M13.9182 21.393C13.6128 21.1903 13.2995 21.4012 13.1635 21.6919C13.2328 21.8664 13.2768 22.1226 13.5142 22.145C13.8635 22.0998 14.1142 21.7116 13.9182 21.393" fill="#0A0A0B"/>
<path d="M20.2328 21.8211C19.7382 21.5373 19.3568 22.3586 19.6942 22.6706C20.1555 22.9383 20.6675 22.1226 20.2328 21.8211Z" fill="#0A0A0B"/>
<path d="M15.6769 22.1253C15.4476 21.945 14.9502 22.0717 14.9996 22.4185C14.9302 22.8211 15.6342 22.9545 15.7649 22.6013C15.8716 22.4357 15.7929 22.2466 15.6769 22.1253" fill="#0A0A0B"/>
<path d="M18.1542 22.5518C17.8248 22.3893 17.3302 22.657 17.3289 23.0398C17.4155 23.569 18.3368 23.4383 18.3462 22.9278C18.3502 22.7742 18.3208 22.5903 18.1542 22.5518" fill="#0A0A0B"/>
<path d="M14.3955 22.9665C14.1355 22.9493 13.7409 23.1331 13.9235 23.4529C14.1515 23.693 14.5462 23.5862 14.6115 23.2597C14.5395 23.1559 14.4689 23.0586 14.3955 22.9665" fill="#0A0A0B"/>
<path d="M23.5342 23.7065C23.0996 23.5441 22.8382 24.2502 23.1622 24.4919C23.6222 24.7065 24.0649 23.8799 23.5342 23.7065Z" fill="#0A0A0B"/>
<path d="M14.9409 24.5253C14.5809 24.2717 13.9942 24.8133 14.2808 25.1784C14.4795 25.4357 14.8862 25.3226 15.0635 25.1024C15.1635 24.9169 15.1609 24.6117 14.9409 24.5253Z" fill="#0A0A0B"/>
<path d="M43.9542 25.1133C44.0009 24.8107 43.7182 24.6331 43.4782 24.5398C43.0582 24.657 42.8382 25.2321 43.1462 25.5611C43.4835 25.8425 43.8809 25.4425 43.9542 25.1133" fill="#0A0A0B"/>
<path d="M17.8582 25.3278C17.5635 25.193 17.2835 25.4372 17.0488 25.593C16.7755 25.7211 16.8128 26.2159 17.1328 26.257C17.5782 26.3518 18.2235 25.9466 17.9795 25.4424C17.9502 25.4143 17.8888 25.3559 17.8582 25.3278Z" fill="#0A0A0B"/>
<path d="M41.6355 25.3892C41.5502 25.3987 41.3769 25.4263 41.2902 25.4356C41.0942 25.605 41.3622 25.9611 41.5849 25.7944C41.7489 25.7107 41.6369 25.5184 41.6355 25.3892Z" fill="#0A0A0B"/>
<path d="M45.5368 26.1945C45.2408 25.981 44.8635 26.3742 44.8089 26.6731C44.8422 27.0373 45.3195 26.9903 45.5568 26.8731C45.8008 26.7133 45.7622 26.3493 45.5368 26.1945Z" fill="#0A0A0B"/>
<path d="M15.9716 26.1893C15.5862 25.9893 15.1142 26.2706 14.8915 26.5971C14.6475 27.0201 15.2089 27.469 15.6102 27.2774C16.0929 27.2117 16.4996 26.4799 15.9716 26.1893Z" fill="#0A0A0B"/>
<path d="M19.2889 27.2264C18.9635 26.993 18.4729 27.3117 18.5262 27.6998C18.4729 28.1357 19.0795 28.368 19.3662 28.0665C19.6489 27.8493 19.6022 27.3836 19.2889 27.2264" fill="#0A0A0B"/>
<path d="M26.7742 27.3159C26.4156 27.069 26.0155 27.7159 26.3582 27.9408C26.7155 28.1611 27.1316 27.5476 26.7742 27.3159Z" fill="#0A0A0B"/>
<path d="M17.4222 27.5373C17.0862 27.3237 16.5262 27.7195 16.6235 28.1195C16.9449 28.5665 17.8595 27.9529 17.4222 27.5373Z" fill="#0A0A0B"/>
<path d="M32.9649 27.8638C32.8262 27.8226 32.6288 27.805 32.5462 27.9586C32.3102 28.2263 32.6848 28.6622 32.9902 28.5107C33.2195 28.3559 33.1862 28.0012 32.9649 27.8638Z" fill="#0A0A0B"/>
<path d="M41.2862 28.0357C40.9929 27.8185 40.4769 28.0518 40.5796 28.4425C40.6316 28.8039 41.1889 28.9383 41.3702 28.6117C41.5036 28.4263 41.4489 28.1706 41.2862 28.0357" fill="#0A0A0B"/>
<path d="M44.5476 28.1987C44.3556 28.1529 44.1169 27.9903 43.9516 28.1835C43.6156 28.469 43.7716 29.3075 44.3036 29.1799C44.6916 29.0263 44.7356 28.5278 44.5476 28.1987" fill="#0A0A0B"/>
<path d="M36.6435 28.9559C37.0569 28.845 36.9409 28.069 36.5169 28.0654C36.3329 28.0263 36.1915 28.169 36.0462 28.2638C36.0035 28.6013 36.2649 29.0169 36.6435 28.9559" fill="#0A0A0B"/>
<path d="M22.2155 29.1065C22.7062 29.0597 22.7462 28.2075 22.2195 28.2075C21.9315 28.1398 21.8502 28.4477 21.7435 28.6409C21.8529 28.8278 21.9302 29.1466 22.2155 29.1065Z" fill="#0A0A0B"/>
<path d="M15.2329 28.4622C15.1316 28.2971 14.8582 28.4742 14.9889 28.632C15.0942 28.7716 15.3489 28.605 15.2329 28.4622Z" fill="#0A0A0B"/>
<path d="M29.9156 28.9373C29.6996 28.5987 29.1196 28.8799 29.2049 29.257C29.2196 29.5944 29.6289 29.6878 29.9023 29.6159C29.9876 29.3971 30.1222 29.1289 29.9156 28.9373Z" fill="#0A0A0B"/>
<path d="M16.4155 28.8596C16.1795 28.5226 15.7329 28.7586 15.5169 28.9971C15.5329 29.169 15.4889 29.3944 15.6782 29.4982C16.0529 29.769 16.6542 29.2878 16.4155 28.8596" fill="#0A0A0B"/>
<path d="M24.8769 28.9893C24.7182 28.8237 24.4782 28.9133 24.2876 28.9383C24.1769 29.2226 23.9876 29.6545 24.3249 29.8622C24.8076 30.1731 25.3156 29.2987 24.8769 28.9893Z" fill="#0A0A0B"/>
<path d="M19.0809 29.0065C18.7969 28.8143 18.4769 29.0654 18.2409 29.2226C17.9662 29.3919 17.9249 29.8862 18.2822 29.9862C18.6995 30.1169 19.3875 29.7826 19.2609 29.2706C19.2315 29.157 19.1715 29.0706 19.0809 29.0065Z" fill="#0A0A0B"/>
<path d="M17.5262 28.9835C17.3528 28.8315 17.0635 28.8774 16.9355 29.0654C16.7955 29.3226 17.0635 29.6706 17.3515 29.5919C17.6288 29.544 17.6768 29.1774 17.5262 28.9835Z" fill="#0A0A0B"/>
<path d="M28.1235 29.5862C27.8355 29.4758 27.3715 29.645 27.3422 29.9955C27.2888 30.3398 27.5795 30.6159 27.8502 30.7835C28.2675 31.0236 28.7942 30.5236 28.6315 30.0903C28.5635 29.844 28.3448 29.6835 28.1235 29.5862" fill="#0A0A0B"/>
<path d="M42.5155 30.0955C42.3942 29.6987 41.7249 29.7466 41.7662 30.1971C41.7355 30.4892 42.0795 30.5944 42.2942 30.4611C42.3782 30.3424 42.4462 30.2132 42.5155 30.0955Z" fill="#0A0A0B"/>
<path d="M39.5275 29.9144C39.1408 29.704 38.6795 30.2305 38.9315 30.5998C39.1528 30.7425 39.4928 30.7133 39.6448 30.4893C39.7835 30.3144 39.7488 29.9998 39.5275 29.9144Z" fill="#0A0A0B"/>
<path d="M31.9836 30.4023C31.7649 30.1064 31.3036 30.2971 31.2262 30.6132C31.1716 30.8611 31.2902 31.1107 31.3516 31.3502C31.4902 31.3783 31.6369 31.5107 31.7809 31.4236C32.0889 31.2075 32.2956 30.7064 31.9836 30.4023" fill="#0A0A0B"/>
<path d="M35.3663 30.4383C35.1476 30.2263 34.6703 30.3774 34.7289 30.7169C34.7636 31.0826 34.7409 31.4544 34.8049 31.8184C34.8676 32.0596 35.1969 32.0586 35.3542 31.9159C35.6996 31.5107 35.6623 30.8466 35.3663 30.4383" fill="#0A0A0B"/>
<path d="M15.9142 30.5117C15.8049 30.4611 15.6942 30.4107 15.5822 30.3597C15.2102 30.4305 15.0875 30.7955 15.1502 31.1373C15.3462 31.3758 15.7409 31.4159 15.9609 31.1878C16.1169 30.9758 15.9742 30.7278 15.9142 30.5117" fill="#0A0A0B"/>
<path d="M19.9302 30.5288C19.6569 30.405 19.3089 30.7331 19.4075 31.0263C19.4422 31.3168 19.9195 31.3758 20.0448 31.1252C20.2062 30.9408 20.1449 30.6331 19.9302 30.5288Z" fill="#0A0A0B"/>
<path d="M44.2982 30.8226C43.8955 30.5586 43.3422 31.1023 43.6195 31.5023C44.0155 31.9159 44.7955 31.2132 44.2982 30.8226Z" fill="#0A0A0B"/>
<path d="M18.2235 30.9919C18.0648 30.793 17.7968 30.745 17.5622 30.805C17.1848 30.869 16.7862 30.9502 16.4755 31.1878C16.2715 31.3944 16.3622 31.6971 16.4982 31.9159C16.9728 31.9559 17.4275 31.7862 17.8942 31.7356C18.2328 31.7116 18.4635 31.257 18.2235 30.9919" fill="#0A0A0B"/>
<path d="M41.4382 31.7528C41.7249 31.5159 41.4515 30.9679 41.0942 31.1195C40.7809 31.1783 40.8262 31.5424 40.8555 31.7835C41.0422 31.8116 41.2955 31.9408 41.4382 31.7528Z" fill="#0A0A0B"/>
<path d="M30.2995 31.2493C30.0435 31.0597 29.6315 31.3117 29.7462 31.6346C29.8622 31.88 29.9782 32.1264 30.1142 32.369C30.2555 32.5742 30.5728 32.5466 30.7262 32.369C30.9022 31.9493 30.6395 31.4862 30.2995 31.2493" fill="#0A0A0B"/>
<path d="M26.3128 31.3862C26.1995 31.1373 25.8688 31.1107 25.6462 31.2211C25.4315 31.3919 25.4675 31.6971 25.4288 31.9466C25.3782 32.1383 25.4595 32.3289 25.5329 32.5133C26.1662 32.7263 26.5782 31.8799 26.3128 31.3862Z" fill="#0A0A0B"/>
<path d="M33.9195 31.769C33.6435 31.593 33.3982 31.8903 33.2128 32.0596C33.0115 32.2226 32.8275 32.5263 33.0089 32.7742C33.5569 33.1346 34.5635 32.2278 33.9195 31.769" fill="#0A0A0B"/>
<path d="M29.2622 32.0903C28.9142 31.8742 28.5662 32.245 28.5248 32.581C28.5075 32.8758 28.4342 33.2528 28.6995 33.4638C28.9169 33.6596 29.2462 33.5408 29.4422 33.3774C29.7222 32.9982 29.6568 32.3518 29.2622 32.0903" fill="#0A0A0B"/>
<path d="M27.8942 32.0998C27.6675 31.9253 27.3408 32.0774 27.2408 32.3264C27.1035 32.6612 26.8208 33.016 26.9528 33.4024C27.0982 33.805 27.7422 33.7878 27.9008 33.4024C28.0955 33.0108 28.3462 32.4065 27.8942 32.0998Z" fill="#0A0A0B"/>
<path d="M36.7382 32.2679C36.4689 32.0878 36.0182 32.3518 36.1102 32.6867C36.1809 32.9493 36.2275 33.3117 36.5302 33.4185C36.8315 33.5477 37.1515 33.1971 37.0995 32.9039C37.0622 32.6586 36.9662 32.3903 36.7382 32.2679Z" fill="#0A0A0B"/>
<path d="M42.4635 32.7799C42.3849 32.557 42.1195 32.4143 41.9022 32.5383C41.5942 32.7346 41.5235 33.1774 41.7502 33.4665C41.8649 33.4611 41.9769 33.4611 42.0902 33.469C42.2609 33.2679 42.4769 33.0611 42.4635 32.7799" fill="#0A0A0B"/>
<path d="M19.0982 32.6955C18.7022 32.5304 18.0888 32.9492 18.2835 33.4012C18.6635 33.932 19.6329 33.1195 19.0982 32.6955Z" fill="#0A0A0B"/>
<path d="M20.8435 32.9331C20.4182 32.657 19.9222 33.3878 20.2555 33.7253C20.7182 33.9851 21.2969 33.2654 20.8435 32.9331Z" fill="#0A0A0B"/>
<path d="M44.4062 33.0023C43.9662 32.8075 43.5169 33.2383 43.3582 33.6263C43.3755 34.0383 43.9715 34.0622 44.2315 33.8638C44.5342 33.7117 44.7382 33.2263 44.4062 33.0023" fill="#0A0A0B"/>
<path d="M33.1715 33.2476C32.9929 33.0611 32.5249 33.093 32.5342 33.4195C32.5555 33.7304 32.5409 34.1132 32.8022 34.3424C32.9782 34.4012 33.1875 34.3534 33.2862 34.1903C33.4649 33.8919 33.3409 33.5143 33.1715 33.2476Z" fill="#0A0A0B"/>
<path d="M35.1862 33.6107C34.9888 33.3064 34.4075 33.2236 34.2595 33.6107C34.1475 33.9023 34.4289 34.1398 34.5702 34.3654C34.7089 34.4064 34.8448 34.4518 34.9808 34.5075C35.3195 34.3706 35.4675 33.8731 35.1862 33.6107Z" fill="#0A0A0B"/>
<path d="M31.3342 33.6039C31.1582 33.5237 30.9062 33.4945 30.7729 33.669C30.6329 33.8237 30.7009 34.057 30.6755 34.2518C30.8235 34.3425 30.9489 34.5253 31.1422 34.5075C31.2835 34.4185 31.3955 34.2998 31.5128 34.1903C31.5075 33.9774 31.5115 33.7477 31.3342 33.6039Z" fill="#0A0A0B"/>
<path d="M19.6089 34.2742C19.3489 34.1013 19.0409 34.2732 18.8076 34.4092C18.5329 34.545 18.3209 34.8774 18.4716 35.1836C18.6822 35.5212 19.1649 35.3878 19.4209 35.1774C19.7022 34.9904 19.9382 34.5253 19.6089 34.2742" fill="#0A0A0B"/>
<path d="M42.5982 35.2143C42.8316 35.0065 42.7102 34.505 42.3502 34.5731C41.9702 34.5987 41.9689 35.0529 42.1209 35.3107C42.2795 35.2851 42.4729 35.3346 42.5982 35.2143" fill="#0A0A0B"/>
<path d="M44.7929 34.8159C44.6062 34.657 44.2795 34.6903 44.1555 34.9107C43.8862 35.2597 44.2742 35.9305 44.7249 35.7143C44.9995 35.5133 45.0995 35.0289 44.7929 34.8159Z" fill="#0A0A0B"/>
<path d="M44.1915 36.0331C43.9862 35.9133 43.6982 36.0346 43.6169 36.2586C43.4209 36.5559 43.7342 36.905 44.0128 36.9903C44.5475 37.0835 44.6342 36.1903 44.1915 36.0331" fill="#0A0A0B"/>
<path d="M19.8182 36.7195C19.9835 36.4664 19.6942 36.1211 19.4168 36.1919C19.1768 36.281 18.9795 36.4559 18.7915 36.6331C18.7809 36.8012 18.7915 36.9731 18.7969 37.1518C19.2062 37.3502 19.5995 37.0466 19.8182 36.7195" fill="#0A0A0B"/>
<path d="M45.9515 36.8493C45.5728 36.5774 45.2755 37.2919 45.6488 37.4774C46.0408 37.6441 46.2968 37.0545 45.9515 36.8493Z" fill="#0A0A0B"/>
<path d="M46.4981 38.681C46.2275 38.5493 45.8008 38.6611 45.8128 39.0169C45.7568 39.2893 46.0101 39.5373 46.2835 39.4919C46.7021 39.505 46.8061 38.8955 46.4981 38.681" fill="#0A0A0B"/>
</g>
<defs>
<clipPath id="clip0_19_284">
<rect width="53" height="47" fill="white"/>
</clipPath>
</defs>
</svg>
