<svg width="53" height="47" fill="none" xmlns="http://www.w3.org/2000/svg"><g clip-path="url(#a)"><path d="M8.5 15c-.8.4-2.333 2.5-3 3.5l1 1.5h4l1.5 2.5c.5 1 1.6 3.7 2 6.5.4 2.8 2.5 4.5 3.5 5l1.5 6v4l-1 2h2l2-1 1 1 1.5-3-.5-9 2 .5 1 .5h2l1.5.5h5l2-1.5h2l2 7.5L40 45h1.5l2-2.5-1-5.5 2 1c.8.4.667 2.167.5 3l-1.5 5c.5.333 1.6.8 2 0 .4-.8 1.5-2.333 2-3v-5c-.5-.667-1.6-2.4-2-4-.4-1.6.5-4 1-5 1-7.5-4-9.333-6.5-9.5-2.667-.167-8.7-.4-11.5 0-2.8.4-5.5-.5-6.5-1-1.333-.667-4-2.4-4-4 0-2-3.5-2.5-6-3s-2.5 3-3.5 3.5Z" fill="#fff"/><path d="M23.808 41.983c-.026.391.046.802-.09 1.185-.153.363-.512.593-.653.965-.106.25-.132.548-.355.735-.244.003-.486.008-.73.013-.027-.69.398-1.279.754-1.827A2.32 2.32 0 0 0 23 41.732c.245.149.517.25.809.25Zm22.953.188c-.003.206.008.417-.022.629-.138.286-.438.452-.649.686-.397.38-.619.902-.747 1.427-.064.287.111.616-.049.883-.238.106-.501.12-.756.181-.236.006-.473.015-.712.027.282-.863.696-1.672 1.039-2.508.267-.623.23-1.306.324-1.96.384.444.984.697 1.572.635Zm-4.146-.754c.084.46.162 1.1-.306 1.39-.444.28-.695.733-.904 1.2-.143.165.065.331.073.512-.1.089-.225.154-.343.237-.293.016-.584.038-.878.058.272-.58.701-1.072.943-1.662.169-.48.238-.992.18-1.495.44.075.831-.113 1.235-.24Zm-22.173-.623c-.07.787.147 1.568.087 2.36-.048.393.132.903-.235 1.187-.323.273-.561.63-.756 1.004-.061.075-.085.24-.22.232a5.968 5.968 0 0 1-1.019.122c.246-.395.677-.643.852-1.085.189-.303.152-.683.329-.99.169-.283.06-.615.089-.92.079-.662-.19-1.287-.29-1.93.387.015.776.021 1.163.02Zm1.408.573c.037.456.099.96-.192 1.352-.018-.163-.041-.32-.065-.471-.039-.388-.232-.756-.168-1.146.095-.34.185-.678.225-1.022.079.422.05.87.2 1.287Zm20.479-3.395c.175.085.076.311.104.47-.126.026-.255.051-.382.087-.032.296.207.383.451.438.03.295.052.59.07.894a.682.682 0 0 0-.553-.129 33.66 33.66 0 0 0-.018.342c.203.093.401.015.587-.076.023.137.045.28.066.43a1.72 1.72 0 0 0-.739.219c-.234.148-.511-.027-.638-.235.042-.943-.139-1.881-.139-2.824.379.177.814.198 1.19.384ZM23.61 35.876c-.282 1.632-.07 3.292-.008 4.93-.313-.149-.495-.473-.82-.605-.09-.428-.194-.846-.277-1.272-.136-.56-.053-1.164-.328-1.685.017-.499.11-1.026.305-1.48.386-.071.74.184 1.128.112ZM10.117 15.56c.433.128.666.552.85.934-.238.494-.2 1.07-.206 1.606-.136.135-.27.279-.401.424.08.448-.311.75-.67.925-.462.182-.97.063-1.442.187-.318.007-.635.007-.942.101-.05.009-.146.026-.196.031.164-.22.472-.476.283-.768-.088-.19-.328-.18-.501-.154-.328.047-.52.352-.77.542-.09-.424-.2-.91.023-1.31.195-.356.388-.72.68-1 .335-.363.78-.594 1.148-.918.33-.276.585-.621.861-.948.343.34.84.304 1.283.348Zm7.21-.581c-.005.063-.01.181-.014.241-.566.088-1.21.15-1.703-.21.57 0 1.146-.06 1.716-.031Zm-2.669-2.418c.508.295 1.039.551 1.56.822.33.134.49.487.79.664-.642.013-1.29.08-1.93-.04-.268-.044-.682.006-.76.316-.08.238.194.345.287.524-.29.245-.415.705-.147 1.016.77.886 2.094 1.001 3.17.714.44-.126.707-.51.89-.904.142.375.052.862.392 1.145.272.283.672.34 1.03.465.375.26.325.835.73 1.081.39.347.94.254 1.419.267.242.303.427.712.852.79.495.063 1.012.316 1.497.142.043.197.095.397.156.598.14.02.283.038.424.047.308-.017.423-.402.723-.42.387-.036.826-.096 1.152.17.294.22.676.153 1.002.061.698-.087 1.485-.636 2.143-.16.34.237.697-.096.995-.246.273-.21.692-.243.96-.013.205.146.35.38.597.46.647.043 1.224-.348 1.87-.343.506.008 1.086-.117 1.502.254.299.296.747.253 1.093.068.962-.45 2.163-.367 3.015.286.39.343.89-.057 1.325.109.432.114.88.26 1.216.57.357.35.88.4 1.278.687.497.355 1.01.722 1.334 1.257.72 1.064.555 2.404.59 3.62.048.49-.138.96-.094 1.45-.008.56.051 1.173-.264 1.669-.237.376-.163.826-.145 1.248.032.323-.17.607-.188.93-.041.231.01.503-.125.718-.116.23-.325.45-.279.732.077.237.25.455.196.728-.117 1 .535 1.865 1.178 2.558.3.388.837.71.776 1.272.03 1.052-.042 2.102-.047 3.152a4.422 4.422 0 0 0-.167.206l-.228-.002a.733.733 0 0 0 .113-.58c-.244-.115-.769.071-.502.376-.024.018-.073.048-.097.066-.206-.26-.2-.693-.555-.803.025-.524.136-1.063-.021-1.575-.44-.797-1.282-1.228-1.928-1.829-.624-.623-1.367-1.116-1.927-1.8-.648-.654-1.159-1.428-1.67-2.19-.466-.627-1.086-1.126-1.702-1.598-.324-.268-.783-.383-1.175-.196-.341.224-.16.72.13.91.494.367.98.745 1.457 1.138.17.315-.233.453-.415.622-.432.136-.832-.352-1.227-.082-.503.306-.703.923-1.197 1.244-.379.18-.704-.161-1.065-.221-.523-.075-1.022.168-1.54.169-.25-.004-.43-.19-.625-.312-.28-.228-.68-.183-.986-.036-.46.215-1.004.372-1.498.19-.252-.157-.403-.471-.715-.527-.525-.056-.967.441-1.495.278-.408-.245-.668-.8-1.205-.78-.381.071-.733.3-1.135.274-.337-.023-.512-.347-.79-.487-.293-.175-.666-.017-.955-.21.012-.643.481-1.18.444-1.829a2.875 2.875 0 0 0-.239-1.136c-.066-.157-.282-.332-.447-.204-.246.095-.175.403-.203.615.035.554-.278 1.036-.547 1.495-.288-.003-.566.132-.642.436-.237.838-.269 1.73-.596 2.546-.271.695-.326 1.444-.451 2.177-.253.709-.167 1.482-.406 2.2-.385.125-.77.276-1.181.293-.112-.02-.282.062-.335-.08-.044-.263-.041-.531-.11-.782-.202-.636-.135-1.312-.26-1.964.025-.589-.029-1.18-.269-1.722a6.722 6.722 0 0 0-.097-.319c-.113-.593-.52-1.072-.676-1.65-.067-.364-.456-.514-.58-.849-.15-.338-.439-.655-.848-.506-.165.484.303.841.354 1.302-.42-.19-.407-.737-.748-1.001-.309-.24-.63-.472-.837-.807.007-.102.015-.194.02-.279.023-.37.142-.76-.009-1.111-.12-.355-.433-.583-.61-.899-.063-.304.031-.604.111-.886.191-.51-.09-1.031-.454-1.378-.25-.226-.21-.589-.212-.889.035-.521-.208-1.018-.512-1.423.006-.222.028-.43.057-.641.05-.482-.216-.904-.556-1.211a3.24 3.24 0 0 0-.77-1.726c-.318-.555-.851-.92-1.355-1.287.216-.578.634-1.044.888-1.599.27-.532.38-1.122.495-1.697.586.014 1.102-.436 1.22-.996.034-.563-.555-.963-1.066-.948-.436.132-.872.364-1.079.793-.154-.183-.378-.33-.36-.596-.416-.25-.847.116-1.283.058a4.013 4.013 0 0 0-.371-.088c.268-.557.127-1.257.57-1.724.357-.422.87-.682 1.389-.83.515-.04 1.033-.055 1.547-.068.673.09 1.34.245 1.971.501Zm-1.166-1.43c-.538-.16-1.093-.16-1.645-.076-1.009-.051-2.003.382-2.73 1.07a3.025 3.025 0 0 0-.737 1.702c-.05.48-.44.817-.727 1.176-.543.653-1.39.988-1.861 1.712-.326.473-.668.962-.767 1.543-.063.53-.01 1.077.199 1.572.145.47.548.864 1.038.962.542.143 1.074-.117 1.61-.153.654-.063 1.313-.072 1.948-.255.47.43 1.06.767 1.373 1.345.188.325.492.598.54.996.05.371.272.681.496.973.199.217.04.53.067.795-.038.411.152.78.334 1.132.116.571-.057 1.215.292 1.731.123.293.598.462.433.833-.26.609-.236 1.348.167 1.888.139.246.45.427.396.745-.022.486-.053 1.029.27 1.44.275.466.893.57 1.163 1.04.227.422.624.738 1.075.898.232.076.458.177.667.304.203.616.364 1.247.477 1.883.13.696.236 1.401.247 2.11.057.697.28 1.369.333 2.069.018.47.23.9.272 1.369.203.712.487 1.447.31 2.2-.226.641-.962.89-1.222 1.517a.595.595 0 0 0 .17.819c.737.444 1.674.405 2.46.106.44-.325.405-.998.86-1.318.094.334.302.768.714.759.614.028 1.259-.042 1.81-.325.497-.317.38-1.009.775-1.395.485-.525.615-1.28.591-1.97-.041-1.14-.294-2.267-.25-3.413-.19-1.296.027-2.604-.071-3.907.27.135.565.241.873.233.413.023.784-.194 1.188-.233.334.31.715.655 1.203.645.428.051.837-.073 1.223-.242.316.193.572.517.967.56.67.201 1.32-.136 1.957-.288.397.147.786.4 1.232.33.507-.028 1.017-.467 1.515-.19.354.201.787.178 1.166.062.661-.17 1-.815 1.41-1.3.487.176 1.007.049 1.447-.206.224.451.543.848.81 1.279.291.777.569 1.578.617 2.414.037.544.017 1.095.102 1.64.012.564.082 1.127.127 1.692 0 .63.005 1.35-.459 1.842-.342.334-.291.853-.58 1.218-.234.318-.375.856.015 1.118.536.385 1.207.145 1.8.089a1.601 1.601 0 0 0 1.413-1.29c.089-.232.017-.557.27-.682.461-.272.745-.764.864-1.27.023-.553-.007-1.107.001-1.662.018-.42-.181-.815-.146-1.23.035-.454-.042-.898-.083-1.34.34.258.735.49.956.866.054.581-.05 1.173-.148 1.75-.15.533-.105 1.093-.176 1.636-.167.918-.754 1.68-1.007 2.567-.162.43-.279.892-.2 1.354.116.367.497.59.864.64.586.093 1.181-.03 1.745-.18.394-.1.76-.374.883-.77.075-.387-.037-.785.044-1.162.235-.664 1.015-.92 1.259-1.575.21-.441.15-.936.156-1.403-.014-1.454.178-2.905.09-4.36-.094-.9-.847-1.488-1.406-2.118-.33-.47-.808-.903-.839-1.51.526-.53.76-1.264.745-1.997.425-.558.203-1.259-.011-1.85.19-.5.56-.94.587-1.496-.002-1.385.238-2.789-.04-4.165.067-1.506-.918-2.823-2.072-3.685-.457-.368-1.045-.507-1.526-.836-.567-.381-1.248-.51-1.882-.74-.374-.14-.8.055-1.154-.155-.434-.29-.967-.279-1.46-.36-.685-.07-1.398-.07-2.059.15-.29.136-.561-.122-.834-.2-.45-.228-.962-.162-1.448-.163-.571-.006-1.112.2-1.674.264-.341-.141-.65-.357-1.025-.396-.467-.142-.935.048-1.35.255-.318.195-.69.003-1.037.029-.636.018-1.248.23-1.858.385-.363.021-.682-.225-1.046-.223-.624-.04-1.402-.022-1.813.526.15-.762-.76-1.069-1.363-1.046-.273-.273-.488-.64-.881-.749-.315-.122-.654-.067-.979-.096-.26-.23-.353-.596-.624-.819-.288-.314-.715-.402-1.093-.56-.124-.314-.185-.658-.415-.913-.248-.367-.686-.49-1.084-.605.026-.164.05-.322.079-.474-.427-.855-1.236-1.467-2.09-1.857-.597-.274-1.145-.665-1.796-.808a4.694 4.694 0 0 0-1.027-.217" fill="#0A0A0B"/><path d="M16.61 17.942c.15-.21-.097-.41-.3-.297l-.025.33c.081-.007.244-.025.325-.033ZM13.39 18.318a15.627 15.627 0 0 0-.273-.014c.017.101-.107.346.082.358.202.025.187-.221.191-.344M19.1 18.808c-.378-.243-.782.523-.302.63.384.151.659-.446.303-.63ZM11.74 18.9c-.316-.164-.6.317-.316.532.324.253.682-.346.317-.532ZM12.78 19.417c-.231-.144-.58.023-.548.313-.044.206.1.523.357.399.319-.058.496-.528.19-.712M14.572 20.242c.04-.306-.374-.385-.555-.2-.087.164-.019.348-.007.53.226.033.59-.031.562-.33ZM16.822 20.25c-.377-.207-.721.37-.588.698.07.23.393.187.548.07.275-.142.308-.61.04-.768M22.085 20.592c-.348-.27-.74.356-.383.581.35.21.78-.362.383-.581ZM25.533 21.073c-.392-.212-.818.241-.71.636.05.312.478.327.695.186.213-.218.316-.631.015-.822ZM28.418 21.226c-.186-.148-.432-.046-.621.038-.128.329-.15.81.228.988.53.081.816-.73.393-1.026M13.918 21.393c-.305-.203-.618.008-.754.299.069.174.113.43.35.453.35-.045.6-.433.404-.752M20.233 21.821c-.495-.284-.876.538-.539.85.461.267.973-.548.539-.85ZM15.677 22.125c-.23-.18-.727-.053-.678.294-.069.402.635.535.766.182.106-.165.028-.354-.088-.476M18.154 22.552c-.33-.163-.824.105-.825.488.086.529 1.008.398 1.017-.112.004-.154-.025-.338-.192-.376M14.396 22.966c-.26-.017-.655.167-.472.487a.4.4 0 0 0 .688-.193 5.535 5.535 0 0 0-.216-.294M23.534 23.706c-.434-.162-.696.544-.372.786.46.214.903-.612.372-.786ZM14.94 24.525c-.36-.253-.946.288-.66.653.2.258.606.145.784-.076.1-.185.097-.49-.123-.577ZM43.954 25.113c.047-.302-.236-.48-.476-.573-.42.117-.64.692-.332 1.021.337.282.735-.119.808-.448M17.858 25.328c-.294-.135-.575.11-.81.265-.272.128-.235.623.085.664.445.095 1.09-.31.847-.815a9.654 9.654 0 0 0-.122-.114ZM41.636 25.39c-.086.009-.26.036-.346.046-.196.169.072.525.295.358.164-.083.052-.276.05-.405ZM45.537 26.195c-.296-.214-.673.18-.728.478.033.364.51.317.748.2.244-.16.205-.524-.02-.678ZM15.972 26.19c-.386-.2-.858.08-1.08.407-.244.423.317.872.718.68.483-.065.89-.797.362-1.088ZM19.289 27.226c-.325-.233-.816.086-.763.474-.053.436.554.668.84.367a.508.508 0 0 0-.077-.84M26.774 27.316c-.358-.247-.759.4-.416.625.357.22.773-.393.416-.625ZM17.422 27.537c-.336-.213-.896.183-.798.582.32.448 1.236-.166.798-.582ZM32.965 27.864c-.139-.041-.336-.059-.419.095-.236.267.139.703.444.552.23-.155.196-.51-.025-.647ZM41.286 28.036c-.293-.218-.81.016-.706.406.052.362.609.496.79.17a.432.432 0 0 0-.084-.576M44.547 28.199c-.191-.046-.43-.209-.595-.016-.337.286-.18 1.125.352.997.388-.154.431-.652.243-.981M36.644 28.956c.413-.111.297-.887-.127-.89-.184-.04-.326.103-.47.198-.044.337.218.753.597.692M22.215 29.107c.491-.047.531-.9.004-.9-.288-.067-.369.24-.476.434.11.187.187.506.472.466ZM15.233 28.462c-.101-.165-.375.012-.244.17.105.14.36-.027.244-.17ZM29.916 28.937c-.216-.338-.796-.057-.711.32.015.337.424.43.697.359.086-.219.22-.487.014-.679ZM16.416 28.86c-.236-.337-.683-.101-.9.137.017.172-.027.397.162.501.375.271.976-.21.738-.638M24.877 28.99c-.159-.166-.399-.077-.59-.052-.11.285-.3.716.038.924.483.311.99-.563.552-.873ZM19.08 29.006c-.283-.192-.603.06-.84.217-.274.169-.315.663.042.763.418.13 1.105-.203.979-.715a.448.448 0 0 0-.18-.265ZM17.526 28.983c-.173-.152-.462-.106-.59.082-.14.258.128.606.416.527.277-.048.325-.415.174-.608ZM28.123 29.586c-.288-.11-.752.059-.78.41-.054.344.236.62.507.788.417.24.944-.26.781-.694-.067-.246-.286-.407-.508-.504M42.516 30.096c-.122-.397-.791-.35-.75.101-.03.292.314.397.528.264.084-.119.152-.248.222-.365ZM39.528 29.914c-.387-.21-.849.316-.596.686.22.142.56.113.713-.11.138-.176.104-.49-.117-.576ZM31.983 30.402c-.218-.296-.68-.105-.757.211-.054.248.064.498.126.737.138.028.285.16.429.074.308-.216.514-.718.203-1.022M35.366 30.438c-.218-.212-.696-.06-.637.279.035.366.012.737.076 1.101.063.242.392.24.55.098.345-.405.307-1.07.011-1.478M15.914 30.512l-.332-.152c-.372.07-.494.436-.432.777.196.239.59.279.81.05.157-.211.014-.46-.046-.675M19.93 30.529c-.273-.124-.621.204-.523.497.035.29.512.35.638.1.161-.185.1-.493-.115-.597ZM44.298 30.823c-.403-.264-.956.28-.678.68.396.413 1.175-.29.678-.68ZM18.224 30.992c-.16-.199-.427-.247-.662-.187-.377.064-.776.145-1.087.383-.204.206-.113.51.023.728.475.04.93-.13 1.396-.18.339-.024.57-.479.33-.744M41.438 31.753c.287-.237.014-.785-.344-.634-.313.06-.268.423-.239.665.187.028.44.157.583-.031ZM30.3 31.25c-.256-.19-.669.062-.554.385.116.245.232.491.368.734.142.205.459.178.612 0 .176-.42-.086-.883-.427-1.12M26.313 31.386c-.114-.249-.444-.275-.667-.165-.215.17-.179.476-.217.726-.05.191.03.382.104.566.633.213 1.045-.633.78-1.127ZM33.92 31.769c-.276-.176-.522.121-.707.29-.202.164-.386.467-.204.715.548.36 1.554-.546.91-1.005M29.262 32.09c-.348-.216-.696.155-.737.491-.017.295-.09.672.175.883.217.196.546.077.742-.087.28-.379.215-1.025-.18-1.287M27.894 32.1c-.226-.175-.553-.023-.653.226-.137.335-.42.69-.288 1.076.145.403.79.386.948 0 .195-.391.445-.995-.007-1.302ZM36.738 32.268c-.27-.18-.72.084-.628.419.07.262.117.625.42.732.301.129.621-.222.57-.515-.038-.245-.134-.514-.362-.636ZM42.464 32.78c-.08-.223-.344-.366-.562-.242a.645.645 0 0 0-.152.929c.115-.006.227-.006.34.002.17-.201.387-.408.373-.69M19.098 32.696c-.396-.166-1.01.253-.815.705.38.531 1.35-.282.815-.706ZM20.843 32.933c-.425-.276-.92.455-.587.792.462.26 1.04-.46.587-.792ZM44.406 33.002c-.44-.195-.89.236-1.048.624.018.412.614.436.873.238.303-.152.507-.638.175-.862M33.172 33.248c-.18-.187-.647-.155-.638.172.022.31.007.693.268.922.176.06.386.011.484-.152.179-.298.055-.676-.114-.942ZM35.186 33.61c-.197-.304-.779-.386-.926 0-.112.292.169.53.31.755.139.041.275.087.41.142.34-.136.488-.634.206-.896ZM31.334 33.604c-.176-.08-.428-.11-.561.065-.14.155-.072.388-.098.583.148.09.274.273.467.255.142-.088.253-.207.37-.317-.005-.213 0-.442-.178-.586ZM19.609 34.274c-.26-.173-.568 0-.801.135-.275.136-.487.468-.336.775.21.337.693.204.949-.007.281-.187.517-.652.188-.903M42.598 35.214c.233-.207.112-.709-.248-.64-.38.025-.381.479-.23.737.16-.026.353.024.478-.097M44.793 34.816c-.187-.159-.514-.126-.637.095-.27.349.118 1.02.569.803.274-.2.374-.685.068-.898ZM44.191 36.033c-.205-.12-.493.002-.574.226-.196.297.117.646.396.731.534.093.621-.8.178-.957M19.818 36.72c.165-.254-.124-.599-.401-.528-.24.089-.438.264-.626.441-.01.168 0 .34.006.519.41.198.802-.105 1.021-.433M45.952 36.85c-.38-.273-.676.442-.303.627.392.167.648-.422.303-.628ZM46.498 38.681c-.27-.132-.697-.02-.685.336-.056.272.197.52.47.475.42.013.523-.596.215-.811" fill="#0A0A0B"/></g><defs><clipPath id="a"><path fill="#fff" d="M0 0h53v47H0z"/></clipPath></defs></svg>