<svg width="53" height="47" fill="none" xmlns="http://www.w3.org/2000/svg"><path d="M11.5 22.5c0 .4-2.5 2.333-3.5 3 0 .167.7 0 1.5 0s3-1 4-1.5c3 0 1.5 2.5 1.5 3s-2.5 4.5-1.5 8.5c.8 3.2 7.333 5.333 10.5 6L23 44l-2 .5 1 1.5 4-.5c.333-1.5 1.1-4.4 1.5-4 .5.5 11-3 12-4 .8-.8 3.667-2.333 5-3L39 33c-1.667-.5-5.4-1.5-9-3.5-4.5-2.5-9.5-.5-11 0s-.5-1 0-4.5-1-4.5-3-5.5-4.5 2.5-4.5 3Z" fill="#fff"/><path d="M24.064 42.575c-.122.387-.198.793-.337 1.182-.123.342-.492.487-.783.66.071.083.14.168.218.264.21-.023.412-.07.62-.124.202-.73.39-1.485.858-2.096-.194.041-.388.072-.576.114ZM11.55 23.134c-.55.974-1.776 1.18-2.444 2.031.356-.05.713-.129 1.041-.285.673-.285 1.407-.547 1.952-1.04-.11-.284-.364-.477-.55-.705Zm2.422-2.88c-.76.446-1.373 1.12-1.789 1.889-.12.527.248.993.416 1.47.49-.178 1.028-.314 1.541-.145.919.296 1.702 1.152 1.738 2.143.032.552-.278 1.039-.416 1.561-.39.919-.87 1.798-1.299 2.699-.213.372-.216.823-.395 1.21-.04.135-.074.274-.105.418-.067 1.016-.245 2.09.153 3.063.27.773.656 1.503 1.092 2.197.562.745 1.368 1.241 2.138 1.745.784.424 1.6.79 2.421 1.144.435.132.89.2 1.321.353.676.212 1.388.231 2.086.35.405.037.826.032 1.221.17.513.163 1.099.165 1.537.518.187.265.023.621.132.91.164.2.35.375.515.576-.088.228-.296.324-.517.367-.016.572-.146 1.133-.252 1.696a.713.713 0 0 1-.456.544c-.527.223-1.099.31-1.663.377-.144.026-.28.06-.41.095a3.269 3.269 0 0 0-.37.092c.657-.033 1.317-.021 1.977-.055.48 0 .955-.185 1.254-.572.222-.428.264-.918.408-1.37.15-.464.093-1.036.52-1.36.114-.255.28-.475.46-.684-.407-.016-.819.01-1.212-.092-.21-.043-.164-.27-.168-.416.668-.08 1.348.026 2.016-.083.425-.081.85-.173 1.26-.325.394-.143.828-.102 1.228-.227.621-.188 1.268-.257 1.882-.464.988-.234 1.932-.613 2.888-.953.642-.28 1.255-.623 1.896-.905 1.06-.5 1.878-1.36 2.862-1.973a13.1 13.1 0 0 0-1.143.335c-.219.043-.461.156-.663.028-.053-.193.17-.19.3-.23.68-.174 1.33-.54 2.054-.508.41-.175.801-.398 1.224-.543-.776.023-1.535.207-2.262.475-.626.1-1.16.453-1.762.618-.575.195-1.146.47-1.763.448-.279.003-.285-.277-.26-.473 1.383.002 2.53-.84 3.785-1.295.743-.37 1.558-.514 2.359-.7-.307-.037-.61-.066-.916-.025-.785.076-1.61-.107-2.36.21-.145.023-.308.158-.436.062.005-.19.213-.194.348-.247.63-.188 1.281-.284 1.927-.408-.587-.252-1.318-.017-1.816-.453-1.546.614-2.856 1.857-4.567 2.032-.083.11-.156.23-.25.332-.514.161-1.034-.056-1.54-.116-.215.147-.44.273-.669.387-.042.153-.005.37-.178.454-.347.245-.754.043-1.116-.03-.667-.069-1.334.026-1.988.128-.702-.128-1.4-.28-2.107-.36-.075.111-.103.322-.281.309-.327-.094-.592-.359-.723-.659-.101-.164.064-.328.212-.358.437-.018.85.18 1.285.22.02-.166.042-.323.075-.477.503-.08.772.471 1.24.527.363.059.727-.03 1.09-.057-.433-.361-.773-.82-1.05-1.307.008-.225.223-.215.348-.092.455.412.925.823 1.47 1.116.422.248.922.053 1.366-.037.08-.041.283-.053.239-.184-.406-.328-.935-.44-1.339-.762-.15-.084-.19-.334-.033-.42.236-.188.489.071.705.174.465.218.964.372 1.41.641.853.166 1.78.292 2.607-.053.482-.184.988-.335 1.418-.632.63-.52 1.233-1.068 1.901-1.532-.781-.167-1.584-.245-2.337-.519-1.01-.237-1.962-.664-2.935-1.013-1.853-.784-3.737-1.527-5.693-2.008-.628-.05-1.234-.284-1.867-.256-1.316-.016-2.632-.021-3.936.18-.765.04-1.44.432-2.177.59-.214.034-.47.113-.644-.05-.26-.263-.567-.556-.564-.952-.047-.846.152-1.684.418-2.48.335-.99.12-2.032.063-3.04-.068-.348-.103-.696-.193-1.037-.279-.58-.518-1.248-1.09-1.61-.438-.297-.885-.656-1.436-.657-.569-.028-1.189-.008-1.66.352Zm-.221-.894c1.028-.464 2.31-.523 3.307.07.613.355 1.224.787 1.562 1.434.511.802.606 1.77.723 2.692.112.97.216 1.995-.137 2.932-.187.555-.288 1.137-.36 1.715.008.177-.084.416.069.558.66-.076 1.223-.508 1.895-.53.974-.058 1.932-.29 2.912-.261.976-.006 1.968-.049 2.92.212 2.753.453 5.268 1.726 7.861 2.689 1.141.457 2.353.69 3.553.93.42.12.907.2 1.18.58.126.145.082.355.102.538.696-.041 1.357.218 2.021.386.66.167 1.264.569 1.964.563.453.036.904.105 1.361.139.324.05.436.453.334.734-.216.257-.562.32-.859.428-.98.287-1.839.855-2.759 1.276-.517.262-1.045.522-1.498.882-.608.745-1.487 1.17-2.279 1.677-.69.359-1.376.727-2.112.985-.821.292-1.621.66-2.476.842-.676.197-1.347.426-2.04.553-.573.079-1.095.364-1.67.427-.649.037-1.337.303-1.711.858-.148.207-.368.392-.396.666-.159.724-.276 1.479-.612 2.15-.314.491-.844.874-1.436.92-1.03.125-2.076.126-3.107.015-.357-.092-.788-.102-1.052-.383-.156-.334.075-.71.416-.79-.572.036-1.176-.021-1.684-.301-.375-.238-.219-.806.143-.969.58-.267 1.237-.414 1.878-.303.436.068 1.028.065 1.266-.382.124-.576.354-1.12.581-1.661-.881-.236-1.805-.143-2.688-.359-.757-.199-1.521-.388-2.25-.679-.637-.209-1.19-.598-1.8-.869-.978-.519-1.945-1.133-2.634-2.014-.67-.758-1.019-1.731-1.36-2.67-.153-.508-.395-1.008-.383-1.548-.033-.625.103-1.239.187-1.852.064-.688.36-1.32.528-1.98.416-.953.979-1.827 1.412-2.77.128-.427.447-.813.352-1.287.075-.775-.653-1.477-1.42-1.395-.432.073-.835.26-1.185.516-1.188.71-2.49 1.284-3.88 1.441-.338-.006-.588-.396-.452-.704.358-.886 1.116-1.535 1.933-1.989.872-.506 1.173-1.528 1.764-2.285.496-.772 1.219-1.376 2.016-1.827" fill="#0A0A0B"/><path d="M13.58 20.75c.303-.178.956-.158.974.306.002.408-.434.65-.78.732-.422-.123-.656-.81-.195-1.038ZM15.766 30.402c.164-.057.221-.002.172.174-.172.05-.23-.007-.172-.174ZM24.074 30.765c-.223-.005-.254-.37-.035-.395.837-.111 1.672.113 2.497.254.064-.165.247-.255.41-.153-.016.131-.026.269-.026.413.283.292.702.314 1.064.452.548.175 1.095.352 1.651.496.305.08.61.215.799.484 1.39.166 2.801.093 4.197-.006.299-.02.603-.114.905-.049.254.093.387.438.126.61-1.028.527-2.223.329-3.331.349.433-.093.88-.014 1.32-.07-.057-.102-.28-.035-.377-.053-.62-.041-1.246.124-1.851-.05-.527-.148-1.055-.296-1.573-.467-.74-.403-1.624-.445-2.334-.916-.26-.166-.482-.402-.79-.47-.87-.215-1.77-.289-2.652-.429" fill="#0A0A0B"/><path d="M28.443 31.021c.176-.272.49-.33.795-.27.176-.009.24.278.105.38a.71.71 0 0 1-.9-.11ZM29.443 31.241c.22-.124.483.01.721.03.918.175 1.84-.098 2.759.014.095.184-.077.386-.27.383-.798.053-1.59.261-2.394.152-.315-.059-.756-.02-.884-.38.017-.05.053-.15.068-.199M15.375 32.493c.135-.161.379.088.22.23-.14.14-.363-.098-.22-.23ZM26.012 32.55c.252-.138.518.042.731.18.143.08.185.2.124.367-.219.072-.435-.057-.621-.145-.135-.081-.346-.23-.234-.403ZM24.187 33.54c.204-.057.392.076.53.221.127.243-.19.336-.37.313-.25-.026-.492-.44-.16-.534ZM32.031 33.737c.24-.099.463.08.7.116.485.064.979-.01 1.47.03.207-.011.36.163.451.338-.018.254-.322.39-.546.406-.648.008-1.363.053-1.9-.371-.186-.09-.315-.347-.175-.519M21.356 34.26c.168-.061.227-.005.183.166-.176.054-.236 0-.183-.166ZM15.871 34.343c.224-.158.445.083.5.294.16.242-.177.58-.416.408-.24-.145-.184-.49-.084-.703ZM21.694 34.786c.177-.011.436.282.177.384-.252.112-.522-.328-.177-.384ZM22.476 35.357c.307-.135.572.136.871.185.096-.098.223-.297.387-.16.228.189.448.42.552.706.021.43-.576.346-.698.04-.14-.384-.578-.242-.87-.387-.152-.059-.342-.204-.242-.384M36.1 35.51c.126-.057.291-.058.368.086.05.25-.224.381-.4.49-.173.106-.497.16-.56-.09-.012-.314.364-.39.592-.487ZM17.411 35.983c.436.096.952.458.857.962-.516.144-1.028-.474-.857-.962ZM32.971 36.296c.293-.09.616-.07.92-.021a.212.212 0 0 1 .165.302c-.265.292-.728.361-1.082.223-.226-.088-.2-.408-.003-.504M29.53 37.123c.512-.095 1.036-.069 1.556-.03.221.012.483.12.572.347a.663.663 0 0 1-.672.365c-.588-.066-1.172-.14-1.763-.158-.453 0-.899.129-1.35.111-.137-.006-.31-.18-.2-.309.108-.186.345-.154.531-.19.436-.08.884-.083 1.326-.136M21.21 38.136c.254-.075.484.038.644.241.244.3.622.417.928.64.145.132-.003.377-.194.33-.362-.015-.696-.194-.949-.44-.212-.211-.445-.452-.43-.771ZM23.51 38.565c.382-.093.724.156 1.06.297.194.078.118.303.136.466-.402.098-.81-.067-1.132-.29-.155-.12-.068-.326-.063-.473ZM26.055 38.627c.224-.114.656.063.648.34-.187.274-.928.016-.648-.34ZM29.455 38.701c.402-.073-.015.479-.101.121.024-.033.077-.093.101-.12Z" fill="#0A0A0B"/></svg>