<svg width="38" height="28" viewBox="0 0 38 28" fill="none" xmlns="http://www.w3.org/2000/svg">
<path d="M16.0644 23.5745C15.9417 23.9625 15.8658 24.3678 15.7271 24.7572C15.6044 25.0985 15.2351 25.2438 14.9444 25.4172C15.0151 25.4998 15.0831 25.5852 15.1617 25.6812C15.3711 25.6585 15.5737 25.6105 15.7817 25.5572C15.9844 24.8265 16.1724 24.0719 16.6404 23.4612C16.4457 23.5025 16.2524 23.5332 16.0644 23.5745ZM3.54974 4.13584C2.99908 5.10918 1.77373 5.31452 1.10573 6.16652C1.46173 6.11586 1.81907 6.03719 2.14707 5.88119C2.82041 5.59585 3.55376 5.33451 4.09909 4.84118C3.98843 4.55718 3.73508 4.36384 3.54974 4.13584V4.13584ZM5.9724 1.25585C5.2124 1.70118 4.59908 2.37585 4.18308 3.14385C4.06308 3.67052 4.43109 4.13719 4.59909 4.61319C5.08976 4.43585 5.62704 4.29984 6.14037 4.46918C7.05904 4.76518 7.84174 5.62119 7.87774 6.61185C7.90974 7.16385 7.60039 7.65051 7.46172 8.17318C7.07106 9.09185 6.59109 9.97051 6.16309 10.8718C5.94976 11.2438 5.9471 11.6945 5.76843 12.0825C5.72843 12.2172 5.69376 12.3559 5.66309 12.4999C5.59642 13.5159 5.41774 14.5892 5.81641 15.5625C6.08574 16.3359 6.4724 17.0665 6.9084 17.7599C7.46974 18.5052 8.27637 19.0012 9.04571 19.5052C9.82971 19.9292 10.6457 20.2959 11.4671 20.6492C11.9017 20.7812 12.3564 20.8492 12.7884 21.0025C13.4644 21.2145 14.1764 21.2332 14.8737 21.3519C15.279 21.3892 15.7004 21.3838 16.0951 21.5225C16.6084 21.6852 17.1938 21.6865 17.6324 22.0398C17.8191 22.3052 17.6551 22.6612 17.7644 22.9505C17.9284 23.1492 18.1137 23.3252 18.279 23.5265C18.191 23.7545 17.9831 23.8505 17.7617 23.8932C17.7457 24.4652 17.6164 25.0265 17.5097 25.5892C17.4737 25.8332 17.287 26.0465 17.0537 26.1332C16.527 26.3558 15.9551 26.4439 15.3911 26.5105C15.2471 26.5359 15.111 26.5692 14.9817 26.6052C14.8497 26.6279 14.7297 26.6625 14.6111 26.6972C15.2684 26.6639 15.9284 26.6759 16.5884 26.6425C17.0684 26.6412 17.5431 26.4572 17.8417 26.0705C18.0644 25.6425 18.1057 25.1519 18.2497 24.6999C18.4004 24.2359 18.3431 23.6638 18.7697 23.3398C18.8844 23.0852 19.0498 22.8652 19.2298 22.6558C18.8231 22.6398 18.411 22.6652 18.0177 22.5639C17.8084 22.5212 17.8537 22.2932 17.8497 22.1479C18.5177 22.0679 19.1978 22.1745 19.8658 22.0652C20.2911 21.9839 20.7151 21.8918 21.1257 21.7398C21.5204 21.5972 21.9537 21.6385 22.3537 21.5132C22.975 21.3252 23.6217 21.2559 24.2364 21.0492C25.2244 20.8145 26.1684 20.4359 27.1244 20.0959C27.7657 19.8159 28.379 19.4732 29.0204 19.1905C30.0804 18.6918 30.8977 17.8319 31.8817 17.2185C31.4924 17.3132 31.1137 17.4252 30.7391 17.5532C30.5204 17.5958 30.2777 17.7092 30.0764 17.5812C30.023 17.3879 30.2457 17.3905 30.3751 17.3519C31.0564 17.1772 31.7058 16.8118 32.4298 16.8425C32.8391 16.6678 33.231 16.4452 33.6537 16.2999C32.8777 16.3225 32.1191 16.5065 31.3924 16.7745C30.7657 16.8758 30.2324 17.2279 29.6298 17.3932C29.0551 17.5879 28.4844 17.8625 27.8671 17.8412C27.5884 17.8438 27.5817 17.5639 27.607 17.3679C28.9897 17.3705 30.1377 16.5278 31.3924 16.0732C32.1351 15.7025 32.9497 15.5585 33.751 15.3732C33.4444 15.3358 33.1404 15.3065 32.8351 15.3479C32.0498 15.4239 31.2257 15.2412 30.4751 15.5585C30.3297 15.5812 30.1671 15.7158 30.0391 15.6198C30.0444 15.4292 30.2524 15.4265 30.387 15.3732C31.0164 15.1852 31.6684 15.0892 32.3137 14.9652C31.7271 14.7132 30.9964 14.9479 30.4977 14.5119C28.9524 15.1265 27.6417 16.3692 25.9311 16.5439C25.8484 16.6532 25.7751 16.7745 25.6804 16.8758C25.1671 17.0372 24.6471 16.8199 24.1417 16.7599C23.9257 16.9065 23.7017 17.0332 23.4724 17.1465C23.4297 17.2999 23.4671 17.5172 23.2938 17.6012C22.9471 17.8465 22.5404 17.6438 22.1777 17.5718C21.5111 17.5025 20.8444 17.5972 20.1897 17.6985C19.4884 17.5705 18.7897 17.4185 18.0831 17.3398C18.0084 17.4505 17.9804 17.6612 17.8018 17.6479C17.4751 17.5545 17.2097 17.2892 17.079 16.9892C16.9777 16.8252 17.1431 16.6612 17.2911 16.6305C17.7284 16.6132 18.1404 16.8119 18.5764 16.8505C18.5964 16.6852 18.6177 16.5278 18.651 16.3745C19.1537 16.2932 19.4231 16.8452 19.8911 16.9012C20.2538 16.9599 20.6177 16.8705 20.9817 16.8439C20.5484 16.4825 20.2084 16.0238 19.9311 15.5372C19.9391 15.3118 20.1537 15.3225 20.279 15.4452C20.7337 15.8572 21.2044 16.2679 21.7484 16.5612C22.171 16.8092 22.671 16.6145 23.115 16.5238C23.195 16.4825 23.3977 16.4705 23.3537 16.3398C22.9484 16.0118 22.419 15.8999 22.015 15.5785C21.8644 15.4945 21.8257 15.2438 21.9817 15.1585C22.2177 14.9705 22.471 15.2292 22.687 15.3319C23.1524 15.5505 23.6511 15.7038 24.0964 15.9732C24.9498 16.1385 25.8764 16.2652 26.7044 15.9198C27.1857 15.7358 27.6924 15.5852 28.1217 15.2878C28.7511 14.7678 29.355 14.2198 30.023 13.7558C29.2417 13.5892 28.4391 13.5105 27.6857 13.2372C26.6751 12.9998 25.7244 12.5732 24.751 12.2238C22.8977 11.4398 21.0138 10.6972 19.0578 10.2159C18.4298 10.1665 17.8244 9.93185 17.1911 9.95985C15.8751 9.94385 14.5591 9.93851 13.2551 10.1398C12.4897 10.1798 11.8151 10.5719 11.0777 10.7305C10.8644 10.7639 10.6071 10.8425 10.4337 10.6799C10.1737 10.4172 9.86706 10.1239 9.86973 9.72785C9.82306 8.88252 10.0217 8.04385 10.2884 7.24785C10.6231 6.25852 10.4084 5.21585 10.351 4.20785C10.283 3.85985 10.2484 3.51184 10.1578 3.17051C9.87909 2.59051 9.6404 1.92252 9.06706 1.56118C8.62973 1.26385 8.18309 0.905177 7.63243 0.903844C7.06309 0.875844 6.44307 0.895846 5.9724 1.25585V1.25585ZM5.75105 0.361184C6.77905 -0.102816 8.06175 -0.161478 9.05775 0.431855C9.67109 0.786522 10.2817 1.21852 10.6204 1.86519C11.131 2.66652 11.2257 3.63451 11.343 4.55718C11.455 5.52651 11.5591 6.55185 11.2057 7.48918C11.0191 8.04385 10.9177 8.62651 10.8457 9.20384C10.8537 9.38118 10.7617 9.61985 10.915 9.76252C11.575 9.68652 12.1377 9.25452 12.8097 9.23186C13.7844 9.17452 14.7417 8.94118 15.7217 8.97051C16.6977 8.96518 17.6897 8.92252 18.6417 9.18252C21.3951 9.63586 23.9097 10.9092 26.5031 11.8718C27.6444 12.3292 28.8564 12.5612 30.0564 12.8012C30.4764 12.9212 30.9631 13.0025 31.2351 13.3825C31.3618 13.5265 31.3177 13.7372 31.3377 13.9198C32.0337 13.8785 32.6951 14.1385 33.3591 14.3065C34.0191 14.4732 34.623 14.8745 35.323 14.8692C35.7764 14.9052 36.227 14.9745 36.6844 15.0078C37.0084 15.0572 37.1204 15.4612 37.0177 15.7425C36.8017 15.9985 36.4564 16.0625 36.1591 16.1705C35.1791 16.4572 34.3204 17.0252 33.4004 17.4465C32.8831 17.7079 32.3551 17.9679 31.9018 18.3279C31.2938 19.0732 30.415 19.4985 29.623 20.0052C28.9324 20.3638 28.2471 20.7318 27.5111 20.9905C26.6897 21.2825 25.8898 21.6505 25.0351 21.8319C24.3591 22.0292 23.6884 22.2585 22.9951 22.3852C22.4217 22.4639 21.9004 22.7492 21.3244 22.8119C20.6764 22.8492 19.9884 23.1145 19.6137 23.6705C19.4657 23.8772 19.2457 24.0625 19.2177 24.3358C19.059 25.0598 18.9417 25.8145 18.6057 26.4865C18.2924 26.9772 17.7617 27.3598 17.1697 27.4065C16.1391 27.5305 15.0938 27.5319 14.0631 27.4212C13.7058 27.3292 13.2751 27.3185 13.0111 27.0385C12.8551 26.7039 13.0858 26.3279 13.4271 26.2479C12.8551 26.2839 12.251 26.2265 11.743 25.9465C11.3684 25.7092 11.5244 25.1412 11.8857 24.9785C12.4657 24.7105 13.1231 24.5638 13.7644 24.6745C14.2004 24.7425 14.7924 24.7399 15.0298 24.2932C15.1538 23.7172 15.3844 23.1732 15.6111 22.6319C14.7297 22.3959 13.8057 22.4892 12.9231 22.2732C12.1657 22.0745 11.4017 21.8852 10.6737 21.5945C10.0364 21.3852 9.48304 20.9958 8.8737 20.7252C7.89504 20.2065 6.9284 19.5919 6.23907 18.7105C5.5684 17.9532 5.22037 16.9798 4.87904 16.0412C4.72571 15.5332 4.48442 15.0332 4.49642 14.4932C4.46309 13.8679 4.59908 13.2545 4.68308 12.6412C4.74708 11.9532 5.04307 11.3212 5.21107 10.6612C5.62707 9.70785 6.18972 8.83452 6.62305 7.89185C6.75105 7.46385 7.06974 7.07851 6.97507 6.60384C7.04974 5.82918 6.32175 5.12652 5.55508 5.20918C5.12308 5.28252 4.7204 5.46918 4.36973 5.72518C3.18173 6.43585 1.87905 7.00919 0.489718 7.16652C0.152385 7.15986 -0.0983 6.77052 0.0377 6.46252C0.396367 5.57585 1.1537 4.92651 1.97103 4.47318C2.84303 3.96651 3.14443 2.94518 3.7351 2.18784C4.2311 1.41584 4.95371 0.811851 5.75105 0.361184" fill="#0A0A0B"/>
<path d="M5.57908 1.75052C5.88308 1.57185 6.53642 1.59184 6.55375 2.05584C6.55642 2.46384 6.1204 2.70518 5.77374 2.78784C5.3524 2.66518 5.11774 1.97719 5.57908 1.75052Z" fill="#0A0A0B"/>
<path d="M7.76577 11.4025C7.92977 11.3451 7.98705 11.3998 7.93771 11.5758C7.76571 11.6265 7.70844 11.5691 7.76577 11.4025Z" fill="#0A0A0B"/>
<path d="M16.0737 11.7651C15.851 11.7598 15.8204 11.3958 16.039 11.3705C16.8764 11.2585 17.711 11.4825 18.5364 11.6238C18.6004 11.4585 18.783 11.3691 18.9457 11.4705C18.9297 11.6025 18.9204 11.7398 18.9204 11.8838C19.203 12.1758 19.6217 12.1985 19.9844 12.3358C20.5324 12.5105 21.0791 12.6878 21.6351 12.8318C21.9404 12.9118 22.2457 13.0465 22.4337 13.3158C23.8244 13.4825 25.235 13.4091 26.631 13.3105C26.9297 13.2905 27.2337 13.1958 27.5364 13.2611C27.7897 13.3545 27.923 13.6985 27.6617 13.8718C26.6337 14.3985 25.439 14.1998 24.331 14.2198C24.7644 14.1265 25.211 14.2065 25.651 14.1505C25.5937 14.0478 25.371 14.1145 25.2737 14.0971C24.6537 14.0558 24.0284 14.2211 23.423 14.0465C22.8964 13.8985 22.3684 13.7505 21.8497 13.5798C21.1097 13.1771 20.2257 13.1345 19.5164 12.6638C19.2564 12.4985 19.0337 12.2625 18.7257 12.1945C17.8564 11.9785 16.9563 11.9051 16.0737 11.7651" fill="#0A0A0B"/>
<path d="M20.443 12.0212C20.619 11.7492 20.9323 11.6919 21.2377 11.7519C21.4137 11.7425 21.4777 12.0292 21.343 12.1305C21.0577 12.3118 20.6683 12.2718 20.443 12.0212Z" fill="#0A0A0B"/>
<path d="M21.443 12.2412C21.663 12.1172 21.9257 12.2518 22.1644 12.2705C23.0817 12.4465 24.0044 12.1732 24.923 12.2852C25.0177 12.4692 24.8457 12.6705 24.6537 12.6678C23.855 12.7212 23.063 12.9292 22.259 12.8198C21.9444 12.7612 21.5031 12.7998 21.3751 12.4398C21.3924 12.3905 21.4284 12.2892 21.443 12.2412" fill="#0A0A0B"/>
<path d="M7.37508 13.4932C7.50975 13.3318 7.75374 13.5812 7.59507 13.7225C7.45507 13.8625 7.23242 13.6252 7.37508 13.4932Z" fill="#0A0A0B"/>
<path d="M18.0124 13.5492C18.2644 13.4118 18.5297 13.5918 18.7431 13.7292C18.8857 13.8092 18.9284 13.9292 18.8671 14.0972C18.6484 14.1692 18.4324 14.0398 18.2457 13.9518C18.1111 13.8705 17.9004 13.7225 18.0124 13.5492Z" fill="#0A0A0B"/>
<path d="M16.187 14.5398C16.391 14.4825 16.579 14.6158 16.7177 14.7611C16.8444 15.0038 16.5271 15.0971 16.3471 15.0745C16.0977 15.0478 15.855 14.6331 16.187 14.5398Z" fill="#0A0A0B"/>
<path d="M24.031 14.7371C24.271 14.6385 24.4937 14.8171 24.731 14.8531C25.2164 14.9171 25.7097 14.8438 26.2017 14.8825C26.4084 14.8718 26.5604 15.0465 26.6524 15.2211C26.6337 15.4745 26.3297 15.6118 26.1057 15.6265C25.4577 15.6345 24.743 15.6798 24.207 15.2558C24.0203 15.1665 23.891 14.9091 24.031 14.7371" fill="#0A0A0B"/>
<path d="M13.3563 15.2598C13.5243 15.1985 13.583 15.2545 13.539 15.4265C13.363 15.4798 13.303 15.4265 13.3563 15.2598Z" fill="#0A0A0B"/>
<path d="M7.87103 15.3425C8.09503 15.1851 8.31637 15.4265 8.37103 15.6371C8.53103 15.8785 8.19375 16.2171 7.95508 16.0451C7.71508 15.8998 7.77103 15.5545 7.87103 15.3425Z" fill="#0A0A0B"/>
<path d="M13.6938 15.7865C13.8711 15.7745 14.1297 16.0678 13.8711 16.1705C13.6191 16.2825 13.3484 15.8425 13.6938 15.7865Z" fill="#0A0A0B"/>
<path d="M14.4764 16.3571C14.7831 16.2225 15.0484 16.4931 15.3471 16.5425C15.4431 16.4438 15.5698 16.2451 15.7338 16.3825C15.9618 16.5705 16.1818 16.8025 16.2858 17.0878C16.3071 17.5171 15.7098 17.4345 15.5884 17.1278C15.4484 16.7438 15.0097 16.8865 14.7177 16.7411C14.5657 16.6825 14.3764 16.5371 14.4764 16.3571" fill="#0A0A0B"/>
<path d="M28.1004 16.5091C28.2258 16.4531 28.3911 16.4518 28.4685 16.5958C28.5178 16.8451 28.2444 16.9771 28.0671 17.0851C27.8951 17.1918 27.5711 17.2451 27.5071 16.9958C27.4964 16.6825 27.8724 16.6065 28.1004 16.5091Z" fill="#0A0A0B"/>
<path d="M9.41103 16.9825C9.84703 17.0785 10.3631 17.4412 10.2684 17.9452C9.75239 18.0892 9.24036 17.4705 9.41103 16.9825Z" fill="#0A0A0B"/>
<path d="M24.971 17.2959C25.2643 17.2052 25.5871 17.2252 25.8911 17.2745C26.0297 17.2918 26.123 17.4412 26.0564 17.5772C25.791 17.8692 25.3283 17.9385 24.9737 17.7999C24.7483 17.7119 24.7737 17.3919 24.971 17.2959" fill="#0A0A0B"/>
<path d="M21.5298 18.1225C22.0418 18.0278 22.5658 18.0545 23.0858 18.0932C23.3071 18.1052 23.5685 18.2131 23.6578 18.4398C23.5405 18.6825 23.2578 18.8465 22.9858 18.8051C22.3978 18.7385 21.8138 18.6652 21.2231 18.6465C20.7698 18.6465 20.3244 18.7758 19.8738 18.7585C19.7364 18.7518 19.5631 18.5785 19.6725 18.4492C19.7805 18.2625 20.0178 18.2945 20.2044 18.2585C20.6404 18.1798 21.0885 18.1758 21.5298 18.1225" fill="#0A0A0B"/>
<path d="M13.2097 19.1358C13.4644 19.0612 13.6937 19.1745 13.8537 19.3772C14.0977 19.6772 14.4764 19.7945 14.7817 20.0172C14.927 20.1492 14.7791 20.3945 14.5884 20.3465C14.2257 20.3319 13.8924 20.1532 13.6391 19.9065C13.4271 19.6959 13.1937 19.4545 13.2097 19.1358Z" fill="#0A0A0B"/>
<path d="M15.511 19.5652C15.8923 19.4718 16.2336 19.7212 16.571 19.8625C16.7643 19.9398 16.6883 20.1652 16.7057 20.3278C16.3043 20.4265 15.8963 20.2612 15.5736 20.0372C15.419 19.9185 15.5057 19.7118 15.511 19.5652Z" fill="#0A0A0B"/>
<path d="M18.0551 19.6265C18.2791 19.5132 18.7111 19.6905 18.7031 19.9665C18.5164 20.2412 17.7751 19.9825 18.0551 19.6265Z" fill="#0A0A0B"/>
<path d="M21.4551 19.7012C21.8565 19.6278 21.4404 20.1798 21.3538 19.8225C21.3778 19.7892 21.4311 19.7292 21.4551 19.7012Z" fill="#0A0A0B"/>
</svg>
