<svg width="53" height="47" viewBox="0 0 53 47" fill="none" xmlns="http://www.w3.org/2000/svg">
<path d="M12.3767 3.09005C12.35 3.62338 12.1754 4.13431 12.0754 4.65831C12.138 4.75671 12.2113 4.84738 12.2833 4.95672C12.2953 5.19165 12.0473 5.31152 11.9167 5.47298C11.7593 5.60098 11.77 5.83698 11.618 5.97298C11.3647 6.07445 11.2474 5.66765 10.998 5.83965C10.782 6.03018 10.4593 6.07445 10.2527 6.23858C10.9447 6.23858 11.6033 6.55311 12.1247 6.99685C12.242 7.28751 12.2247 7.62911 12.4034 7.90205C12.63 8.24378 12.662 8.66351 12.7647 9.05578C12.8687 8.45151 13.062 7.86618 13.1394 7.25672C13.15 6.99432 13.322 6.76764 13.5833 6.71978C14.0807 6.60098 14.598 6.58751 15.1034 6.53018C14.7367 6.32245 14.3074 6.25939 13.9234 6.09272C13.6127 5.94219 13.182 6.05312 12.97 5.73858C12.834 5.24899 12.5954 4.78752 12.59 4.27298C12.578 3.86618 12.4713 3.47818 12.3767 3.09005ZM12.086 1.23858C12.1713 0.996851 12.5047 0.915648 12.6874 1.10365C12.8687 1.27711 12.842 1.55152 12.8967 1.78485C12.9953 2.45672 13.1527 3.11565 13.3007 3.77965C13.3887 4.16765 13.3567 4.58485 13.5167 4.96245C13.582 5.13431 13.7713 5.18392 13.9327 5.25152C14.3647 5.40778 14.7927 5.57711 15.2394 5.69951C15.7954 5.88485 16.282 6.21978 16.7954 6.49845C17.0714 6.54898 17.3887 6.66512 17.4674 6.97298C17.4447 7.23538 17.206 7.46512 16.9327 7.41565C16.37 7.34485 15.81 7.18645 15.242 7.28232C14.8207 7.36352 14.3914 7.38231 13.9807 7.49685C13.8687 8.19165 13.7661 8.89431 13.5141 9.55831C13.3927 9.89164 13.3087 10.2386 13.222 10.59C13.1607 10.7958 13.1567 11.0583 12.9474 11.1891C12.7234 11.3916 12.366 11.2624 12.27 10.9968C12.0634 10.501 12.1087 9.95152 11.942 9.44899C11.7914 8.83019 11.4327 8.28231 11.35 7.65058C10.946 7.32498 10.438 7.13965 9.92733 7.11298C9.35 7.07965 8.75934 7.00632 8.23 6.78232C7.826 6.56352 7.99801 5.95938 8.40735 5.88645C9.38735 5.81978 10.1953 5.18392 11.038 4.74899C11.2967 4.69165 11.3567 4.41298 11.4327 4.19951C11.6113 3.53018 11.654 2.83018 11.8633 2.16765C11.9647 1.86351 11.9833 1.53858 12.086 1.23858Z" fill="#040606"/>
<path d="M42.3337 16.4079C42.2031 16.7626 42.4151 17.2131 42.1004 17.5027C41.4884 17.885 40.8337 18.2157 40.2724 18.6662C40.9524 18.6891 41.5977 18.9318 42.235 19.161C42.8097 19.9533 43.2004 20.8746 43.399 21.8361C43.6044 20.8798 43.6457 19.8959 43.8204 18.9371C43.915 18.4782 44.471 18.4533 44.843 18.3694C45.3577 18.3506 45.8417 18.1719 46.3471 18.0985C45.9071 17.7918 45.3511 17.7959 44.8697 17.5823C44.5857 17.4266 44.255 17.5329 43.959 17.4558C43.611 17.1063 43.607 16.5798 43.4124 16.1585C43.1524 15.5875 43.1604 14.9449 42.9057 14.3746C42.8057 15.0746 42.5324 15.7318 42.3337 16.4079ZM42.479 12.085C42.807 11.8558 43.3404 12.1173 43.2857 12.5438C43.2751 13.4423 43.899 14.1719 44.0284 15.0413C44.083 15.5157 44.3457 15.9235 44.4364 16.3902C44.4564 16.5303 44.615 16.5746 44.7404 16.6038C45.087 16.6746 45.407 16.8386 45.7537 16.9131C46.451 17.0626 47.075 17.4209 47.759 17.6199C48.0657 17.7235 48.3963 17.7705 48.691 17.9209C49.1017 18.1449 48.9604 18.8637 48.471 18.8798C47.663 18.9011 46.8324 18.8985 46.059 19.1694C45.6604 19.309 45.2404 19.349 44.8204 19.3533C44.5684 19.4157 44.6684 19.7465 44.6111 19.9397C44.4164 20.9038 44.4177 21.9131 44.0391 22.8329C43.9337 23.1147 43.9297 23.4866 43.6404 23.661C43.4017 23.7542 43.055 23.7105 42.979 23.4293C42.803 22.861 42.5471 22.3225 42.3831 21.7517C42.1951 21.1481 41.9897 20.5199 41.591 20.0225C41.0937 19.8329 40.563 19.749 40.0457 19.6345C39.4404 19.6011 38.8297 19.5542 38.2564 19.349C37.9324 19.1694 37.899 18.6173 38.251 18.4533C39.0204 18.1147 39.819 17.8063 40.487 17.2839C40.7297 17.0875 41.047 16.9782 41.243 16.7345C41.2897 16.3823 41.2657 16.0157 41.4124 15.6866C41.7324 14.8902 41.7977 14.0079 42.1497 13.2209C42.2937 12.8506 42.115 12.3558 42.479 12.085Z" fill="#040606"/>
<path d="M29.6935 5.4944C29.2842 5.61986 28.8348 5.81573 28.6055 6.20106C29.0055 6.23706 29.4496 6.13546 29.8069 6.38493C30.1536 6.54906 30.1695 6.99693 30.1815 7.33026C30.3735 7.02093 30.2802 6.4824 30.6482 6.24747C31.0108 5.98653 31.4441 6.26106 31.8388 6.2636C31.7535 6.19333 31.6722 6.13027 31.5909 6.0704L31.4602 6.08653C31.0802 5.93186 30.7349 5.69587 30.3469 5.56C30.0202 5.2704 30.1162 4.77559 30.0909 4.38759C29.9056 4.73706 29.9402 5.1824 29.6935 5.4944ZM30.0855 2.10533C30.2735 1.89586 30.5455 2.04639 30.7522 2.14906C30.9402 3.06519 30.8122 4.00786 30.9988 4.92506C31.4215 5.18493 31.8496 5.47453 32.3562 5.54906C32.7496 5.61146 33.2535 5.73186 33.3882 6.1584C33.4748 6.70106 32.8095 6.8224 32.4255 6.94747C32.0362 7.13027 31.5922 7.00787 31.1935 7.09853C30.9868 7.76773 30.9362 8.48653 30.6736 9.14639C30.5522 9.40626 30.1949 9.49439 29.9415 9.37973C29.6562 9.16106 29.7468 8.76773 29.6268 8.47453C29.4682 8.07039 29.4002 7.64386 29.2522 7.2448C28.8189 7.172 28.3695 7.2396 27.9388 7.13546C27.5828 7.0704 27.0989 6.9772 27.0069 6.5652C26.9416 6.1532 27.3549 5.9448 27.6255 5.73707C28.1535 5.40373 28.6095 4.96359 29.1762 4.69013C29.2522 4.15159 29.5642 3.69586 29.7042 3.17719C29.8242 2.81826 29.8575 2.41986 30.0855 2.10533Z" fill="#040606"/>
<path d="M4.067 15.6997C4.05367 15.7648 4.02972 15.8971 4.01772 15.9648C3.92839 16.2409 3.83766 16.5221 3.75633 16.8065C3.95766 16.8809 4.16833 17.0169 4.131 17.2743C4.17233 17.5956 3.84433 17.7356 3.62833 17.8836C3.267 18.1861 2.76971 18.1528 2.34571 18.3169C2.66171 18.358 2.98971 18.4981 3.17104 18.7743C3.41104 19.0852 3.33504 19.4981 3.40704 19.8637C3.52838 19.6185 3.56171 19.3451 3.63771 19.0929C3.76971 18.8451 4.06702 18.7981 4.32169 18.7929C4.71636 18.7743 5.1017 18.6596 5.49637 18.6211C5.17237 18.5117 4.84435 18.4211 4.51635 18.3393C4.05635 18.1341 4.22304 17.5664 4.13504 17.1757C4.02704 16.6861 4.103 16.1836 4.067 15.6997ZM3.84304 14.082C4.04571 13.9211 4.41366 14.0008 4.459 14.2877C4.67233 14.9929 4.88033 15.7195 4.859 16.4675C4.823 16.8424 5.0017 17.1809 5.06036 17.5451C5.6057 17.7852 6.19767 17.894 6.73634 18.1544C7.10701 18.3289 7.61902 18.2169 7.88035 18.6049C8.09502 18.8743 7.79635 19.2304 7.51635 19.2929C6.99369 19.4101 6.46433 19.5247 5.92566 19.5247C5.43366 19.5195 4.97369 19.7383 4.48302 19.7304C4.31902 20.1997 4.24572 20.6945 4.08172 21.1675C3.93638 21.5716 3.96703 22.0716 3.62436 22.3836C3.32836 22.6727 2.8097 22.3612 2.79903 21.9861C2.7657 21.5143 2.64967 21.0555 2.60301 20.5904C2.57767 20.1784 2.38437 19.8008 2.36303 19.3913C1.94837 19.1836 1.47236 19.2195 1.02703 19.1451C0.667029 19.0877 0.212381 19.0409 0.0457144 18.6648C-0.111619 18.3997 0.166998 18.0997 0.428331 18.0664C0.800331 17.9861 1.12569 17.7795 1.48302 17.6544C1.90435 17.4836 2.36037 17.4128 2.77104 17.2143C2.90304 17.1675 2.90566 17.006 2.95633 16.9076C3.14433 16.2981 3.31502 15.6809 3.48302 15.0689C3.57635 14.7331 3.62171 14.3637 3.84304 14.082Z" fill="#040606"/>
</svg>
