<svg width="53" height="47" fill="none" xmlns="http://www.w3.org/2000/svg"><g clip-path="url(#a)"><path d="M14.5 13 10 15c0 1 1.5 2.5 3.5 2.5 1.6 0 2.333 3 2.5 4.5.5 3.167 1.8 9.8 3 11 1.5 1.5.5 13.5 1.5 13.5.8 0 1.333-9 1.5-13.5.333 0 1.3.2 2.5 1s1.833 8 2 11.5h1V33H34v12.5l1-.5 1-10.5 1-1.5 1 5.5-1 8h2L40.5 36 39 33c-.333-1.833-.5-5.3 1.5-4.5 2 .8 1.833-2.667 1.5-4.5-.667.5-2.4.9-4-1.5-2-3-9 1.5-14 1.5-4 0-5.333-6.667-5.5-10 0 0 1.845-2.687.5-3-1.218-.283-2 2-2 2h-1v-2.5h-1.5V13Z" fill="#fff"/><path d="M19.83 34.654c.108.538-.085 1.092.07 1.627.218.913.254 1.853.377 2.779.036.768.228 1.52.26 2.29.16 1.548.04 3.106.1 4.656a.855.855 0 0 0 .076-.405c-.028-.49.09-.964.157-1.444.14-.787.108-1.592.257-2.377a12 12 0 0 0 .155-1.736c.155-.834.101-1.69.072-2.532-.072-1.14-.076-2.284-.07-3.422-.41.35-.935.482-1.454.564Zm15.767-.845c-.643.352-1.124.92-1.647 1.416-.135 1.27.565 2.395.675 3.633.089 1.347-.083 2.69-.11 4.035-.01 1.041-.253 2.059-.293 3.1.393-.473.405-1.099.59-1.653.303-1.294.375-2.622.538-3.936-.004-.524.159-1.031.135-1.555-.002-.79.016-1.584-.023-2.37-.143-.643-.064-1.3-.099-1.942l.05-.017c.045.512-.015 1.033.048 1.549.157-.745-.08-1.524.136-2.26Zm5.037-8.605c.273 1.094.33 2.232.25 3.354.594.03.843-.548 1.097-.976.104-.46.169-.938.089-1.405-.136-.348-.327-.701-.635-.921-.265-.058-.538-.035-.801-.052ZM14.586 13.96c-.803.478-1.72.714-2.627.904-.484.1-.926.329-1.393.485.128.124.276.273.21.48-.029.23-.41.23-.411.464.177.219.39.435.673.516.355.087.67.308 1.044.328.435.036.859.16 1.245.365.596.298 1.262.584 1.624 1.178 1.04 1.908 1.674 4.002 2.255 6.088.06.416.223.805.357 1.206.17.72.478 1.399.712 2.099.38.828.564 1.74 1.043 2.521.221.35.4.755.739 1.015.966.87 2.212 1.308 3.336 1.93.329.231.744.131 1.1.251.165.3.293.619.416.942-.06.004-.178.017-.236.02.802.98.889 2.289 1.12 3.48.56 2.613.866 5.286.753 7.96.141-.6.277-1.206.388-1.812a6.82 6.82 0 0 1 .09-.731c.053-1.183.115-2.372-.04-3.55-.035-.625-.01-1.249-.091-1.869.006-1.002-.048-2.008.016-3.008.022-.336-.092-.661-.158-.985l.223.012c.04-.385-.015-.864.29-1.15.22-.223.52-.043.775-.022 1.274-.148 2.563-.004 3.838-.123.545-.121 1.113-.206 1.618-.462.622-.198 1.264-.375 1.822-.727.29-.196.614-.33.928-.483.098-.604.08-1.302.524-1.78.293-.182.294.254.29.439-.045.688-.108 1.38-.046 2.072.09.701.042 1.423.26 2.105.214 1.074.67 2.084.82 3.172.113.55.26 1.099.236 1.666-.024.904.066 1.817-.1 2.713-.03 1.112-.354 2.187-.48 3.285 0 .488-.07.974-.148 1.455.18-.01.362-.02.549-.025.037-.37.108-.73.195-1.084.008-.578.2-1.126.305-1.683.132-1.03.193-2.063.416-3.079.048-.608.241-1.197.288-1.805.072-.736.401-1.437.34-2.188-.056-.212-.101-.419-.19-.613-.415-1.02-.774-2.086-.79-3.194-.007-.577.237-1.104.357-1.658.12-.402.324-.771.452-1.171.26-.719.179-1.5.188-2.25-.08-.76-.03-1.555-.358-2.265-.372-.664-.855-1.285-1.491-1.714-.443-.27-.974-.308-1.458-.46-.686-.223-1.417-.187-2.126-.187-.744.004-1.441.279-2.124.539-.45.202-.943.262-1.396.452-.696.249-1.366.573-2.087.74a9.529 9.529 0 0 1-2.894.349c-.864-.028-1.784.11-2.566-.337-.442-.144-.524-.684-.933-.87-1.272-.744-1.984-2.085-2.716-3.306-.445-.991-1.024-1.992-1-3.114-.08-.538-.027-1.117-.308-1.604-.199-.43-.427-1.002-.992-.993-.192-.188-.12-.405-.013-.612-.196.128-.286.37-.487.495-.352-.172-.259-.56-.159-.854-.665-.038-1.398-.338-2.017.042Zm3.716-2.274c-.33.514-.488 1.108-.685 1.682.146.112.266.273.437.366.555-.573.948-1.454.636-2.241-.14.036-.314.048-.388.193Zm-3.179-.633c-.108.583.078 1.16.112 1.744.124.005.247.017.378.032-.071-.608-.044-1.297-.49-1.776Zm-.862-.71c.392-.28.913-.457 1.382-.258.606.27.955.955.96 1.597.007.466-.192.896-.44 1.279.224-.005.45.01.676.039.204-.604.38-1.228.7-1.78.36-.555 1.11-.56 1.698-.494.445.142.584.646.688 1.05.193.73-.118 1.462-.474 2.089-.174.299-.448.52-.67.779-.071.218.136.412.204.617.168.487.358.979.38 1.504.074.721.246 1.435.465 2.127.504.925 1.04 1.832 1.627 2.706.484.776 1.21 1.383 2.034 1.776.495.326 1.103.19 1.662.215 1.318.017 2.685.024 3.925-.49 1.124-.355 2.235-.742 3.347-1.129 1.344-.532 2.849-.47 4.238-.144.974.186 1.967.556 2.64 1.319.446.367.75.861 1.036 1.355.478-.598 1.544-.89 2.084-.218.882.863 1.082 2.23.702 3.374-.264.562-.544 1.226-1.172 1.458-.342.182-.736.094-1.1.04.218.258.065.574-.076.834-.25.434-.335.938-.603 1.365-.521.907-.419 2.02-.128 2.983.183.766.599 1.457.74 2.237.05.603-.17 1.179-.313 1.755-.09 1.092-.394 2.146-.515 3.234-.216 1.056-.399 2.12-.641 3.176-.071.604-.195 1.202-.303 1.8-.105.37-.375.783-.797.79-.406.012-.816-.02-1.203-.124-.376-.162-.657-.566-.59-.982.082-1.006.353-1.986.47-2.988.325-1.438.26-2.921.273-4.385.019-.888-.184-1.757-.382-2.615-.151-.35-.127-.744-.288-1.085.006.724.12 1.453.05 2.184.03.701.044 1.417-.104 2.112-.117.593-.112 1.205-.221 1.803-.148.794-.256 1.598-.483 2.377-.29.932-.42 1.935-.985 2.76-.307.401-.983.619-1.383.233-.436-.48-.282-1.177-.192-1.754.01-.624.16-1.232.135-1.855.037.225.03.463.09.695.084-.407-.067-.818.033-1.22.242-1.124.173-2.283.185-3.424a4.52 4.52 0 0 0-.154-1.263c-.206-.379-.255-.813-.35-1.225-.197-.763-.112-1.558-.057-2.327-.564-.013-1.12.113-1.683.088-.8-.033-1.595.127-2.39.064-.3-.028-.6-.01-.89.04-.164 1.503.045 3.015-.013 4.523-.068 1.176.08 2.35.012 3.53-.027 1.038-.142 2.079-.402 3.087-.13.495-.141 1.12-.598 1.448-.368.201-.783-.005-1.114-.185-.397-.651-.334-1.452-.33-2.182.046-1.12-.102-2.23-.176-3.341-.156-1.072-.344-2.141-.522-3.21a6.162 6.162 0 0 1-.2-1.146c-.21-.757-.37-1.577-.893-2.19-.439-.055-.87-.167-1.313-.193-.143.036-.096.223-.118.33-.077 1.9-.005 3.8-.136 5.698-.05.552.048 1.14-.194 1.663-.344.719-.167 1.54-.376 2.293-.104.406-.02.876-.31 1.216-.245.312-.196.778-.51 1.048-.309.318-.818.272-1.142.01a2.86 2.86 0 0 1-.208-.95 10.614 10.614 0 0 1 .05-2.354c-.004-1.114.08-2.236-.083-3.34-.037-.284-.05-.57-.067-.847-.082-.479-.076-.964-.102-1.447-.158-1.27-.291-2.55-.538-3.804-.05-1.065-.517-2.044-.954-2.994-.266-.884-.542-1.77-.904-2.62-.224-1.06-.712-2.04-.932-3.103-.1-.576-.352-1.112-.46-1.687-.222-1.001-.758-1.89-1.002-2.885-.09-.468-.4-.848-.586-1.277-.274-.574-.907-.79-1.43-1.06-.398-.224-.87-.16-1.3-.107-.248-.128-.43-.364-.685-.477-.179-.032-.352-.068-.525-.103-.652-.624-1.111-1.513-1.027-2.437.303-.338.661-.638 1.097-.784.576-.198 1.107-.514 1.706-.648a9.911 9.911 0 0 0 2.58-.987c-.075-.859-.274-1.72-.132-2.581" fill="#0A0A0B"/><path d="M14.697 14.734c.358-.161.749-.012 1.118.028.404.016.682.523.452.87-.293.349-.87.453-1.245.181-.207-.044-.425-.085-.552-.265-.279-.246-.108-.724.227-.814ZM17.946 22.412c.406-.098.482.697.06.673-.401.039-.415-.599-.06-.673ZM18.531 23.95c.382-.21.467.516.09.516-.262-.03-.32-.414-.09-.516ZM19.157 25.293a.424.424 0 0 1 .392-.01c.303.367.065 1.157-.503.993-.452-.18-.277-.831.11-.983M20.015 27.942c-.281-.546.05-1.208.575-1.454.245-.046.528.189.41.452-.173.436-.45.973-.985 1.002ZM20.998 29.42c-.34-.5-.052-1.41.616-1.396.39.008.453.473.337.765-.17.363-.516.725-.953.63ZM34.471 29.216c-.426.012-.674-.651-.196-.778.458-.014.352.51.196.778ZM30.663 28.824c.18-.083.343.105.463.222.252.308.345.71.434 1.095.067.27.002.588-.211.781-.14.126-.357.047-.467-.074-.227-.371-.124-.835-.318-1.218-.117-.266-.257-.666.1-.806ZM32.455 28.83c.179-.168.508-.085.616.13.194.316.444.692.28 1.07-.262.302-.662-.03-.772-.308-.106-.27-.357-.625-.124-.892ZM28.682 29.516c.165-.095.43-.067.513.129.218.443.387.943.308 1.445-.044.232-.245.39-.42.532-.35-.2-.349-.688-.38-1.052-.029-.346-.316-.762-.021-1.054M21.963 30.066c.312.014.478.414.375.684-.357.071-.655-.449-.375-.684Z" fill="#0A0A0B"/></g><defs><clipPath id="a"><path fill="#fff" d="M0 0h53v47H0z"/></clipPath></defs></svg>